<svg width="4741" height="3139" viewBox="0 0 4741 3139" fill="none" xmlns="http://www.w3.org/2000/svg">
<rect width="4741" height="3139" fill="white"/>
<path d="M333.289 1571.2C333.479 1572.91 334.209 1573.5 335.118 1574.86" stroke="black" stroke-width="3" stroke-linecap="round"/>
<path d="M334.76 1600.07C328.731 1600.74 324.109 1601.66 317.528 1601.03" stroke="black" stroke-width="3" stroke-linecap="round"/>
<path d="M313.699 1573.27C313.699 1571.91 313.699 1574.8 313.699 1575.18" stroke="black" stroke-width="3" stroke-linecap="round"/>
<path d="M284.34 1603.91C284.34 1604.66 284.34 1604.2 284.34 1604.94" stroke="black" stroke-width="6" stroke-linecap="round"/>
<path d="M305.484 1645.09C303.476 1645.34 302.082 1647.09 299.539 1647.15C277.304 1647.64 251.407 1620.01 238.943 1604.39C221.232 1582.19 214.909 1539.39 237.685 1517.84C256.228 1500.3 277.868 1502.9 297.424 1516.87C312.24 1527.45 307.575 1547.56 292.965 1557.63C266.471 1575.89 242.688 1534.68 239.286 1513.84C231.819 1468.1 256.128 1423.85 291.535 1396.76C309.402 1383.09 341.119 1365.52 358.534 1389.9C362.48 1395.43 366.964 1408.61 359.563 1413.57C342.59 1424.95 321.671 1398.31 324.463 1382.81C333.343 1333.53 391.886 1308.91 435.479 1303.7C466.523 1299.99 509.978 1294.47 533.119 1320.16C549.064 1337.87 559.594 1355.15 538.664 1372.64C520.803 1387.56 503.299 1375.06 495.961 1354.92C481.009 1313.89 547.093 1306.14 572.392 1302.73C603.435 1298.54 642.836 1297.83 672.26 1310.5C691.104 1318.62 719.377 1335.34 719.708 1359.03C719.906 1373.21 709.891 1386.44 699.586 1395.39C688.353 1405.15 661.691 1400.33 664.143 1381.79C667.996 1352.64 711.081 1354.65 731.599 1357.43C766.258 1362.13 796.165 1381.44 817.633 1408.83C832.547 1427.85 842.91 1452.72 845.988 1476.8C848.181 1493.96 849.975 1518.67 829.124 1524.01C812.336 1528.31 791.275 1517.65 790.137 1498.75C788.559 1472.56 822.574 1462.37 842.844 1464.1C895.968 1468.65 903.897 1528.79 903.897 1571.46C903.897 1609.26 887.272 1657.44 841.472 1654.58C822.14 1653.37 803.82 1642.66 787.164 1633.77C768.609 1623.87 751.021 1612.6 733.142 1601.59C710.877 1587.87 687.198 1576.07 664.657 1562.66C614.689 1532.93 560.799 1527.11 504.193 1539.79C475.792 1546.16 444.171 1557.54 426.447 1582.1C411.225 1603.18 432.573 1622.23 453.315 1626.23C481.19 1631.6 509.841 1621.14 530.832 1603.13C554.228 1583.06 555.456 1553.39 566.046 1526.13C576.625 1498.9 592.616 1467.3 620.011 1453.7C639.871 1443.84 667.711 1443.5 688.496 1450.79C700.214 1454.89 719.442 1465.14 719.994 1479.48C720.632 1496.06 702.831 1506.65 688.153 1508.58C664.763 1511.66 636.433 1496.77 617.495 1484.46C593.387 1468.79 573.096 1452.46 545.466 1442.72C502.372 1427.54 444.192 1418.34 401.923 1441.92C382.071 1453 370.943 1472.18 368.995 1494.69C367.947 1506.8 366.253 1526.56 376.598 1535.33C402.401 1557.21 447.004 1491.16 418.444 1482.4C398.88 1476.39 370.256 1519.48 364.479 1532.13C357.475 1547.47 355.441 1565.59 351.845 1581.98C348.42 1597.6 346.531 1613.05 349.159 1628.97C360.52 1697.79 455.314 1713.44 512.31 1699.97C535.994 1694.37 557.793 1679.68 582.167 1677.39C603.36 1675.4 626.361 1687.41 644.249 1697.74C660.332 1707.03 676.431 1720.32 694.727 1724.95C716.648 1730.5 736.518 1711.25 747.605 1695.28C752.719 1687.92 761.509 1679.29 761.382 1669.67C761.276 1661.64 757.462 1652.72 754.122 1645.55C746.765 1629.76 731.323 1621.34 714.334 1623.71C699.641 1625.76 692.315 1633.49 679.463 1639.72C661.169 1648.58 644.865 1640.27 627.042 1634.97C611.056 1630.23 591.511 1633.82 579.709 1646.81C573.14 1654.03 573.357 1667.31 573.249 1676.3C573.024 1695.07 576.57 1712.44 589.198 1726.95C613.059 1754.38 650.533 1762.64 672.089 1793.49C695.003 1826.3 689.728 1862.83 684.151 1900.28" stroke="black" stroke-width="6" stroke-linecap="round"/>
<path d="M304.136 1654.3C302.698 1652.69 301.714 1651.71 299.625 1650.69C276.178 1639.31 251.622 1631.52 235.379 1609.25C213.313 1578.99 224.317 1522.86 259.935 1506.67C282.867 1496.24 304.889 1504.14 311.352 1529.22C316.805 1550.37 291.899 1560.11 275.019 1554.63C255.159 1548.17 237.976 1532.41 232.472 1511.88C226.082 1488.05 237.984 1463.2 250.313 1443.52C266.324 1417.96 290.473 1387.43 320.974 1379.02C339.459 1373.93 360.789 1383.98 368.683 1401.53C373.843 1412.99 364.2 1425.81 351.544 1424.68C339.657 1423.62 329.144 1411.74 327.74 1400.27C326.477 1389.96 332.449 1379.44 337.512 1371.06C346.417 1356.3 357.204 1341.42 370.387 1330.16C385.251 1317.47 405.115 1314.47 423.809 1311.72C442.864 1308.92 462.014 1307.44 480.639 1313.42C497.855 1318.95 544.889 1335.53 539.724 1360.88C535.804 1380.13 509.648 1378.95 500.084 1365.59C480.093 1337.66 505.039 1312.43 530.754 1302.5C551.572 1294.46 575.22 1291.48 597.406 1293.73C622.556 1296.28 647.52 1308.48 670.924 1317.43C699.726 1328.45 725.412 1344.3 741.035 1371.76C768.176 1419.46 661.621 1435.37 664.86 1381.23C668.949 1312.89 780.777 1371.01 807.336 1393.71C826.04 1409.69 837.603 1426.52 844.421 1449.99C852.003 1476.08 849.053 1497.07 832.544 1518.39C816.886 1538.62 782.467 1541.98 770.803 1515.59C756.368 1482.92 802.809 1463.33 828.434 1467.98C848.367 1471.59 871.033 1480.38 883.761 1496.84C897.067 1514.06 905.279 1540.32 903.757 1561.89C901.941 1587.62 893.428 1652.87 857.1 1654.55C829.48 1655.83 806.614 1640.86 784.033 1627.04C760.158 1612.43 736.417 1598.71 713.121 1583.09C657.017 1545.47 596.139 1508.67 526.294 1518.19C499.01 1521.91 468.011 1533.47 449.368 1554.27C434.852 1570.47 422.779 1600.04 435.937 1620.23C471.367 1674.59 540.661 1632.78 568.741 1592.76C579.776 1577.04 586.033 1561.06 586.682 1541.95C587.703 1511.86 592.879 1488.65 611.238 1464.17C622.553 1449.08 645.921 1436.9 664.961 1439.31C686.39 1442.03 710.964 1469.01 711.166 1490.63C711.372 1512.71 695.246 1524.42 674.232 1525.41C637.912 1527.11 609.441 1499.07 583.073 1478.3C557.906 1458.48 530.948 1439.55 504.343 1421.67C484.08 1408.06 460.097 1395.14 435.035 1395.81C381.836 1397.23 337.508 1474.79 369.435 1520.1C390.969 1550.65 454.149 1531.54 453.377 1493.34C453.196 1484.38 441.818 1481.45 434.784 1481.16C422.101 1480.63 410.572 1487.54 401.358 1495.64C375.482 1518.4 364.912 1552.15 357.608 1584.79C352.696 1606.75 354.96 1633.64 365.676 1653.7C378.001 1676.78 410.46 1684.82 434.283 1686.48C446.92 1687.36 458.14 1686.45 469.814 1681.47C480.192 1677.04 489.452 1672.19 500.685 1670.34C516.479 1667.74 528.682 1666.96 544.285 1671.14C573.439 1678.96 600.289 1696.49 628.026 1708.13C662.615 1722.63 696.638 1733.82 734.119 1724.26C761.807 1717.2 810.82 1687.36 793.154 1652.65C784.031 1634.72 762.418 1627.56 743.741 1624.64C719.334 1620.81 700.107 1627.22 678.592 1638.17C664.419 1645.37 647.335 1644.18 632.186 1641.07C616.339 1637.83 588.12 1621.74 572.449 1630.25C559.022 1637.54 551.501 1656.57 551.501 1671.14C551.501 1695.64 568.068 1719.51 586.581 1734.19C614.795 1756.56 653.293 1768.77 672.428 1801.04C688.097 1827.47 685.307 1856.12 676.687 1884.33" stroke="black" stroke-width="6" stroke-linecap="round"/>
<path d="M2123.46 597.365C2105.72 552.036 2086.49 507.261 2066.73 462.783C2052.79 431.426 2055.7 438.459 2044.25 414.448C2043.28 412.41 2035.32 400.684 2044.05 404.97C2069.71 417.567 2093.75 434.809 2118.38 449.312C2131.57 457.079 2136.13 459.625 2148.3 467.116C2151.19 468.891 2154.04 470.709 2156.9 472.532C2159.01 473.879 2160.63 476.946 2163.13 476.729C2165.98 476.481 2165.83 471.665 2166.92 469.012C2177.03 444.248 2172.43 454.607 2185.87 422.977C2206.72 373.933 2227.3 324.286 2251.34 276.684C2256.76 265.941 2262.05 284.911 2264.54 289.682C2292.5 343.26 2319.31 397.424 2346.99 451.14C2351.62 460.118 2356.71 451.83 2363.38 446.536C2394.61 421.72 2424.22 393.073 2458.22 372.002C2462.82 369.153 2466.5 365.309 2466.95 373.152C2467.49 382.569 2463.32 408.674 2462.48 414.109C2456.22 454.616 2448.02 494.446 2431.48 532.105C2425.61 545.478 2420.69 548.782 2405.62 551.602C2358.85 560.354 2310.07 561.617 2262.64 562.298C2227.57 562.802 2192.62 560.809 2157.58 560.809" stroke="black" stroke-width="9" stroke-linecap="round"/>
<path d="M2122.5 595.801C2112.87 562.487 2099.77 530.422 2087.15 498.144C2081.01 482.442 2074.65 466.827 2068.58 451.096C2065.02 441.861 2061.28 432.682 2058.28 423.248C2057.36 420.345 2054.66 416.304 2056.88 414.22C2058.89 412.334 2062.04 416.189 2064.51 417.399C2076.03 423.031 2091.74 432.144 2102.28 437.998C2116.64 445.976 2136.15 460.338 2152.76 464.32C2163.38 466.864 2172.46 440.856 2174 437.744C2191.23 402.733 2206.31 366.716 2222.7 331.313C2231.94 311.335 2241.11 287.442 2254.87 269.642C2260.65 262.162 2267.51 241.3 2274.07 256.29C2293.57 300.858 2315.17 344.55 2333.07 389.806C2335.26 395.347 2355.01 468.196 2364.86 468.643C2373.1 469.018 2387.51 454.406 2392.2 450.46C2406.15 438.728 2419.1 426.056 2431.74 412.948C2442.47 401.826 2452.73 386.204 2465.31 377.09C2469.78 373.856 2462.03 407.157 2461.75 408.625C2455.61 441.341 2450.06 473.937 2444.84 506.791C2443.07 517.926 2439.57 561.988 2426.53 567.445C2416.78 571.528 2400.76 569.78 2390.8 570.115C2367.59 570.897 2344.42 571.545 2321.24 573.167C2277.36 576.239 2233.65 581.133 2189.64 581.941C2180.32 582.112 2172.22 582.622 2163.7 579.779" stroke="black" stroke-width="9" stroke-linecap="round"/>
<path d="M2351.14 256.121C2350.65 255.144 2349.9 257.933 2349.44 258.924C2345.72 266.931 2341.92 274.896 2338.14 282.875" stroke="black" stroke-width="13" stroke-linecap="round"/>
<path d="M2404.64 341.733C2398.01 343.556 2391.45 345.414 2384.77 347.083" stroke="black" stroke-width="13" stroke-linecap="round"/>
<path d="M2164.63 262.236C2163.96 261.491 2162.8 260.787 2164.07 261.981C2170 267.534 2176.27 272.732 2182.21 278.288" stroke="black" stroke-width="13" stroke-linecap="round"/>
<path d="M2121.31 360.603C2120.68 359.874 2123.1 361.298 2123.95 361.746C2132.1 366.042 2140.22 370.356 2148.31 374.749" stroke="black" stroke-width="13" stroke-linecap="round"/>
<path d="M4373.68 1332.07C4363.67 1339.14 4350.06 1342.22 4339.29 1348.3C4288.1 1377.18 4253.6 1419.89 4219.72 1466.66C4200.46 1493.25 4183.34 1520.83 4170.66 1551.22C4160.86 1574.7 4153.06 1599.05 4145.69 1623.37C4140.48 1640.57 4134.63 1658.44 4132.5 1676.4C4130.12 1696.5 4139.61 1723.52 4161.72 1727.49C4187.11 1732.05 4211.31 1715.86 4230.2 1701.03C4289.53 1654.43 4338.87 1591.14 4374.45 1524.86C4398.33 1480.38 4426.84 1424.46 4419.41 1372.15C4415.4 1343.91 4387.37 1332.43 4362.38 1340.76" stroke="black" stroke-width="8" stroke-linecap="round"/>
<path d="M4128.44 1366.39C4131.29 1378.3 4129.12 1392.09 4130.77 1404.34C4138.63 1462.59 4165.51 1510.46 4196.4 1559.26C4213.96 1587 4233.22 1613.13 4256.75 1636.17C4274.93 1653.96 4294.66 1670.24 4314.51 1686.1C4328.56 1697.31 4342.98 1709.36 4358.88 1717.99C4376.66 1727.65 4405.28 1728.86 4417.16 1709.79C4430.8 1687.9 4424.74 1659.42 4417.96 1636.38C4396.67 1564 4356.17 1494.72 4307.79 1437.11C4275.32 1398.45 4233.95 1351.25 4182.62 1338.77C4154.9 1332.02 4133.85 1353.81 4132.33 1380.11" stroke="black" stroke-width="8" stroke-linecap="round"/>
<path d="M4061.58 1580.89C4073.4 1584.13 4084.42 1592.68 4095.96 1597.14C4150.79 1618.31 4205.69 1617.83 4263.33 1614.28C4296.1 1612.25 4328.28 1607.96 4359.81 1598.44C4384.16 1591.09 4407.92 1581.65 4431.39 1571.89C4447.98 1564.99 4465.49 1558.15 4480.71 1548.38C4497.74 1537.45 4512.59 1512.96 4501.61 1493.36C4488.99 1470.85 4461.12 1462.45 4437.66 1457.29C4363.98 1441.07 4283.76 1443.18 4209.97 1457.81C4160.45 1467.64 4099.15 1481.14 4063.48 1520.11C4044.22 1541.15 4053.16 1570.09 4075.47 1584.09" stroke="black" stroke-width="8" stroke-linecap="round"/>
<path d="M4353.64 1338.45C4354.46 1337.53 4354.56 1336.87 4354.56 1335.68" stroke="#1F1F1F" stroke-width="13" stroke-linecap="round"/>
<path d="M4165.18 1337.52H4166.1" stroke="#1F1F1F" stroke-width="13" stroke-linecap="round"/>
<path d="M4365.71 1736.79C4364.81 1735.47 4362.71 1734.58 4361.36 1733.76C4346.68 1724.79 4330.5 1718.9 4316.11 1709.12C4293.32 1693.63 4275.26 1673.29 4258.75 1651.44C4236.57 1622.1 4215.95 1591.45 4197 1559.94C4169.56 1514.34 4142.83 1461.99 4131.12 1409.43C4125.31 1383.39 4119.36 1346.8 4136.73 1323.6C4149.26 1306.88 4164.58 1308.02 4181.72 1314.84C4226.97 1332.87 4267.92 1371.51 4297.21 1409.44C4323.09 1442.96 4347.31 1476.24 4366.66 1514.11C4385.04 1550.08 4399.36 1587.2 4409.83 1626.19C4418.51 1658.51 4426.27 1709.93 4391.59 1730.35" stroke="#1F1F1F" stroke-width="13" stroke-linecap="round"/>
<path d="M4409.54 1329.02C4408.87 1330.48 4409.19 1332.74 4409.18 1334.31C4409.07 1351.51 4412.36 1368.42 4411.4 1385.79C4409.88 1413.3 4401.77 1439.26 4391.57 1464.68C4377.86 1498.81 4362.23 1532.28 4345.02 1564.77C4320.1 1611.8 4289.02 1661.69 4250.03 1698.83C4230.72 1717.24 4202.44 1741.2 4173.6 1738.28C4152.82 1736.17 4145.89 1722.46 4142.9 1704.25C4135.01 1656.19 4147 1601.18 4164.39 1556.52C4179.76 1517.06 4195.78 1479.15 4218.25 1443.04C4239.6 1408.74 4264.02 1377.33 4292.02 1348.26C4315.24 1324.15 4355.29 1290.99 4390.68 1310.17" stroke="#1F1F1F" stroke-width="13" stroke-linecap="round"/>
<path d="M4044.16 1517.67C4045.75 1517.49 4047.53 1516.06 4048.88 1515.26C4063.69 1506.51 4076.5 1494.99 4091.89 1486.88C4116.27 1474.03 4142.7 1467.64 4169.75 1463.32C4206.07 1457.52 4242.81 1453.71 4279.53 1451.77C4332.68 1448.96 4391.45 1449.96 4443.35 1464.29C4469.07 1471.4 4504.16 1483.32 4516.49 1509.56C4525.37 1528.47 4517.17 1541.46 4503.09 1553.39C4465.93 1584.88 4412.58 1602.87 4365.34 1610.92C4323.59 1618.04 4282.84 1623.79 4240.32 1623.09C4199.93 1622.42 4160.43 1617.63 4121.09 1608.56C4088.48 1601.05 4039.44 1583.75 4037.69 1543.54" stroke="#1F1F1F" stroke-width="13" stroke-linecap="round"/>
<path d="M4039.54 1513.97C4022.62 1513.97 4030.82 1546.05 4048.11 1540.41C4064.21 1535.15 4054.33 1512.1 4038.52 1515.62C4015.56 1520.72 4027.52 1554.22 4047.6 1544.56C4062 1537.64 4045.41 1512.83 4038.46 1522.49C4034.63 1527.83 4043.97 1532.22 4044.57 1526.7C4044.9 1523.71 4040.95 1521.42 4038.72 1523.83C4035.03 1527.79 4042.41 1532.62 4046.01 1530.6C4052.53 1526.95 4043.96 1511.92 4038.52 1518.59C4029.6 1529.52 4049.4 1533.45 4048.11 1524.44C4046.99 1516.57 4032.83 1515.38 4038.57 1523.73C4043.5 1530.89 4045.39 1521.76 4044.16 1517.67" stroke="#1F1F1F" stroke-width="13" stroke-linecap="round"/>
<path d="M4393.29 1309.46C4376.66 1310.13 4379.85 1335.28 4398.78 1332.05C4408.4 1330.4 4417.74 1321.44 4413.51 1311.21C4410.61 1304.19 4397.41 1297.84 4395.45 1309.36C4393.32 1321.84 4414.43 1332.71 4419.67 1318.6C4423.91 1307.21 4405.63 1297.16 4399.5 1308.69C4395.51 1316.2 4405.98 1322.77 4409.41 1315.31C4412.99 1307.51 4402.23 1310.01 4399.76 1315.93" stroke="#1F1F1F" stroke-width="13" stroke-linecap="round"/>
<path d="M4381.29 1724.03C4375.5 1721.45 4371.34 1725.33 4370.05 1731.27C4365.25 1753.38 4395.8 1744.73 4389.3 1729.78C4378.84 1705.72 4363.93 1747.16 4380.68 1742.1C4387.39 1740.07 4369.94 1735.19 4378.21 1741.07C4381.97 1743.74 4384.65 1740.59 4385.04 1736.81C4385.76 1729.82 4381.61 1732.12 4378.52 1728.65" stroke="#1F1F1F" stroke-width="13" stroke-linecap="round"/>
<path d="M4264.03 1503.81C4263.87 1505.11 4257.66 1505.52 4256.43 1505.86C4229.5 1513.41 4228.45 1552.18 4254.79 1561.19C4270.15 1566.45 4286.02 1564.05 4295.8 1550.88C4300.79 1544.15 4305.69 1537.27 4303.34 1528.55C4300.9 1519.46 4293.01 1507.45 4284.61 1502.99C4271.89 1496.24 4261.01 1506.59 4252.02 1513.97" stroke="#1F1F1F" stroke-width="13" stroke-linecap="round"/>
<path d="M4274.19 1501.04C4259.52 1501.04 4237.07 1503.27 4238.98 1524.03C4240.42 1539.65 4258.78 1549.54 4273.06 1545.02C4290.53 1539.51 4285.1 1507.6 4266.75 1511.97C4248.81 1516.24 4248.62 1541.3 4267.52 1544.15C4294.74 1548.26 4282.3 1507.36 4270.6 1518.49C4267.92 1521.04 4263.99 1536.52 4271.88 1532.04C4277.88 1528.63 4270.85 1526.39 4278.09 1526.39C4281.99 1526.39 4278.66 1517.9 4276.81 1523.21C4275.7 1526.38 4276.48 1528.74 4278.81 1530.6" stroke="#1F1F1F" stroke-width="13" stroke-linecap="round"/>
<path d="M3831.37 2255.01C3835.25 2254.15 3842.22 2243.44 3844.15 2241.27C3869.41 2212.97 3895.44 2185.06 3921.88 2157.85C3936.99 2142.29 3961.01 2116.53 3985.19 2120.39C3997.41 2122.34 4004.02 2133.58 4001.45 2145.01C3998.53 2158 3988.3 2169.26 3980.87 2179.95C3965.39 2202.2 3946.51 2222.71 3929.24 2243.55C3915.53 2260.11 3899.34 2275.39 3886.7 2292.75C3885.77 2294.03 3882.45 2299.5 3880.99 2299.5" stroke="black" stroke-width="8" stroke-linecap="round"/>
<path d="M3827.09 2263.57C3830.84 2263.98 3837.38 2270.31 3840.21 2272.03C3852.23 2279.29 3866.62 2286.15 3875.87 2296.94" stroke="black" stroke-width="8" stroke-linecap="round"/>
<path d="M3827.95 2266.13C3827.24 2265.61 3827.24 2265.77 3827 2266.75C3824.58 2276.4 3820.95 2285.63 3817.73 2295.04C3813.35 2307.83 3812.07 2321.51 3807.89 2334.06C3807.8 2334.31 3807.72 2334.63 3808.08 2334.4C3815.02 2329.85 3822.67 2326.27 3830.04 2322.51C3833.54 2320.73 3869.2 2299.69 3871.59 2302.07" stroke="black" stroke-width="8" stroke-linecap="round"/>
<path d="M3802.28 2343.14C3801.98 2345.8 3798.62 2348.62 3798 2351.7" stroke="black" stroke-width="8" stroke-linecap="round"/>
<path d="M3948.01 2149.98C3956.93 2159.79 3967.21 2167.64 3977.73 2175.73" stroke="black" stroke-width="8" stroke-linecap="round"/>
<path d="M3796.68 2358C3801.55 2358.61 3793.39 2373.07 3792.09 2375.86C3767.28 2429.03 3725.92 2487.88 3676.54 2519.97C3634.13 2547.54 3516.44 2586.58 3519.92 2495.23C3520.61 2477.32 3536.11 2435.84 3562.27 2446.26C3592.93 2458.47 3596.87 2505.84 3591.09 2532.47C3580.32 2582.04 3526.7 2639.1 3481.41 2660.52C3429.27 2685.17 3380.91 2644.69 3342.39 2614.1C3276.52 2561.77 3214.45 2503.11 3140.88 2461.31C3101.14 2438.73 3058.26 2427.69 3012.58 2426.11C2990.72 2425.34 2963.42 2426.95 2942.18 2433.25C2888.54 2449.15 2933.89 2441.98 2883 2463.6" stroke="black" stroke-width="8" stroke-linecap="round"/>
<path d="M2920.42 292.955C2913.2 286.638 2914.95 297.215 2915.91 302.258C2932.13 387.43 2982.23 464.727 3036.84 530.022C3125.17 635.641 3247.67 684.141 3386.38 663.637C3465.12 651.996 3703 549.2 3620.91 431.926C3599.28 401.024 3514.37 363.484 3510.69 430.516C3506.4 508.525 3605.2 578.191 3663.47 607.541C3734.12 643.125 3819.64 657.633 3898 645.878C3978.05 633.87 4065.08 581.312 4147.19 608.105C4216.02 630.564 4250.96 695.97 4270.09 759.76" stroke="black" stroke-width="8" stroke-linecap="round"/>
<path d="M805.267 1241.16C791.824 1241.83 779.435 1248.61 767.271 1253.83" stroke="black" stroke-width="17" stroke-linecap="round"/>
<path d="M617.818 1127.17C615.886 1125.72 621.748 1163.99 622.884 1170.24" stroke="black" stroke-width="17" stroke-linecap="round"/>
<path d="M405.037 1114.51C411.288 1102.01 417.263 1139.66 422.769 1152.5" stroke="black" stroke-width="17" stroke-linecap="round"/>
<path d="M184.658 1243.7C188.179 1238.41 229.178 1265.47 235.32 1269.03" stroke="black" stroke-width="17" stroke-linecap="round"/>
<path d="M96 1426.08C112.107 1426.08 128.389 1421.48 144.129 1418.48" stroke="black" stroke-width="17" stroke-linecap="round"/>
<path d="M1380 2613.69C1325.46 2587.76 1269.55 2564.4 1218.1 2532.56C1214.85 2530.55 1211.37 2529.66 1207.72 2528.59C1202.93 2527.18 1199.3 2526.37 1194.41 2528.41C1171.94 2537.79 1151.18 2554.85 1130.62 2567.6C1097.09 2588.39 1062.36 2609.2 1026.17 2625.17C1026.09 2625.2 1020.93 2627.05 1021.89 2627.97C1025.02 2630.98 1029.83 2631.49 1033.86 2633.1C1049.69 2639.46 1054.56 2641.53 1071.34 2649.22C1097.49 2661.2 1123.4 2673.73 1149.48 2685.85C1165.97 2693.51 1170.19 2695.34 1185.44 2702.82C1187.53 2703.85 1198.55 2709.86 1202.66 2710.76C1209.45 2712.24 1220.3 2702.31 1224.57 2699.52C1254.05 2680.25 1283.92 2661.65 1313.95 2643.24C1332.06 2632.13 1350.24 2618.34 1370.11 2610.39" stroke="black" stroke-width="8" stroke-linecap="round"/>
<path d="M1311.87 2663.14C1311.87 2690.9 1312.9 2719.46 1309.55 2747.08C1309.19 2750.06 1307.37 2751.11 1304.79 2752.51C1294.2 2758.31 1282.75 2762.61 1271.09 2765.7C1243.28 2773.06 1213.1 2779.52 1184.34 2780.66C1150.35 2782 1111.35 2776.05 1085.02 2752.51C1076.24 2744.66 1078.87 2736.31 1078.98 2724.61C1079.18 2703.39 1080.01 2682.17 1080.01 2660.94" stroke="black" stroke-width="8" stroke-linecap="round"/>
<path d="M1036.06 2632.37C1034.74 2679.9 1029.96 2726.64 1034.96 2774.13" stroke="black" stroke-width="8" stroke-linecap="round"/>
<path d="M1036.06 2780.72V2789.51" stroke="black" stroke-width="8" stroke-linecap="round"/>
<path d="M1036.06 2789.51C1032.9 2800.39 1023.45 2808.3 1019.94 2818.93C1018.38 2823.67 1015.44 2828.87 1022.63 2830.04C1031.45 2831.47 1042.04 2830.7 1050.83 2829.07C1059.99 2827.37 1040.24 2793.48 1037.16 2787.31" stroke="black" stroke-width="8" stroke-linecap="round"/>
<path d="M1030.57 2820.28C1032.02 2816.65 1039.07 2807.61 1035.82 2809.78C1032.81 2811.79 1033.17 2821.41 1032.76 2824.67" stroke="black" stroke-width="8" stroke-linecap="round"/>
<path d="M1202.85 2533.28C1247.74 2549.39 1288.85 2576.76 1330.15 2600.24C1344.1 2608.17 1358.43 2616.52 1371.55 2625.7C1374.61 2627.84 1372.17 2628.08 1368.77 2629.45C1337.57 2642.01 1385.01 2620.75 1337.64 2641.22C1301.27 2656.92 1267.46 2677.35 1233.77 2698.02C1221.56 2705.5 1207.12 2719.13 1191.83 2713.42C1164.61 2703.25 1138.68 2688.07 1112.14 2676.2C1078.05 2660.94 1047.33 2647.76 1021.21 2621.64C1016.13 2616.56 1032.55 2612.66 1038.97 2609.44C1066.7 2595.58 1094.49 2581.83 1122.62 2568.79C1149.88 2556.16 1179.69 2546.15 1204.78 2529.43" stroke="black" stroke-width="8" stroke-linecap="round"/>
<path d="M1086.03 2675.13C1086.03 2672.02 1086.21 2687.71 1086.51 2690.46C1088.39 2707.56 1087.28 2742.96 1099.7 2756.19C1136.75 2795.64 1192.11 2796.92 1242.1 2785.78C1251.17 2783.76 1260.42 2780.76 1268.72 2776.51C1276.73 2772.42 1286.52 2770.93 1293.8 2765.58C1302.72 2759.01 1307.43 2760.46 1308.3 2749.53C1309.55 2733.9 1309.77 2717.78 1309.61 2702.11C1309.55 2696.09 1310.99 2667.45 1307.47 2666.57" stroke="black" stroke-width="8" stroke-linecap="round"/>
<path d="M1044.32 2650.52C1043.11 2649.46 1044.75 2680.94 1044.74 2682.31C1044.44 2720.59 1045.39 2758.8 1045.39 2797.07" stroke="black" stroke-width="8" stroke-linecap="round"/>
<path d="M1043.25 2802.43C1043.25 2799.53 1029.46 2823.93 1028.27 2829.59C1027.52 2833.16 1054.49 2828.39 1059.65 2828.1C1060.69 2828.04 1050.25 2810.43 1045.39 2812.05" stroke="black" stroke-width="8" stroke-linecap="round"/>
<path d="M1019.45 2539.34C1026.44 2547.24 1033.63 2554.88 1040.88 2562.55" stroke="black" stroke-width="17" stroke-linecap="round"/>
<path d="M1169.42 2459C1172.64 2463.29 1173.52 2473.86 1174.77 2478.64" stroke="black" stroke-width="17" stroke-linecap="round"/>
<path d="M1371.15 2512.56C1364.77 2520.45 1358.25 2528.19 1351.51 2535.77" stroke="black" stroke-width="17" stroke-linecap="round"/>
<path d="M2300.61 2609.68C2305.21 2603.53 2314.19 2600.25 2320.92 2597.58C2349.03 2586.44 2381.99 2580.12 2412.28 2582.6C2431.09 2584.14 2448.65 2589.83 2464.27 2600.39C2470.61 2604.68 2478.87 2613.37 2486.7 2614.91C2489.19 2615.4 2490.03 2614.36 2492.11 2612.83C2500.3 2606.79 2508.05 2600.78 2517.06 2595.88C2539.1 2583.9 2564.53 2575.1 2589.35 2571.27C2623.87 2565.95 2662.95 2569.3 2694.34 2585.75C2701.66 2589.58 2719.18 2597.16 2717.42 2607.55C2711.04 2645.15 2705.94 2683.27 2701.07 2721.09C2695.36 2765.42 2692.62 2810.19 2689.15 2854.74C2687.86 2871.22 2685.98 2887.7 2685.06 2904.21C2684.57 2912.95 2683.85 2907.82 2679.44 2903.36C2656.66 2880.31 2616.22 2873.21 2585.52 2868.91C2550.01 2863.95 2514.89 2867.32 2480.15 2875.85C2473.22 2877.55 2473.7 2878.72 2473.89 2884.88C2473.95 2886.91 2470.34 2882.9 2468.65 2881.77C2462.07 2877.36 2454.76 2874.07 2447.41 2871.17C2416.19 2858.85 2374.12 2849.75 2343.44 2868.11C2327.79 2877.47 2319.26 2889.99 2311.8 2906.04C2311.27 2907.19 2307.77 2912.37 2306.53 2909.66C2302.02 2899.85 2303.95 2882.45 2303.76 2872.02C2302.97 2828.69 2305.34 2785.35 2304.44 2742C2303.54 2698.59 2308.35 2653.13 2298.31 2610.44" stroke="black" stroke-width="8" stroke-linecap="round"/>
<path d="M2305.35 2591.95C2354.25 2554.33 2433.19 2557.26 2483.58 2589.69C2489.52 2593.51 2494.18 2600.24 2498.22 2606.02C2499.27 2607.52 2500.35 2602.34 2501.79 2600.64C2512.82 2587.61 2532.99 2580.62 2548.24 2574.45C2583.08 2560.34 2616.87 2557.57 2654.32 2562.89C2673.28 2565.59 2707.49 2571.53 2717.88 2592.3C2719.1 2594.74 2717.39 2598.36 2716.89 2600.71C2713.17 2618.07 2712.12 2636.01 2711.37 2653.7C2708.63 2718.32 2705.65 2782.92 2699.21 2847.28C2698.11 2858.31 2699.1 2869.22 2699.46 2880.26C2699.52 2882.14 2698.33 2880.27 2697.73 2879.69C2690.66 2872.87 2681.74 2867.75 2672.7 2864C2653.8 2856.15 2631.16 2855.31 2611.02 2852.86C2594.2 2850.82 2577.6 2849.93 2560.68 2851.02C2542.38 2852.21 2522.29 2853.78 2505.71 2862.37C2498.8 2865.95 2493.63 2871.15 2489.1 2877.36C2487.46 2879.6 2486.45 2877.28 2484.78 2875.73C2437.49 2831.89 2353.45 2837.44 2309.98 2883.69C2306.26 2887.64 2299.18 2902.28 2300.65 2897.05C2302.29 2891.22 2302.37 2885.36 2303.09 2879.41C2304.23 2870.02 2306.97 2861.38 2307.26 2851.8C2307.68 2838.16 2308.71 2824.54 2309.03 2810.9C2309.9 2772.81 2304.3 2734.46 2302.2 2696.48C2300.57 2666.88 2299.71 2636.33 2301.96 2606.72C2302.1 2604.82 2304.09 2568.72 2303.44 2569.04" stroke="black" stroke-width="8" stroke-linecap="round"/>
<path d="M2498.15 2608.12C2496.17 2596.28 2496.92 2632.11 2496.45 2644.11C2495 2681.5 2491.28 2718.77 2489.89 2756.14C2488.44 2795.19 2487.13 2834.32 2485.63 2873.31" stroke="black" stroke-width="8" stroke-linecap="round"/>
<path d="M2281 2457.84C2291 2463.27 2298.54 2469.62 2307.32 2476.65" stroke="black" stroke-width="17" stroke-linecap="round"/>
<path d="M2521.67 2424C2522.17 2439.5 2523.06 2453.89 2521.67 2469.13" stroke="black" stroke-width="17" stroke-linecap="round"/>
<path d="M2781.14 2484.17C2762.14 2488.92 2745.58 2512.21 2732.26 2525.53" stroke="black" stroke-width="17" stroke-linecap="round"/>
<path d="M4002.97 1235.9C3994.7 1240.03 4041.76 1292.34 4046.78 1298.47" stroke="black" stroke-width="17" stroke-linecap="round"/>
<path d="M4290.83 1117C4296.9 1148.14 4297.08 1179.25 4297.08 1210.87" stroke="black" stroke-width="17" stroke-linecap="round"/>
<path d="M4609.97 1317.25C4594.93 1318.75 4579.74 1324.33 4566.16 1329.76" stroke="black" stroke-width="17" stroke-linecap="round"/>
<path d="M3958.1 2096.72C3957.52 2092.52 3957.08 2088.37 3956.7 2084.16" stroke="black" stroke-width="17" stroke-linecap="round"/>
<path d="M4013.91 2105.09C4018.22 2102.01 4022.23 2098.49 4026.47 2095.32" stroke="black" stroke-width="17" stroke-linecap="round"/>
<path d="M4026.47 2144.16C4032.91 2145.03 4037.91 2149.12 4043.21 2152.53" stroke="black" stroke-width="17" stroke-linecap="round"/>
<path d="M1592.75 288.817C1506.59 308.699 1424.37 343.276 1338.12 363.746C1237.74 387.57 1105.96 418.168 1005.25 375.681C975.676 363.204 940.361 332.741 924.356 304.731C916.326 290.68 900.376 249.942 938.281 251.021C1007.18 252.981 1096.76 321.285 1123.28 383.638C1159.43 468.606 1110.84 596.179 1065.59 666.777C999.881 769.304 906.506 861.689 805 927.37" stroke="black" stroke-width="8" stroke-linecap="round"/>
</svg>
