<svg width="4741" height="3898" viewBox="0 0 4741 3898" fill="none" xmlns="http://www.w3.org/2000/svg">
<rect width="4741" height="3898" fill="white"/>
<path d="M391.289 756.203C391.479 757.91 392.209 758.498 393.118 759.861" stroke="black" stroke-width="3" stroke-linecap="round"/>
<path d="M392.76 785.074C386.731 785.744 382.109 786.659 375.528 786.032" stroke="black" stroke-width="3" stroke-linecap="round"/>
<path d="M371.699 758.27C371.699 756.907 371.699 759.802 371.699 760.185" stroke="black" stroke-width="3" stroke-linecap="round"/>
<path d="M342.34 788.914C342.34 789.657 342.34 789.199 342.34 789.943" stroke="black" stroke-width="6" stroke-linecap="round"/>
<path d="M363.484 830.092C361.476 830.343 360.082 832.094 357.539 832.15C335.304 832.644 309.407 805.011 296.943 789.39C279.232 767.194 272.909 724.389 295.685 702.841C314.228 685.297 335.868 687.901 355.424 701.869C370.24 712.452 365.575 732.559 350.965 742.628C324.471 760.888 300.688 719.677 297.286 698.839C289.819 653.103 314.128 608.851 349.535 581.763C367.402 568.095 399.119 550.523 416.534 574.904C420.48 580.429 424.964 593.609 417.563 598.57C400.59 609.948 379.671 583.311 382.463 567.815C391.343 518.531 449.886 493.906 493.479 488.697C524.523 484.988 567.978 479.466 591.119 505.161C607.064 522.867 617.594 540.149 596.664 557.639C578.803 572.564 561.299 560.055 553.961 539.918C539.009 498.888 605.093 491.139 630.392 487.726C661.435 483.537 700.836 482.828 730.26 495.5C749.104 503.615 777.377 520.341 777.708 544.034C777.906 558.209 767.891 571.442 757.586 580.391C746.353 590.146 719.691 585.334 722.143 566.786C725.996 537.635 769.081 539.655 789.599 542.433C824.258 547.127 854.165 566.442 875.633 593.825C890.547 612.848 900.91 637.719 903.988 661.796C906.181 678.958 907.975 703.675 887.124 709.015C870.336 713.314 849.275 702.653 848.137 683.747C846.559 657.564 880.574 647.371 900.844 649.105C953.968 653.648 961.897 713.792 961.897 756.462C961.897 794.262 945.272 842.444 899.472 839.582C880.14 838.374 861.82 827.663 845.164 818.773C826.609 808.871 809.021 797.603 791.142 786.589C768.877 772.874 745.198 761.071 722.657 747.659C672.689 717.926 618.799 712.108 562.193 724.793C533.792 731.157 502.171 742.545 484.447 767.095C469.225 788.179 490.573 807.227 511.315 811.227C539.19 816.603 567.841 806.139 588.832 788.132C612.228 768.062 613.456 738.391 624.046 711.13C634.625 683.899 650.616 652.297 678.011 638.701C697.871 628.844 725.711 628.5 746.496 635.785C758.214 639.893 777.442 650.143 777.994 664.483C778.632 681.065 760.831 691.649 746.153 693.58C722.763 696.657 694.433 681.766 675.495 669.456C651.387 653.785 631.096 637.459 603.466 627.725C560.372 612.542 502.192 603.343 459.923 626.925C440.071 637.999 428.943 657.178 426.995 679.689C425.947 691.802 424.253 711.563 434.598 720.334C460.401 742.21 505.004 676.164 476.444 667.398C456.88 661.393 428.256 704.48 422.479 717.132C415.475 732.473 413.441 750.59 409.845 766.981C406.42 782.599 404.531 798.053 407.159 813.971C418.52 882.792 513.314 898.443 570.31 884.971C593.994 879.373 615.793 864.676 640.167 862.391C661.36 860.404 684.361 872.406 702.249 882.742C718.332 892.034 734.431 905.321 752.727 909.953C774.648 915.503 794.518 896.249 805.605 880.284C810.719 872.92 819.509 864.295 819.382 854.674C819.276 846.637 815.462 837.719 812.122 830.55C804.765 814.756 789.323 806.339 772.334 808.712C757.641 810.764 750.315 818.494 737.463 824.719C719.169 833.58 702.865 825.268 685.042 819.974C669.056 815.226 649.511 818.824 637.709 831.807C631.14 839.033 631.357 852.312 631.249 861.305C631.024 880.068 634.57 897.441 647.198 911.954C671.059 939.376 708.533 947.636 730.089 978.495C753.003 1011.3 747.728 1047.83 742.151 1085.28" stroke="black" stroke-width="6" stroke-linecap="round"/>
<path d="M362.136 839.303C360.698 837.686 359.714 836.709 357.625 835.695C334.178 824.306 309.622 816.524 293.379 794.25C271.313 763.993 282.317 707.856 317.935 691.665C340.867 681.242 362.889 689.14 369.352 714.217C374.805 735.372 349.899 745.114 333.019 739.625C313.159 733.168 295.976 717.405 290.472 696.877C284.082 673.048 295.984 648.203 308.313 628.521C324.324 602.96 348.473 572.427 378.974 564.024C397.459 558.931 418.789 568.981 426.683 586.525C431.843 597.992 422.2 610.807 409.544 609.678C397.657 608.618 387.144 596.738 385.74 585.272C384.477 574.963 390.449 564.444 395.512 556.055C404.417 541.303 415.204 526.417 428.387 515.162C443.251 502.471 463.115 499.465 481.809 496.72C500.864 493.922 520.014 492.445 538.639 498.424C555.855 503.95 602.889 520.529 597.724 545.882C593.804 565.127 567.648 563.955 558.084 550.593C538.093 522.664 563.039 497.432 588.754 487.499C609.572 479.457 633.22 476.477 655.406 478.729C680.556 481.282 705.52 493.484 728.924 502.433C757.726 513.445 783.412 529.299 799.035 556.757C826.176 604.46 719.621 620.373 722.86 566.229C726.949 497.886 838.777 556.012 865.336 578.707C884.04 594.691 895.603 611.522 902.421 634.986C910.003 661.076 907.053 682.068 890.544 703.392C874.886 723.617 840.467 726.983 828.803 700.586C814.368 667.917 860.809 648.326 886.434 652.977C906.367 656.595 929.033 665.378 941.761 681.843C955.067 699.057 963.279 725.324 961.757 746.892C959.941 772.62 951.428 837.872 915.1 839.554C887.48 840.832 864.614 825.858 842.033 812.041C818.158 797.432 794.417 783.711 771.121 768.09C715.017 730.472 654.139 693.667 584.294 703.192C557.01 706.912 526.011 718.469 507.368 739.274C492.852 755.473 480.779 785.036 493.937 805.225C529.367 859.588 598.661 817.776 626.741 777.762C637.776 762.037 644.033 746.061 644.682 726.946C645.703 696.865 650.879 673.647 669.238 649.168C680.553 634.082 703.921 621.9 722.961 624.312C744.39 627.025 768.964 654.009 769.166 675.629C769.372 697.715 753.246 709.421 732.232 710.408C695.912 712.115 667.441 684.068 641.073 663.301C615.906 643.478 588.948 624.546 562.343 606.671C542.08 593.057 518.097 580.144 493.035 580.812C439.836 582.231 395.508 659.794 427.435 705.096C448.969 735.652 512.149 716.538 511.377 678.335C511.196 669.38 499.818 666.45 492.784 666.157C480.101 665.629 468.572 672.535 459.358 680.64C433.482 703.402 422.912 737.151 415.608 769.794C410.696 791.747 412.96 818.635 423.676 838.702C436.001 861.779 468.46 869.817 492.283 871.477C504.92 872.357 516.14 871.447 527.814 866.465C538.192 862.036 547.452 857.191 558.685 855.34C574.479 852.736 586.682 851.959 602.285 856.142C631.439 863.956 658.289 881.494 686.026 893.126C720.615 907.631 754.638 918.821 792.119 909.263C819.807 902.202 868.82 872.362 851.154 837.649C842.031 819.724 820.418 812.559 801.741 809.635C777.334 805.815 758.107 812.224 736.592 823.166C722.419 830.374 705.335 829.177 690.186 826.073C674.339 822.826 646.12 806.736 630.449 815.248C617.022 822.542 609.501 841.572 609.501 856.142C609.501 880.64 626.068 904.506 644.581 919.186C672.795 941.556 711.293 953.766 730.428 986.038C746.097 1012.47 743.307 1041.12 734.687 1069.33" stroke="black" stroke-width="6" stroke-linecap="round"/>
<path d="M863.267 426.163C849.824 426.835 837.435 433.615 825.271 438.828" stroke="black" stroke-width="17" stroke-linecap="round"/>
<path d="M675.818 312.173C673.886 310.724 679.748 348.986 680.884 355.236" stroke="black" stroke-width="17" stroke-linecap="round"/>
<path d="M463.037 299.507C469.288 287.006 475.263 324.657 480.769 337.504" stroke="black" stroke-width="17" stroke-linecap="round"/>
<path d="M242.658 428.696C246.179 423.415 287.178 450.47 293.32 454.027" stroke="black" stroke-width="17" stroke-linecap="round"/>
<path d="M154 611.078C170.107 611.078 186.389 606.477 202.129 603.479" stroke="black" stroke-width="17" stroke-linecap="round"/>
<path d="M2240.46 471.365C2222.72 426.036 2203.49 381.261 2183.73 336.783C2169.79 305.426 2172.7 312.459 2161.25 288.448C2160.28 286.41 2152.32 274.685 2161.05 278.97C2186.71 291.567 2210.75 308.809 2235.38 323.312C2248.57 331.079 2253.13 333.625 2265.3 341.116C2268.19 342.891 2271.04 344.709 2273.9 346.532C2276.01 347.88 2277.63 350.946 2280.13 350.729C2282.98 350.481 2282.83 345.665 2283.92 343.012C2294.03 318.248 2289.43 328.607 2302.87 296.978C2323.72 247.933 2344.3 198.286 2368.34 150.684C2373.76 139.941 2379.05 158.911 2381.54 163.682C2409.5 217.26 2436.31 271.424 2463.99 325.14C2468.62 334.118 2473.71 325.83 2480.38 320.536C2511.61 295.72 2541.22 267.073 2575.22 246.002C2579.82 243.153 2583.5 239.309 2583.95 247.152C2584.49 256.569 2580.32 282.674 2579.48 288.109C2573.22 328.616 2565.02 368.446 2548.48 406.105C2542.61 419.478 2537.69 422.782 2522.62 425.602C2475.85 434.354 2427.07 435.617 2379.64 436.298C2344.57 436.802 2309.62 434.809 2274.58 434.809" stroke="black" stroke-width="9" stroke-linecap="round"/>
<path d="M2239.5 469.801C2229.87 436.487 2216.77 404.422 2204.15 372.144C2198.01 356.442 2191.65 340.827 2185.58 325.096C2182.02 315.861 2178.28 306.682 2175.28 297.248C2174.36 294.345 2171.66 290.304 2173.88 288.22C2175.89 286.334 2179.04 290.189 2181.51 291.399C2193.03 297.031 2208.74 306.144 2219.28 311.998C2233.64 319.976 2253.15 334.338 2269.76 338.32C2280.38 340.864 2289.46 314.856 2291 311.744C2308.23 276.733 2323.31 240.716 2339.7 205.313C2348.94 185.335 2358.11 161.442 2371.87 143.642C2377.65 136.162 2384.51 115.3 2391.07 130.29C2410.57 174.858 2432.17 218.55 2450.07 263.806C2452.26 269.347 2472.01 342.196 2481.86 342.643C2490.1 343.018 2504.51 328.406 2509.2 324.46C2523.15 312.728 2536.1 300.056 2548.74 286.948C2559.47 275.826 2569.73 260.204 2582.31 251.09C2586.78 247.856 2579.03 281.157 2578.75 282.625C2572.61 315.341 2567.06 347.937 2561.84 380.791C2560.07 391.926 2556.57 435.988 2543.53 441.445C2533.78 445.528 2517.76 443.78 2507.8 444.115C2484.59 444.897 2461.42 445.545 2438.24 447.167C2394.36 450.239 2350.65 455.133 2306.64 455.941C2297.32 456.112 2289.22 456.622 2280.7 453.779" stroke="black" stroke-width="9" stroke-linecap="round"/>
<path d="M2468.14 130.121C2467.65 129.144 2466.9 131.933 2466.44 132.924C2462.72 140.931 2458.92 148.896 2455.14 156.875" stroke="black" stroke-width="13" stroke-linecap="round"/>
<path d="M2521.64 215.733C2515.01 217.556 2508.45 219.414 2501.77 221.083" stroke="black" stroke-width="13" stroke-linecap="round"/>
<path d="M2281.63 136.236C2280.96 135.491 2279.8 134.787 2281.07 135.981C2287 141.534 2293.27 146.732 2299.21 152.288" stroke="black" stroke-width="13" stroke-linecap="round"/>
<path d="M2238.31 234.603C2237.68 233.874 2240.1 235.298 2240.95 235.746C2249.1 240.042 2257.22 244.356 2265.31 248.749" stroke="black" stroke-width="13" stroke-linecap="round"/>
<path d="M4273.68 512.07C4263.67 519.136 4250.06 522.22 4239.3 528.296C4188.1 557.184 4153.6 599.887 4119.72 646.662C4100.46 673.253 4083.34 700.829 4070.66 731.223C4060.86 754.696 4053.06 779.053 4045.69 803.372C4040.48 820.57 4034.63 838.436 4032.51 856.398C4030.13 876.497 4039.61 903.522 4061.72 907.492C4087.11 912.049 4111.31 895.86 4130.2 881.027C4189.54 834.433 4238.87 771.141 4274.45 704.855C4298.33 660.375 4326.84 604.46 4319.41 552.153C4315.4 523.908 4287.37 512.432 4262.38 520.763" stroke="black" stroke-width="8" stroke-linecap="round"/>
<path d="M4028.44 546.388C4031.3 558.304 4029.12 572.086 4030.77 584.338C4038.63 642.59 4065.51 690.462 4096.4 739.261C4113.96 767.002 4133.23 793.128 4156.76 816.169C4174.93 833.965 4194.66 850.239 4214.52 866.096C4228.56 877.31 4242.99 889.36 4258.88 897.992C4276.67 907.651 4305.28 908.859 4317.16 889.789C4330.81 867.896 4324.74 839.419 4317.96 816.378C4296.67 744.002 4256.17 674.722 4207.79 617.112C4175.32 578.455 4133.95 531.249 4082.62 518.765C4054.9 512.023 4033.85 533.807 4032.33 560.105" stroke="black" stroke-width="8" stroke-linecap="round"/>
<path d="M3961.58 760.89C3973.4 764.132 3984.43 772.68 3995.96 777.135C4050.79 798.315 4105.69 797.831 4163.33 794.276C4196.1 792.254 4228.28 787.96 4259.81 778.444C4284.16 771.094 4307.92 761.646 4331.39 751.887C4347.98 744.985 4365.49 738.149 4380.71 728.38C4397.75 717.449 4412.59 692.957 4401.61 673.356C4389 650.854 4361.12 642.45 4337.66 637.287C4263.99 621.067 4183.76 623.177 4109.97 637.814C4060.45 647.636 3999.16 661.139 3963.48 700.107C3944.22 721.149 3953.16 750.088 3975.47 764.095" stroke="black" stroke-width="8" stroke-linecap="round"/>
<path d="M4253.64 518.449C4254.46 517.532 4254.56 516.868 4254.56 515.678" stroke="#1F1F1F" stroke-width="13" stroke-linecap="round"/>
<path d="M4065.18 517.525H4066.1" stroke="#1F1F1F" stroke-width="13" stroke-linecap="round"/>
<path d="M4265.71 916.793C4264.81 915.471 4262.71 914.577 4261.36 913.757C4246.68 904.791 4230.5 898.896 4216.11 889.115C4193.32 873.628 4175.26 853.293 4158.75 831.441C4136.57 802.1 4115.95 771.448 4097 739.943C4069.56 694.342 4042.83 641.985 4031.12 589.429C4025.31 563.388 4019.36 526.802 4036.73 503.601C4049.26 486.879 4064.58 488.017 4081.72 494.844C4126.97 512.868 4167.92 551.513 4197.21 589.44C4223.09 622.956 4247.31 656.235 4266.66 694.106C4285.04 730.081 4299.36 767.204 4309.83 806.185C4318.51 838.511 4326.27 889.926 4291.59 910.355" stroke="#1F1F1F" stroke-width="13" stroke-linecap="round"/>
<path d="M4309.54 509.02C4308.87 510.476 4309.19 512.737 4309.18 514.31C4309.07 531.513 4312.36 548.416 4311.4 565.791C4309.88 593.303 4301.77 619.26 4291.57 644.679C4277.86 678.81 4262.23 712.28 4245.02 744.77C4220.1 791.796 4189.02 841.69 4150.03 878.832C4130.72 897.235 4102.44 921.201 4073.6 918.278C4052.82 916.172 4045.89 902.456 4042.9 884.251C4035.01 836.187 4047 781.178 4064.39 736.523C4079.76 697.062 4095.78 659.149 4118.25 623.043C4139.6 588.745 4164.02 557.332 4192.02 528.26C4215.24 504.152 4255.29 470.992 4290.68 490.172" stroke="#1F1F1F" stroke-width="13" stroke-linecap="round"/>
<path d="M3944.16 697.669C3945.75 697.493 3947.53 696.057 3948.88 695.257C3963.69 686.505 3976.5 674.989 3991.89 666.876C4016.27 654.029 4042.7 647.637 4069.75 643.318C4106.07 637.519 4142.81 633.713 4179.53 631.771C4232.68 628.96 4291.45 629.957 4343.35 644.293C4369.07 651.397 4404.17 663.325 4416.49 689.56C4425.37 708.47 4417.17 721.465 4403.09 733.39C4365.93 764.875 4312.58 782.875 4265.34 790.923C4223.6 798.036 4182.84 803.791 4140.32 803.087C4099.93 802.418 4060.43 797.626 4021.1 788.562C3988.48 781.047 3939.44 763.749 3937.7 723.536" stroke="#1F1F1F" stroke-width="13" stroke-linecap="round"/>
<path d="M3939.54 693.974C3922.62 693.974 3930.82 726.053 3948.11 720.405C3964.21 715.149 3954.33 692.101 3938.52 695.616C3915.56 700.717 3927.52 734.217 3947.6 724.563C3962 717.638 3945.41 692.833 3938.46 702.494C3934.63 707.825 3943.97 712.216 3944.57 706.702C3944.9 703.71 3940.95 701.424 3938.72 703.828C3935.03 707.794 3942.41 712.616 3946.01 710.603C3952.53 706.949 3943.96 691.924 3938.52 698.593C3929.6 709.518 3949.4 713.445 3948.11 704.444C3946.99 696.571 3932.83 695.381 3938.57 703.725C3943.5 710.894 3945.39 701.758 3944.16 697.669" stroke="#1F1F1F" stroke-width="13" stroke-linecap="round"/>
<path d="M4293.29 489.463C4276.66 490.129 4279.85 515.279 4298.78 512.046C4308.4 510.403 4317.74 501.438 4313.51 491.208C4310.62 484.193 4297.41 477.84 4295.45 489.361C4293.32 501.845 4314.43 512.708 4319.67 498.599C4323.91 487.211 4305.63 477.157 4299.5 488.694C4295.51 496.202 4305.98 502.774 4309.41 495.314C4313 487.511 4302.23 490.007 4299.76 495.93" stroke="#1F1F1F" stroke-width="13" stroke-linecap="round"/>
<path d="M4281.29 904.03C4275.5 901.455 4271.34 905.333 4270.05 911.267C4265.25 933.382 4295.8 924.73 4289.3 909.778C4278.84 885.723 4263.93 927.16 4280.68 922.096C4287.39 920.067 4269.94 915.185 4278.21 921.069C4281.97 923.742 4284.65 920.587 4285.04 916.809C4285.76 909.823 4281.61 912.12 4278.52 908.649" stroke="#1F1F1F" stroke-width="13" stroke-linecap="round"/>
<path d="M4164.03 683.812C4163.87 685.108 4157.66 685.521 4156.43 685.865C4129.5 693.405 4128.45 732.175 4154.79 741.191C4170.15 746.45 4186.02 744.052 4195.8 730.875C4200.79 724.147 4205.69 717.266 4203.34 708.55C4200.9 699.459 4193.01 687.452 4184.61 682.991C4171.89 676.239 4161.01 686.589 4152.02 693.974" stroke="#1F1F1F" stroke-width="13" stroke-linecap="round"/>
<path d="M4174.19 681.041C4159.52 681.041 4137.07 683.271 4138.98 704.033C4140.42 719.645 4158.78 729.536 4173.06 725.024C4190.53 719.507 4185.1 687.604 4166.75 691.972C4148.81 696.245 4148.62 721.299 4167.52 724.152C4194.74 728.261 4182.3 687.357 4170.6 698.49C4167.92 701.042 4163.99 716.525 4171.88 712.04C4177.88 708.632 4170.85 706.394 4178.09 706.394C4181.99 706.394 4178.66 697.9 4176.81 703.212C4175.7 706.385 4176.48 708.736 4178.81 710.603" stroke="#1F1F1F" stroke-width="13" stroke-linecap="round"/>
<path d="M3902.97 415.896C3894.7 420.031 3941.76 472.34 3946.78 478.472" stroke="black" stroke-width="17" stroke-linecap="round"/>
<path d="M4190.82 297C4196.9 328.137 4197.08 359.252 4197.08 390.865" stroke="black" stroke-width="17" stroke-linecap="round"/>
<path d="M4509.97 497.245C4494.93 498.749 4479.74 504.33 4466.16 509.761" stroke="black" stroke-width="17" stroke-linecap="round"/>
<path d="M2140.61 3438.68C2145.21 3432.53 2154.19 3429.25 2160.92 3426.58C2189.03 3415.44 2221.99 3409.12 2252.28 3411.6C2271.09 3413.14 2288.65 3418.83 2304.27 3429.39C2310.61 3433.68 2318.87 3442.37 2326.7 3443.91C2329.19 3444.4 2330.03 3443.36 2332.11 3441.83C2340.3 3435.79 2348.05 3429.78 2357.06 3424.88C2379.1 3412.9 2404.53 3404.1 2429.35 3400.27C2463.87 3394.95 2502.95 3398.3 2534.34 3414.75C2541.66 3418.58 2559.18 3426.16 2557.42 3436.55C2551.04 3474.15 2545.94 3512.27 2541.07 3550.09C2535.36 3594.42 2532.62 3639.19 2529.15 3683.74C2527.86 3700.22 2525.98 3716.7 2525.06 3733.21C2524.57 3741.95 2523.85 3736.82 2519.44 3732.36C2496.66 3709.31 2456.22 3702.21 2425.52 3697.91C2390.01 3692.95 2354.89 3696.32 2320.15 3704.85C2313.22 3706.55 2313.7 3707.72 2313.89 3713.88C2313.95 3715.91 2310.34 3711.9 2308.65 3710.77C2302.07 3706.36 2294.76 3703.07 2287.41 3700.17C2256.19 3687.85 2214.12 3678.75 2183.44 3697.11C2167.79 3706.47 2159.26 3718.99 2151.8 3735.04C2151.27 3736.19 2147.77 3741.37 2146.53 3738.66C2142.02 3728.85 2143.95 3711.45 2143.76 3701.02C2142.97 3657.69 2145.34 3614.35 2144.44 3571C2143.54 3527.59 2148.35 3482.13 2138.31 3439.44" stroke="black" stroke-width="8" stroke-linecap="round"/>
<path d="M2145.35 3420.95C2194.25 3383.33 2273.19 3386.26 2323.58 3418.69C2329.52 3422.51 2334.18 3429.24 2338.22 3435.02C2339.27 3436.52 2340.35 3431.34 2341.79 3429.64C2352.82 3416.61 2372.99 3409.62 2388.24 3403.45C2423.08 3389.34 2456.87 3386.57 2494.32 3391.89C2513.28 3394.59 2547.49 3400.53 2557.88 3421.3C2559.1 3423.74 2557.39 3427.36 2556.89 3429.71C2553.17 3447.07 2552.12 3465.01 2551.37 3482.7C2548.63 3547.32 2545.65 3611.92 2539.21 3676.28C2538.11 3687.31 2539.1 3698.22 2539.46 3709.26C2539.52 3711.14 2538.33 3709.27 2537.73 3708.69C2530.66 3701.87 2521.74 3696.75 2512.7 3693C2493.8 3685.15 2471.16 3684.31 2451.02 3681.86C2434.2 3679.82 2417.6 3678.93 2400.68 3680.02C2382.38 3681.21 2362.29 3682.78 2345.71 3691.37C2338.8 3694.95 2333.63 3700.15 2329.1 3706.36C2327.46 3708.6 2326.45 3706.28 2324.78 3704.73C2277.49 3660.89 2193.45 3666.44 2149.98 3712.69C2146.26 3716.64 2139.18 3731.28 2140.65 3726.05C2142.29 3720.22 2142.37 3714.36 2143.09 3708.41C2144.23 3699.02 2146.97 3690.38 2147.26 3680.8C2147.68 3667.16 2148.71 3653.54 2149.03 3639.9C2149.9 3601.81 2144.3 3563.46 2142.2 3525.48C2140.57 3495.88 2139.71 3465.33 2141.96 3435.72C2142.1 3433.82 2144.09 3397.72 2143.44 3398.04" stroke="black" stroke-width="8" stroke-linecap="round"/>
<path d="M2338.15 3437.12C2336.17 3425.28 2336.92 3461.11 2336.45 3473.11C2335 3510.5 2331.28 3547.77 2329.89 3585.14C2328.44 3624.19 2327.13 3663.32 2325.63 3702.31" stroke="black" stroke-width="8" stroke-linecap="round"/>
<path d="M2121 3286.84C2131 3292.27 2138.54 3298.62 2147.32 3305.65" stroke="black" stroke-width="17" stroke-linecap="round"/>
<path d="M2361.67 3253C2362.17 3268.5 2363.06 3282.89 2361.67 3298.13" stroke="black" stroke-width="17" stroke-linecap="round"/>
<path d="M2621.14 3313.17C2602.14 3317.92 2585.58 3341.21 2572.26 3354.53" stroke="black" stroke-width="17" stroke-linecap="round"/>
<path d="M802.999 3323.69C748.465 3297.76 692.545 3274.4 641.101 3242.56C637.854 3240.55 634.369 3239.66 630.723 3238.59C625.926 3237.18 622.298 3236.37 617.414 3238.41C594.937 3247.79 574.182 3264.85 553.619 3277.6C520.086 3298.39 485.365 3319.2 449.166 3335.17C449.092 3335.2 443.926 3337.05 444.893 3337.97C448.025 3340.98 452.831 3341.49 456.858 3343.1C472.685 3349.46 477.556 3351.53 494.342 3359.22C520.49 3371.2 546.397 3383.73 572.483 3395.85C588.968 3403.51 593.189 3405.34 608.44 3412.82C610.533 3413.85 621.547 3419.86 625.656 3420.76C632.446 3422.24 643.3 3412.31 647.572 3409.52C677.055 3390.25 706.923 3371.65 736.946 3353.24C755.057 3342.13 773.244 3328.34 793.11 3320.39" stroke="black" stroke-width="8" stroke-linecap="round"/>
<path d="M734.873 3373.14C734.873 3400.9 735.902 3429.46 732.554 3457.08C732.192 3460.06 730.365 3461.11 727.792 3462.51C717.196 3468.31 705.75 3472.61 694.093 3475.7C666.282 3483.06 636.105 3489.52 607.344 3490.66C573.346 3492 534.346 3486.05 508.02 3462.51C499.237 3454.66 501.866 3446.31 501.976 3434.61C502.176 3413.39 503.014 3392.17 503.014 3370.94" stroke="black" stroke-width="8" stroke-linecap="round"/>
<path d="M459.059 3342.37C457.739 3389.9 452.961 3436.64 457.96 3484.12" stroke="black" stroke-width="8" stroke-linecap="round"/>
<path d="M459.057 3490.72V3499.51" stroke="black" stroke-width="8" stroke-linecap="round"/>
<path d="M459.057 3499.51C455.896 3510.39 446.446 3518.3 442.94 3528.93C441.377 3533.67 438.437 3538.87 445.626 3540.04C454.446 3541.48 465.041 3540.7 473.83 3539.07C482.992 3537.37 463.24 3503.48 460.155 3497.31" stroke="black" stroke-width="8" stroke-linecap="round"/>
<path d="M453.566 3530.28C455.02 3526.65 462.073 3517.61 458.817 3519.78C455.806 3521.79 456.172 3531.42 455.764 3534.67" stroke="black" stroke-width="8" stroke-linecap="round"/>
<path d="M625.853 3243.28C670.739 3259.39 711.845 3286.76 753.152 3310.24C767.103 3318.17 781.433 3326.52 794.551 3335.7C797.605 3337.84 795.174 3338.08 791.769 3339.45C760.569 3352.01 808.01 3330.75 760.64 3351.22C724.273 3366.92 690.464 3387.35 656.768 3408.02C644.564 3415.5 630.116 3429.13 614.834 3423.42C587.607 3413.25 561.683 3398.07 535.139 3386.2C501.051 3370.94 470.332 3357.76 444.211 3331.64C439.133 3326.56 455.546 3322.66 461.969 3319.44C489.697 3305.58 517.493 3291.83 545.622 3278.79C572.879 3266.16 602.695 3256.15 627.778 3239.43" stroke="black" stroke-width="8" stroke-linecap="round"/>
<path d="M509.032 3385.13C509.032 3382.02 509.206 3397.71 509.508 3400.46C511.385 3417.56 510.277 3452.96 522.701 3466.19C559.746 3505.64 615.112 3506.92 665.095 3495.78C674.167 3493.76 683.423 3490.76 691.72 3486.51C699.728 3482.42 709.523 3480.93 716.799 3475.58C725.721 3469.01 730.426 3470.46 731.3 3459.53C732.551 3443.9 732.769 3427.78 732.608 3412.11C732.546 3406.09 733.986 3377.45 730.468 3376.57" stroke="black" stroke-width="8" stroke-linecap="round"/>
<path d="M467.32 3360.52C466.11 3359.46 467.746 3390.94 467.736 3392.31C467.444 3430.59 468.39 3468.8 468.39 3507.07" stroke="black" stroke-width="8" stroke-linecap="round"/>
<path d="M466.247 3512.43C466.247 3509.53 452.461 3533.93 451.27 3539.59C450.518 3543.16 477.49 3538.39 482.649 3538.1C483.693 3538.04 473.249 3520.43 468.386 3522.05" stroke="black" stroke-width="8" stroke-linecap="round"/>
<path d="M442.452 3249.34C449.441 3257.24 456.634 3264.88 463.875 3272.55" stroke="black" stroke-width="17" stroke-linecap="round"/>
<path d="M592.415 3169C595.636 3173.29 596.525 3183.86 597.771 3188.64" stroke="black" stroke-width="17" stroke-linecap="round"/>
<path d="M794.151 3222.56C787.771 3230.45 781.252 3238.19 774.513 3245.77" stroke="black" stroke-width="17" stroke-linecap="round"/>
<path d="M4284.37 3174.85C4288.24 3173.99 4295.22 3163.28 4297.15 3161.11C4322.41 3132.81 4348.44 3104.9 4374.87 3077.69C4389.99 3062.13 4414 3036.37 4438.19 3040.23C4450.41 3042.18 4457.02 3053.42 4454.45 3064.85C4451.53 3077.84 4441.3 3089.1 4433.87 3099.79C4418.39 3122.04 4399.51 3142.55 4382.24 3163.4C4368.53 3179.95 4352.34 3195.23 4339.7 3212.6C4338.77 3213.87 4335.45 3219.35 4333.99 3219.35" stroke="black" stroke-width="8" stroke-linecap="round"/>
<path d="M4280.09 3183.41C4283.84 3183.82 4290.38 3190.16 4293.21 3191.87C4305.23 3199.13 4319.62 3205.99 4328.87 3216.78" stroke="black" stroke-width="8" stroke-linecap="round"/>
<path d="M4280.95 3185.97C4280.24 3185.45 4280.24 3185.61 4280 3186.59C4277.58 3196.24 4273.95 3205.47 4270.73 3214.88C4266.35 3227.67 4265.07 3241.35 4260.89 3253.9C4260.8 3254.15 4260.72 3254.47 4261.08 3254.24C4268.02 3249.69 4275.67 3246.11 4283.04 3242.35C4286.54 3240.57 4322.2 3219.53 4324.58 3221.91" stroke="black" stroke-width="8" stroke-linecap="round"/>
<path d="M4255.28 3262.98C4254.98 3265.64 4251.62 3268.46 4251 3271.54" stroke="black" stroke-width="8" stroke-linecap="round"/>
<path d="M4401.01 3069.82C4409.93 3079.63 4420.21 3087.48 4430.72 3095.57" stroke="black" stroke-width="8" stroke-linecap="round"/>
<path d="M4249.68 3277.84C4254.55 3278.45 4246.39 3292.92 4245.09 3295.7C4220.28 3348.87 4178.92 3407.73 4129.54 3439.81C4087.13 3467.38 3969.44 3506.42 3972.92 3415.07C3973.61 3397.16 3989.11 3355.68 4015.27 3366.1C4045.93 3378.31 4049.87 3425.68 4044.09 3452.31C4033.32 3501.88 3979.7 3558.94 3934.41 3580.36C3882.27 3605.01 3833.91 3564.53 3795.39 3533.94C3729.52 3481.61 3667.45 3422.95 3593.88 3381.15C3554.14 3358.57 3511.26 3347.54 3465.58 3345.95C3443.72 3345.19 3416.42 3346.79 3395.18 3353.09C3341.54 3368.99 3386.89 3361.82 3336 3383.44" stroke="black" stroke-width="8" stroke-linecap="round"/>
<path d="M4411.1 3016.56C4410.52 3012.36 4410.08 3008.21 4409.7 3004" stroke="black" stroke-width="17" stroke-linecap="round"/>
<path d="M4466.91 3024.93C4471.22 3021.85 4475.23 3018.34 4479.47 3015.16" stroke="black" stroke-width="17" stroke-linecap="round"/>
<path d="M4479.46 3064C4485.91 3064.88 4490.91 3068.96 4496.21 3072.37" stroke="black" stroke-width="17" stroke-linecap="round"/>
</svg>
