<svg width="3148" height="3898" viewBox="0 0 3148 3898" fill="none" xmlns="http://www.w3.org/2000/svg">
<rect width="3148" height="3898" fill="white"/>
<path d="M1443.46 448.366C1425.72 403.036 1406.49 358.261 1386.73 313.784C1372.79 282.426 1375.7 289.46 1364.25 265.448C1363.28 263.41 1355.32 251.685 1364.05 255.97C1389.71 268.568 1413.75 285.809 1438.38 300.312C1451.57 308.079 1456.13 310.625 1468.3 318.116C1471.19 319.891 1474.04 321.709 1476.9 323.532C1479.01 324.88 1480.63 327.946 1483.13 327.729C1485.98 327.481 1485.83 322.665 1486.92 320.012C1497.03 295.249 1492.43 305.607 1505.87 273.978C1526.72 224.933 1547.3 175.287 1571.34 127.684C1576.76 116.941 1582.05 135.911 1584.54 140.682C1612.5 194.26 1639.31 248.424 1666.99 302.14C1671.62 311.118 1676.71 302.83 1683.38 297.536C1714.61 272.72 1744.22 244.073 1778.22 223.002C1782.82 220.153 1786.5 216.309 1786.95 224.153C1787.49 233.569 1783.32 259.675 1782.48 265.109C1776.22 305.616 1768.02 345.446 1751.48 383.106C1745.61 396.478 1740.69 399.782 1725.62 402.602C1678.85 411.354 1630.07 412.617 1582.64 413.299C1547.57 413.803 1512.62 411.809 1477.58 411.809" stroke="black" stroke-width="9" stroke-linecap="round"/>
<path d="M1442.5 446.801C1432.87 413.487 1419.77 381.422 1407.15 349.144C1401.01 333.442 1394.65 317.827 1388.58 302.096C1385.02 292.861 1381.28 283.682 1378.28 274.248C1377.36 271.345 1374.66 267.304 1376.88 265.22C1378.89 263.334 1382.04 267.189 1384.51 268.399C1396.03 274.031 1411.74 283.144 1422.28 288.998C1436.64 296.976 1456.15 311.338 1472.76 315.32C1483.38 317.864 1492.46 291.856 1494 288.744C1511.23 253.733 1526.31 217.716 1542.7 182.313C1551.94 162.335 1561.11 138.442 1574.87 120.642C1580.65 113.162 1587.51 92.3002 1594.07 107.29C1613.57 151.858 1635.17 195.55 1653.07 240.806C1655.26 246.347 1675.01 319.196 1684.86 319.643C1693.1 320.018 1707.51 305.406 1712.2 301.46C1726.15 289.728 1739.1 277.056 1751.74 263.948C1762.47 252.826 1772.73 237.204 1785.31 228.09C1789.78 224.856 1782.03 258.157 1781.75 259.625C1775.61 292.341 1770.06 324.937 1764.84 357.791C1763.07 368.926 1759.57 412.988 1746.53 418.445C1736.78 422.528 1720.76 420.78 1710.8 421.115C1687.59 421.897 1664.42 422.545 1641.24 424.167C1597.36 427.239 1553.65 432.133 1509.64 432.941C1500.32 433.112 1492.22 433.622 1483.7 430.779" stroke="black" stroke-width="9" stroke-linecap="round"/>
<path d="M1671.14 107.121C1670.65 106.144 1669.9 108.933 1669.44 109.924C1665.72 117.931 1661.92 125.896 1658.14 133.875" stroke="black" stroke-width="13" stroke-linecap="round"/>
<path d="M1724.64 192.732C1718.01 194.556 1711.45 196.413 1704.77 198.083" stroke="black" stroke-width="13" stroke-linecap="round"/>
<path d="M1484.63 113.236C1483.96 112.491 1482.8 111.787 1484.07 112.982C1490 118.534 1496.27 123.732 1502.21 129.289" stroke="black" stroke-width="13" stroke-linecap="round"/>
<path d="M1441.31 211.603C1440.68 210.874 1443.1 212.298 1443.95 212.746C1452.1 217.042 1460.22 221.356 1468.31 225.749" stroke="black" stroke-width="13" stroke-linecap="round"/>
<path d="M2427.29 576.203C2427.48 577.91 2428.21 578.498 2429.12 579.861" stroke="black" stroke-width="3" stroke-linecap="round"/>
<path d="M2428.76 605.074C2422.73 605.744 2418.11 606.658 2411.53 606.032" stroke="black" stroke-width="3" stroke-linecap="round"/>
<path d="M2407.7 578.27C2407.7 576.907 2407.7 579.802 2407.7 580.185" stroke="black" stroke-width="3" stroke-linecap="round"/>
<path d="M2378.34 608.914C2378.34 609.657 2378.34 609.199 2378.34 609.943" stroke="black" stroke-width="6" stroke-linecap="round"/>
<path d="M2399.48 650.092C2397.48 650.343 2396.08 652.094 2393.54 652.15C2371.3 652.644 2345.41 625.011 2332.94 609.39C2315.23 587.194 2308.91 544.389 2331.69 522.841C2350.23 505.297 2371.87 507.901 2391.42 521.869C2406.24 532.452 2401.57 552.559 2386.96 562.628C2360.47 580.888 2336.69 539.677 2333.29 518.839C2325.82 473.103 2350.13 428.851 2385.54 401.763C2403.4 388.095 2435.12 370.523 2452.53 394.904C2456.48 400.429 2460.96 413.609 2453.56 418.57C2436.59 429.948 2415.67 403.311 2418.46 387.815C2427.34 338.531 2485.89 313.906 2529.48 308.697C2560.52 304.988 2603.98 299.466 2627.12 325.161C2643.06 342.867 2653.59 360.149 2632.66 377.639C2614.8 392.564 2597.3 380.055 2589.96 359.918C2575.01 318.888 2641.09 311.139 2666.39 307.726C2697.44 303.537 2736.84 302.828 2766.26 315.5C2785.1 323.615 2813.38 340.341 2813.71 364.034C2813.91 378.209 2803.89 391.442 2793.59 400.391C2782.35 410.146 2755.69 405.334 2758.14 386.786C2762 357.635 2805.08 359.655 2825.6 362.433C2860.26 367.127 2890.17 386.442 2911.63 413.825C2926.55 432.848 2936.91 457.719 2939.99 481.796C2942.18 498.958 2943.97 523.675 2923.12 529.015C2906.34 533.314 2885.28 522.653 2884.14 503.747C2882.56 477.564 2916.57 467.371 2936.84 469.105C2989.97 473.648 2997.9 533.792 2997.9 576.462C2997.9 614.262 2981.27 662.444 2935.47 659.582C2916.14 658.374 2897.82 647.663 2881.16 638.773C2862.61 628.871 2845.02 617.603 2827.14 606.589C2804.88 592.874 2781.2 581.071 2758.66 567.659C2708.69 537.926 2654.8 532.108 2598.19 544.793C2569.79 551.157 2538.17 562.545 2520.45 587.095C2505.23 608.179 2526.57 627.227 2547.31 631.227C2575.19 636.603 2603.84 626.139 2624.83 608.132C2648.23 588.062 2649.46 558.391 2660.05 531.13C2670.63 503.899 2686.62 472.297 2714.01 458.701C2733.87 448.844 2761.71 448.5 2782.5 455.785C2794.21 459.893 2813.44 470.143 2813.99 484.483C2814.63 501.065 2796.83 511.649 2782.15 513.58C2758.76 516.657 2730.43 501.766 2711.5 489.456C2687.39 473.785 2667.1 457.459 2639.47 447.725C2596.37 432.542 2538.19 423.343 2495.92 446.925C2476.07 457.999 2464.94 477.178 2463 499.689C2461.95 511.802 2460.25 531.563 2470.6 540.334C2496.4 562.21 2541 496.164 2512.44 487.398C2492.88 481.393 2464.26 524.48 2458.48 537.132C2451.48 552.473 2449.44 570.59 2445.85 586.981C2442.42 602.599 2440.53 618.053 2443.16 633.971C2454.52 702.792 2549.31 718.443 2606.31 704.971C2629.99 699.373 2651.79 684.676 2676.17 682.391C2697.36 680.404 2720.36 692.406 2738.25 702.742C2754.33 712.034 2770.43 725.321 2788.73 729.953C2810.65 735.503 2830.52 716.249 2841.61 700.284C2846.72 692.92 2855.51 684.295 2855.38 674.674C2855.28 666.637 2851.46 657.719 2848.12 650.55C2840.77 634.756 2825.32 626.339 2808.33 628.712C2793.64 630.764 2786.31 638.494 2773.46 644.719C2755.17 653.58 2738.87 645.268 2721.04 639.974C2705.06 635.226 2685.51 638.824 2673.71 651.807C2667.14 659.033 2667.36 672.312 2667.25 681.305C2667.02 700.068 2670.57 717.441 2683.2 731.954C2707.06 759.376 2744.53 767.636 2766.09 798.495C2789 831.298 2783.73 867.834 2778.15 905.281" stroke="black" stroke-width="6" stroke-linecap="round"/>
<path d="M2398.14 659.303C2396.7 657.686 2395.71 656.709 2393.63 655.695C2370.18 644.306 2345.62 636.524 2329.38 614.25C2307.31 583.993 2318.32 527.856 2353.93 511.665C2376.87 501.242 2398.89 509.14 2405.35 534.217C2410.8 555.372 2385.9 565.114 2369.02 559.625C2349.16 553.168 2331.98 537.405 2326.47 516.877C2320.08 493.048 2331.98 468.203 2344.31 448.521C2360.32 422.96 2384.47 392.427 2414.97 384.024C2433.46 378.931 2454.79 388.981 2462.68 406.525C2467.84 417.992 2458.2 430.807 2445.54 429.678C2433.66 428.618 2423.14 416.738 2421.74 405.272C2420.48 394.963 2426.45 384.444 2431.51 376.055C2440.42 361.303 2451.2 346.417 2464.39 335.162C2479.25 322.471 2499.11 319.465 2517.81 316.72C2536.86 313.922 2556.01 312.445 2574.64 318.424C2591.85 323.95 2638.89 340.529 2633.72 365.882C2629.8 385.127 2603.65 383.955 2594.08 370.593C2574.09 342.664 2599.04 317.432 2624.75 307.499C2645.57 299.457 2669.22 296.477 2691.41 298.729C2716.56 301.282 2741.52 313.484 2764.92 322.433C2793.73 333.445 2819.41 349.299 2835.03 376.757C2862.18 424.46 2755.62 440.373 2758.86 386.229C2762.95 317.886 2874.78 376.012 2901.34 398.707C2920.04 414.691 2931.6 431.522 2938.42 454.986C2946 481.076 2943.05 502.068 2926.54 523.392C2910.89 543.617 2876.47 546.983 2864.8 520.586C2850.37 487.917 2896.81 468.326 2922.43 472.977C2942.37 476.595 2965.03 485.378 2977.76 501.843C2991.07 519.057 2999.28 545.324 2997.76 566.892C2995.94 592.62 2987.43 657.872 2951.1 659.554C2923.48 660.832 2900.61 645.858 2878.03 632.041C2854.16 617.432 2830.42 603.711 2807.12 588.09C2751.02 550.472 2690.14 513.667 2620.29 523.192C2593.01 526.912 2562.01 538.469 2543.37 559.274C2528.85 575.473 2516.78 605.036 2529.94 625.225C2565.37 679.588 2634.66 637.776 2662.74 597.762C2673.78 582.037 2680.03 566.061 2680.68 546.946C2681.7 516.865 2686.88 493.647 2705.24 469.168C2716.55 454.082 2739.92 441.9 2758.96 444.312C2780.39 447.025 2804.96 474.009 2805.17 495.629C2805.37 517.715 2789.25 529.421 2768.23 530.408C2731.91 532.115 2703.44 504.068 2677.07 483.301C2651.91 463.478 2624.95 444.546 2598.34 426.671C2578.08 413.057 2554.1 400.144 2529.03 400.812C2475.84 402.231 2431.51 479.794 2463.43 525.096C2484.97 555.652 2548.15 536.538 2547.38 498.335C2547.2 489.38 2535.82 486.45 2528.78 486.157C2516.1 485.629 2504.57 492.535 2495.36 500.64C2469.48 523.402 2458.91 557.151 2451.61 589.794C2446.7 611.747 2448.96 638.635 2459.68 658.702C2472 681.779 2504.46 689.817 2528.28 691.477C2540.92 692.357 2552.14 691.447 2563.81 686.465C2574.19 682.036 2583.45 677.191 2594.69 675.34C2610.48 672.736 2622.68 671.959 2638.28 676.142C2667.44 683.956 2694.29 701.494 2722.03 713.126C2756.62 727.631 2790.64 738.821 2828.12 729.263C2855.81 722.202 2904.82 692.362 2887.15 657.649C2878.03 639.724 2856.42 632.559 2837.74 629.635C2813.33 625.815 2794.11 632.224 2772.59 643.166C2758.42 650.374 2741.33 649.177 2726.19 646.073C2710.34 642.826 2682.12 626.736 2666.45 635.248C2653.02 642.542 2645.5 661.572 2645.5 676.142C2645.5 700.64 2662.07 724.506 2680.58 739.186C2708.8 761.556 2747.29 773.766 2766.43 806.038C2782.1 832.467 2779.31 861.118 2770.69 889.329" stroke="black" stroke-width="6" stroke-linecap="round"/>
<path d="M2899.27 246.163C2885.82 246.835 2873.43 253.615 2861.27 258.828" stroke="black" stroke-width="17" stroke-linecap="round"/>
<path d="M2711.82 132.173C2709.88 130.724 2715.75 168.986 2716.88 175.236" stroke="black" stroke-width="17" stroke-linecap="round"/>
<path d="M2499.04 119.507C2505.29 107.006 2511.26 144.657 2516.77 157.504" stroke="black" stroke-width="17" stroke-linecap="round"/>
<path d="M2278.66 248.696C2282.18 243.415 2323.18 270.47 2329.32 274.027" stroke="black" stroke-width="17" stroke-linecap="round"/>
<path d="M2190 431.079C2206.11 431.079 2222.39 426.477 2238.13 423.479" stroke="black" stroke-width="17" stroke-linecap="round"/>
<path d="M466.678 489.07C456.668 496.136 443.061 499.22 432.294 505.296C381.102 534.184 346.598 576.887 312.721 623.662C293.462 650.253 276.337 677.829 263.655 708.223C253.861 731.696 246.057 756.053 238.688 780.372C233.476 797.57 227.631 815.435 225.504 833.398C223.124 853.497 232.605 880.522 254.721 884.492C280.111 889.049 304.312 872.86 323.2 858.027C382.535 811.433 431.872 748.141 467.451 681.855C491.325 637.375 519.84 581.46 512.412 529.153C508.401 500.908 480.368 489.432 455.378 497.763" stroke="black" stroke-width="8" stroke-linecap="round"/>
<path d="M221.44 523.388C224.293 535.304 222.116 549.086 223.769 561.338C231.63 619.59 258.505 667.462 289.396 716.261C306.957 744.002 326.224 770.128 349.754 793.169C367.926 810.965 387.657 827.239 407.514 843.096C421.556 854.31 435.983 866.359 451.878 874.992C469.664 884.651 498.279 885.859 510.162 866.789C523.803 844.896 517.735 816.419 510.958 793.378C489.67 721.001 449.168 651.722 400.785 594.112C368.32 555.455 326.952 508.249 275.617 495.765C247.897 489.023 226.85 510.807 225.326 537.105" stroke="black" stroke-width="8" stroke-linecap="round"/>
<path d="M154.581 737.89C166.397 741.131 177.424 749.68 188.957 754.135C243.789 775.314 298.687 774.831 356.332 771.276C389.102 769.254 421.278 764.96 452.806 755.443C477.156 748.094 500.923 738.646 524.386 728.887C540.978 721.985 558.488 715.149 573.711 705.38C590.745 694.449 605.591 669.957 594.606 650.356C581.995 627.854 554.117 619.45 530.663 614.286C456.984 598.067 376.762 600.177 302.968 614.814C253.451 624.636 192.155 638.139 156.48 677.107C137.216 698.149 146.163 727.088 168.473 741.095" stroke="black" stroke-width="8" stroke-linecap="round"/>
<path d="M446.641 495.449C447.456 494.532 447.565 493.868 447.565 492.678" stroke="#1F1F1F" stroke-width="13" stroke-linecap="round"/>
<path d="M258.18 494.525H259.103" stroke="#1F1F1F" stroke-width="13" stroke-linecap="round"/>
<path d="M458.711 893.793C457.808 892.471 455.707 891.577 454.364 890.757C439.682 881.791 423.502 875.896 409.109 866.115C386.32 850.628 368.262 830.293 351.747 808.441C329.571 779.1 308.955 748.448 289.996 716.943C262.555 671.342 235.834 618.985 224.116 566.429C218.311 540.388 212.359 503.802 229.735 480.601C242.258 463.879 257.582 465.017 274.721 471.844C319.971 489.868 360.916 528.513 390.207 566.44C416.091 599.956 440.313 633.235 459.66 671.106C478.039 707.081 492.358 744.204 502.828 783.185C511.51 815.511 519.266 866.926 484.585 887.355" stroke="#1F1F1F" stroke-width="13" stroke-linecap="round"/>
<path d="M502.536 486.02C501.869 487.476 502.187 489.737 502.176 491.31C502.066 508.513 505.359 525.416 504.401 542.791C502.884 570.303 494.773 596.261 484.568 621.679C470.864 655.81 455.234 689.281 438.018 721.77C413.099 768.797 382.02 818.69 343.034 855.832C323.716 874.236 295.439 898.201 266.602 895.279C245.816 893.172 238.889 879.456 235.899 861.251C228.007 813.188 240.003 758.178 257.393 713.524C272.761 674.062 288.783 636.149 311.253 600.043C332.598 565.745 357.02 534.333 385.019 505.26C408.238 481.152 448.289 447.993 483.677 467.172" stroke="#1F1F1F" stroke-width="13" stroke-linecap="round"/>
<path d="M137.161 674.669C138.753 674.493 140.529 673.057 141.883 672.257C156.694 663.505 169.497 651.989 184.892 643.876C209.267 631.029 235.701 624.637 262.749 620.318C299.068 614.519 335.811 610.713 372.529 608.771C425.676 605.96 484.449 606.957 536.352 621.293C562.069 628.397 597.165 640.325 609.487 666.56C618.369 685.47 610.168 698.465 596.092 710.39C558.929 741.875 505.582 759.875 458.341 767.923C416.595 775.036 375.839 780.791 333.318 780.087C292.926 779.418 253.426 774.626 214.094 765.562C181.478 758.047 132.443 740.749 130.694 700.536" stroke="#1F1F1F" stroke-width="13" stroke-linecap="round"/>
<path d="M132.542 670.974C115.622 670.974 123.817 703.053 141.113 697.405C157.21 692.149 147.334 669.101 131.515 672.616C108.564 677.717 120.518 711.217 140.599 701.563C155.002 694.638 138.407 669.833 131.464 679.494C127.632 684.825 136.972 689.216 137.571 683.702C137.897 680.71 133.955 678.424 131.721 680.828C128.034 684.794 135.413 689.616 139.008 687.603C145.533 683.949 136.96 668.924 131.515 675.593C122.597 686.518 142.399 690.445 141.113 681.444C139.988 673.571 125.83 672.382 131.567 680.725C136.495 687.895 138.387 678.758 137.161 674.669" stroke="#1F1F1F" stroke-width="13" stroke-linecap="round"/>
<path d="M486.291 466.463C469.663 467.128 472.846 492.279 491.783 489.046C501.404 487.403 510.738 478.438 506.513 468.208C503.615 461.193 490.408 454.84 488.447 466.361C486.322 478.845 507.426 489.708 512.671 475.599C516.905 464.211 498.63 454.157 492.501 465.694C488.513 473.201 498.977 479.774 502.407 472.314C505.995 464.511 495.226 467.007 492.758 472.93" stroke="#1F1F1F" stroke-width="13" stroke-linecap="round"/>
<path d="M474.293 881.03C468.498 878.455 464.343 882.333 463.053 888.266C458.245 910.382 488.8 901.73 482.299 886.778C471.84 862.723 456.926 904.16 473.677 899.096C480.388 897.067 462.939 892.185 471.213 898.069C474.972 900.742 477.652 897.586 478.039 893.809C478.756 886.823 474.607 889.12 471.521 885.649" stroke="#1F1F1F" stroke-width="13" stroke-linecap="round"/>
<path d="M357.03 660.812C356.868 662.108 350.662 662.521 349.434 662.865C322.504 670.405 321.455 709.176 347.792 718.191C363.155 723.45 379.016 721.052 388.799 707.875C393.794 701.147 398.685 694.266 396.344 685.55C393.901 676.459 386.015 664.452 377.611 659.991C364.892 653.239 354.011 663.589 345.021 670.974" stroke="#1F1F1F" stroke-width="13" stroke-linecap="round"/>
<path d="M367.191 658.041C352.522 658.041 330.071 660.271 331.984 681.033C333.422 696.645 351.776 706.536 366.062 702.024C383.535 696.507 378.097 664.604 359.749 668.972C341.806 673.245 341.619 698.299 360.519 701.152C387.74 705.261 375.299 664.357 363.599 675.49C360.917 678.042 356.988 693.525 364.882 689.04C370.879 685.632 363.852 683.394 371.092 683.394C374.989 683.394 371.662 674.9 369.809 680.212C368.702 683.384 369.477 685.736 371.81 687.603" stroke="#1F1F1F" stroke-width="13" stroke-linecap="round"/>
<path d="M95.9726 392.896C87.7016 397.031 134.759 449.34 139.776 455.472" stroke="black" stroke-width="17" stroke-linecap="round"/>
<path d="M383.825 274C389.9 305.137 390.083 336.252 390.083 367.865" stroke="black" stroke-width="17" stroke-linecap="round"/>
<path d="M702.965 474.245C687.93 475.749 672.739 481.33 659.162 486.76" stroke="black" stroke-width="17" stroke-linecap="round"/>
<path d="M1306.61 3493.68C1311.21 3487.53 1320.19 3484.25 1326.92 3481.58C1355.03 3470.44 1387.99 3464.12 1418.28 3466.6C1437.09 3468.14 1454.65 3473.83 1470.27 3484.39C1476.61 3488.68 1484.87 3497.37 1492.7 3498.91C1495.19 3499.4 1496.03 3498.36 1498.11 3496.83C1506.3 3490.79 1514.05 3484.78 1523.06 3479.88C1545.1 3467.9 1570.53 3459.1 1595.35 3455.27C1629.87 3449.95 1668.95 3453.3 1700.34 3469.75C1707.66 3473.58 1725.18 3481.16 1723.42 3491.55C1717.04 3529.15 1711.94 3567.27 1707.07 3605.09C1701.36 3649.42 1698.62 3694.19 1695.15 3738.74C1693.86 3755.22 1691.98 3771.7 1691.06 3788.21C1690.57 3796.95 1689.85 3791.82 1685.44 3787.36C1662.66 3764.31 1622.22 3757.21 1591.52 3752.91C1556.01 3747.95 1520.89 3751.32 1486.15 3759.85C1479.22 3761.55 1479.7 3762.72 1479.89 3768.88C1479.95 3770.91 1476.34 3766.9 1474.65 3765.77C1468.07 3761.36 1460.76 3758.07 1453.41 3755.17C1422.19 3742.85 1380.12 3733.75 1349.44 3752.11C1333.79 3761.47 1325.26 3773.99 1317.8 3790.04C1317.27 3791.19 1313.77 3796.37 1312.53 3793.66C1308.02 3783.85 1309.95 3766.45 1309.76 3756.02C1308.97 3712.69 1311.34 3669.35 1310.44 3626C1309.54 3582.59 1314.35 3537.13 1304.31 3494.44" stroke="black" stroke-width="8" stroke-linecap="round"/>
<path d="M1311.35 3475.95C1360.25 3438.33 1439.19 3441.26 1489.58 3473.69C1495.52 3477.51 1500.18 3484.24 1504.22 3490.02C1505.27 3491.52 1506.35 3486.34 1507.79 3484.64C1518.82 3471.61 1538.99 3464.62 1554.24 3458.45C1589.08 3444.34 1622.87 3441.57 1660.32 3446.89C1679.28 3449.59 1713.49 3455.53 1723.88 3476.3C1725.1 3478.74 1723.39 3482.36 1722.89 3484.71C1719.17 3502.07 1718.12 3520.01 1717.37 3537.7C1714.63 3602.32 1711.65 3666.92 1705.21 3731.28C1704.11 3742.31 1705.1 3753.22 1705.46 3764.26C1705.52 3766.14 1704.33 3764.27 1703.73 3763.69C1696.66 3756.87 1687.74 3751.75 1678.7 3748C1659.8 3740.15 1637.16 3739.31 1617.02 3736.86C1600.2 3734.82 1583.6 3733.93 1566.68 3735.02C1548.38 3736.21 1528.29 3737.78 1511.71 3746.37C1504.8 3749.95 1499.63 3755.15 1495.1 3761.36C1493.46 3763.6 1492.45 3761.28 1490.78 3759.73C1443.49 3715.89 1359.45 3721.44 1315.98 3767.69C1312.26 3771.64 1305.18 3786.28 1306.65 3781.05C1308.29 3775.22 1308.37 3769.36 1309.09 3763.41C1310.23 3754.02 1312.97 3745.38 1313.26 3735.8C1313.68 3722.16 1314.71 3708.54 1315.03 3694.9C1315.9 3656.81 1310.3 3618.46 1308.2 3580.48C1306.57 3550.88 1305.71 3520.33 1307.96 3490.72C1308.1 3488.82 1310.09 3452.72 1309.44 3453.04" stroke="black" stroke-width="8" stroke-linecap="round"/>
<path d="M1504.15 3492.12C1502.17 3480.28 1502.92 3516.11 1502.45 3528.11C1501 3565.5 1497.28 3602.77 1495.89 3640.14C1494.44 3679.19 1493.13 3718.32 1491.63 3757.31" stroke="black" stroke-width="8" stroke-linecap="round"/>
<path d="M1287 3341.84C1297 3347.27 1304.54 3353.62 1313.32 3360.65" stroke="black" stroke-width="17" stroke-linecap="round"/>
<path d="M1527.67 3308C1528.17 3323.5 1529.06 3337.89 1527.67 3353.13" stroke="black" stroke-width="17" stroke-linecap="round"/>
<path d="M1787.14 3368.17C1768.14 3372.92 1751.58 3396.21 1738.26 3409.53" stroke="black" stroke-width="17" stroke-linecap="round"/>
<path d="M2824.37 3180.85C2828.24 3179.99 2835.22 3169.28 2837.15 3167.11C2862.41 3138.81 2888.44 3110.9 2914.87 3083.69C2929.99 3068.13 2954 3042.37 2978.19 3046.23C2990.41 3048.18 2997.02 3059.42 2994.45 3070.85C2991.53 3083.84 2981.3 3095.1 2973.87 3105.79C2958.39 3128.04 2939.51 3148.55 2922.24 3169.4C2908.53 3185.95 2892.34 3201.23 2879.7 3218.6C2878.77 3219.87 2875.45 3225.35 2873.99 3225.35" stroke="black" stroke-width="8" stroke-linecap="round"/>
<path d="M2820.09 3189.41C2823.84 3189.82 2830.38 3196.16 2833.21 3197.87C2845.23 3205.13 2859.62 3211.99 2868.87 3222.78" stroke="black" stroke-width="8" stroke-linecap="round"/>
<path d="M2820.95 3191.97C2820.24 3191.45 2820.24 3191.61 2820 3192.59C2817.58 3202.24 2813.95 3211.47 2810.73 3220.88C2806.35 3233.67 2805.07 3247.35 2800.89 3259.9C2800.8 3260.15 2800.72 3260.47 2801.08 3260.24C2808.02 3255.69 2815.67 3252.11 2823.04 3248.35C2826.54 3246.57 2862.2 3225.53 2864.58 3227.91" stroke="black" stroke-width="8" stroke-linecap="round"/>
<path d="M2795.28 3268.98C2794.98 3271.64 2791.62 3274.46 2791 3277.54" stroke="black" stroke-width="8" stroke-linecap="round"/>
<path d="M2941.01 3075.82C2949.93 3085.63 2960.21 3093.48 2970.72 3101.57" stroke="black" stroke-width="8" stroke-linecap="round"/>
<path d="M2789.68 3283.84C2794.55 3284.45 2786.39 3298.92 2785.09 3301.7C2760.28 3354.87 2718.92 3413.73 2669.54 3445.81C2627.13 3473.38 2509.44 3512.42 2512.92 3421.07C2513.61 3403.16 2529.11 3361.68 2555.27 3372.1C2585.93 3384.31 2589.87 3431.68 2584.09 3458.31C2573.32 3507.88 2519.7 3564.94 2474.41 3586.36C2422.27 3611.01 2373.91 3570.53 2335.39 3539.94C2269.52 3487.61 2207.45 3428.95 2133.88 3387.15C2094.14 3364.57 2051.26 3353.53 2005.58 3351.95C1983.72 3351.19 1956.42 3352.79 1935.18 3359.09C1881.54 3374.99 1926.89 3367.82 1876 3389.44" stroke="black" stroke-width="8" stroke-linecap="round"/>
<path d="M2951.1 3022.56C2950.52 3018.36 2950.08 3014.21 2949.7 3010" stroke="black" stroke-width="17" stroke-linecap="round"/>
<path d="M3006.91 3030.93C3011.22 3027.85 3015.23 3024.34 3019.47 3021.16" stroke="black" stroke-width="17" stroke-linecap="round"/>
<path d="M3019.46 3070C3025.91 3070.88 3030.91 3074.96 3036.21 3078.37" stroke="black" stroke-width="17" stroke-linecap="round"/>
<path d="M462.999 3290.69C408.465 3264.76 352.545 3241.4 301.101 3209.56C297.854 3207.55 294.369 3206.66 290.723 3205.59C285.926 3204.18 282.298 3203.37 277.414 3205.41C254.937 3214.79 234.182 3231.85 213.619 3244.6C180.086 3265.39 145.365 3286.2 109.166 3302.17C109.092 3302.2 103.926 3304.05 104.893 3304.97C108.025 3307.98 112.831 3308.49 116.858 3310.1C132.685 3316.46 137.556 3318.53 154.342 3326.22C180.49 3338.2 206.397 3350.73 232.483 3362.85C248.968 3370.51 253.189 3372.33 268.44 3379.82C270.533 3380.85 281.547 3386.86 285.656 3387.76C292.446 3389.24 303.3 3379.31 307.572 3376.52C337.055 3357.25 366.923 3338.65 396.946 3320.24C415.057 3309.13 433.244 3295.34 453.11 3287.39" stroke="black" stroke-width="8" stroke-linecap="round"/>
<path d="M394.873 3340.14C394.873 3367.9 395.902 3396.46 392.554 3424.08C392.192 3427.06 390.365 3428.11 387.792 3429.51C377.196 3435.31 365.75 3439.61 354.093 3442.7C326.282 3450.06 296.105 3456.52 267.344 3457.66C233.346 3459 194.346 3453.05 168.02 3429.51C159.237 3421.66 161.866 3413.31 161.976 3401.61C162.176 3380.39 163.014 3359.17 163.014 3337.94" stroke="black" stroke-width="8" stroke-linecap="round"/>
<path d="M119.059 3309.37C117.739 3356.9 112.961 3403.64 117.96 3451.12" stroke="black" stroke-width="8" stroke-linecap="round"/>
<path d="M119.057 3457.72V3466.51" stroke="black" stroke-width="8" stroke-linecap="round"/>
<path d="M119.057 3466.51C115.896 3477.39 106.446 3485.3 102.94 3495.93C101.377 3500.67 98.4366 3505.87 105.626 3507.04C114.446 3508.47 125.041 3507.7 133.83 3506.07C142.992 3504.37 123.24 3470.48 120.155 3464.31" stroke="black" stroke-width="8" stroke-linecap="round"/>
<path d="M113.566 3497.28C115.02 3493.65 122.073 3484.61 118.817 3486.78C115.806 3488.79 116.172 3498.41 115.764 3501.67" stroke="black" stroke-width="8" stroke-linecap="round"/>
<path d="M285.853 3210.28C330.739 3226.39 371.845 3253.76 413.152 3277.24C427.103 3285.17 441.433 3293.52 454.551 3302.7C457.605 3304.84 455.174 3305.08 451.769 3306.45C420.569 3319.01 468.01 3297.75 420.64 3318.22C384.273 3333.92 350.464 3354.35 316.768 3375.02C304.564 3382.5 290.116 3396.13 274.834 3390.42C247.607 3380.25 221.683 3365.07 195.139 3353.2C161.051 3337.94 130.332 3324.76 104.211 3298.64C99.1334 3293.56 115.546 3289.66 121.969 3286.44C149.697 3272.58 177.493 3258.83 205.622 3245.79C232.879 3233.16 262.695 3223.15 287.778 3206.43" stroke="black" stroke-width="8" stroke-linecap="round"/>
<path d="M169.032 3352.13C169.032 3349.02 169.206 3364.71 169.508 3367.46C171.385 3384.56 170.277 3419.96 182.701 3433.19C219.746 3472.64 275.112 3473.92 325.095 3462.78C334.167 3460.76 343.423 3457.76 351.72 3453.51C359.728 3449.42 369.523 3447.93 376.799 3442.58C385.721 3436.01 390.426 3437.46 391.3 3426.53C392.551 3410.9 392.769 3394.77 392.608 3379.11C392.546 3373.09 393.986 3344.45 390.468 3343.57" stroke="black" stroke-width="8" stroke-linecap="round"/>
<path d="M127.32 3327.52C126.11 3326.46 127.746 3357.94 127.736 3359.31C127.444 3397.59 128.39 3435.8 128.39 3474.07" stroke="black" stroke-width="8" stroke-linecap="round"/>
<path d="M126.247 3479.43C126.247 3476.53 112.461 3500.93 111.27 3506.59C110.518 3510.16 137.49 3505.39 142.649 3505.1C143.693 3505.04 133.249 3487.43 128.386 3489.05" stroke="black" stroke-width="8" stroke-linecap="round"/>
<path d="M102.452 3216.34C109.441 3224.24 116.634 3231.88 123.875 3239.55" stroke="black" stroke-width="17" stroke-linecap="round"/>
<path d="M252.415 3136C255.636 3140.29 256.525 3150.86 257.771 3155.64" stroke="black" stroke-width="17" stroke-linecap="round"/>
<path d="M454.151 3189.56C447.771 3197.45 441.252 3205.19 434.513 3212.77" stroke="black" stroke-width="17" stroke-linecap="round"/>
</svg>
