<svg width="22" height="21" viewBox="0 0 22 21" fill="none" xmlns="http://www.w3.org/2000/svg">
<path d="M0.75 9.6921C0.75 12.5434 2.30491 15.0502 4.63863 16.6714C4.62822 16.7664 4.60201 16.9158 4.53242 17.1749C4.38721 17.7149 4.09882 18.4854 3.49384 19.3428C3.49366 19.3431 3.49348 19.3433 3.49329 19.3436L3.04482 19.9687L2.76696 20.356L3.24357 20.3644L4.02014 20.378L4.02014 20.378L4.02342 20.3781C6.58254 20.3894 8.15857 18.8585 8.61098 18.3601C9.37424 18.5228 10.1723 18.6342 11 18.6342C16.5882 18.6342 21.25 14.691 21.25 9.6921C21.25 4.69324 16.5882 0.75 11 0.75C5.41009 0.75 0.75 4.69327 0.75 9.6921ZM8.53861 17.0241L8.53862 17.0241L8.5338 17.023L8.28856 16.9685L8.13646 16.9347L8.03912 17.0564L7.8804 17.2548L7.87287 17.263C7.86443 17.2721 7.85126 17.2861 7.83349 17.3043C7.79793 17.3409 7.74401 17.3946 7.67271 17.4606C7.53002 17.5927 7.31842 17.7734 7.04597 17.9645C6.60186 18.2761 6.00112 18.6118 5.2773 18.8127C5.51926 18.336 5.70611 17.8915 5.80543 17.5228L5.80544 17.5227C5.8959 17.1866 5.94224 16.902 5.96602 16.7C5.97791 16.5989 5.98417 16.5183 5.98747 16.462C5.98912 16.4339 5.99003 16.4118 5.99053 16.3963L5.99101 16.3779L5.99111 16.3726L5.99113 16.3708L5.99113 16.3702L5.99114 16.37L5.99114 16.3699L5.74114 16.3678L5.99114 16.3698V16.3678V16.1499V16.0134L5.87633 15.9396L5.6856 15.8169L5.68424 15.8161C3.46535 14.4098 2.06744 12.1828 2.06744 9.6921C2.06744 5.54318 5.99299 2.06744 11 2.06744C16.0053 2.06744 19.9326 5.54321 19.9326 9.6921C19.9326 13.841 16.0053 17.3168 11 17.3168C10.1464 17.3168 9.31816 17.2136 8.53861 17.0241Z" fill="black" stroke="black" stroke-width="0.5"/>
</svg>
