<svg width="57" height="60" viewBox="0 0 57 60" fill="none" xmlns="http://www.w3.org/2000/svg">
<path d="M33.5917 28.5507C33.9497 28.5507 34.2931 28.4085 34.5463 28.1553C34.7995 27.9021 34.9417 27.5587 34.9417 27.2007C34.9417 25.8658 35.2767 23.6255 37.516 23.6255C39.7553 23.6255 40.0912 25.8655 40.0912 27.2007C40.0912 27.5587 40.2334 27.9021 40.4866 28.1553C40.7398 28.4085 41.0832 28.5507 41.4412 28.5507H47.9304C48.2884 28.5507 48.6318 28.4085 48.885 28.1553C49.1382 27.9021 49.2804 27.5587 49.2804 27.2007V7.8134C49.2798 7.07363 48.9856 6.36434 48.4626 5.84124C47.9395 5.31815 47.2302 5.02401 46.4904 5.0234H42.7109C42.3027 1.9326 40.3544 0 37.5156 0C34.6768 0 32.7294 1.9326 32.3212 5.0234H7.7148C6.97504 5.02404 6.26576 5.31819 5.74267 5.84127C5.21959 6.36436 4.92544 7.07364 4.9248 7.8134V32.4334C1.8916 32.8699 0 34.8074 0 37.615C0 40.4226 1.8916 42.3591 4.9248 42.7957V46.5886C4.92544 47.3284 5.21959 48.0376 5.74267 48.5607C6.26576 49.0838 6.97504 49.378 7.7148 49.3786H25.6611C26.4009 49.378 27.1101 49.0838 27.6332 48.5607C28.1563 48.0376 28.4505 47.3284 28.4511 46.5886V28.5507H33.5917ZM32.5968 7.7226C32.695 7.72258 32.7928 7.71212 32.8888 7.6914C32.966 7.6845 33.0714 7.6777 33.1779 7.6709C33.6603 7.6386 34.9415 7.5547 34.9415 6.2734C34.9415 4.9384 35.2765 2.6992 37.5158 2.6992C39.7551 2.6992 40.0908 4.9384 40.0908 6.2734C40.0908 7.5534 41.372 7.6386 41.8544 7.6709C41.9599 7.6777 42.0644 7.6845 42.1415 7.6904C42.238 7.71204 42.3366 7.72284 42.4355 7.7226H46.4892C46.5012 7.72249 46.513 7.72477 46.5241 7.72929C46.5351 7.73382 46.5452 7.7405 46.5536 7.74896C46.5621 7.75741 46.5688 7.76746 46.5733 7.77853C46.5778 7.78959 46.5801 7.80145 46.58 7.8134V25.8515H42.6968C42.2603 22.8183 40.3228 20.9267 37.5152 20.9267C34.7076 20.9267 32.771 22.8183 32.3345 25.8515H28.4511V20.247C28.4514 19.8943 28.3136 19.5555 28.0672 19.3032C27.8208 19.0509 27.4854 18.9051 27.1328 18.897C25.54 18.8599 23.6415 18.3843 23.6415 16.3277C23.6415 14.2711 25.54 13.7955 27.1328 13.7584C27.4854 13.7503 27.8208 13.6045 28.0672 13.3522C28.3136 13.0998 28.4514 12.7611 28.4511 12.4084V7.7226H32.5968ZM25.7519 46.5888C25.7518 46.6129 25.7422 46.6359 25.7252 46.6529C25.7082 46.6699 25.6852 46.6796 25.6611 46.6797H7.7148C7.69074 46.6796 7.66771 46.6699 7.6507 46.6529C7.6337 46.6359 7.6241 46.6129 7.624 46.5888V41.5388C7.624 41.1808 7.48177 40.8374 7.22859 40.5842C6.97542 40.331 6.63204 40.1888 6.274 40.1888C4.939 40.1888 2.6988 39.8539 2.6988 37.6146C2.6988 35.3753 4.9388 35.0394 6.274 35.0394C6.45128 35.0394 6.62683 35.0045 6.79062 34.9366C6.95441 34.8688 7.10323 34.7694 7.22859 34.644C7.35395 34.5186 7.45339 34.3698 7.52124 34.206C7.58908 34.0422 7.624 33.8667 7.624 33.6894V28.5494H11.5068C11.9433 31.5827 13.8808 33.4733 16.6884 33.4733C19.496 33.4733 21.4326 31.5827 21.8691 28.5494H25.7519V46.5888Z" fill="#888888"/>
<path d="M56.5928 51.791C56.5918 51.4338 56.449 51.0915 56.1959 50.8394C55.9428 50.5873 55.6001 50.4459 55.2428 50.4463H55.2369C54.2412 50.4826 53.2563 50.229 52.4019 49.7163C52.0847 49.4854 51.8306 49.1785 51.6629 48.8238C51.4952 48.4691 51.4192 48.078 51.4419 47.6863C51.4302 45.2703 53.7935 44.8963 55.2037 44.8894C55.3808 44.8887 55.5561 44.8531 55.7194 44.7846C55.8828 44.7161 56.031 44.6161 56.1557 44.4904C56.2804 44.3646 56.3791 44.2154 56.4461 44.0515C56.5132 43.8876 56.5472 43.712 56.5464 43.5349L56.523 37.6111C56.5216 37.254 56.3788 36.912 56.1257 36.6599C55.8727 36.4079 55.5301 36.2664 55.173 36.2664H55.1681L49.9347 36.2869C49.8028 35.2393 49.4193 34.2392 48.8169 33.372C48.355 32.7347 47.7436 32.2206 47.0364 31.8751C46.3292 31.5296 45.5479 31.3632 44.7613 31.3906H44.7313C43.9386 31.3658 43.1521 31.5377 42.442 31.8909C41.7319 32.2442 41.1204 32.7678 40.662 33.415C40.0685 34.2887 39.6945 35.2927 39.572 36.3418L34.342 36.3618C34.1645 36.3622 33.9889 36.3976 33.8251 36.466C33.6613 36.5344 33.5127 36.6344 33.3876 36.7604C33.2626 36.8864 33.1636 37.0357 33.0965 37.2C33.0293 37.3643 32.9952 37.5402 32.9961 37.7177L33.085 57.1064C33.0883 57.8439 33.3837 58.5501 33.9064 59.0704C34.4291 59.5907 35.1366 59.8828 35.8741 59.8828H35.8877L53.836 59.7998C54.5755 59.7956 55.2832 59.4983 55.8037 58.9729C56.3242 58.4476 56.615 57.7372 56.6123 56.9977L56.5928 51.791Z" fill="#888888"/>
</svg>
