<?xml version="1.0" encoding="UTF-8"?>
<svg version="1.1" viewBox="0 0 2000 2000" width="1280" height="1280" xmlns="http://www.w3.org/2000/svg">
<path transform="translate(0)" d="m0 0h2e3v2e3h-2e3z" fill="#FEFDFE"/>
<path transform="translate(1311,561)" d="m0 0h21l14 3 12 4 15 8 13 10 10 12 9 16 6 14 4 15 1 7v12l-4 20-6 15-6 11-8 10-6 7-8 6-10 6-16 8-36 17-68 32-28 13-34 16-28 13-40 19-36 17-28 13-36 17-136 64-16 7-16 8-36 17-16 7-16 8-32 15-28 13-16 7-16 4h-17l-23-5-16-7-11-7-12-11-9-11-8-14-5-11-4-14-1-7v-14l3-18 6-16 8-14 11-13 13-10 18-10 36-17 28-13 34-16 28-13 29-14 49-23 41-19 29-14 24-11 25-12 41-19 26-12 16-8 26-12 36-17 136-64 39-18 14-5z" fill="#775AFB"/>
<path transform="translate(1214,838)" d="m0 0h21l18 4 15 6 13 8 10 9 9 10 8 13 4 8 5 15 2 12v18l-1 9-7 21-6 11-9 12-6 7h-2v2l-14 9-16 8-36 17-20 9-12 6-56 26-12 6-28 13-40 19-33 15-16 8-60 28-19 9-28 13-40 19-28 13-20 9-13 6-14 4-8 1h-18l-14-2-16-6-11-6-9-6v-2l-4-2-6-6v-2h-2l-10-15-7-15-4-12-2-11v-17l3-19 6-15 6-10 1-3h2l2-5 13-13 13-8 16-8 23-11 28-13 38-18 30-14 38-18 28-13 68-32 30-14 36-17 32-15 28-13 22-10 16-8 30-14 17-7z" fill="#F96360"/>
<path transform="translate(1095,1135)" d="m0 0h23l16 3 15 6 11 6 11 9 9 9 8 13 5 10 6 17 2 9v26l-4 16-5 12-5 9-9 12-11 11-13 8-16 8-17 8-15 7-31 15-28 13-38 18-28 13-38 18-33 15-8 4-18 7-14 3h-10l-17-3-14-4-17-8-13-10-11-11-9-15-7-14-4-13-1-5v-22l2-13 5-15 8-15 11-14 13-11 27-14 60-28 18-8 15-7 31-15 28-13 36-17 18-8 14-7 23-10 12-4z" fill="#FFE773"/>
</svg>
