<svg width="24" height="15" viewBox="0 0 24 15" fill="none" xmlns="http://www.w3.org/2000/svg">
<g clip-path="url(#clip0_6_28)">
<path d="M23.5 4H22V2.5C22 2.36739 21.9473 2.24021 21.8536 2.14645C21.7598 2.05268 21.6326 2 21.5 2H20V0.5C20 0.367392 19.9473 0.240215 19.8536 0.146447C19.7598 0.0526784 19.6326 0 19.5 0L0.5 0C0.367392 0 0.240215 0.0526784 0.146447 0.146447C0.0526784 0.240215 0 0.367392 0 0.5L0 10.41C0 10.5426 0.0526784 10.6698 0.146447 10.7636C0.240215 10.8573 0.367392 10.91 0.5 10.91H2V12.41C2 12.5426 2.05268 12.6698 2.14645 12.7636C2.24021 12.8573 2.36739 12.91 2.5 12.91H4V14.41C4 14.5426 4.05268 14.6698 4.14645 14.7636C4.24021 14.8573 4.36739 14.91 4.5 14.91H23.5C23.6326 14.91 23.7598 14.8573 23.8536 14.7636C23.9473 14.6698 24 14.5426 24 14.41V4.5C24 4.36739 23.9473 4.24021 23.8536 4.14645C23.7598 4.05268 23.6326 4 23.5 4ZM15.8 9.91H4.2C4.0895 9.10024 3.71681 8.34897 3.13892 7.77108C2.56103 7.19319 1.80976 6.8205 1 6.71V4.2C1.80976 4.0895 2.56103 3.71681 3.13892 3.13892C3.71681 2.56103 4.0895 1.80976 4.2 1H15.8C15.9105 1.80976 16.2832 2.56103 16.8611 3.13892C17.439 3.71681 18.1902 4.0895 19 4.2V6.71C18.1902 6.8205 17.439 7.19319 16.8611 7.77108C16.2832 8.34897 15.9105 9.10024 15.8 9.91ZM19 7.71V9.91H16.79C16.8936 9.36324 17.1601 8.86059 17.5545 8.46798C17.9489 8.07538 18.4528 7.81116 19 7.71ZM19 1V3.21C18.4514 3.10818 17.9466 2.84249 17.552 2.44796C17.1575 2.05343 16.8918 1.54858 16.79 1H19ZM1 1H3.21C3.10818 1.54858 2.84249 2.05343 2.44796 2.44796C2.05343 2.84249 1.54858 3.10818 1 3.21V1ZM1 7.71C1.54722 7.81116 2.05108 8.07538 2.44547 8.46798C2.83986 8.86059 3.10636 9.36324 3.21 9.91H1V7.71ZM3 10.92H19.5C19.6326 10.92 19.7598 10.8673 19.8536 10.7736C19.9473 10.6798 20 10.5526 20 10.42V3H21V11.91H3V10.92ZM23 13.92H5V12.92H21.5C21.6326 12.92 21.7598 12.8673 21.8536 12.7736C21.9473 12.6798 22 12.5526 22 12.42V5H23V13.92Z" fill="#3FB1B5"/>
<path d="M10 2.06C9.32952 2.06 8.6741 2.25882 8.11662 2.63132C7.55914 3.00381 7.12463 3.53326 6.86805 4.1527C6.61147 4.77214 6.54434 5.45376 6.67514 6.11135C6.80594 6.76895 7.12881 7.37299 7.60291 7.84709C8.07701 8.32119 8.68105 8.64406 9.33865 8.77486C9.99624 8.90566 10.6779 8.83853 11.2973 8.58195C11.9167 8.32537 12.4462 7.89086 12.8187 7.33338C13.1912 6.7759 13.39 6.12048 13.39 5.45C13.3874 4.55172 13.0294 3.691 12.3942 3.05582C11.759 2.42064 10.8983 2.06264 10 2.06ZM10 7.84C9.5273 7.84 9.06522 7.69983 8.67219 7.43721C8.27916 7.17459 7.97282 6.80133 7.79193 6.36461C7.61104 5.9279 7.56371 5.44735 7.65593 4.98373C7.74814 4.52012 7.97577 4.09426 8.31002 3.76001C8.64426 3.42576 9.07012 3.19814 9.53374 3.10592C9.99735 3.0137 10.4779 3.06103 10.9146 3.24193C11.3513 3.42282 11.7246 3.72915 11.9872 4.12218C12.2498 4.51522 12.39 4.9773 12.39 5.45C12.3913 5.7647 12.3305 6.07656 12.211 6.36768C12.0914 6.65881 11.9156 6.92346 11.6935 7.14645C11.4715 7.36944 11.2076 7.54638 10.9169 7.66712C10.6263 7.78785 10.3147 7.85 10 7.85V7.84Z" fill="#3FB1B5"/>
</g>
<defs>
<clipPath id="clip0_6_28">
<rect width="24" height="14.92" fill="white"/>
</clipPath>
</defs>
</svg>
