<svg width="512" height="512" viewBox="0 0 512 512" fill="none" xmlns="http://www.w3.org/2000/svg">
<path d="M458.67 258.92V242.1C458.652 226.017 452.253 210.598 440.879 199.227C429.504 187.857 414.083 181.463 398 181.45H379.64C371.88 107.41 323.3 57.31 256 57.31C188.7 57.31 140.13 107.41 132.37 181.45H114C97.9169 181.463 82.4959 187.857 71.1215 199.227C59.7472 210.598 53.3486 226.017 53.33 242.1V258.92C42.8294 260.323 33.0878 265.16 25.6237 272.678C18.1595 280.196 13.3922 289.972 12.0647 300.483C10.7372 310.993 12.9241 321.647 18.2846 330.785C23.6451 339.923 31.8779 347.03 41.7 351C42.7159 351.419 43.8193 351.581 44.9127 351.472C46.0062 351.363 47.0559 350.987 47.9693 350.376C48.8827 349.765 49.6315 348.939 50.1496 347.97C50.6678 347.001 50.9392 345.919 50.94 344.82V315.22C51.0182 312.865 52.0086 310.633 53.7019 308.995C55.3953 307.357 57.659 306.441 60.015 306.441C62.371 306.441 64.6348 307.357 66.3281 308.995C68.0215 310.633 69.0119 312.865 69.09 315.22V344.83C69.0943 345.932 69.3703 347.016 69.8936 347.986C70.4169 348.956 71.1713 349.781 72.09 350.39C73.1929 351.122 74.4862 351.515 75.81 351.52C76.6822 351.521 77.5458 351.347 78.35 351.01C88.1772 347.042 96.4148 339.933 101.778 330.792C107.141 321.651 109.328 310.992 107.998 300.477C106.668 289.963 101.895 280.185 94.4247 272.667C86.9542 265.15 77.2058 260.316 66.7 258.92V242.1C66.7133 229.561 71.7015 217.54 80.5697 208.676C89.4379 199.811 101.461 194.828 114 194.82H131.47C131.37 197.38 131.18 199.87 131.18 202.47V407.38C131.18 408.257 131.353 409.126 131.689 409.936C132.024 410.747 132.516 411.483 133.137 412.103C133.757 412.724 134.493 413.216 135.304 413.552C136.114 413.887 136.983 414.06 137.86 414.06H161.41C156.833 418.45 153.19 423.719 150.698 429.551C148.206 435.383 146.918 441.658 146.91 448C146.91 448.878 147.083 449.748 147.419 450.559C147.756 451.37 148.249 452.107 148.87 452.727C149.491 453.347 150.229 453.839 151.041 454.174C151.852 454.509 152.722 454.681 153.6 454.68H230C230.878 454.681 231.748 454.509 232.559 454.174C233.371 453.839 234.109 453.347 234.73 452.727C235.351 452.107 235.844 451.37 236.181 450.559C236.517 449.748 236.69 448.878 236.69 448V414.06H275.34V448C275.34 448.878 275.513 449.748 275.849 450.559C276.186 451.37 276.679 452.107 277.3 452.727C277.921 453.347 278.659 453.839 279.471 454.174C280.282 454.509 281.152 454.681 282.03 454.68H358.4C359.278 454.681 360.148 454.509 360.959 454.174C361.771 453.839 362.509 453.347 363.13 452.727C363.751 452.107 364.244 451.37 364.581 450.559C364.917 449.748 365.09 448.878 365.09 448C365.086 441.658 363.801 435.382 361.313 429.548C358.825 423.714 355.185 418.443 350.61 414.05H374.16C375.038 414.051 375.908 413.88 376.719 413.544C377.531 413.209 378.269 412.717 378.89 412.097C379.511 411.477 380.004 410.74 380.341 409.929C380.677 409.118 380.85 408.248 380.85 407.37V202.47C380.85 199.87 380.66 197.38 380.56 194.82H398C410.539 194.828 422.562 199.811 431.43 208.676C440.299 217.54 445.287 229.561 445.3 242.1V258.92C434.801 260.326 425.061 265.166 417.6 272.685C410.138 280.204 405.374 289.981 404.048 300.491C402.723 311.001 404.912 321.654 410.274 330.79C415.635 339.926 423.868 347.032 433.69 351C434.494 351.337 435.358 351.511 436.23 351.51C437.554 351.505 438.847 351.112 439.95 350.38C440.869 349.771 441.623 348.946 442.147 347.976C442.67 347.006 442.946 345.922 442.95 344.82V315.22C443.028 312.865 444.019 310.633 445.712 308.995C447.405 307.357 449.669 306.441 452.025 306.441C454.381 306.441 456.645 307.357 458.338 308.995C460.031 310.633 461.022 312.865 461.1 315.22V344.83C461.105 345.923 461.378 346.998 461.895 347.961C462.411 348.924 463.156 349.746 464.064 350.355C464.971 350.964 466.014 351.341 467.102 351.453C468.189 351.566 469.287 351.41 470.3 351C480.127 347.033 488.365 339.926 493.729 330.786C499.093 321.647 501.282 310.989 499.954 300.476C498.626 289.962 493.857 280.183 486.389 272.664C478.921 265.145 469.175 260.309 458.67 258.91V258.92ZM94.84 306.45C94.8475 311.522 93.7429 316.535 91.6039 321.134C89.465 325.733 86.3438 329.807 82.46 333.07V315.22C82.46 309.266 80.0948 303.556 75.8846 299.345C71.6744 295.135 65.9641 292.77 60.01 292.77C54.0559 292.77 48.3457 295.135 44.1355 299.345C39.9253 303.556 37.56 309.266 37.56 315.22V333.06C33.0895 329.286 29.6418 324.447 27.5353 318.989C25.4289 313.531 24.7316 307.63 25.5079 301.832C26.2842 296.033 28.509 290.524 31.977 285.812C35.4449 281.1 40.044 277.338 45.3498 274.873C50.6556 272.409 56.4969 271.32 62.3343 271.709C68.1717 272.098 73.817 273.951 78.749 277.098C83.681 280.245 87.7406 284.584 90.5529 289.714C93.3653 294.844 94.8397 300.6 94.84 306.45ZM256 70.68C321.63 70.68 367.47 124.88 367.47 202.47V322.82H144.53V202.47C144.53 124.88 190.37 70.68 256 70.68ZM223.3 441.32H160.94C162.494 433.634 166.658 426.722 172.724 421.754C178.791 416.786 186.389 414.068 194.23 414.06H223.3V441.32ZM351.06 441.32H288.7V414.06H317.77C325.611 414.068 333.209 416.786 339.276 421.754C345.342 426.722 349.506 433.634 351.06 441.32ZM317.77 400.69H144.53V336.19H367.47V400.69H317.77ZM474.44 333.07V315.22C474.44 309.266 472.075 303.556 467.865 299.345C463.654 295.135 457.944 292.77 451.99 292.77C446.036 292.77 440.326 295.135 436.115 299.345C431.905 303.556 429.54 309.266 429.54 315.22V333.07C424.08 328.467 420.167 322.298 418.331 315.397C416.495 308.496 416.824 301.198 419.274 294.49C421.724 287.783 426.177 281.99 432.029 277.898C437.881 273.805 444.849 271.611 451.99 271.611C459.131 271.611 466.099 273.805 471.951 277.898C477.803 281.99 482.256 287.783 484.706 294.49C487.156 301.198 487.485 308.496 485.649 315.397C483.813 322.298 479.9 328.467 474.44 333.07Z" fill="#FF4141"/>
<path d="M256 234.78C269.981 234.78 283.648 230.634 295.273 222.867C306.898 215.099 315.959 204.059 321.309 191.142C326.659 178.225 328.059 164.012 325.332 150.299C322.604 136.587 315.872 123.991 305.985 114.105C296.099 104.218 283.503 97.4859 269.791 94.7583C256.078 92.0307 241.865 93.4306 228.948 98.781C216.031 104.131 204.991 113.192 197.223 124.817C189.456 136.442 185.31 150.109 185.31 164.09C185.331 182.832 192.786 200.8 206.038 214.052C219.29 227.304 237.258 234.759 256 234.78ZM256 106.78C267.337 106.778 278.42 110.138 287.848 116.435C297.276 122.733 304.624 131.684 308.964 142.158C313.304 152.631 314.44 164.157 312.23 175.276C310.019 186.396 304.561 196.61 296.545 204.628C288.529 212.645 278.316 218.105 267.196 220.318C256.077 222.53 244.551 221.396 234.077 217.058C223.602 212.72 214.65 205.373 208.351 195.946C202.052 186.52 198.69 175.437 198.69 164.1C198.703 148.903 204.745 134.331 215.489 123.583C226.233 112.835 240.803 106.789 256 106.77V106.78Z" fill="#FF4141"/>
<path d="M256 203.19C263.733 203.19 271.293 200.897 277.723 196.6C284.153 192.304 289.164 186.198 292.124 179.053C295.083 171.908 295.857 164.047 294.349 156.462C292.84 148.877 289.116 141.91 283.648 136.442C278.18 130.974 271.213 127.25 263.628 125.741C256.043 124.233 248.182 125.007 241.037 127.966C233.893 130.926 227.786 135.937 223.49 142.367C219.193 148.797 216.9 156.357 216.9 164.09C216.911 174.457 221.033 184.396 228.364 191.726C235.694 199.057 245.633 203.179 256 203.19ZM256 138.36C261.089 138.36 266.064 139.869 270.295 142.696C274.526 145.524 277.824 149.542 279.771 154.244C281.719 158.945 282.228 164.119 281.236 169.11C280.243 174.101 277.792 178.685 274.194 182.284C270.595 185.882 266.011 188.333 261.02 189.326C256.029 190.318 250.855 189.809 246.154 187.861C241.452 185.914 237.434 182.616 234.606 178.385C231.779 174.154 230.27 169.179 230.27 164.09C230.278 157.268 232.991 150.729 237.815 145.905C242.639 141.081 249.178 138.368 256 138.36Z" fill="#FF4141"/>
<path d="M327.2 346.32H284.5C282.726 346.32 281.024 347.025 279.769 348.279C278.515 349.534 277.81 351.236 277.81 353.01C277.81 354.784 278.515 356.486 279.769 357.741C281.024 358.995 282.726 359.7 284.5 359.7H327.2C328.974 359.7 330.676 358.995 331.931 357.741C333.185 356.486 333.89 354.784 333.89 353.01C333.89 351.236 333.185 349.534 331.931 348.279C330.676 347.025 328.974 346.32 327.2 346.32Z" fill="#FF4141"/>
</svg>
