<svg width="20" height="20" viewBox="0 0 20 20" fill="none" xmlns="http://www.w3.org/2000/svg">
<path d="M16.3158 0C14.2904 0 12.6316 1.65883 12.6316 3.68421C12.6316 3.99251 12.7361 4.26814 12.8084 4.55489L6.49774 7.71176C5.82059 6.88102 4.83237 6.31579 3.68421 6.31579C1.65883 6.31579 0 7.97462 0 10C0 12.0254 1.65883 13.6842 3.68421 13.6842C4.83237 13.6842 5.82059 13.119 6.49774 12.2882L12.8084 15.4451C12.7361 15.7319 12.6316 16.0075 12.6316 16.3158C12.6316 18.3412 14.2904 20 16.3158 20C18.3412 20 20 18.3412 20 16.3158C20 14.2904 18.3412 12.6316 16.3158 12.6316C15.1676 12.6316 14.1794 13.1968 13.5023 14.0275L7.19161 10.8707C7.26393 10.5839 7.36842 10.3083 7.36842 10C7.36842 9.6917 7.26393 9.41607 7.19161 9.12932L13.5023 5.97245C14.1794 6.80319 15.1676 7.36842 16.3158 7.36842C18.3412 7.36842 20 5.70959 20 3.68421C20 1.65883 18.3412 0 16.3158 0ZM16.3158 1.57895C17.4878 1.57895 18.4211 2.51215 18.4211 3.68421C18.4211 4.85627 17.4878 5.78947 16.3158 5.78947C15.1437 5.78947 14.2105 4.85627 14.2105 3.68421C14.2105 2.51215 15.1437 1.57895 16.3158 1.57895ZM3.68421 7.89474C4.85627 7.89474 5.78947 8.82794 5.78947 10C5.78947 11.1721 4.85627 12.1053 3.68421 12.1053C2.51215 12.1053 1.57895 11.1721 1.57895 10C1.57895 8.82794 2.51215 7.89474 3.68421 7.89474ZM16.3158 14.2105C17.4878 14.2105 18.4211 15.1437 18.4211 16.3158C18.4211 17.4878 17.4878 18.4211 16.3158 18.4211C15.1437 18.4211 14.2105 17.4878 14.2105 16.3158C14.2105 15.1437 15.1437 14.2105 16.3158 14.2105Z" fill="black"/>
</svg>
