<svg width="2297" height="1706" viewBox="0 0 2297 1706" fill="none" xmlns="http://www.w3.org/2000/svg">
<rect width="2297" height="1706" fill="white"/>
<path d="M1085.54 604C1079.2 606.983 1081.34 607.166 1088.72 607.781C1132.18 611.402 1177 606.688 1220.66 607.327C1249.08 607.743 1277.49 605.368 1305.88 606.42C1313.98 606.72 1331.62 601.773 1328.48 613.603C1324.5 628.664 1325.3 646.802 1326.44 662.221C1327.31 673.91 1359.41 666.606 1367.42 666.606C1376.08 666.606 1384.53 667.649 1393.13 667.967C1406.45 668.461 1399.3 691.456 1399.41 700.102C1400.04 751.68 1398.77 803.543 1401.9 855.03C1404.04 890.188 1408.64 927.365 1405.08 962.549C1404.65 966.761 1401.17 989.78 1399.94 989.165" stroke="black" stroke-width="8" stroke-linecap="round"/>
<path d="M1080.1 613.527C1077.78 613.818 1080.05 617.325 1080.1 618.971C1080.56 635.481 1079.33 652.074 1079.04 668.573C1077.99 728.468 1084.51 787.743 1082.07 847.772C1080.17 894.458 1082.82 941.097 1082.82 987.804C1082.82 994.598 1079.51 1006.85 1086.75 1008.29C1088.58 1008.66 1084.47 1011.39 1085.77 1012.91C1089.32 1017.04 1115.36 1012.5 1121.69 1012.98C1151.14 1015.25 1180.72 1009.88 1210.23 1010.49C1240.05 1011.1 1268.49 1011.89 1298.31 1008.52C1327.78 1005.19 1354.58 1002.63 1383.98 1004.06C1400.72 1004.88 1397.21 1005.42 1397.21 989.165" stroke="black" stroke-width="8" stroke-linecap="round"/>
<path d="M1326.44 605.361C1328.5 605.618 1330.7 609.717 1332.04 610.957C1353.22 630.609 1377.13 647.555 1399.94 665.246" stroke="black" stroke-width="8" stroke-linecap="round"/>
<path d="M1076.02 659.803C1048.91 671.852 1010 669.674 986.191 681.579" stroke="black" stroke-width="8" stroke-linecap="round"/>
<path d="M988.913 680.217C982.035 681.077 1013.28 816.776 1014.92 824.861C1027.19 885.039 1041.02 946.355 1047.36 1007.61C1048.54 1018.98 1052.88 1029.37 1052.88 1040.88" stroke="black" stroke-width="8" stroke-linecap="round"/>
<path d="M1052.88 1040.88C1050.26 1043.84 1053.06 1044.97 1055.9 1044.97C1061.61 1044.97 1066.61 1044.37 1072.31 1043.15C1121.75 1032.6 1170.97 1020.72 1220.28 1009.58" stroke="black" stroke-width="8" stroke-linecap="round"/>
<path d="M986.191 710.158C958.241 724.133 927.125 732.42 897.725 742.822" stroke="black" stroke-width="8" stroke-linecap="round"/>
<path d="M903.17 745.545C903.155 745.414 902.412 742.915 902.111 744.033C899.116 755.159 915.079 790.866 916.477 794.844C951.761 895.2 992.686 993.71 1024.3 1095.32" stroke="black" stroke-width="8" stroke-linecap="round"/>
<path d="M1020.22 1100.77C1019.54 1100.77 1027.39 1099.21 1029.14 1098.5C1102.85 1068.38 1175.99 1036.99 1250.23 1008.22" stroke="black" stroke-width="8" stroke-linecap="round"/>
<path d="M1123.65 719.686C1198.49 719.686 1273.34 722.851 1348.22 722.408" stroke="black" stroke-width="8" stroke-linecap="round"/>
<path d="M1120.93 771.404C1193.01 776.948 1266.44 772.173 1338.69 771.404" stroke="black" stroke-width="8" stroke-linecap="round"/>
<path d="M1123.65 819.039C1123.65 830.443 1339.38 819.15 1344.14 819.039" stroke="black" stroke-width="8" stroke-linecap="round"/>
<path d="M1135.9 883.007C1132.63 882.597 1137.43 882.174 1138.7 882.402C1152.67 884.909 1170.73 883.735 1183.99 883.763C1235.11 883.868 1286.22 884.05 1337.33 884.368" stroke="black" stroke-width="8" stroke-linecap="round"/>
<path d="M1122.29 932.002C1119.78 931.643 1129.85 930.648 1130.31 930.641C1199.77 929.663 1269.25 927.437 1338.69 925.197" stroke="black" stroke-width="8" stroke-linecap="round"/>
<path d="M1073.01 613.926C1153.41 613.926 1235.08 601.774 1315.27 607.121" stroke="black" stroke-width="16" stroke-linecap="round"/>
<path d="M1315.27 608.482C1315.27 630.932 1316.4 652.687 1319.36 675.172" stroke="black" stroke-width="16" stroke-linecap="round"/>
<path d="M1317.99 677.894C1339.82 677.894 1361.45 677.385 1383.32 676.533" stroke="black" stroke-width="16" stroke-linecap="round"/>
<path d="M1384.68 676.533C1386.01 676.723 1385.13 677.792 1384.99 678.802C1383.17 691.237 1385.06 706.448 1385.29 718.422C1387.13 814.82 1389.52 911.155 1381.96 1007.26" stroke="black" stroke-width="16" stroke-linecap="round"/>
<path d="M1073.01 622.092C1065.19 646.534 1075.11 685.837 1076.64 708.667C1083.34 808.314 1082.54 907.568 1082.54 1007.26" stroke="black" stroke-width="16" stroke-linecap="round"/>
<path d="M1079.82 1001.81C1179.66 1001.81 1279.43 1000.92 1379.24 999.09" stroke="black" stroke-width="16" stroke-linecap="round"/>
<path d="M1316.63 608.482C1344.7 630.581 1371.32 654.481 1398.29 677.894" stroke="black" stroke-width="16" stroke-linecap="round"/>
<path d="M1075.74 665.645C1070.59 661.525 1049.07 670.113 1045.11 671.089C1025.45 675.931 1005.85 679.869 985.909 683.338" stroke="black" stroke-width="16" stroke-linecap="round"/>
<path d="M989.993 673.811C984.153 674.54 1005.09 809.881 1005.42 812.179C1015.66 883.023 1028.41 953.458 1043.07 1023.51C1045.27 1034.04 1047.76 1044.36 1048.52 1054.89" stroke="black" stroke-width="16" stroke-linecap="round"/>
<path d="M1047.15 1054.89C1048.8 1055.1 1050.18 1056.26 1052.14 1056.56C1069.53 1059.18 1092.86 1050.77 1108.1 1047.03C1157.61 1034.86 1207.17 1022.86 1256.75 1011.34" stroke="black" stroke-width="16" stroke-linecap="round"/>
<path d="M980.465 711.918C975.023 712.078 971.232 713.352 966.175 715.623C942.143 726.417 919.165 738.834 896.083 751.387" stroke="black" stroke-width="16" stroke-linecap="round"/>
<path d="M894.722 750.027L893.361 748.666" stroke="black" stroke-width="16" stroke-linecap="round"/>
<path d="M892 739.139C892.204 748.509 893.375 753.714 896.537 763.939C913.777 819.687 935.917 874.07 957.631 928.167C980.564 985.302 1007.65 1041.65 1024.02 1101.17" stroke="black" stroke-width="16" stroke-linecap="round"/>
<path d="M1022.66 1102.53C1022.66 1102.32 1022.47 1102 1022.66 1101.92C1029.51 1099.18 1036.67 1096.96 1043.6 1094.36C1107.82 1070.22 1171.91 1045.89 1236.71 1023.36C1259.27 1015.52 1282.5 1008.81 1304.38 999.09" stroke="black" stroke-width="16" stroke-linecap="round"/>
<path d="M1750.17 1018.08C1750.76 1017.57 1753.22 1014.16 1752.02 1015.55C1742.56 1026.57 1736.73 1046.56 1731.52 1058.8C1697.02 1139.8 1665 1221.18 1623.97 1299.11C1623.35 1300.28 1616.32 1311.96 1618.09 1312.89C1664.81 1337.22 1715.18 1356.07 1763.3 1377.31C1798.64 1392.9 1834.76 1407.73 1868.91 1425.88C1870.99 1426.99 1872.25 1427.14 1874.54 1427.27" stroke="black" stroke-width="9" stroke-linecap="round"/>
<path d="M1750.55 1011.61C1750.07 1010.51 1749.1 1008.96 1748.98 1011.32C1748.08 1029.27 1755.38 1048.31 1760.61 1064.77C1799.6 1187.42 1849.13 1306.31 1882.17 1430.84" stroke="black" stroke-width="9" stroke-linecap="round"/>
<path d="M1725.13 1221.63C1716.47 1240.1 1711.87 1260.73 1704.52 1279.74" stroke="black" stroke-width="9" stroke-linecap="round"/>
<path d="M1708.88 1281.78C1705.3 1292.79 1770.05 1317.25 1777.13 1320.44" stroke="black" stroke-width="9" stroke-linecap="round"/>
<path d="M1731.2 1205.87C1726.3 1217.28 1722.75 1229.48 1718.62 1241.17" stroke="black" stroke-width="9" stroke-linecap="round"/>
<path d="M1735.73 1193.38C1732.15 1200.99 1730.39 1208.46 1728.78 1216.69" stroke="black" stroke-width="9" stroke-linecap="round"/>
<path d="M1738.86 1189.53C1739.33 1199.79 1742.95 1209.61 1746.01 1219.31C1755.75 1250.23 1766.1 1280.95 1775.84 1311.86" stroke="black" stroke-width="9" stroke-linecap="round"/>
<path d="M1766.3 1094.99C1765.51 1095.31 1764.78 1095.6 1763.97 1095.83" stroke="black" stroke-width="9" stroke-linecap="round"/>
<path d="M1770.44 1093.71C1767.4 1094.81 1764.32 1095.8 1761.25 1096.81" stroke="black" stroke-width="9" stroke-linecap="round"/>
<path d="M1774.03 1101.84C1772.9 1102.32 1771.83 1103.17 1770.82 1103.87" stroke="black" stroke-width="9" stroke-linecap="round"/>
<path d="M1773.92 1102.76C1773.39 1103.62 1770.23 1104.09 1769.27 1104.44" stroke="black" stroke-width="9" stroke-linecap="round"/>
<path d="M1775.81 1110.4C1775.11 1111.36 1772.89 1111.68 1771.81 1112.07" stroke="black" stroke-width="9" stroke-linecap="round"/>
<path d="M1781.02 1120.57C1778.88 1122.41 1775.55 1123.39 1773.03 1124.56" stroke="black" stroke-width="9" stroke-linecap="round"/>
<path d="M1783.32 1134.21C1782.43 1133.9 1781.69 1134.76 1780.85 1134.66" stroke="black" stroke-width="9" stroke-linecap="round"/>
<path d="M1786.48 1140.52C1786.66 1141.45 1785.8 1141.93 1785.22 1142.51" stroke="black" stroke-width="9" stroke-linecap="round"/>
<path d="M1790.04 1152.82C1787.23 1151.86 1781.72 1155.5 1779.31 1156.48" stroke="black" stroke-width="9" stroke-linecap="round"/>
<path d="M1794.37 1164.18C1794.36 1164.04 1791.23 1165.01 1790.74 1165.06" stroke="black" stroke-width="9" stroke-linecap="round"/>
<path d="M1798.18 1170.48C1797.04 1171.36 1795.87 1172.02 1794.58 1172.66" stroke="black" stroke-width="9" stroke-linecap="round"/>
<path d="M1800.18 1182.69C1797.64 1184.26 1795.17 1185.49 1792.32 1186.41" stroke="black" stroke-width="9" stroke-linecap="round"/>
<path d="M1803.14 1191.48C1802.1 1191.57 1801.14 1191.99 1800.16 1192.34" stroke="black" stroke-width="9" stroke-linecap="round"/>
<path d="M1807.35 1198.29C1806.53 1198.7 1805.75 1199.54 1804.92 1200.05" stroke="black" stroke-width="9" stroke-linecap="round"/>
<path d="M1809.96 1208.52C1807.54 1209.56 1805.17 1211.32 1802.89 1212.61" stroke="black" stroke-width="9" stroke-linecap="round"/>
<path d="M1814.72 1216.23C1814.06 1217.31 1811.55 1217.89 1810.47 1218.42" stroke="black" stroke-width="9" stroke-linecap="round"/>
<path d="M1817.41 1224.9C1816.76 1225.74 1814.48 1226.33 1813.55 1226.95" stroke="black" stroke-width="9" stroke-linecap="round"/>
<path d="M1820.81 1235.5C1818.24 1235.68 1815.73 1238.03 1813.6 1239.21" stroke="black" stroke-width="9" stroke-linecap="round"/>
<path d="M1822.36 1245.25C1821.41 1246.65 1819.81 1247.42 1818.39 1248.22" stroke="black" stroke-width="9" stroke-linecap="round"/>
<path d="M1825.23 1250.78C1824.2 1251.21 1823.21 1251.6 1822.13 1251.9" stroke="black" stroke-width="9" stroke-linecap="round"/>
<path d="M1828.17 1258.93C1827.85 1258.82 1827.59 1259.13 1827.34 1259.32C1825.02 1261.12 1822.14 1262.25 1819.55 1263.58" stroke="black" stroke-width="9" stroke-linecap="round"/>
<path d="M1832.59 1268.6C1831.97 1269.92 1828.27 1270.89 1827.06 1271.47" stroke="black" stroke-width="9" stroke-linecap="round"/>
<path d="M1834.53 1278.2C1833.12 1278.82 1831.63 1279.09 1830.12 1279.35" stroke="black" stroke-width="9" stroke-linecap="round"/>
<path d="M1839.54 1290.85C1837.29 1293.97 1833.36 1294.5 1829.88 1295.66" stroke="black" stroke-width="9" stroke-linecap="round"/>
<path d="M1843.91 1304.17C1842.75 1304.98 1841.21 1305.29 1839.91 1305.84" stroke="black" stroke-width="9" stroke-linecap="round"/>
<path d="M1848.1 1315.15C1846.59 1315.43 1845.38 1316.22 1844.24 1317.2" stroke="black" stroke-width="9" stroke-linecap="round"/>
<path d="M1852.27 1325.48C1850.69 1327.63 1843.99 1328.53 1841.81 1329.26" stroke="black" stroke-width="9" stroke-linecap="round"/>
<path d="M1853.34 1336.93C1852.38 1336.81 1850.32 1338.47 1849.48 1338.98" stroke="black" stroke-width="9" stroke-linecap="round"/>
<path d="M1856.55 1345.19C1856.19 1345.97 1854.86 1346.03 1854.1 1346.3" stroke="black" stroke-width="9" stroke-linecap="round"/>
<path d="M1861.27 1351.6C1857.53 1352.95 1853.77 1354.26 1850.03 1355.66" stroke="black" stroke-width="9" stroke-linecap="round"/>
<path d="M1862.06 1362.27C1861.47 1363.25 1858.82 1363.97 1857.82 1364.47" stroke="black" stroke-width="9" stroke-linecap="round"/>
<path d="M1866.03 1369.61C1864.76 1370.36 1863.3 1370.57 1861.89 1370.89" stroke="black" stroke-width="9" stroke-linecap="round"/>
<path d="M1868.55 1376.58C1864.33 1378.4 1859.8 1379.44 1855.35 1380.7" stroke="black" stroke-width="9" stroke-linecap="round"/>
<path d="M1870.75 1386.31C1869.76 1386.07 1867.78 1386.92 1867 1387.45" stroke="black" stroke-width="9" stroke-linecap="round"/>
<path d="M1873.43 1394.33C1871.93 1394.94 1870.64 1395.98 1869.32 1396.91" stroke="black" stroke-width="9" stroke-linecap="round"/>
<path d="M1876.16 1404.3C1872.55 1404.07 1868.26 1406.13 1864.88 1407.06" stroke="black" stroke-width="9" stroke-linecap="round"/>
<path d="M1754.7 1021.2C1760 1003.85 1735.31 1051.97 1727.62 1068.41C1698.35 1131.02 1668.04 1193.21 1642.82 1257.62C1635.42 1276.53 1629.81 1307.32 1615.95 1322.68" stroke="black" stroke-width="3" stroke-linecap="round"/>
<path d="M1620.21 1306.03C1619.54 1308.09 1626.3 1312.19 1627.05 1312.69C1654.69 1331.31 1685.25 1345.73 1715.3 1359.91C1768.26 1384.88 1821.46 1408.96 1873.99 1434.83" stroke="black" stroke-width="3" stroke-linecap="round"/>
<path d="M1756.42 1032.66C1756.04 1032.48 1754.51 1031.48 1754.56 1032.42C1755.32 1046.2 1764.51 1067.37 1767.88 1078.66C1792.85 1162.39 1822.04 1244.31 1851.28 1326.6C1862.14 1357.15 1872.71 1387.66 1881.5 1418.83" stroke="black" stroke-width="3" stroke-linecap="round"/>
<path d="M1735.12 1201.06C1736.57 1197.98 1735.33 1200.55 1734.65 1202.17C1723.68 1228.49 1716.7 1257 1707.73 1284.07" stroke="black" stroke-width="3" stroke-linecap="round"/>
<path d="M1709.48 1282.23C1707.59 1281.34 1705.75 1280.07 1704.12 1280.41C1699.02 1281.47 1712 1287.4 1716.68 1289.7C1731.15 1296.81 1746.36 1302.34 1761.15 1308.73C1767.51 1311.48 1773.68 1313.26 1777.61 1318.62" stroke="black" stroke-width="3" stroke-linecap="round"/>
<path d="M1733.92 1196.06C1731.82 1193.25 1735.62 1202.89 1736.81 1206.19C1750.85 1245.33 1765.95 1284.09 1778.82 1323.62" stroke="black" stroke-width="3" stroke-linecap="round"/>
<path d="M1719.62 298.176C1714.36 301.887 1707.21 303.507 1701.56 306.699C1674.67 321.872 1656.55 344.302 1638.75 368.871C1628.64 382.838 1619.64 397.322 1612.98 413.286C1607.84 425.616 1603.74 438.41 1599.87 451.183C1597.13 460.216 1594.06 469.6 1592.94 479.035C1591.69 489.592 1596.67 503.787 1608.29 505.872C1621.62 508.266 1634.34 499.763 1644.26 491.972C1675.42 467.498 1701.34 434.254 1720.03 399.437C1732.57 376.074 1747.54 346.704 1743.64 319.23C1741.53 304.394 1726.81 298.366 1713.68 302.742" stroke="black" stroke-width="8" stroke-linecap="round"/>
<path d="M1590.81 316.204C1592.31 322.463 1591.16 329.702 1592.03 336.138C1596.16 366.735 1610.28 391.88 1626.5 417.511C1635.73 432.083 1645.85 445.805 1658.2 457.908C1667.75 467.255 1678.11 475.803 1688.54 484.132C1695.92 490.022 1703.5 496.351 1711.85 500.885C1721.19 505.959 1736.22 506.593 1742.46 496.577C1749.62 485.077 1746.44 470.12 1742.88 458.018C1731.7 420.001 1710.42 383.612 1685.01 353.353C1667.96 333.048 1646.23 308.253 1619.26 301.695C1604.7 298.154 1593.65 309.596 1592.85 323.41" stroke="black" stroke-width="8" stroke-linecap="round"/>
<path d="M1555.69 428.876C1561.9 430.578 1567.69 435.068 1573.75 437.408C1602.55 448.533 1631.38 448.279 1661.66 446.411C1678.87 445.35 1695.77 443.094 1712.33 438.096C1725.12 434.235 1737.61 429.273 1749.93 424.147C1758.64 420.522 1767.84 416.931 1775.84 411.8C1784.79 406.058 1792.58 393.194 1786.81 382.898C1780.19 371.079 1765.55 366.665 1753.23 363.953C1714.53 355.433 1672.39 356.541 1633.63 364.23C1607.62 369.389 1575.42 376.481 1556.69 396.949C1546.57 408.002 1551.27 423.202 1562.99 430.559" stroke="black" stroke-width="8" stroke-linecap="round"/>
<path d="M1709.09 301.53C1709.52 301.048 1709.58 300.7 1709.58 300.074" stroke="#1F1F1F" stroke-width="13" stroke-linecap="round"/>
<path d="M1610.1 301.039H1610.59" stroke="#1F1F1F" stroke-width="13" stroke-linecap="round"/>
<path d="M1715.43 510.762C1714.96 510.067 1713.86 509.598 1713.15 509.167C1705.44 504.458 1696.94 501.361 1689.38 496.224C1677.41 488.089 1667.93 477.408 1659.25 465.931C1647.6 450.519 1636.77 434.419 1626.82 417.871C1612.4 393.919 1598.37 366.418 1592.21 338.813C1589.16 325.135 1586.04 305.918 1595.16 293.732C1601.74 284.948 1609.79 285.546 1618.79 289.132C1642.56 298.599 1664.07 318.897 1679.45 338.819C1693.05 356.423 1705.77 373.903 1715.93 393.795C1725.59 412.691 1733.11 432.19 1738.61 452.665C1743.17 469.644 1747.24 496.65 1729.02 507.38" stroke="#1F1F1F" stroke-width="13" stroke-linecap="round"/>
<path d="M1738.45 296.575C1738.1 297.34 1738.27 298.527 1738.26 299.353C1738.21 308.389 1739.94 317.268 1739.43 326.394C1738.64 340.845 1734.38 354.479 1729.02 367.83C1721.82 385.757 1713.61 403.338 1704.57 420.403C1691.48 445.104 1675.15 471.311 1654.67 490.82C1644.53 500.486 1629.68 513.074 1614.53 511.539C1603.61 510.433 1599.97 503.228 1598.4 493.666C1594.26 468.421 1600.56 439.527 1609.69 416.072C1617.76 395.345 1626.18 375.43 1637.98 356.466C1649.19 338.451 1662.02 321.951 1676.73 306.681C1688.92 294.018 1709.96 276.601 1728.55 286.675" stroke="#1F1F1F" stroke-width="13" stroke-linecap="round"/>
<path d="M1546.54 395.666C1547.38 395.573 1548.31 394.82 1549.02 394.399C1556.8 389.802 1563.52 383.753 1571.61 379.492C1584.41 372.744 1598.3 369.387 1612.5 367.118C1631.58 364.072 1650.88 362.073 1670.17 361.053C1698.08 359.576 1728.95 360.1 1756.22 367.63C1769.72 371.362 1788.16 377.627 1794.63 391.407C1799.3 401.34 1794.99 408.165 1787.59 414.429C1768.07 430.966 1740.05 440.421 1715.24 444.648C1693.31 448.384 1671.91 451.407 1649.57 451.037C1628.36 450.686 1607.61 448.169 1586.95 443.408C1569.82 439.46 1544.06 430.375 1543.14 409.253" stroke="#1F1F1F" stroke-width="13" stroke-linecap="round"/>
<path d="M1544.11 393.727C1535.23 393.727 1539.53 410.576 1548.61 407.61C1557.07 404.849 1551.88 392.743 1543.57 394.589C1531.52 397.268 1537.8 414.864 1548.35 409.793C1555.91 406.156 1547.19 393.127 1543.55 398.202C1541.53 401.002 1546.44 403.308 1546.75 400.412C1546.93 398.84 1544.86 397.64 1543.68 398.902C1541.75 400.985 1545.62 403.518 1547.51 402.461C1550.94 400.542 1546.43 392.65 1543.57 396.153C1538.89 401.891 1549.29 403.954 1548.61 399.226C1548.02 395.091 1540.59 394.466 1543.6 398.848C1546.19 402.614 1547.18 397.815 1546.54 395.667" stroke="#1F1F1F" stroke-width="13" stroke-linecap="round"/>
<path d="M1729.92 286.306C1721.19 286.655 1722.86 299.865 1732.81 298.167C1737.86 297.304 1742.76 292.595 1740.54 287.222C1739.02 283.537 1732.08 280.2 1731.05 286.252C1729.94 292.809 1741.02 298.515 1743.78 291.104C1746 285.123 1736.4 279.842 1733.18 285.901C1731.09 289.845 1736.58 293.297 1738.39 289.379C1740.27 285.28 1734.61 286.591 1733.32 289.702" stroke="#1F1F1F" stroke-width="13" stroke-linecap="round"/>
<path d="M1723.62 504.055C1720.58 502.703 1718.39 504.74 1717.71 507.856C1715.19 519.473 1731.24 514.928 1727.82 507.075C1722.33 494.439 1714.5 516.204 1723.29 513.544C1726.82 512.479 1717.65 509.915 1722 513.005C1723.98 514.409 1725.38 512.752 1725.59 510.768C1725.96 507.098 1723.78 508.305 1722.16 506.481" stroke="#1F1F1F" stroke-width="13" stroke-linecap="round"/>
<path d="M1662.03 388.386C1661.94 389.066 1658.68 389.284 1658.04 389.464C1643.89 393.425 1643.34 413.789 1657.17 418.524C1665.24 421.287 1673.57 420.027 1678.71 413.106C1681.34 409.572 1683.91 405.958 1682.68 401.379C1681.39 396.605 1677.25 390.298 1672.84 387.955C1666.16 384.408 1660.44 389.844 1655.72 393.724" stroke="#1F1F1F" stroke-width="13" stroke-linecap="round"/>
<path d="M1667.36 386.928C1659.66 386.928 1647.87 388.099 1648.87 399.005C1649.63 407.205 1659.27 412.4 1666.77 410.03C1675.95 407.132 1673.09 390.375 1663.45 392.67C1654.03 394.914 1653.93 408.074 1663.86 409.572C1678.16 411.73 1671.62 390.245 1665.48 396.093C1664.07 397.434 1662 405.566 1666.15 403.21C1669.3 401.42 1665.61 400.245 1669.41 400.245C1671.46 400.245 1669.71 395.783 1668.74 398.573C1668.16 400.24 1668.56 401.475 1669.79 402.455" stroke="#1F1F1F" stroke-width="13" stroke-linecap="round"/>
<path d="M775.127 649.123C785.667 649.123 791.579 650.459 800.412 656.347" stroke="black" stroke-width="10" stroke-linecap="round"/>
<path d="M865.43 501.025C875.95 504.181 886.522 522.117 894.327 529.922" stroke="black" stroke-width="10" stroke-linecap="round"/>
<path d="M1024.36 381.824C1027.74 383.698 1053.44 446.248 1035.2 414.333" stroke="black" stroke-width="10" stroke-linecap="round"/>
<path d="M1201.36 360.152C1202.32 373.657 1208.58 386.534 1208.58 399.886" stroke="black" stroke-width="10" stroke-linecap="round"/>
<path d="M1327.78 399.885C1323.45 409.095 1309.72 423.99 1309.72 432.394" stroke="black" stroke-width="10" stroke-linecap="round"/>
<path d="M1443.37 511.862C1431.29 511.152 1419.28 509.516 1407.25 508.25" stroke="black" stroke-width="10" stroke-linecap="round"/>
<path d="M1472.27 334.867C1481.28 343.375 1490.08 345.62 1501.17 349.316" stroke="black" stroke-width="10" stroke-linecap="round"/>
<path d="M1548.12 204.83C1549.2 211.28 1568.22 236.783 1558.96 222.891" stroke="black" stroke-width="10" stroke-linecap="round"/>
<path d="M1667.32 186.77C1667.32 190.839 1670.94 208.562 1670.94 204.83" stroke="black" stroke-width="10" stroke-linecap="round"/>
<path d="M1804.58 226.504C1804.14 232.237 1797.36 254.196 1797.36 251.789" stroke="black" stroke-width="10" stroke-linecap="round"/>
<path d="M1631.2 1046.46C1634.41 1047.17 1650.38 1062.02 1645.65 1057.29" stroke="black" stroke-width="10" stroke-linecap="round"/>
<path d="M1739.57 909.195C1740.13 914.882 1743.18 937.974 1743.18 920.032" stroke="black" stroke-width="10" stroke-linecap="round"/>
<path d="M1858.77 963.377C1858.77 967.455 1856.11 986.96 1851.54 977.825" stroke="black" stroke-width="10" stroke-linecap="round"/>
<path d="M350.517 1055.09C324.693 1064 299.106 1065.23 276.606 1044.99C251.785 1022.65 252.053 992.013 276.657 967.799C282.904 961.652 290.798 959.826 297.939 965.587C305.252 971.484 300.111 978.694 292.407 980.43C265.046 986.592 239.321 967.018 232.905 940.954C227.529 919.116 237.659 900.552 256.871 889.73C267.504 883.74 286.512 883.664 290.612 898.119C291.949 902.83 288.88 907.445 283.886 907.943C273.081 909.023 267.027 900.385 265.767 890.937C262.279 864.805 273.205 841.929 292.975 825.322C302.571 817.262 331.488 799.851 337.766 821.843C340.711 832.16 327.315 849.145 316.318 842.6C296.651 830.896 316.235 804.149 326.841 793.459C346.017 774.13 374.353 758.335 400.247 773.653C415.767 782.833 428.303 799.545 432.704 817.142C434.939 826.08 438.162 848.019 423.462 848.495C399.971 849.255 411.154 818.345 421.139 809.675C436.611 796.241 461.933 788.162 482.098 785.747C512.523 782.104 551.123 796.11 547.779 833.651C546.931 843.167 535.991 858.883 527.27 845.446C519.518 833.502 526.77 814.347 540.263 809.787C563.686 801.871 579.296 825.343 587.452 843.222C594.654 859.012 603.473 886.161 595.164 903.175C586.511 920.893 518.898 946.269 517.744 912.429C517.352 900.953 531.531 894.187 541.088 897.855C549.604 901.123 554.457 910.079 558.637 917.634C565.844 930.661 575.355 956.783 561.095 969.076C546.962 981.26 526.24 982.122 508.746 980.363C499.21 979.404 490.602 982.307 487.315 969.893C482.85 953.03 494.531 953.647 501.995 965.202C506.624 972.367 507.363 982.474 503.319 990.083C492.309 1010.8 461.665 1022.43 440.306 1013.28C411.557 1000.96 409.908 971.76 430.832 949.693C446.964 932.679 475.358 934.528 488.234 914.166C502.572 891.492 479.2 860.707 454.729 876.641C449.923 879.77 446.216 888.645 448.238 894.217C452.409 905.71 464.313 909.372 475.855 908.393C494.633 906.8 518.501 882.075 501.641 864.69C483.085 845.557 459.352 865.657 441.052 876.007C431.379 881.478 417.799 885.632 406.686 886.643C393.689 887.825 382.229 877.535 369.637 879.502C353.13 882.081 328.462 907.61 325.933 923.023C321.682 948.933 313.115 975.161 329.482 999.147C342.482 1018.2 366.986 1023 388.119 1015.78C399.58 1011.86 412.873 1016.13 419.018 1027.2C427.382 1042.27 415.583 1056.89 423.824 1072.57C430.864 1085.97 444.796 1094.88 457.639 1101.97C466.06 1106.62 474.717 1110.63 478.579 1120.04C485.682 1137.34 483.475 1155.43 483.702 1173.53" stroke="black" stroke-width="14" stroke-linecap="round"/>
<path d="M353.198 1048.76L353.366 1049.5" stroke="black" stroke-opacity="0.2" stroke-width="3" stroke-linecap="round"/>
<path d="M352.066 1057.61C352.798 1064.19 332.307 1063.43 330.578 1063.41C310.451 1063.1 291.403 1056.94 276.358 1043.19C263.53 1031.46 250.73 1011.42 251.669 993.133C252.405 978.817 269.213 955.114 285.063 954.614C291.878 954.399 300.419 959.191 301.364 966.659C303.223 981.342 276.368 976.395 269.287 974.013C249.05 967.205 229.755 948.004 229.581 925.519C229.435 906.633 241.485 879.003 261.04 872.631C274.992 868.085 283.912 880.976 289.435 891.72C292.424 897.534 298.793 920.05 283.79 914.655C268.489 909.153 261.506 884.899 265.559 870.528C270.718 852.238 291.578 833.461 306.866 823.193C314.794 817.868 334.155 810.543 339.038 823.588C341.483 830.122 338.446 837.384 333.076 841.645C322.458 850.072 313.58 834.582 312.996 825.546C311.376 800.459 342.357 776.908 363.808 770.687C375.537 767.286 387.303 773.075 396.575 779.891C412.219 791.39 439.1 825.266 415.524 842.048C405.722 849.025 407.058 831.319 409.402 826.625C415.746 813.926 430.576 804.486 442.28 797.383C473.295 778.559 517.824 775.927 537.141 812.225C541.047 819.566 543.043 826.812 540.564 834.941C538.787 840.77 531.249 849.574 526.114 840.757C517.375 825.753 529.582 808.933 542.665 801.864C555.115 795.137 566.631 797.654 577.175 806.855C587.366 815.748 591.757 833.357 595.02 845.99C601.091 869.493 603.946 895.913 590.098 917.43C576.905 937.928 531.413 942.098 522.294 915.162C519.557 907.077 521.611 891.676 532.994 893.085C542.384 894.247 546.515 905.638 549.319 913.33C555.075 929.115 560.214 949.761 554.037 966.275C546.885 985.396 525.214 982.976 509.128 981.035C495.108 979.343 482.71 975.014 482.404 958.183C482.237 948.944 487.526 947.341 494.206 951.792C502.377 957.235 502.66 966.444 500.802 975.486C496.193 997.918 481.386 1018.91 455.442 1014.27C439.955 1011.5 427.125 1003.75 422.021 988.281C416.421 971.315 418.408 953.317 433.876 942.804C453.211 929.663 486.973 928.278 500.248 907.103C507.175 896.053 504.655 883.144 492.373 877.922C484.736 874.675 475.1 873.669 469.099 880.603C465.319 884.97 461.014 892.293 464.687 897.833C470.393 906.438 482.484 901.482 489.701 897.67C503.108 890.587 511.596 869.008 494.686 861.207C465.4 847.697 446.977 881.902 421.371 888.053C411.579 890.405 398.522 895.544 388.478 892.553C380.987 890.322 376.452 882.189 369.291 880.42C355.841 877.098 338.797 887.06 331.838 898.407C318.553 920.066 329.327 954.231 338.662 974.582C345.115 988.651 352.114 995.016 367.709 996.954C378.385 998.28 390.186 995.055 400.59 997.797C426.076 1004.51 417.753 1037.58 424.653 1055.68C429.484 1068.34 440.531 1073.56 450.636 1081.21C455.372 1084.8 459.991 1089.01 464.048 1093.34C479.29 1109.62 480.307 1136.89 485.483 1157.28" stroke="black" stroke-width="7" stroke-linecap="round"/>
<path d="M179 850.383C180.469 857.726 186.926 862.657 193.449 864.831" stroke="black" stroke-width="10" stroke-linecap="round"/>
<path d="M197.061 745.631C200.194 752.941 235.786 787.318 218.733 774.528" stroke="black" stroke-width="10" stroke-linecap="round"/>
<path d="M290.976 680.613C296.874 687.048 301.616 694.106 306.227 701.483C310.744 708.71 293.39 690.252 287.364 684.225" stroke="black" stroke-width="10" stroke-linecap="round"/>
<path d="M431.849 677V705.897" stroke="black" stroke-width="10" stroke-linecap="round"/>
<path d="M560.224 687C560.224 692.889 561.631 721.619 553 708.673" stroke="black" stroke-width="10" stroke-linecap="round"/>
</svg>
