<svg width="6122" height="1348" viewBox="0 0 6122 1348" fill="none" xmlns="http://www.w3.org/2000/svg">
<g clip-path="url(#clip0_95_1851)">
<rect width="6122" height="1348" fill="white"/>
<path d="M3047.33 717.773C3045.33 701.745 3043.03 749.801 3041.55 765.886C3036.15 824.558 3030 883.077 3033.01 942.106C3036.34 1007.66 3039.62 1073.13 3043.46 1138.66C3045.75 1177.65 3049.58 1217.34 3041.03 1255.79C3038.24 1268.38 3025.82 1279.43 3017.18 1287.96C3004.29 1300.69 2986.21 1316.83 2967.68 1320.13C2932.84 1326.34 2900.5 1311.91 2878.68 1284.96C2874.62 1279.95 2854.1 1254.53 2859.62 1247.18C2860.65 1245.81 2860.23 1250.61 2861 1252.15C2862.65 1255.45 2849.6 1260.93 2847.66 1262.03C2825.53 1274.47 2803.61 1270.27 2785.92 1251.92C2759.16 1224.17 2767.79 1182.03 2791.35 1156.04C2819.02 1125.5 2857.31 1118.42 2896.58 1121.16" stroke="black" stroke-width="11" stroke-linecap="round"/>
<path d="M2914.26 951.693C2912.26 951.916 2911.24 953.767 2910.62 955.505C2904.01 973.871 2898.12 994.741 2884.34 1009.22C2844.31 1051.26 2764.65 1034.38 2751.38 976.067C2744.56 946.087 2763.06 905.965 2797.35 904.332C2799.64 904.223 2793.71 901.493 2792.27 899.711C2781.29 886.106 2772.05 866.304 2776.56 848.422C2783.92 819.274 2822.75 800.815 2850.15 810.186C2859.88 813.515 2849.66 801.555 2849.91 794.476C2850.42 780.78 2856.11 768.992 2865.68 759.417C2885.57 739.526 2908.74 736.187 2930.26 755.778C2949.16 772.987 2959.35 801.926 2954.8 826.936" stroke="black" stroke-width="11" stroke-linecap="round"/>
<path d="M2918.42 744.804C2917.96 744.804 2920.08 740.363 2920.5 739.144C2931.12 707.711 2943.74 690.159 2976.64 683.581C2997.87 679.334 3010.53 681.061 3024.4 698.136C3033.5 709.328 3047.23 724.791 3045.25 739.606" stroke="black" stroke-width="11" stroke-linecap="round"/>
<path d="M2814.09 1135.06C2808.59 1135.36 2803.88 1134.86 2798.43 1132.93C2778.14 1125.75 2755.21 1110.44 2756.33 1086.62C2757.97 1052.1 2795.45 1036.26 2825.2 1035.46" stroke="black" stroke-width="11" stroke-linecap="round"/>
<path d="M3047.33 717.773C3045.33 701.745 3043.03 749.801 3041.55 765.886C3036.15 824.558 3030 883.077 3033.01 942.106C3036.34 1007.66 3039.62 1073.13 3043.46 1138.66C3045.75 1177.65 3049.58 1217.34 3041.03 1255.79C3038.24 1268.38 3025.82 1279.43 3017.18 1287.96C3004.29 1300.69 2986.21 1316.83 2967.68 1320.13C2932.84 1326.34 2900.5 1311.91 2878.68 1284.96C2874.62 1279.95 2854.1 1254.53 2859.62 1247.18C2860.65 1245.81 2860.23 1250.61 2861 1252.15C2862.65 1255.45 2849.6 1260.93 2847.66 1262.03C2825.53 1274.47 2803.61 1270.27 2785.92 1251.92C2759.16 1224.17 2767.79 1182.03 2791.35 1156.04C2819.02 1125.5 2857.31 1118.42 2896.58 1121.16" stroke="black" stroke-width="11" stroke-linecap="round"/>
<path d="M2914.26 951.693C2912.26 951.916 2911.24 953.767 2910.62 955.505C2904.01 973.871 2898.12 994.741 2884.34 1009.22C2844.31 1051.26 2764.65 1034.38 2751.38 976.067C2744.56 946.087 2763.06 905.965 2797.35 904.332C2799.64 904.223 2793.71 901.493 2792.27 899.711C2781.29 886.106 2772.05 866.304 2776.56 848.422C2783.92 819.274 2822.75 800.815 2850.15 810.186C2859.88 813.515 2849.66 801.555 2849.91 794.476C2850.42 780.78 2856.11 768.992 2865.68 759.417C2885.57 739.526 2908.74 736.187 2930.26 755.778C2949.16 772.987 2959.35 801.926 2954.8 826.936" stroke="black" stroke-width="11" stroke-linecap="round"/>
<path d="M2918.42 744.804C2917.96 744.804 2920.08 740.363 2920.5 739.144C2931.12 707.711 2943.74 690.159 2976.64 683.581C2997.87 679.334 3010.53 681.061 3024.4 698.136C3033.5 709.328 3047.23 724.791 3045.25 739.606" stroke="black" stroke-width="11" stroke-linecap="round"/>
<path d="M2814.09 1135.06C2808.59 1135.36 2803.88 1134.86 2798.43 1132.93C2778.14 1125.75 2755.21 1110.44 2756.33 1086.62C2757.97 1052.1 2795.45 1036.26 2825.2 1035.46" stroke="black" stroke-width="11" stroke-linecap="round"/>
<path d="M3099.82 735.047C3100.91 736.55 3100.86 738.243 3100.85 740.065C3100.72 755.959 3099.58 771.903 3098.34 787.737C3094.37 838.186 3091.52 888.265 3089.9 938.852C3087.03 1028.34 3081.34 1116.56 3086.08 1206.07C3087.74 1237.52 3088.86 1272.44 3112.37 1295.71C3137.94 1321.02 3169 1325.63 3203.66 1318.92C3221.58 1315.45 3238.31 1308.91 3248.37 1292.86C3255.57 1281.37 3253.47 1269.8 3255.84 1257.22C3255.98 1256.46 3256.21 1246.72 3255.38 1249.46C3252.1 1260.42 3277.12 1261.21 3281.96 1261.38C3299.96 1262.01 3312.62 1257.64 3323.36 1242.68C3334.58 1227.05 3337.83 1208.83 3331 1190.73C3318.61 1157.88 3271.78 1112.73 3234.29 1130.23" stroke="black" stroke-width="11" stroke-linecap="round"/>
<path d="M3349.25 1008.08C3349.25 1015.99 3355.35 1023.4 3359.34 1029.58C3372.58 1050.1 3387.51 1075.41 3387.97 1100.69C3388.58 1134.24 3363.47 1167.4 3335.9 1184.63" stroke="black" stroke-width="11" stroke-linecap="round"/>
<path d="M3230.18 944.442C3227.81 942.336 3225.61 945.899 3225.05 948.205C3219.52 970.672 3238.85 995.446 3256.07 1007.05C3300.44 1036.98 3377.24 1010.53 3379.35 952.311C3380.02 934.071 3364.74 895.339 3342.06 894.146C3337.42 893.902 3345.22 890.632 3346.51 889.014C3355.9 877.195 3344.18 853.345 3337.73 843.052C3320.06 814.874 3297.25 809.38 3267.36 818.988C3262.6 820.519 3273.3 812.416 3273.75 811.917C3285.14 799.169 3290.24 774.773 3280.47 759.568C3263.68 733.427 3212.05 725.107 3195.17 753.41C3188.67 764.305 3186.95 778.67 3185.24 791.046C3184.52 796.317 3185.3 803.252 3182.96 807.925" stroke="black" stroke-width="11" stroke-linecap="round"/>
<path d="M3221.97 736.074C3214.42 720.537 3204.43 705.803 3193.51 692.451C3177.91 673.367 3161.61 670.449 3138.83 678.822C3098.4 693.679 3085.33 736.026 3096.74 774.053" stroke="black" stroke-width="11" stroke-linecap="round"/>
<path d="M3036.31 737.254C3036.02 732.365 3033.84 736.426 3033.27 738.946C3031.17 748.215 3030.97 757.803 3030.9 767.263C3030.63 801.725 3032.89 836.106 3034.85 870.49C3038.32 931.647 3038.16 992.88 3041.61 1054.04C3044.74 1109.31 3044.25 1161.77 3036.76 1216.5C3031.35 1256.03 3023.75 1308.94 2987.8 1333.6C2972.06 1344.4 2958.16 1349.96 2939.18 1346.8C2915.8 1342.9 2899.22 1330.61 2885.53 1311.77C2875.01 1297.29 2865.41 1282.51 2860.77 1265.12C2859.45 1260.16 2863.82 1275.64 2862.07 1280.46C2855.49 1298.55 2831.55 1298.35 2817.9 1290.33C2757.06 1254.62 2769.03 1160.57 2827.49 1129.35C2832.13 1126.87 2836.64 1124.91 2841.54 1126.13C2845.2 1127.05 2847.64 1127.63 2842.38 1126.13" stroke="black" stroke-width="11" stroke-linecap="round"/>
<path d="M2907.36 956.568C2907.36 984.471 2890.54 1012.76 2868.22 1028.26C2842.8 1045.92 2806.01 1054.51 2777.06 1040.62C2743.98 1024.74 2744.78 973.055 2750.94 942.353C2754.84 922.961 2769.74 903.541 2789.25 898.129C2795.89 896.287 2797.26 897.615 2791.22 893.335C2761.41 872.222 2766.12 836.189 2794.04 814.758C2808.32 803.794 2828.04 802.3 2844.41 810.133C2849.07 812.362 2853.8 814.845 2858.63 816.676C2866.7 819.738 2845.6 804.859 2841.48 797.272C2819.48 756.723 2874.61 727.129 2909.17 730.936C2940.94 734.436 2973.44 762.048 2963.21 796.144" stroke="black" stroke-width="11" stroke-linecap="round"/>
<path d="M2910.41 735.223C2907.19 730.212 2909.21 724.5 2911.76 719.654C2923.19 697.95 2941.29 679.382 2965.24 672.046C2991.76 663.92 3021.28 676.416 3034.51 701.039C3045.35 721.222 3039.78 745.385 3036.31 766.698" stroke="black" stroke-width="11" stroke-linecap="round"/>
<path d="M2787.01 1172.14C2784.98 1172.34 2784 1172.97 2781.91 1171.89C2765.16 1163.3 2753.3 1145.78 2746.42 1128.79C2737.66 1107.13 2738.78 1082.93 2754.87 1064.99C2764.33 1054.43 2777.77 1043.93 2792.54 1043.93" stroke="black" stroke-width="11" stroke-linecap="round"/>
<path d="M3068.75 759.895C3068.75 823.528 3088.31 886.405 3091.87 950.102C3097.16 1044.74 3087.81 1140.51 3097.4 1234.85C3100.91 1269.38 3107.41 1308.34 3139.37 1328.49C3165.61 1345.03 3190.34 1334.77 3216.08 1324.43C3225.94 1320.47 3225.92 1307.11 3230.75 1298.82C3232.32 1296.12 3236.25 1292.91 3237.01 1289.85C3237.13 1289.36 3236.78 1285.27 3237.07 1285.84C3245.13 1301.97 3271.95 1306.55 3288.62 1304.68C3302.9 1303.09 3311.22 1289.81 3318.97 1279.07C3331.11 1262.25 3333.42 1245.12 3328.22 1225.15C3322.4 1202.75 3308.41 1183.19 3293.02 1166.26C3277.03 1148.66 3260.16 1145.38 3237.29 1144.71" stroke="black" stroke-width="11" stroke-linecap="round"/>
<path d="M3218 953.825C3215.83 956.806 3218.08 961.542 3219.07 964.543C3228.09 991.914 3244.03 1015.79 3266.06 1034.49C3296.51 1060.33 3358.49 1061.69 3375.49 1018.69C3383.76 997.788 3375.76 975.275 3367.71 955.743C3360.56 938.391 3354.53 920.387 3336.46 911.858C3328.54 908.122 3323.84 910.538 3331.44 906.217C3344.75 898.65 3349.91 880.426 3349.38 866.167C3348.34 838.6 3313.4 790.294 3280.22 804.513C3277.93 805.496 3269.17 813.396 3273.73 809.308C3301.96 784.001 3280.16 744.809 3249.59 735.639C3204.56 722.129 3148.28 757.532 3173.33 807.616" stroke="black" stroke-width="11" stroke-linecap="round"/>
<path d="M3214.96 728.419C3213.26 728.207 3206.68 707.556 3206.32 706.815C3192.16 677.635 3158.67 666.585 3128.2 669.98C3099.7 673.157 3077.34 695.028 3069.59 721.763C3060.94 751.603 3072.22 776.557 3075.85 805.585" stroke="black" stroke-width="11" stroke-linecap="round"/>
<path d="M3341.76 1051.34C3343.11 1051.79 3345.04 1056.97 3345.87 1058.03C3357.54 1073.06 3372.17 1088.23 3372.7 1108.44C3373.29 1130.47 3354.34 1145.02 3337.43 1155.73C3325.89 1163.03 3314.72 1168.09 3301.41 1165.18" stroke="black" stroke-width="11" stroke-linecap="round"/>
<path d="M2712.18 749.418C2719.24 759.625 2726.81 768.727 2735.57 777.488" stroke="black" stroke-width="20" stroke-linecap="round"/>
<path d="M2857.2 651.175C2858.46 663.782 2869 674.04 2875.91 683.923" stroke="black" stroke-width="20" stroke-linecap="round"/>
<path d="M3020.94 609.07C3022.03 623.226 3025.62 636.898 3025.62 651.175" stroke="black" stroke-width="20" stroke-linecap="round"/>
<path d="M3203.39 581C3203.39 586.613 3198.71 625.534 3198.71 609.07" stroke="black" stroke-width="20" stroke-linecap="round"/>
<path d="M3320.35 655.853C3315.95 665.132 3312.99 673.938 3310.99 683.922" stroke="black" stroke-width="20" stroke-linecap="round"/>
<path d="M2642 899.122C2650.19 900.033 2656.65 903.8 2665.39 903.8" stroke="black" stroke-width="20" stroke-linecap="round"/>
<path d="M3427.95 744.739C3418 745.844 3414.12 756.133 3409.24 763.452" stroke="black" stroke-width="20" stroke-linecap="round"/>
<path d="M3479.41 847.661C3472.3 848.451 3467.42 854.778 3460.7 857.018" stroke="black" stroke-width="20" stroke-linecap="round"/>
<path d="M3887.68 520.762C3887.68 521.644 3887.68 521.644 3887.68 520.762" stroke="black" stroke-width="7" stroke-linecap="round"/>
<path d="M3886.29 526.328C3886.9 531.217 3970.13 519.998 3975.72 519.603C4033.36 515.53 4110.87 506.679 4160.84 545.033C4179.12 559.063 4181.24 584.826 4181.24 605.864C4181.24 641.1 4183.52 676.138 4185.42 711.294C4188.07 760.314 4196.82 803.259 4179.78 851.198C4170.59 877.019 4135.18 879.904 4111.83 880.802C4055.09 882.984 3998.21 874.871 3941.48 876.628C3907.59 877.677 3795.63 868.674 3801.42 929.188C3803.1 946.772 3815.41 963.003 3831.33 970.077C3843.98 975.7 3857.47 976.332 3871.14 977.111C3898.62 978.676 3926.16 979.894 3953.69 979.894C4009.27 979.894 4064.92 982.676 4120.64 982.676C4134.94 982.676 4150.11 981.246 4164.24 983.758C4167.66 984.367 4176.95 986.768 4172.9 984.067" stroke="black" stroke-width="7" stroke-linecap="round"/>
<path d="M3912.72 526.328C3894.08 535.651 3871.55 536.255 3852.43 545.265C3813.13 563.786 3797.26 607.8 3794.15 648.299C3787.12 740.007 3792.67 832.966 3802.81 924.242" stroke="black" stroke-width="7" stroke-linecap="round"/>
<path d="M3978.11 524.936C3986.12 525.936 3987.7 623.789 3989.24 638.868C3991.63 662.109 3994.3 655.739 4012.43 643.506C4024.18 635.58 4037.48 629.087 4048.76 620.627C4049.74 619.887 4076.79 638.181 4080.14 640.414C4096.5 651.319 4094.45 651.107 4095.29 628.975C4095.65 619.603 4104.4 522.153 4101.94 522.153" stroke="black" stroke-width="7" stroke-linecap="round"/>
<path d="M4158.17 873.473C4157.64 869.225 4152.35 876.893 4151.79 877.637C4144.93 886.899 4141.93 898.611 4141.26 910.013C4140.39 924.793 4141.67 935.33 4146.44 949.442C4152.1 966.164 4159.06 967.615 4168.88 979.014" stroke="black" stroke-width="7" stroke-linecap="round"/>
<path d="M3849.2 911.712C3914.01 911.712 3979.4 914.138 4044.05 908.653C4065.37 906.843 4086.37 902.528 4107.69 901.005" stroke="black" stroke-width="7" stroke-linecap="round"/>
<path d="M3836.96 936.186C3847.14 941.011 3859.52 940.351 3870.44 940.774C3915.63 942.528 3960.69 941.717 4005.89 941.114C4032.67 940.757 4059.79 944.642 4086.45 941.624C4094.78 940.68 4108.93 935.276 4116.87 939.245" stroke="black" stroke-width="7" stroke-linecap="round"/>
<path d="M3884.41 521.162C3921.47 508.807 3963.73 503.539 4002.44 501.023C4048.47 498.031 4105.56 500.94 4148.69 518.698C4160.78 523.678 4167.46 530.421 4170.44 543.596C4179.82 585.061 4178.74 630.855 4176.56 673.1C4174.45 714.003 4173.67 754.675 4173.5 795.636C4173.43 813.253 4175.03 830.952 4175.03 848.406C4175.03 858.304 4147.61 860.564 4141.21 861.322C4104.57 865.662 4066.87 862.25 4030.06 864.636C3994.84 866.919 3960.17 867.891 3924.86 868.46C3894.07 868.957 3807.7 869.767 3812.86 921.401C3818.47 977.471 3892.55 988.293 3935.74 984.538C3979.9 980.698 4024.07 974.794 4068.3 972.046C4106.92 969.648 4222.9 978.505 4184.21 978.505" stroke="black" stroke-width="12" stroke-linecap="round"/>
<path d="M4159.73 860.728C4159.41 863.331 4155.06 861.658 4153.61 864.467C4148.15 875.111 4147.81 889.862 4147.33 901.261C4146.75 914.632 4146.68 926.012 4149.45 939.161C4152.86 955.4 4160.63 959.81 4168.91 972.386" stroke="black" stroke-width="12" stroke-linecap="round"/>
<path d="M3889 516.573C3883.7 521.346 3875.89 523.242 3869.62 526.261C3800.84 559.377 3794.46 632.508 3791.62 701.312C3789.16 760.754 3794.4 817.588 3801.05 876.363C3803.06 894.201 3814.39 920.193 3810.99 937.206" stroke="black" stroke-width="12" stroke-linecap="round"/>
<path d="M3988.42 507.396C3984.81 511.452 3985.99 522.776 3986.04 527.45C3986.37 559.524 3989.95 591.4 3989.95 623.558C3989.95 644.123 3985.91 650.643 4006.86 640.893C4018.32 635.56 4030.11 631.207 4041.7 626.192C4044.25 625.09 4050.15 620.126 4053.34 620.924C4069.12 624.87 4082.44 637.78 4097.19 644.377C4110.67 650.405 4112.12 653.985 4113.16 638.089C4115.54 601.782 4120.34 562.972 4115.29 526.77C4114.85 523.595 4114.27 512.197 4110.78 510.455" stroke="black" stroke-width="12" stroke-linecap="round"/>
<path d="M3769 455.74C3776.26 457.353 3788.35 470.676 3793.29 475.613" stroke="black" stroke-width="20" stroke-linecap="round"/>
<path d="M3980.98 363C3980.98 369.618 3980.81 376.257 3980.98 382.873C3981.04 385.238 3983.65 392.635 3980.98 387.289" stroke="black" stroke-width="20" stroke-linecap="round"/>
<path d="M4239.32 435.867C4231.87 444.15 4223.53 451.124 4221.66 462.364" stroke="black" stroke-width="20" stroke-linecap="round"/>
<path d="M5011.47 997.961C5010.12 987.999 5013.25 1018.08 5015.63 1027.83C5017.43 1035.22 5017.21 1039.03 5024.18 1041.18C5032.47 1043.75 5041.18 1046.08 5049.77 1047.19C5051.6 1047.42 5054.5 1046.51 5056.16 1047.01C5056.83 1047.21 5058.36 1052.57 5058.38 1052.6C5060.49 1057.96 5062.94 1063.18 5065.43 1068.36C5065.98 1069.52 5070.86 1076.35 5070.31 1077.55C5069.86 1078.55 5067.46 1079.55 5066.7 1080.13C5063.47 1082.6 5060.52 1085.48 5057.93 1088.68C5052.76 1095.08 5042.23 1103.82 5047.41 1112.58C5053.82 1123.39 5062.56 1132.94 5069.2 1143.44C5069.69 1144.22 5065.31 1151.81 5064.93 1152.64C5061.81 1159.28 5058.44 1166.33 5056.27 1173.4C5055.39 1176.26 5055.45 1176.63 5052.05 1176.85C5043.7 1177.39 5035.28 1176.8 5026.9 1177.29C5018.55 1177.78 5017.24 1178.28 5017.57 1188.54C5017.92 1199.09 5018.85 1210.38 5017.43 1220.87C5017.11 1223.28 5008.74 1226.71 5007.03 1227.72C5001.41 1231.01 4995 1233.18 4990.32 1237.97C4990.27 1238.01 4988.19 1240.33 4987.98 1240.19C4978.44 1233.48 4967.87 1228.56 4958.51 1221.45C4953.96 1218 4949.49 1213.95 4944.38 1211.47C4943.16 1210.87 4940.21 1214.87 4939.35 1215.71C4933.93 1221.03 4928.28 1226.14 4922.31 1230.76C4918.86 1233.43 4916.38 1232.73 4912.07 1231.93C4904.68 1230.57 4897.56 1228.59 4890.42 1226.22C4883.47 1223.93 4883.34 1208.75 4882.06 1202.65C4881.47 1199.83 4876.83 1176.45 4873.07 1176.62C4865.57 1176.96 4858.14 1176.2 4850.64 1176.85C4848.68 1177.02 4848.46 1177.4 4847.73 1175.97C4844.02 1168.76 4841.07 1161.33 4837.62 1153.98C4835.94 1150.4 4831.71 1146.16 4830.71 1142.39C4830.46 1141.43 4832.9 1138.17 4833.15 1137.7C4835.77 1132.72 4838.02 1127.54 4840.37 1122.41C4843.06 1116.56 4846.64 1111.42 4849.56 1105.78C4850.05 1104.83 4850.16 1104.83 4849.67 1103.88C4845.93 1096.69 4842.28 1089.35 4838.43 1082.24C4836.91 1079.45 4834.99 1077.36 4833.1 1074.92C4830.9 1072.09 4839.79 1057.4 4840.81 1055C4842.18 1051.83 4844.6 1041.25 4848.2 1039.31C4850.14 1038.26 4853.88 1038.75 4855.91 1038.66C4861.11 1038.44 4866.27 1038.29 4871.35 1037C4873.47 1036.45 4875.64 1035.83 4877.79 1035.41C4878.62 1035.25 4878.98 1020.86 4879.17 1019.45C4880.11 1012.82 4881.96 1006.16 4882.06 999.425C4882.1 996.708 4881.61 996.221 4884.31 995.238C4892.13 992.394 4899.93 989.433 4907.51 985.955C4910.53 984.57 4914.14 981.142 4917.29 980.479C4918.9 980.138 4921.64 982.835 4922.75 983.612C4926.98 986.568 4931.21 989.509 4935.41 992.514C4941.84 997.117 4948.43 1001.42 4954.4 1006.69C4956.43 1008.48 4955.47 1008.58 4958.01 1006.34C4963.85 1001.18 4971.46 997.866 4976.69 992.075C4977.63 991.03 4982.44 981.762 4983.15 981.621C4986.64 980.931 4996.07 989.388 4998.64 992.046C4998.81 992.215 5007.87 1000.27 5007.44 998.224C5006.51 993.794 4998.13 988.956 4994.26 987.536C4993.08 987.105 4984.75 985.893 4989.21 987.478C4994.31 989.294 4999.86 989.578 5004.81 991.665C5006.24 992.27 5015.12 994.475 5010.97 993.744" stroke="black" stroke-width="6" stroke-linecap="round"/>
<path d="M4943.51 1053.31C4929.47 1053.73 4914.07 1065.14 4906.32 1076.88C4889.18 1102.86 4894.98 1143.91 4922.81 1158.73C4944.47 1170.26 4977.67 1161.99 4990.2 1139.43C4999.51 1122.66 4996.48 1103.02 4988.37 1086.34C4978.85 1066.77 4962.96 1058.29 4944.01 1052.25" stroke="black" stroke-width="6" stroke-linecap="round"/>
<path d="M5041.04 1109.21C5040.41 1109.13 5040.54 1109.21 5041.27 1110.56C5047.85 1122.71 5059.71 1130.76 5066.47 1142.89C5069.34 1148.03 5055.4 1163.49 5052.67 1168.04C5050.72 1171.29 5044.68 1170.88 5041.54 1171.47C5033.98 1172.87 5026.51 1174.92 5018.95 1176.27C5011.27 1177.64 5011.98 1197.54 5010.84 1203.74C5010.51 1205.55 5010.46 1217.26 5008.98 1218.17C5004.23 1221.11 4999 1223.21 4994.22 1226.17C4991.4 1227.91 4988.21 1230.69 4985.08 1231.79C4984.49 1232 4979.14 1228.04 4978.76 1227.81C4970.28 1222.79 4962.48 1217.31 4954.55 1211.41C4953.03 1210.27 4949.79 1207.12 4947.56 1207.34C4943.57 1207.72 4938.12 1217.21 4935.54 1219.81C4930.38 1225.01 4924.57 1229.49 4919.99 1235.3C4918.77 1236.86 4917.46 1238.95 4915.36 1238.88C4903.93 1238.47 4891.08 1232.69 4880.88 1227.4C4877.74 1225.77 4878 1219.04 4877.55 1216.09C4875.76 1204.29 4874.22 1192.55 4871.56 1180.92C4870.82 1177.7 4867.37 1179.02 4864.62 1178.67C4859.03 1177.96 4853.35 1176.94 4847.91 1175.42C4839.33 1173.02 4834.72 1161.11 4831.31 1153.31C4828.85 1147.68 4821.79 1141.71 4825.98 1136.06C4831.8 1128.21 4838.54 1120.9 4845.41 1114.07C4848.56 1110.94 4852.86 1108.2 4854.46 1103.76C4855.67 1100.4 4845.12 1093.78 4843.3 1092.11C4838.26 1087.47 4829.31 1080.85 4830.84 1073.22C4833.11 1061.8 4837.87 1051.25 4839.69 1039.72C4839.84 1038.76 4840.02 1037.74 4840.22 1036.79C4840.68 1034.6 4844.29 1035.49 4846.35 1034.95C4854.5 1032.82 4862.63 1030.57 4870.83 1028.68C4874.54 1027.83 4878.22 1026.93 4881.99 1026.45C4887.33 1025.78 4886.64 1025.97 4885.88 1020.89C4884.54 1011.95 4890.06 1003.51 4887.96 995.093C4887.21 992.104 4911.7 980.776 4915.47 979.016C4917.58 978.031 4917.98 978.31 4920.3 979.309C4931.3 984.062 4939.69 990.627 4946.75 1000.69C4947.98 1002.43 4950.67 1007.48 4952.89 1008.09C4955.97 1008.95 4965.67 997.59 4967.65 995.737C4971.17 992.457 4978.03 982.126 4983.86 982.94C4989.73 983.76 4995.54 985.088 5001.41 985.986C5007.62 986.938 5007.71 987.136 5008.29 993.775C5009.16 1003.71 5011.79 1013.2 5014.34 1022.77C5015.24 1026.12 5015.31 1032.82 5017.45 1035.47C5020.36 1039.08 5031.28 1039.55 5035.27 1040.34C5041.18 1041.49 5047.08 1042.41 5053.06 1043.03C5054 1043.13 5057.79 1042.74 5058.5 1043.61C5063.1 1049.27 5066.01 1057.51 5069.52 1064C5070.18 1065.2 5071.19 1066.26 5071.8 1067.45C5072.9 1069.62 5064.29 1076.53 5063.33 1077.47C5057.3 1083.34 5050.91 1088.85 5045.1 1094.98C5043.5 1096.66 5042.65 1098.89 5041.04 1100.25" stroke="black" stroke-width="10" stroke-linecap="round"/>
<path d="M5042.04 1097.09C5041.97 1097.7 5041.36 1097.77 5041.04 1098.26C5039.13 1101.22 5038.84 1105.32 5038.04 1108.68" stroke="black" stroke-width="10" stroke-linecap="round"/>
<path d="M4951.61 1045.43C4935.48 1045.43 4915.97 1057.03 4907.11 1070.94C4900.53 1081.26 4892.57 1097.41 4893.54 1110.21C4895.49 1135.89 4913.76 1160.85 4938.09 1166.31C4965.45 1172.46 4990.73 1151.82 4998.63 1124.85C5002.71 1110.9 5003.47 1092.78 4997.6 1079.31C4994.18 1071.47 4989.03 1064.37 4982.53 1059.08C4977.03 1054.6 4969.8 1050.64 4963.21 1048.36C4945.78 1042.32 4961.75 1049.23 4945.61 1045.43" stroke="black" stroke-width="10" stroke-linecap="round"/>
<path d="M5184.74 1078.04C5183.84 1071.41 5185.93 1091.42 5187.51 1097.9C5188.71 1102.81 5188.56 1105.35 5193.19 1106.78C5198.71 1108.49 5204.5 1110.04 5210.21 1110.77C5211.43 1110.93 5213.36 1110.32 5214.46 1110.66C5214.91 1110.79 5215.93 1114.35 5215.94 1114.38C5217.34 1117.94 5218.97 1121.41 5220.62 1124.85C5220.99 1125.62 5224.23 1130.17 5223.87 1130.97C5223.57 1131.63 5221.98 1132.3 5221.47 1132.68C5219.32 1134.32 5217.36 1136.24 5215.64 1138.37C5212.2 1142.62 5205.2 1148.44 5208.64 1154.26C5212.9 1161.45 5218.72 1167.8 5223.13 1174.78C5223.46 1175.3 5220.55 1180.35 5220.29 1180.9C5218.22 1185.32 5215.97 1190 5214.53 1194.7C5213.95 1196.61 5213.99 1196.86 5211.73 1197C5206.18 1197.36 5200.58 1196.97 5195 1197.29C5189.45 1197.62 5188.58 1197.95 5188.8 1204.77C5189.03 1211.79 5189.65 1219.3 5188.71 1226.27C5188.49 1227.88 5182.92 1230.16 5181.79 1230.83C5178.05 1233.02 5173.79 1234.46 5170.67 1237.64C5170.64 1237.67 5169.26 1239.22 5169.12 1239.12C5162.78 1234.66 5155.75 1231.39 5149.52 1226.66C5146.5 1224.37 5143.52 1221.68 5140.12 1220.02C5139.31 1219.63 5137.35 1222.29 5136.78 1222.84C5133.18 1226.38 5129.42 1229.78 5125.45 1232.85C5123.16 1234.63 5121.51 1234.16 5118.64 1233.63C5113.73 1232.73 5108.99 1231.41 5104.24 1229.83C5099.62 1228.31 5099.53 1218.21 5098.68 1214.16C5098.29 1212.28 5095.2 1196.73 5092.7 1196.85C5087.71 1197.08 5082.78 1196.57 5077.79 1197C5076.48 1197.12 5076.34 1197.36 5075.85 1196.42C5073.38 1191.62 5071.42 1186.68 5069.13 1181.79C5068.01 1179.41 5065.2 1176.59 5064.53 1174.08C5064.36 1173.44 5065.99 1171.28 5066.16 1170.97C5067.9 1167.65 5069.39 1164.21 5070.96 1160.8C5072.75 1156.91 5075.13 1153.49 5077.07 1149.74C5077.39 1149.11 5077.47 1149.11 5077.14 1148.47C5074.66 1143.69 5072.23 1138.82 5069.67 1134.08C5068.66 1132.23 5067.38 1130.84 5066.12 1129.21C5064.66 1127.33 5070.57 1117.56 5071.25 1115.97C5072.16 1113.86 5073.77 1106.83 5076.16 1105.53C5077.46 1104.83 5079.95 1105.16 5081.29 1105.11C5084.75 1104.96 5088.18 1104.86 5091.56 1104C5092.97 1103.63 5094.41 1103.22 5095.84 1102.94C5096.4 1102.84 5096.63 1093.27 5096.76 1092.33C5097.38 1087.92 5098.62 1083.49 5098.68 1079.01C5098.71 1077.2 5098.38 1076.88 5100.18 1076.23C5105.38 1074.34 5110.57 1072.37 5115.61 1070.05C5117.62 1069.13 5120.02 1066.85 5122.11 1066.41C5123.18 1066.18 5125 1067.98 5125.74 1068.49C5128.56 1070.46 5131.37 1072.42 5134.16 1074.41C5138.44 1077.48 5142.82 1080.34 5146.79 1083.84C5148.14 1085.03 5147.5 1085.1 5149.19 1083.61C5153.07 1080.18 5158.14 1077.97 5161.61 1074.12C5162.24 1073.43 5165.44 1067.26 5165.91 1067.17C5168.23 1066.71 5174.5 1072.34 5176.21 1074.1C5176.32 1074.22 5182.35 1079.57 5182.06 1078.21C5181.44 1075.27 5175.87 1072.05 5173.29 1071.1C5172.51 1070.82 5166.97 1070.01 5169.94 1071.07C5173.33 1072.27 5177.02 1072.46 5180.31 1073.85C5181.26 1074.25 5187.17 1075.72 5184.41 1075.23" stroke="black" stroke-width="6" stroke-linecap="round"/>
<path d="M5139.56 1114.84C5130.22 1115.12 5119.97 1122.71 5114.82 1130.52C5103.43 1147.79 5107.28 1175.09 5125.79 1184.95C5140.19 1192.62 5162.27 1187.12 5170.6 1172.11C5176.8 1160.96 5174.78 1147.9 5169.39 1136.81C5163.05 1123.79 5152.49 1118.15 5139.89 1114.14" stroke="black" stroke-width="6" stroke-linecap="round"/>
<path d="M5204.41 1152.02C5203.99 1151.96 5204.08 1152.02 5204.56 1152.91C5208.94 1160.99 5216.83 1166.35 5221.32 1174.41C5223.23 1177.83 5213.96 1188.11 5212.15 1191.14C5210.85 1193.3 5206.83 1193.03 5204.75 1193.42C5199.71 1194.35 5194.75 1195.71 5189.72 1196.61C5184.61 1197.52 5185.08 1210.75 5184.33 1214.88C5184.11 1216.09 5184.07 1223.87 5183.09 1224.48C5179.93 1226.43 5176.45 1227.82 5173.27 1229.79C5171.4 1230.95 5169.28 1232.8 5167.2 1233.53C5166.81 1233.67 5163.25 1231.04 5162.99 1230.88C5157.36 1227.54 5152.17 1223.9 5146.89 1219.98C5145.88 1219.22 5143.73 1217.13 5142.24 1217.27C5139.59 1217.53 5135.97 1223.83 5134.25 1225.57C5130.82 1229.03 5126.95 1232 5123.91 1235.87C5123.1 1236.9 5122.23 1238.29 5120.83 1238.24C5113.23 1237.97 5104.69 1234.13 5097.9 1230.61C5095.81 1229.53 5095.99 1225.06 5095.69 1223.09C5094.5 1215.25 5093.47 1207.44 5091.7 1199.71C5091.21 1197.56 5088.92 1198.44 5087.09 1198.21C5083.37 1197.74 5079.6 1197.06 5075.97 1196.05C5070.27 1194.45 5067.2 1186.53 5064.94 1181.34C5063.3 1177.6 5058.61 1173.63 5061.39 1169.87C5065.27 1164.65 5069.75 1159.79 5074.31 1155.25C5076.41 1153.16 5079.27 1151.34 5080.33 1148.39C5081.14 1146.16 5074.12 1141.76 5072.91 1140.64C5069.56 1137.56 5063.61 1133.15 5064.62 1128.08C5066.14 1120.49 5069.3 1113.47 5070.51 1105.8C5070.61 1105.16 5070.73 1104.49 5070.86 1103.86C5071.17 1102.4 5073.57 1102.99 5074.94 1102.63C5080.36 1101.22 5085.77 1099.72 5091.22 1098.46C5093.69 1097.9 5096.14 1097.3 5098.64 1096.98C5102.19 1096.53 5101.73 1096.66 5101.23 1093.28C5100.34 1087.33 5104.01 1081.72 5102.61 1076.13C5102.12 1074.14 5118.4 1066.6 5120.9 1065.43C5122.31 1064.78 5122.58 1064.97 5124.12 1065.63C5131.44 1068.79 5137.01 1073.16 5141.71 1079.85C5142.52 1081.01 5144.31 1084.36 5145.79 1084.77C5147.84 1085.34 5154.29 1077.79 5155.61 1076.55C5157.94 1074.37 5162.51 1067.5 5166.39 1068.04C5170.29 1068.59 5174.15 1069.47 5178.05 1070.07C5182.19 1070.7 5182.25 1070.83 5182.63 1075.25C5183.21 1081.86 5184.96 1088.17 5186.66 1094.53C5187.25 1096.76 5187.3 1101.22 5188.72 1102.98C5190.66 1105.38 5197.92 1105.69 5200.57 1106.21C5204.5 1106.98 5208.43 1107.59 5212.41 1108C5213.03 1108.07 5215.55 1107.81 5216.02 1108.39C5219.08 1112.16 5221.02 1117.63 5223.35 1121.95C5223.79 1122.75 5224.46 1123.45 5224.87 1124.25C5225.6 1125.69 5219.87 1130.29 5219.24 1130.91C5215.22 1134.81 5210.97 1138.47 5207.11 1142.55C5206.05 1143.67 5205.48 1145.15 5204.41 1146.06" stroke="black" stroke-width="10" stroke-linecap="round"/>
<path d="M5205.08 1143.95C5205.03 1144.36 5204.62 1144.4 5204.41 1144.73C5203.14 1146.7 5202.95 1149.43 5202.42 1151.66" stroke="black" stroke-width="10" stroke-linecap="round"/>
<path d="M5144.93 1109.6C5134.21 1109.6 5121.24 1117.32 5115.34 1126.56C5110.97 1133.43 5105.67 1144.17 5106.32 1152.68C5107.62 1169.76 5119.77 1186.36 5135.94 1189.99C5154.14 1194.08 5170.95 1180.35 5176.2 1162.42C5178.92 1153.14 5179.43 1141.09 5175.52 1132.13C5173.25 1126.92 5169.82 1122.2 5165.5 1118.68C5161.84 1115.7 5157.04 1113.07 5152.65 1111.55C5141.06 1107.53 5151.68 1112.13 5140.95 1109.6" stroke="black" stroke-width="10" stroke-linecap="round"/>
<path d="M4859.73 230.039C4853.54 234.407 4845.13 236.314 4838.48 240.07C4806.83 257.928 4785.5 284.325 4764.56 313.241C4752.65 329.679 4742.07 346.726 4734.23 365.514C4728.17 380.025 4723.35 395.082 4718.79 410.115C4715.57 420.746 4711.96 431.791 4710.64 442.894C4709.17 455.319 4715.03 472.025 4728.7 474.479C4744.4 477.297 4759.36 467.289 4771.04 458.12C4807.72 429.316 4838.21 390.191 4860.21 349.214C4874.97 321.718 4892.59 287.152 4888 254.817C4885.52 237.357 4868.19 230.263 4852.75 235.413" stroke="black" stroke-width="8" stroke-linecap="round"/>
<path d="M4708.13 251.248C4709.9 258.614 4708.55 267.134 4709.57 274.708C4714.43 310.718 4731.05 340.311 4750.14 370.478C4761 387.627 4772.91 403.777 4787.45 418.021C4798.69 429.021 4810.88 439.082 4823.16 448.884C4831.84 455.816 4840.76 463.265 4850.58 468.601C4861.58 474.572 4879.27 475.319 4886.61 463.53C4895.05 449.996 4891.3 432.393 4887.11 418.15C4873.95 373.408 4848.91 330.581 4819 294.968C4798.93 271.071 4773.36 241.89 4741.62 234.172C4724.49 230.005 4711.48 243.471 4710.54 259.728" stroke="black" stroke-width="8" stroke-linecap="round"/>
<path d="M4666.8 383.849C4674.11 385.853 4680.92 391.137 4688.05 393.891C4721.95 406.984 4755.88 406.685 4791.52 404.487C4811.78 403.237 4831.67 400.583 4851.16 394.7C4866.21 390.157 4880.9 384.316 4895.41 378.283C4905.66 374.017 4916.49 369.791 4925.9 363.752C4936.43 356.995 4945.61 341.855 4938.81 329.738C4931.02 315.827 4913.79 310.632 4899.29 307.44C4853.74 297.414 4804.15 298.718 4758.53 307.766C4727.92 313.838 4690.03 322.185 4667.98 346.274C4656.07 359.282 4661.6 377.171 4675.39 385.83" stroke="black" stroke-width="8" stroke-linecap="round"/>
<path d="M4847.34 233.977C4847.84 233.41 4847.91 233 4847.91 232.264" stroke="#1F1F1F" stroke-width="8" stroke-linecap="round"/>
<path d="M4730.84 233.406H4731.41" stroke="#1F1F1F" stroke-width="8" stroke-linecap="round"/>
<path d="M4854.81 480.224C4854.25 479.406 4852.95 478.854 4852.12 478.347C4843.04 472.804 4833.04 469.16 4824.14 463.114C4810.05 453.54 4798.89 440.969 4788.68 427.461C4774.97 409.323 4762.23 390.375 4750.51 370.899C4733.55 342.709 4717.03 310.344 4709.78 277.855C4706.2 261.757 4702.52 239.14 4713.26 224.798C4721 214.461 4730.47 215.164 4741.07 219.385C4769.04 230.526 4794.35 254.416 4812.46 277.862C4828.46 298.581 4843.43 319.153 4855.39 342.564C4866.75 364.803 4875.6 387.751 4882.08 411.849C4887.44 431.831 4892.24 463.615 4870.8 476.243" stroke="#1F1F1F" stroke-width="8" stroke-linecap="round"/>
<path d="M4881.89 228.145C4881.48 229.045 4881.67 230.443 4881.67 231.415C4881.6 242.049 4883.64 252.499 4883.04 263.239C4882.11 280.247 4877.09 296.293 4870.78 312.006C4862.31 333.105 4852.65 353.796 4842.01 373.88C4826.6 402.951 4807.39 433.794 4783.29 456.754C4771.35 468.131 4753.87 482.946 4736.04 481.139C4723.19 479.837 4718.91 471.358 4717.06 460.104C4712.18 430.392 4719.6 396.387 4730.35 368.782C4739.85 344.388 4749.75 320.951 4763.64 298.631C4776.84 277.429 4791.94 258.011 4809.24 240.039C4823.6 225.136 4848.36 204.637 4870.23 216.493" stroke="#1F1F1F" stroke-width="8" stroke-linecap="round"/>
<path d="M4656.03 344.766C4657.01 344.657 4658.11 343.769 4658.95 343.275C4668.1 337.865 4676.02 330.745 4685.53 325.73C4700.6 317.789 4716.94 313.837 4733.66 311.167C4756.12 307.583 4778.83 305.229 4801.53 304.029C4834.38 302.291 4870.71 302.908 4902.8 311.77C4918.7 316.162 4940.39 323.535 4948.01 339.753C4953.5 351.443 4948.43 359.476 4939.73 366.848C4916.76 386.311 4883.78 397.438 4854.57 402.413C4828.77 406.81 4803.57 410.368 4777.29 409.933C4752.32 409.519 4727.9 406.557 4703.59 400.954C4683.42 396.308 4653.11 385.615 4652.03 360.756" stroke="#1F1F1F" stroke-width="8" stroke-linecap="round"/>
<path d="M4653.17 342.481C4642.71 342.481 4647.78 362.312 4658.47 358.821C4668.42 355.571 4662.32 341.324 4652.54 343.497C4638.35 346.65 4645.74 367.359 4658.15 361.391C4667.06 357.11 4656.8 341.776 4652.51 347.748C4650.14 351.044 4655.91 353.758 4656.28 350.35C4656.48 348.5 4654.05 347.087 4652.67 348.573C4650.39 351.025 4654.95 354.005 4657.17 352.761C4661.2 350.502 4655.9 341.214 4652.54 345.337C4647.03 352.09 4659.27 354.518 4658.47 348.954C4657.78 344.087 4649.02 343.351 4652.57 348.51C4655.62 352.941 4656.79 347.293 4656.03 344.766" stroke="#1F1F1F" stroke-width="8" stroke-linecap="round"/>
<path d="M4871.85 216.058C4861.57 216.47 4863.54 232.017 4875.25 230.018C4881.19 229.003 4886.96 223.461 4884.35 217.137C4882.56 212.8 4874.4 208.873 4873.18 215.995C4871.87 223.712 4884.92 230.428 4888.16 221.706C4890.78 214.666 4879.48 208.451 4875.69 215.582C4873.22 220.224 4879.69 224.287 4881.81 219.675C4884.03 214.851 4877.37 216.395 4875.85 220.056" stroke="#1F1F1F" stroke-width="8" stroke-linecap="round"/>
<path d="M4864.44 472.333C4860.86 470.741 4858.29 473.138 4857.49 476.806C4854.52 490.478 4873.4 485.129 4869.39 475.886C4862.92 461.016 4853.7 486.631 4864.06 483.501C4868.2 482.246 4857.42 479.229 4862.53 482.866C4864.86 484.518 4866.51 482.568 4866.75 480.233C4867.2 475.914 4864.63 477.334 4862.72 475.188" stroke="#1F1F1F" stroke-width="8" stroke-linecap="round"/>
<path d="M4791.94 336.198C4791.84 336.999 4788.01 337.255 4787.25 337.467C4770.6 342.128 4769.95 366.095 4786.23 371.668C4795.73 374.919 4805.54 373.437 4811.58 365.291C4814.67 361.132 4817.69 356.878 4816.25 351.49C4814.74 345.871 4809.86 338.448 4804.67 335.69C4796.8 331.516 4790.08 337.914 4784.52 342.48" stroke="#1F1F1F" stroke-width="8" stroke-linecap="round"/>
<path d="M4798.23 334.486C4789.16 334.486 4775.28 335.865 4776.47 348.7C4777.35 358.351 4788.7 364.465 4797.53 361.676C4808.33 358.265 4804.97 338.544 4793.63 341.244C4782.54 343.885 4782.42 359.373 4794.11 361.137C4810.93 363.677 4803.24 338.391 4796.01 345.273C4794.35 346.851 4791.92 356.422 4796.8 353.649C4800.51 351.543 4796.17 350.159 4800.64 350.159C4803.05 350.159 4800.99 344.908 4799.85 348.192C4799.16 350.153 4799.64 351.607 4801.09 352.761" stroke="#1F1F1F" stroke-width="8" stroke-linecap="round"/>
<path d="M4589 254.296L4613.44 266.515" stroke="black" stroke-width="20" stroke-linecap="round"/>
<path d="M4680.64 132.109C4680.64 141.263 4678.74 146.432 4686.75 150.437" stroke="black" stroke-width="20" stroke-linecap="round"/>
<path d="M4882.25 126C4872.42 138.78 4865.79 154.804 4857.81 168.765" stroke="black" stroke-width="20" stroke-linecap="round"/>
<path d="M5773.11 961.742C5760.84 961.742 5748.88 958.343 5737.13 954.979C5718.02 949.507 5698.82 940.044 5681.75 929.897C5668.16 921.817 5659.69 909.792 5652.07 896.352" stroke="black" stroke-width="6" stroke-linecap="round"/>
<path d="M5885.93 907.684C5882.55 907.684 5881.68 907.4 5878.43 905.52C5864 897.178 5846.81 888.872 5830.43 885.269C5784.17 875.095 5733.06 876.804 5687.98 891.53C5678.38 894.665 5666.64 902.451 5661.93 911.858" stroke="black" stroke-width="6" stroke-linecap="round"/>
<path d="M5919.13 811.158C5903.33 811.158 5887.54 810.196 5871.75 809.921C5838.21 809.336 5804.72 811.091 5771.19 811.158C5721.24 811.257 5671.31 813.94 5621.39 813.94" stroke="black" stroke-width="6" stroke-linecap="round"/>
<path d="M5650.97 716.572C5659.29 729.177 5676.42 734.345 5690.47 737.442C5719.14 743.758 5747.87 745.668 5777.2 745.016C5804.39 744.412 5830.89 736.909 5856.38 728.012C5863.68 725.464 5878.22 721.898 5881.93 714.485" stroke="black" stroke-width="6" stroke-linecap="round"/>
<path d="M5772.34 656.421C5773.45 725.879 5771.48 795.309 5771.48 864.783C5771.48 894.834 5776.41 925.597 5771.48 955.515" stroke="black" stroke-width="6" stroke-linecap="round"/>
<path d="M5769.87 656.277C5769.68 657.788 5765.19 658.022 5764 658.364C5743.36 664.297 5722.61 668.163 5702.86 676.915C5668 692.36 5640.43 718.733 5625.8 754.672C5616.07 778.56 5615.51 808.392 5619.3 833.55C5626.4 880.691 5666.94 925.431 5710.7 942.264C5726.16 948.207 5742.51 949.329 5758.78 951.539C5759.41 951.625 5771.13 953.592 5767.78 954.708" stroke="black" stroke-width="6" stroke-linecap="round"/>
<path d="M5774.04 656.973C5776.05 654.398 5769.2 657.303 5768.79 657.514C5754.29 664.866 5739.47 672.828 5730.45 686.808C5708.98 720.098 5697.99 759.734 5696.83 799.348C5696.15 822.483 5695.97 846.059 5702.16 868.525C5706.91 885.764 5713.14 902.827 5720.17 919.269C5728.47 938.688 5741.79 950.735 5761.52 958.186C5770.38 961.531 5777.73 963.547 5786.41 958.418C5793.63 954.149 5802.95 949.271 5809.25 943.809C5824.03 931.004 5829 907.767 5833.87 889.588C5837.51 876.012 5841.1 861.951 5843.18 848.043C5848.22 814.313 5845.36 781.86 5837.35 748.72C5834.74 737.958 5832.19 727.133 5828.15 716.798C5823.67 705.356 5816.12 697.011 5808.05 687.967C5803.78 683.175 5775.6 650.547 5767.09 659.06" stroke="black" stroke-width="6" stroke-linecap="round"/>
<path d="M5775.43 656.973C5778.99 656.973 5782.48 657.844 5785.87 658.905C5805.47 665.046 5827.94 670.997 5846.12 680.74C5865.42 691.088 5883.04 701.704 5894.7 720.74C5902.37 733.268 5908.05 746.701 5912.48 760.701C5918.22 778.878 5924.47 798.38 5924.15 817.666C5923.57 852.85 5914.1 888.244 5887.47 912.892C5867.84 931.066 5841.27 941.524 5816.25 950.186C5800.37 955.681 5782.35 960.15 5765.7 961.664" stroke="black" stroke-width="6" stroke-linecap="round"/>
<path d="M5735.22 963.48C5721.93 963.48 5761.66 966.608 5774.68 969.302" stroke="black" stroke-width="7" stroke-linecap="round"/>
<path d="M5769.51 658.173C5769.26 656.244 5760.26 658.981 5759.59 659.107C5730.86 664.533 5711.03 682.718 5702.99 711.429C5698.6 727.119 5697.88 743.826 5696.38 759.978C5693.44 791.528 5690.11 824.164 5697.35 855.387C5701.73 874.314 5707.76 893.59 5714.52 911.806C5720.69 928.411 5729.67 943.403 5743.45 954.785C5750.43 960.551 5758.89 963.621 5768.03 963.266C5784.49 962.626 5799.33 943.066 5807.02 930.061C5822.71 903.526 5831.88 870.441 5836.49 840.15C5839.48 820.475 5840.77 799.962 5838.79 780.138C5836 752.159 5827.91 720.396 5813.45 695.941C5806.57 684.296 5797.01 674.215 5785.89 666.546C5780.05 662.515 5774.17 662 5767.57 660.113" stroke="black" stroke-width="13" stroke-linecap="round"/>
<path d="M5908.57 808.239C5908 810.517 5896.87 809.53 5896.64 809.533C5849.74 810.174 5803.19 815.264 5756.21 814.78C5715.59 814.361 5675.38 811.302 5634.89 809.461C5629.79 809.229 5622.48 808.287 5617.5 809.533" stroke="black" stroke-width="13" stroke-linecap="round"/>
<path d="M5764.33 661.406C5762.83 661.593 5763.39 669.218 5763.39 669.24C5762.78 704.564 5764.43 739.869 5764.9 775.178C5765.74 836.896 5763.9 898.556 5766.27 960.246" stroke="black" stroke-width="13" stroke-linecap="round"/>
<path d="M5878.82 715.093C5879.45 715.093 5878.47 716.738 5878.03 717.177C5876.87 718.339 5875.54 718.999 5874.08 719.729C5862.84 725.347 5851.34 730.363 5839.37 734.211C5798.89 747.219 5754.65 747.41 5712.94 740.966C5686.01 736.805 5662.45 728.607 5645.96 706.037" stroke="black" stroke-width="13" stroke-linecap="round"/>
<path d="M5881.41 906.558C5879.21 906.282 5871.63 900.452 5869.95 899.55C5845.43 886.43 5818.44 880.63 5791 877.594C5758.18 873.962 5724.48 875.955 5692.46 884.637C5676.69 888.913 5665.07 895.436 5652.43 905.264" stroke="black" stroke-width="13" stroke-linecap="round"/>
<path d="M5759.16 658.171C5728.1 658.171 5695.84 667.508 5670.72 686.165C5646.67 704.024 5629.97 732.858 5621.45 761.162C5612.19 791.913 5606.35 825.811 5615.92 857.11C5621.34 874.856 5632.92 890.487 5642.72 906.09C5651.95 920.761 5663.49 935.07 5679.67 942.421C5700.17 951.74 5722.48 959.197 5744.21 965.133C5750.88 966.956 5757.89 969.317 5763.68 973.182" stroke="black" stroke-width="13" stroke-linecap="round"/>
<path d="M5764.33 656.23C5765.48 657.273 5766.68 657.915 5768.25 658.099C5780.03 659.486 5791.81 659.624 5803.47 662.34C5814.96 665.016 5823.59 670.864 5833.33 677.073C5845.44 684.799 5859.14 690.119 5869.84 699.928C5901.37 728.842 5917.57 776.37 5916.02 818.587C5915.31 837.79 5911.1 855.49 5901.75 872.491C5888.76 896.109 5868.61 920.674 5846.16 936.205C5832.88 945.389 5816.89 955.122 5801.34 959.814C5785.46 964.609 5767.75 963.824 5751.39 962.833" stroke="black" stroke-width="13" stroke-linecap="round"/>
<path d="M5585 634.157C5590.82 639.982 5597.45 644.786 5601.06 652" stroke="black" stroke-width="20" stroke-linecap="round"/>
<path d="M5756.3 561C5756.3 569.199 5757.3 577.475 5758.48 585.584C5760.54 599.775 5753.98 577.239 5752.73 573.49" stroke="black" stroke-width="20" stroke-linecap="round"/>
<path d="M5949 614.53C5945.08 623.015 5932.69 630.084 5925.8 635.942" stroke="black" stroke-width="20" stroke-linecap="round"/>
<path d="M5895.86 312.913C5891.34 303.384 5890.74 291.502 5888.78 281.373C5882.56 249.338 5880.71 216.678 5873.75 184.788C5870.73 170.937 5865.6 156.753 5864.08 142.63C5863.08 133.281 5876.85 144.739 5879.65 146.484C5903.23 161.187 5923.02 180.341 5940.33 202.052C5954.23 219.476 5969.05 236.158 5982.77 253.727C5986.61 258.647 5990.35 263.777 5993.62 269.104C5996.51 273.813 5987.68 271.56 5984.73 271.542C5971.85 271.462 5960.11 269.673 5947.49 267.177C5929.19 263.558 5910.59 261.44 5892.47 256.912C5871.32 251.624 5849.72 246.228 5829.39 238.272C5828.45 237.901 5814.88 232.56 5815 232.412C5817.91 228.883 5824.45 226.086 5828.21 223.564C5845.84 211.754 5865.35 204.662 5884.45 195.76C5913.36 182.285 5941.47 166.449 5970.81 154.034C5972.49 153.327 5975.42 151.39 5975.06 153.916C5973.08 167.761 5965.08 182.637 5959.41 195.17C5940.48 237.016 5914.7 276.699 5902.93 321.408" stroke="black" stroke-width="5" stroke-linecap="round"/>
<path d="M5903.42 302.137C5903.22 299.963 5902.22 297.719 5901.69 295.623C5897.59 279.511 5895.23 262.936 5892.03 246.627C5888.83 230.305 5888.11 213.657 5886.28 197.149C5884.36 179.714 5881.28 162.266 5879.91 144.783C5879.6 140.792 5884.6 144.587 5886.62 145.717C5893.75 149.71 5900.17 155.286 5906.76 160.076C5933.44 179.488 5957.78 203.143 5979.46 228.02C5990.67 240.878 6003.62 252.557 6014.04 266.056C6014.88 267.14 6019.43 271.391 6016.45 271.04C5992.37 268.207 5968.27 271.182 5944.09 268.491C5921.64 265.993 5898.71 263.21 5877.39 255.407C5869.47 252.506 5861.78 248.538 5853.63 246.287C5848.36 244.831 5844.5 241.14 5839.61 238.867C5837.54 237.905 5829.02 234.375 5831.42 231.05C5836.28 224.338 5846.58 218.071 5853.49 213.887C5864.49 207.213 5877.36 204.936 5888.86 199.33C5899.56 194.117 5909.96 188.3 5920.67 183.073C5939 174.122 5955.92 163.519 5976.03 158.49C5981.63 157.092 5986.26 153.65 5984.13 161.379C5978.63 181.418 5967.46 200.418 5958.08 218.815C5950.47 233.733 5942.82 248.375 5936.53 263.875C5933.55 271.205 5930.58 278.717 5926.81 285.682C5922.52 293.61 5919.51 303.369 5913.53 310.294C5912.54 311.442 5907.78 317.901 5906.36 315.618C5903.77 311.453 5903.81 305.824 5903.42 301.118" stroke="black" stroke-width="9" stroke-linecap="round"/>
<path d="M2987 512.541C2984.36 465.024 2994.01 408.887 2956.81 371.528C2937.27 351.904 2923.21 335.496 2914.52 308.68C2903.74 275.42 2907.19 246.583 2919.14 214.014C2933.97 173.575 2959.05 138.847 3001.08 123.403C3031.68 112.159 3069.34 113.368 3100.53 121.488C3163.98 138.007 3199.8 206.825 3198.69 269.147C3198.33 288.864 3190.92 307.911 3182.64 325.575C3174.16 343.649 3152.72 356.681 3138.82 370.402C3109.83 399.041 3106.94 439.555 3111.23 478.414C3112.79 492.535 3123.02 507.909 3103.85 505.952C3068.29 502.324 3031.77 515.582 2996.12 515.582" stroke="black" stroke-width="9" stroke-linecap="round"/>
<path d="M2987 508.485C2987 509.543 2990.14 507.801 2990.99 507.471C3000.86 503.678 3012.71 503.724 3023.04 502.628C3051.38 499.619 3082.07 494.121 3110.67 496.321" stroke="black" stroke-width="9" stroke-linecap="round"/>
<path d="M3098.5 503.418C3098.5 519.245 3089.58 536.352 3074.29 541.15C3060.93 545.342 3048.17 548.842 3034.08 545.993C3019.59 543.061 3014.45 529.551 3008.29 517.61" stroke="black" stroke-width="9" stroke-linecap="round"/>
<path d="M2986.99 432.461C2972.17 432.461 3016.64 431.859 3031.43 430.941C3056.14 429.407 3084.13 424.965 3108.64 429.42" stroke="black" stroke-width="9" stroke-linecap="round"/>
<path d="M3063.03 415.228C3065.28 417.204 3063.6 399.731 3063.59 399.572C3060.68 359.14 3050.16 314.928 3072.49 278.156C3081.96 262.55 3105.04 266.605 3106.39 285.815C3108.4 314.414 3066.13 321.524 3044.55 323.546C3025.19 325.362 2996.71 321.452 2993.31 297.754C2989.59 271.897 3015.73 262.847 3027.04 285.477C3033.86 299.121 3035.66 311.921 3035.66 327.094C3035.66 357.824 3034.63 388.566 3035.66 419.283" stroke="black" stroke-width="9" stroke-linecap="round"/>
<path d="M3114.97 510.955C3113.35 496.039 3111.11 480.357 3111.67 464.777C3112.8 433.361 3128.39 408.492 3147.07 384.696C3167.98 358.038 3190.86 331.152 3201.58 298.083C3212.98 262.941 3209.8 222.718 3191.36 190.634C3152.03 122.186 3064.57 96.4167 2994.72 129.532C2943.93 153.614 2905.51 213.47 2909.59 271.953C2912.08 307.629 2928.2 341.912 2951.3 368.252C2960.85 379.136 2971.26 389.271 2979.83 401.028C3000.95 430.005 2995.27 476.413 2995.27 510.955" stroke="black" stroke-width="11" stroke-linecap="round"/>
<path d="M2994.28 516.023C2990.65 517.773 2992.52 517.301 2996.04 517.825C3013.61 520.438 3031.66 520.268 3049.35 519.571C3070.96 518.719 3134.49 506.99 3113.98 513.996" stroke="black" stroke-width="11" stroke-linecap="round"/>
<path d="M2996.26 434.928C2987.53 435.823 3011.81 439.81 3013.19 439.771C3046.42 438.822 3079.8 434.928 3113 434.928" stroke="black" stroke-width="11" stroke-linecap="round"/>
<path d="M3068.48 426.82C3066.23 403.81 3065.61 380.307 3065.51 356.989C3065.4 331.017 3058.87 285.847 3084.53 268.236C3094.41 261.449 3114.03 272.601 3112.56 285.131C3111.68 292.537 3106.84 301.098 3100.46 304.728C3073.27 320.21 3021.98 318.882 2999.07 297.295C2983.66 282.777 3007.44 255.865 3023.25 269.419C3033.55 278.255 3034.11 293.127 3034.84 305.798C3036.98 342.541 3046.31 380.962 3039.79 417.697" stroke="black" stroke-width="11" stroke-linecap="round"/>
<path d="M3008.13 525.144C3008.13 528.507 3010.39 529.052 3012.09 531.451C3019.89 542.441 3023.5 548.372 3037.37 548.458C3050.44 548.539 3066.99 551.096 3079.91 548.233C3088.39 546.353 3094.94 523.333 3094.2 515.007" stroke="black" stroke-width="11" stroke-linecap="round"/>
<path d="M2833.7 148.246C2843.67 151.093 2852.01 158.328 2860.69 163.67" stroke="black" stroke-width="20" stroke-linecap="round"/>
<path d="M2972.52 47.9912C2977.83 50.647 2975.78 58.6373 2976.38 63.4152" stroke="black" stroke-width="20" stroke-linecap="round"/>
<path d="M3146.04 32.5684C3140.54 44.1843 3138.33 54.5851 3138.33 67.2724" stroke="black" stroke-width="20" stroke-linecap="round"/>
<path d="M3281 90.4082C3264.26 97.8859 3250.16 107.655 3234.73 117.4" stroke="black" stroke-width="20" stroke-linecap="round"/>
<path d="M2968.66 21C2969.72 31.606 2972.52 40.8205 2972.52 51.848" stroke="black" stroke-width="20" stroke-linecap="round"/>
<path d="M2799 267.785C2810.17 266.987 2823.17 266.236 2829.85 256.217" stroke="black" stroke-width="20" stroke-linecap="round"/>
<path d="M2325.13 608.262C2270.59 582.33 2214.67 558.976 2163.23 527.129C2159.98 525.119 2156.5 524.234 2152.85 523.161C2148.06 521.75 2144.43 520.939 2139.54 522.978C2117.07 532.36 2096.31 549.423 2075.75 562.171C2042.22 582.959 2007.49 603.769 1971.3 619.739C1971.22 619.772 1966.06 621.62 1967.02 622.547C1970.15 625.551 1974.96 626.058 1978.99 627.675C1994.82 634.03 1999.69 636.098 2016.47 643.792C2042.62 655.776 2068.53 668.299 2094.61 680.42C2111.1 688.081 2115.32 689.907 2130.57 697.392C2132.66 698.419 2143.68 704.431 2147.79 705.328C2154.58 706.811 2165.43 696.887 2169.7 694.095C2199.18 674.825 2229.05 656.226 2259.08 637.809C2277.19 626.699 2295.37 612.912 2315.24 604.965" stroke="black" stroke-width="8" stroke-linecap="round"/>
<path d="M2257 657.711C2257 685.476 2258.03 714.03 2254.68 741.652C2254.32 744.632 2252.49 745.678 2249.92 747.085C2239.32 752.879 2227.88 757.186 2216.22 760.272C2188.41 767.634 2158.23 774.095 2129.47 775.228C2095.48 776.569 2056.48 770.62 2030.15 747.085C2021.37 739.234 2023.99 730.879 2024.1 719.187C2024.31 697.958 2025.14 676.744 2025.14 655.514" stroke="black" stroke-width="8" stroke-linecap="round"/>
<path d="M1981.19 626.944C1979.87 674.472 1975.09 721.211 1980.09 768.697" stroke="black" stroke-width="8" stroke-linecap="round"/>
<path d="M1981.19 775.291V784.082" stroke="black" stroke-width="8" stroke-linecap="round"/>
<path d="M1981.19 784.079C1978.03 794.964 1968.57 802.869 1965.07 813.504C1963.51 818.246 1960.57 823.447 1967.75 824.614C1976.58 826.047 1987.17 825.269 1995.96 823.638C2005.12 821.937 1985.37 788.05 1982.28 781.881" stroke="black" stroke-width="8" stroke-linecap="round"/>
<path d="M1975.7 814.851C1977.15 811.218 1984.2 802.18 1980.95 804.351C1977.94 806.358 1978.3 815.987 1977.89 819.247" stroke="black" stroke-width="8" stroke-linecap="round"/>
<path d="M2147.98 527.851C2192.87 543.964 2233.98 571.337 2275.28 594.817C2289.23 602.747 2303.56 611.094 2316.68 620.277C2319.74 622.415 2317.3 622.649 2313.9 624.021C2282.7 636.587 2330.14 615.327 2282.77 635.788C2246.4 651.496 2212.59 671.927 2178.9 692.591C2166.69 700.075 2152.25 713.707 2136.96 707.995C2109.74 697.819 2083.81 682.647 2057.27 670.768C2023.18 655.514 1992.46 642.333 1966.34 616.212C1961.26 611.134 1977.68 607.228 1984.1 604.017C2011.83 590.152 2039.62 576.404 2067.75 563.366C2095.01 550.733 2124.82 540.722 2149.91 524" stroke="black" stroke-width="8" stroke-linecap="round"/>
<path d="M2031.16 669.699C2031.16 666.593 2031.34 682.28 2031.64 685.032C2033.51 702.137 2032.41 737.531 2044.83 750.761C2081.88 790.212 2137.24 791.489 2187.23 780.357C2196.3 778.337 2205.55 775.329 2213.85 771.086C2221.86 766.991 2231.65 765.506 2238.93 760.151C2247.85 753.586 2252.56 755.034 2253.43 744.105C2254.68 728.474 2254.9 712.348 2254.74 696.68C2254.68 690.665 2256.12 662.02 2252.6 661.141" stroke="black" stroke-width="8" stroke-linecap="round"/>
<path d="M1989.45 645.093C1988.24 644.034 1989.88 675.514 1989.87 676.888C1989.57 715.164 1990.52 753.371 1990.52 791.647" stroke="black" stroke-width="8" stroke-linecap="round"/>
<path d="M1988.38 796.998C1988.38 794.107 1974.59 818.501 1973.4 824.157C1972.65 827.73 1999.62 822.958 2004.78 822.672C2005.82 822.614 1995.38 805.004 1990.52 806.626" stroke="black" stroke-width="8" stroke-linecap="round"/>
<path d="M1909 510.421C1928.37 513.189 1945.82 522.696 1963.98 528.749" stroke="black" stroke-width="20" stroke-linecap="round"/>
<path d="M2122.83 431V461.547" stroke="black" stroke-width="20" stroke-linecap="round"/>
<path d="M2403.86 522.64C2384.79 525.573 2366.83 534.983 2348.87 540.968" stroke="black" stroke-width="20" stroke-linecap="round"/>
<path d="M1247.59 361.179C1249.86 360.724 1253.33 354.544 1254.22 353.474C1271.21 333.032 1289.44 313.519 1308.52 295.005C1334.02 270.263 1360.27 246.04 1383.76 219.34C1395.89 205.552 1408.73 193.396 1423.73 182.712C1433.75 175.58 1445.9 168.012 1458.35 166.225C1466.78 165.014 1475.43 168.898 1482.57 172.967C1492.64 178.712 1501.82 186.15 1508.23 195.913C1514.84 205.966 1513.44 217.027 1510.7 228.207C1505.8 248.234 1483.53 259.57 1469.62 272.824C1440.52 300.554 1410.19 327.689 1383.11 357.44C1367.96 374.086 1354.29 392.129 1338.1 407.779C1331.35 414.294 1324.63 420.972 1317.56 427.127C1317.26 427.384 1313.88 430.72 1313.88 430.016" stroke="black" stroke-width="7" stroke-linecap="round"/>
<path d="M1244.53 367.808C1252.91 368.645 1261.91 372.897 1270.08 375.003C1276.58 376.678 1282.47 378.491 1288.55 381.348C1293.42 383.637 1292.87 384.302 1294.67 389.79C1299.92 405.832 1321.42 451.742 1313.87 436.645" stroke="black" stroke-width="7" stroke-linecap="round"/>
<path d="M1243 363.219C1243 362.199 1243.05 365.261 1242.97 366.278C1241.9 380.237 1236.37 394.211 1233.03 407.722C1230.59 417.553 1230.61 427.719 1228.49 437.608C1226.59 446.515 1223.94 455.153 1221.02 463.727C1220.84 464.231 1222.11 463.737 1222.6 463.529C1226.12 462.033 1229.52 460.29 1233.03 458.769C1245.47 453.372 1258.26 449.345 1271.41 446.078C1281.26 443.631 1291.28 442.019 1301.18 439.818C1303.56 439.29 1308.66 437.247 1310.82 438.685" stroke="black" stroke-width="7" stroke-linecap="round"/>
<path d="M1236.37 418.798C1234.84 417.072 1237.51 418.752 1237.98 419.082C1247.99 426.086 1254.23 435.672 1259.83 446.333" stroke="black" stroke-width="7" stroke-linecap="round"/>
<path d="M1298.58 380.556C1299.63 380.556 1300.33 380.219 1301.13 379.507C1312.45 369.439 1322.22 357.563 1333.48 347.355C1364.58 319.154 1393.73 288.79 1422.26 258.008C1429.62 250.064 1453.59 228.224 1444.92 234.723" stroke="black" stroke-width="7" stroke-linecap="round"/>
<path d="M1416.88 190.87C1427.43 202.744 1438.15 214.744 1449.79 225.77C1457.49 233.06 1464.61 240.047 1471.38 248.206C1474.6 252.09 1479.6 255.956 1479.6 261.237" stroke="black" stroke-width="7" stroke-linecap="round"/>
<path d="M1239.43 426.447C1236.31 423.678 1232.95 441.164 1234.33 440.667C1238.41 439.195 1228.44 456.96 1230.25 453.018C1231.88 449.468 1237.74 438.583 1232.74 448.656C1227.68 458.875 1234.35 446.883 1236.54 443.897C1241.79 436.726 1236.96 444.723 1237.28 447.863C1237.32 448.339 1243.96 438.148 1242.32 443.897C1241 448.536 1244.19 444.409 1246 443.614C1249.04 442.28 1249.73 436.26 1247.93 444.293C1246.89 448.912 1250.08 443.873 1252.18 443.727C1253.53 443.633 1254.9 445.435 1254.78 445.37C1247.79 441.372 1244.99 431.355 1239.15 425.994C1236.38 423.461 1246.82 435.519 1243.54 431.772C1242.71 430.831 1237.14 423.481 1235.8 424.209C1234.52 424.909 1240.14 432.859 1240.73 433.727C1242.23 435.923 1240.51 429.251 1240.02 433.415C1239.75 435.707 1239.09 436.855 1238.18 439.109C1235.74 445.148 1244.41 437.71 1236.79 444.832C1233.8 447.63 1230.5 450.162 1227.87 453.273C1223.81 458.072 1232.15 454.009 1233.96 452.452C1235.92 450.773 1236.02 448.745 1238.72 448.628C1240.67 448.543 1246.48 449.393 1244.53 449.393" stroke="black" stroke-width="7" stroke-linecap="round"/>
<path d="M1252.61 346.864C1252.03 346.782 1253.85 345.621 1254.06 345.413C1267.14 332.625 1279.53 318.865 1292.15 305.618C1318.56 277.911 1343.14 248.309 1370.49 221.524C1386.22 206.122 1402.34 190.017 1421.52 178.901C1430.3 173.814 1439.73 167.665 1450 166.362C1460.3 165.057 1472.55 167.276 1481.26 173.07C1488.53 177.901 1497.27 184.956 1501.24 192.892C1507.63 205.672 1505.55 220.613 1499.18 232.987C1495.27 240.594 1488.35 246.827 1482.52 252.959C1475.04 260.813 1467.7 268.831 1459.97 276.435C1451.04 285.209 1442.69 294.938 1432.96 302.815C1427.61 307.148 1421.82 310.898 1416.39 315.129C1405.64 323.503 1396.35 334.096 1386.73 343.686C1368.6 361.769 1352.17 382.67 1336.3 402.827C1330.65 410.002 1324.64 416.851 1318.83 423.9" stroke="black" stroke-width="10" stroke-linecap="round"/>
<path d="M1241.35 357.677C1237.47 362.042 1249.73 349.513 1253.51 345.062" stroke="black" stroke-width="10" stroke-linecap="round"/>
<path d="M1320.18 422.098C1319.98 423.983 1313.91 429.806 1312.98 431.108" stroke="black" stroke-width="10" stroke-linecap="round"/>
<path d="M1308.02 431.108C1307.79 433.19 1307.39 428.671 1307.35 428.33C1306.62 422.8 1303.84 417.594 1301.66 412.537C1297.74 403.413 1294.75 393.638 1290.1 384.856C1286.49 378.027 1276.49 376.041 1269.9 373.393C1260.48 369.603 1250.7 365.323 1241.8 360.379" stroke="black" stroke-width="10" stroke-linecap="round"/>
<path d="M1238.64 359.929C1238.64 362.746 1238.37 364.329 1237.59 367.037C1234.01 379.596 1230.21 392.074 1226.53 404.604C1221.57 421.483 1217.85 438.709 1214.07 455.886C1213.49 458.517 1211.53 460.273 1215.04 458.939C1235.48 451.184 1256.18 445.868 1277.09 439.818C1287.04 436.937 1296.66 432.638 1306.9 430.758C1308.37 430.487 1311.92 430.813 1312.98 429.757" stroke="black" stroke-width="10" stroke-linecap="round"/>
<path d="M1225.58 412.638C1224.31 414.27 1259.57 440.874 1265.68 445.074" stroke="black" stroke-width="10" stroke-linecap="round"/>
<path d="M1289.1 379.75C1289.1 380.297 1290.88 378.435 1291.1 378.199C1311.6 356.162 1330.39 332.569 1350.6 310.273C1369.56 289.341 1388.54 268.469 1409.14 249.079C1418.99 239.803 1429.39 231.124 1439.62 222.274C1440.6 221.428 1446.08 218.02 1443.62 218.02" stroke="black" stroke-width="10" stroke-linecap="round"/>
<path d="M1414.34 189.188C1413.94 189.137 1413.61 188.776 1414.19 189.463C1419.44 195.664 1426.21 201.093 1431.96 206.807C1446.72 221.478 1462.68 234.882 1476.96 250.006" stroke="black" stroke-width="10" stroke-linecap="round"/>
<path d="M1229.18 419.846C1226.51 420.18 1224.41 435.515 1224.03 437.465C1223.51 440.129 1228.76 427.748 1227.51 432.86C1226.48 437.032 1224.63 440.918 1223.43 445.024C1223.18 445.875 1225.59 441.932 1225.63 441.92C1225.71 441.896 1219.17 457.054 1224.98 446.726C1225.94 445.022 1228.59 440.088 1229.78 438.216C1230.05 437.797 1230.42 436.683 1230.74 437.065C1231.94 438.508 1229.56 440.635 1229.06 442.446C1228.64 443.961 1229 447.874 1231.49 447.326C1233.4 446.905 1235.98 441.057 1236.67 439.843C1237.54 438.306 1239.95 433.603 1239.34 435.263C1238.53 437.487 1233.8 447.371 1238.67 440.093C1240.01 438.089 1244.78 428.088 1243.35 435.613C1242.41 440.571 1242.9 439.572 1245.95 437.415C1247.71 436.173 1252.93 437.503 1253.01 435.889C1253.08 434.432 1261.46 437.752 1254.96 437.566C1254.46 437.551 1246.89 436.976 1248.4 438.116C1251.51 440.443 1251.99 439.516 1246.95 439.292C1240.89 439.023 1247.32 441.211 1247.45 441.12C1249 440.087 1242.4 440.604 1242.4 438.742C1242.4 437.31 1236.72 435.925 1238.39 434.812C1239.93 433.788 1235.34 432.736 1233.74 431.809C1232.41 431.037 1228.48 428.648 1229.68 429.607C1230.38 430.159 1237.87 435.009 1236.29 431.459C1235.07 428.719 1229.51 424.962 1235.74 427.604C1241.58 430.081 1240.84 429.627 1236.02 426.578C1231.14 423.497 1236.89 427.279 1238.49 427.279C1240.69 427.279 1257.8 432.152 1251.38 435.263C1248.04 436.884 1238.8 440.65 1248.46 440.269C1252.58 440.106 1252.16 440.235 1247.93 441.495C1245.68 442.164 1231.77 443.593 1240.1 443.747C1249.65 443.924 1237.5 444.869 1235.49 446.876" stroke="black" stroke-width="10" stroke-linecap="round"/>
<path d="M1232.79 436.515C1227.63 436.515 1223.07 448.633 1221.57 452.282C1220.44 455.054 1228.8 442.761 1227.26 445.325C1226.07 447.293 1223.43 450.123 1223.33 452.483C1223.29 453.389 1224.69 451.083 1224.78 450.18C1224.91 448.858 1223.44 449.504 1222.98 449.429C1221.18 449.137 1225.93 436.894 1227.83 429.307" stroke="black" stroke-width="10" stroke-linecap="round"/>
<path d="M1283.17 1257.58C1281.11 1257.58 1284.48 1259.44 1285.7 1259.17C1314.08 1252.86 1341.24 1243.48 1367.05 1229.53C1417.91 1202.03 1468.29 1157.97 1471.69 1096.65C1476.03 1018.57 1434.24 938.844 1364.43 902.61C1272.43 854.85 1160.99 885.084 1103.63 971.341C1066.96 1026.47 1044.24 1076.64 1056.22 1143.03C1061.84 1174.19 1084.88 1203.12 1110.74 1221.02C1167.36 1260.22 1225.43 1213.7 1249.13 1162.01C1256.46 1146.03 1256.44 1123.72 1271.02 1111.89C1287.08 1098.85 1316.62 1106.71 1332.36 1116.57C1360.93 1134.46 1374.73 1166.46 1352.74 1196.05C1333.38 1222.1 1301.69 1257.47 1269.71 1266" stroke="black" stroke-width="9" stroke-linecap="round"/>
<path d="M1379.12 1062.33C1355.13 1061 1347.97 1090.87 1370.14 1104.31C1400.77 1122.89 1425.18 1089.63 1409.14 1061.77C1400.79 1047.28 1381.91 1049.87 1369.02 1055.59" stroke="black" stroke-width="9" stroke-linecap="round"/>
<path d="M1353.87 954.604C1332.5 954.604 1317.63 979.328 1336.47 995.562C1351.33 1008.36 1381.26 1009.09 1380.14 983.406C1378.89 954.674 1353.45 948.59 1330.3 949.554" stroke="black" stroke-width="9" stroke-linecap="round"/>
<path d="M1254.55 925.988C1225.41 922.749 1202.95 953.678 1228.37 977.045C1271.63 1016.81 1300.31 919.855 1249.5 927.671" stroke="black" stroke-width="9" stroke-linecap="round"/>
<path d="M1153.56 974.803C1153.16 971.18 1149.4 970.828 1146.46 971.81C1129.88 977.336 1128.9 1009.11 1134.58 1021.93C1143.53 1042.15 1182.14 1035.55 1188.91 1016.6C1193.39 1004.05 1187.42 988.721 1176.01 981.91C1155.21 969.498 1140.48 983.257 1131.68 1000.05" stroke="black" stroke-width="9" stroke-linecap="round"/>
<path d="M1114.85 1077.48C1110.91 1077.23 1107.4 1074.63 1103.16 1074.2C1082.02 1072.09 1054.61 1110.8 1075.58 1126.48C1098.88 1143.91 1138.59 1122.33 1134.86 1093.19C1130.87 1062 1096.12 1074.82 1079.5 1084.21" stroke="black" stroke-width="9" stroke-linecap="round"/>
<path d="M1163.66 1151.54C1128.15 1152.96 1120.72 1207.44 1156.18 1218.3C1190.95 1228.96 1201.77 1186.8 1181.99 1163.69C1172.66 1152.8 1158.31 1151.36 1146.83 1144.8" stroke="black" stroke-width="9" stroke-linecap="round"/>
<path d="M1296.34 1248.04C1297.09 1254.08 1316.07 1250.19 1317.31 1249.86C1355.21 1239.8 1383.46 1218.34 1407.5 1187.92C1441.4 1145.03 1470.62 1095.35 1457 1038.37C1434.94 946.031 1335.59 879.801 1242.29 898.961C1194.47 908.782 1156.84 949.623 1122.04 981.32C1071.29 1027.55 1051.86 1098.1 1073.45 1164.29C1086.03 1202.86 1118.39 1243.43 1162.66 1242.17C1185.93 1241.51 1213.94 1230.1 1232.02 1215.74C1264.25 1190.15 1287.43 1101.1 1344.86 1129.54C1370.07 1142.03 1354.62 1186.87 1344.02 1204.63C1329.42 1229.07 1312.52 1246.02 1283.75 1250.56" stroke="black" stroke-width="7" stroke-linecap="round"/>
<path d="M1391.98 1044.18C1370.2 1043.34 1352.48 1063.06 1368.14 1084.66C1376.14 1095.7 1393.59 1110.28 1407.85 1101.02C1415.16 1096.26 1417.64 1087.17 1417.43 1078.85C1416.87 1057.21 1404.83 1054.51 1391.98 1041.66" stroke="black" stroke-width="7" stroke-linecap="round"/>
<path d="M1358 942.237C1352.26 942.716 1346.62 945.622 1342.34 949.369C1323.18 966.136 1329.28 986.453 1349.19 999.288C1363.97 1008.82 1384.29 1009.59 1392.26 990.758C1395.79 982.415 1394.2 972.082 1390.02 964.33C1383.06 951.416 1375.16 954.597 1364.29 948.53" stroke="black" stroke-width="7" stroke-linecap="round"/>
<path d="M1262.36 917.068C1247.91 904.062 1219.22 935.514 1220.55 949.159C1222.35 967.615 1245.34 977.723 1261.59 976.006C1272.74 974.827 1279.12 969.001 1281.09 957.479C1282.54 949.076 1281.44 935.406 1278.16 927.415C1265.8 897.37 1278.3 934.918 1263.62 914.551" stroke="black" stroke-width="7" stroke-linecap="round"/>
<path d="M1167.98 977.475C1164.58 975.963 1160.9 975.636 1157.63 977.755C1138.4 990.217 1131.69 1013.6 1148.54 1032.01C1172.77 1058.48 1208.56 1030.93 1199.58 999.987C1193.21 978.049 1177.61 976.8 1159.17 981.25" stroke="black" stroke-width="7" stroke-linecap="round"/>
<path d="M1130.22 1071.86C1098.98 1063.24 1069.85 1107.43 1103.3 1126.74C1119.55 1136.12 1162.3 1130.4 1157 1104.09C1152.97 1084.13 1136.22 1073.1 1117.64 1075.64" stroke="black" stroke-width="7" stroke-linecap="round"/>
<path d="M1165.45 1153.66C1133.27 1153.66 1137.51 1201.45 1163.85 1211.13C1178.73 1216.6 1200.91 1209.86 1205.66 1193.23C1212.98 1167.61 1182.13 1161.04 1164.2 1159.95" stroke="black" stroke-width="7" stroke-linecap="round"/>
<path d="M691.361 508.474C655.944 508.474 621.902 511.151 586.753 517.753C546.196 525.371 505.305 537.174 468.251 553.537C438.63 566.617 413.726 586.407 388.495 604.892C369.165 619.054 352.513 633.875 335.487 649.582C333.388 651.518 334.148 652.12 331.692 651.075C314.716 643.852 295.891 644.633 277.46 645.956C262.328 647.041 249.752 655.346 240.183 665.047C226.314 679.108 210.584 694.28 199.724 710.217C184.862 732.025 185.687 761.812 179.585 786.264C179.46 786.767 177.933 791.905 178.423 791.97C183.717 792.68 195.741 786.314 200.703 784.931C211.485 781.925 222.419 778.282 233.634 776.718C246.513 774.923 280.047 762.22 290.314 766.692" stroke="black" stroke-width="12" stroke-linecap="round"/>
<path d="M285.906 770.533C272.715 771.81 275.272 809.988 274.949 817.569C274.712 823.159 272.811 827 278.683 829.302C295.8 836.013 316.132 841.481 328.569 854.313C331.95 857.801 336.631 861.81 338.791 866.045C340.904 870.186 354.577 862.701 357.399 861.779C365.719 859.061 373.468 855.231 381.638 852.18C388.175 849.739 384.211 850.55 380.965 855.06C360.578 883.382 374.502 921.465 375.15 952.492C375.232 956.424 373.086 966.165 376.007 969.557C377.057 970.776 401.972 958.952 402.572 958.678C444.76 939.424 483.519 910.833 493.162 868.019C497.047 850.772 491.171 835.401 488.878 818.529C488.448 815.364 489.694 809.925 485.328 813.73" stroke="black" stroke-width="12" stroke-linecap="round"/>
<path d="M249.649 845.689C243.342 846.376 233.385 846.765 226.488 848.198C183.366 857.155 190.393 920.986 188.147 950.121C187.373 960.159 183.075 963.007 193.119 960.382C209.536 956.091 226.924 953.175 243.761 950.349C270.185 945.914 292.047 927.329 292.047 903.15" stroke="black" stroke-width="12" stroke-linecap="round"/>
<path d="M694.278 509.351C692.613 509.532 691.128 512.244 691.128 513.504C691.128 553.704 681.543 592.292 664.053 629.395C652.526 653.846 635.396 675.595 616.681 696.238C591.064 724.495 559.627 747.464 533.223 774.896C522.054 786.5 509.022 795.932 497.093 806.831C496.192 807.655 488.666 815.978 488.783 815.978" stroke="black" stroke-width="12" stroke-linecap="round"/>
<path d="M527.371 585.535C524.103 582.973 519.326 580.3 514.777 580.3C505.429 580.3 493.77 593.722 489.587 598.824C474.208 617.583 474.456 636.119 493.863 652.582C524.42 678.504 572.04 682.26 591.384 644.125C601.393 624.394 597.189 602.052 578.443 587.347C568.316 579.403 551.702 572.037 537.771 571.441C498.944 569.782 534.287 577.968 498.254 583.723" stroke="black" stroke-width="12" stroke-linecap="round"/>
<path d="M711.001 480.499C708.095 480.038 706.698 478.824 703.436 479.021C646.866 482.437 588.655 501.708 537.417 521.29C489.641 539.548 443.398 560.7 405.045 591.926C387.479 606.229 371.067 621.526 354.792 636.922C352.311 639.268 348.169 641.659 346.358 644.421C345.949 645.044 326.903 643.612 326.361 643.625C295.266 644.378 260.068 648.052 233.201 662.752C206.054 677.605 184.498 701.611 173.47 727.708C166.997 743.025 165.108 758.812 162.646 774.786C161.239 783.909 155.313 784.723 167.167 784.179C206.238 782.387 250.907 780.268 286.888 765.317C288.598 764.607 296.173 760.552 298.278 761.53C298.971 761.852 297.567 763.78 297.496 763.954C295.312 769.226 294.236 774.825 293.67 780.392C292.825 788.713 294.068 797.29 291.279 805.389C289.75 809.83 296.928 813.758 300.017 816.448C311.225 826.213 322.426 836.146 333.838 845.536C346.071 855.602 361.443 848.931 376.223 846.029C385.851 844.138 384.983 847.23 384.222 855.043C382.789 869.752 381.273 884.179 381.657 898.978C382.119 916.797 383.467 934.6 382.179 952.419C382.027 954.515 379.544 959.646 381.701 958.706C383.294 958.012 385.712 957.948 387.395 957.646C395.603 956.174 402.878 953.345 410.262 949.881C429.82 940.706 448.864 930.231 465.036 916.892C479.062 905.324 494.465 894.3 504.074 879.472C520.305 854.427 521.083 830.081 517.724 802.283" stroke="black" stroke-width="8" stroke-linecap="round"/>
<path d="M708.658 489.362C709.155 505.82 708.194 521.858 705.18 538.183C698.226 575.846 687.383 615.282 669.272 650.103C646.055 694.742 608.079 733.223 569.634 768.538C555.303 781.703 540.751 792.467 522.424 800.921" stroke="black" stroke-width="8" stroke-linecap="round"/>
<path d="M532.595 581.396C521.453 581.396 511.966 587.338 503.687 593.478C487.132 605.757 473.497 623.337 479.168 643.208C485.626 665.832 512.516 688.23 540.159 688.772C583.476 689.62 616.293 646.647 600.846 612.681C586.243 580.569 550.584 578.296 516.163 580.715" stroke="black" stroke-width="8" stroke-linecap="round"/>
<path d="M217.25 852.188C216.841 849.332 185.386 860.324 182.647 861.316C168.12 866.573 167.09 881.001 163.432 893.093C157.08 914.087 157.773 935.702 152.738 956.836C152.502 957.826 150.316 969.097 151.216 969.41C152.845 969.978 156.308 969.401 157.868 969.297C176.089 968.083 194.087 963.084 211.686 959.146C229.776 955.099 252.221 951.554 266.852 940.285C276.923 932.528 278.444 916.794 275.155 906.046" stroke="black" stroke-width="8" stroke-linecap="round"/>
</g>
<defs>
<clipPath id="clip0_95_1851">
<rect width="6122" height="1348" fill="white"/>
</clipPath>
</defs>
</svg>
