<svg width="2297" height="1706" viewBox="0 0 2297 1706" fill="none" xmlns="http://www.w3.org/2000/svg">
<rect width="2297" height="1706" fill="white"/>
<path d="M1031.3 665.547C1030.89 671.298 1024.11 670.942 1019.55 670.415C997.588 667.874 977.32 658.87 954.841 657.277C933.198 655.742 910.918 654.664 894.366 671.518C883.006 683.087 884.689 706.856 885.508 721.646C888.938 783.584 886.838 845.622 879.086 907.188C875.473 935.877 866.273 963.113 862.086 991.737C859.741 1007.76 854.648 1026.73 864.189 1041.37C884.794 1073.01 934.29 1071.35 966.308 1070.78C1003.62 1070.13 1041.89 1069.59 1078.02 1079.97C1089.59 1083.3 1099.62 1088.86 1110.35 1094.14C1114.57 1096.22 1121.64 1116.26 1118.04 1110.68" stroke="black" stroke-width="5" stroke-linecap="round"/>
<path d="M1117.94 1112.1C1123.21 1111.89 1128.16 1102.97 1131.94 1100.11C1155.69 1082.12 1185.49 1092.49 1212.15 1094.55C1247.43 1097.28 1285.05 1095.74 1320.24 1092.15C1336.55 1090.49 1375.95 1095.91 1386.74 1080C1396.72 1065.3 1393.05 1046.56 1391.06 1030.27C1389.21 1015.12 1391.24 999.835 1390.97 984.65C1390.22 942.868 1397.04 900.471 1403.49 859.323C1409.78 819.247 1414.51 778.215 1418.13 737.787C1419.21 725.647 1419.51 710.793 1407.72 703.634C1393.23 694.833 1367.19 698.597 1350.97 699.928C1332.77 701.422 1310.33 701.201 1292.85 695.492" stroke="black" stroke-width="5" stroke-linecap="round"/>
<path d="M1420.61 743.029C1420.86 746.552 1477.04 729.112 1466.86 765.153C1461.5 784.165 1453.53 803.105 1450.9 822.775C1446.6 855.002 1445.98 887.741 1443.68 920.132C1441.23 954.731 1438.38 989.413 1438.53 1024.13C1438.64 1049.22 1439.03 1076.31 1434.81 1101.15C1428.01 1141.15 1395.46 1138.52 1364.64 1130.38C1331.63 1121.66 1291.14 1118.06 1257.01 1118.39C1249.69 1118.46 1192.66 1113.09 1191.08 1125.83C1189.73 1136.74 1175.32 1152.21 1168.06 1160.15C1158.32 1170.82 1140.67 1177.27 1126.42 1174.54C1107.65 1170.94 1089.5 1155.69 1079.21 1140.15C1076.7 1136.36 1066.55 1116.54 1066.29 1116.99" stroke="black" stroke-width="5" stroke-linecap="round"/>
<path d="M886.167 702.292C823.916 697.879 844.099 781.314 838.651 819.676C831.235 871.895 823.789 925.644 821.072 978.297C819.988 999.321 820.46 1020.27 821.517 1041.28C822.169 1054.25 818.727 1079.1 827.323 1090.07C838.329 1104.12 868.157 1098.52 883.646 1099.76C916.899 1102.43 948.984 1113.14 982.061 1116.64C1008.99 1119.48 1090.26 1121.54 1063.25 1119.62" stroke="black" stroke-width="5" stroke-linecap="round"/>
<path d="M1216.55 826.907C1203.04 830.198 1216.87 802.867 1219.1 797.632C1226.11 781.136 1244.67 769.699 1256.88 757.235C1269.82 744.028 1281.94 729.789 1287.89 711.924C1302.02 669.455 1294.02 613.035 1266.38 577.375C1234.07 535.675 1174.89 523.724 1125.08 533.31C1082.09 541.583 1042.29 575.566 1031.46 618.525C1026.11 639.768 1024.54 660.565 1027.49 682.38C1030.56 704.991 1043.78 721.628 1055.95 739.983C1065.91 755 1080.78 767.997 1084.04 786.157C1086.13 797.805 1086.61 810.112 1085.78 821.912" stroke="black" stroke-width="5" stroke-linecap="round"/>
<path d="M1082.34 830.22C1082.08 831.396 1081 830.375 1083.18 829.567C1091.59 826.438 1099.36 825.629 1108.47 825.738C1140.43 826.122 1172.8 827.975 1204.49 831.674C1223.62 833.907 1235.54 848.182 1218.19 864.08C1189.32 890.528 1139.85 874.807 1106.17 868.254C1096.71 866.414 1081.34 863.518 1076.71 853.735C1066.58 832.306 1086.05 826.997 1099.04 815.727" stroke="black" stroke-width="5" stroke-linecap="round"/>
<path d="M1096.84 866.879C1100.84 891.609 1125.12 920.842 1153.02 916.628C1175.32 913.26 1188.26 891.471 1192.06 870.778" stroke="black" stroke-width="5" stroke-linecap="round"/>
<path d="M1136.67 908.186C1130.01 977.977 1130.37 1046.96 1117.64 1116.35" stroke="black" stroke-width="5" stroke-linecap="round"/>
<path d="M1316.79 759.898C1317.02 764.205 1362.9 764.592 1364.91 764.734" stroke="black" stroke-width="5" stroke-linecap="round"/>
<path d="M1272.56 820.901C1240 823.983 1337.63 828.078 1370.31 829.256" stroke="black" stroke-width="5" stroke-linecap="round"/>
<path d="M1260.74 887.051C1227.18 884.672 1327.91 891.269 1361.43 894.189" stroke="black" stroke-width="5" stroke-linecap="round"/>
<path d="M1200.91 946.948C1252.88 950.632 1306.41 951.005 1358.73 952.434" stroke="black" stroke-width="5" stroke-linecap="round"/>
<path d="M1186.26 1012.9C1187.97 1011.58 1189.19 1011.7 1191.4 1011.84C1227.55 1014.15 1263.68 1016.96 1299.81 1019.52" stroke="black" stroke-width="5" stroke-linecap="round"/>
<path d="M924.105 991.463C923.557 981.242 1051.12 998.884 1057.51 999.494" stroke="black" stroke-width="5" stroke-linecap="round"/>
<path d="M933.386 920.856C877.603 916.902 1044.83 930.44 1100.63 934.137" stroke="black" stroke-width="5" stroke-linecap="round"/>
<path d="M926.665 854.816C964.327 858.841 1002.07 863.336 1039.81 867.113" stroke="black" stroke-width="5" stroke-linecap="round"/>
<path d="M930.787 796.672C961.006 798.814 991.226 802.097 1021.45 804.524" stroke="black" stroke-width="5" stroke-linecap="round"/>
<path d="M937.845 737.312C959.33 741.288 981.308 741.026 1003.08 741.937" stroke="black" stroke-width="5" stroke-linecap="round"/>
<path d="M1196.95 741.425C1199.44 741.292 1196.32 740.879 1194.54 742.997C1176.93 764.075 1179.38 801.119 1176.64 826.927" stroke="black" stroke-width="5" stroke-linecap="round"/>
<path d="M1113.38 734.079C1112.18 733.993 1113.65 737.386 1113.91 738.868C1115.25 746.488 1117.52 753.868 1119.2 761.413C1121.79 772.99 1124.96 787.65 1125.21 799.53C1126.32 850.555 1123.08 786.791 1119.41 829.999" stroke="black" stroke-width="5" stroke-linecap="round"/>
<path d="M1114.1 744.105C1115.05 761.875 1179.16 752.908 1187.64 752.169" stroke="black" stroke-width="5" stroke-linecap="round"/>
<path d="M1029.99 675.794C1016.47 674.836 1002.71 673.118 989.193 671.678C969.145 669.543 950.548 669.61 930.468 670.138C922.118 670.357 911.884 670.44 908.597 679.603C905.809 687.376 906.466 696.015 905.243 704.105C903.572 715.167 902.391 726.256 900.53 737.296C895.292 768.365 891.265 799.986 887.574 831.273C885.27 850.804 884.964 870.48 883.362 890.071C881.836 908.742 878.949 927.277 878.652 946.036C878.336 965.966 876.97 986.137 877.196 1006.03C877.349 1019.45 881.031 1029.65 889.47 1040.08C910.479 1066.05 945.28 1063.97 975.613 1066.12C1007.93 1068.41 1040.78 1069.51 1072.78 1074.75C1087.62 1077.19 1103.38 1079.61 1115.1 1089.38C1122.52 1095.57 1130.08 1106.28 1129.36 1116.36" stroke="black" stroke-width="15" stroke-linecap="round"/>
<path d="M1130.82 1118.03C1134.12 1117.86 1140.5 1104.41 1141.77 1102.9C1158.72 1082.75 1189.15 1084.45 1212.92 1084.52C1238.07 1084.59 1263.81 1086.57 1288.81 1089.28C1308.41 1091.41 1328.6 1096.93 1348.32 1097.09C1379.59 1097.33 1392.63 1067.05 1400.4 1041.94C1406.41 1022.49 1404.67 1000.84 1407.1 980.699C1409.79 958.354 1412.29 935.418 1412.43 912.889C1412.58 888.409 1416.31 864.342 1418.04 839.941C1419.54 818.705 1420.7 797.389 1421.73 776.124C1422.58 758.702 1426.5 727.949 1413.08 713.223C1407.21 706.785 1394.52 705.288 1386.53 704.216C1371.65 702.223 1356.92 699.168 1342.05 697.13C1330.4 695.533 1319.06 693.475 1307.27 693.877C1303.77 693.997 1293.39 695.254 1296.88 695.501" stroke="black" stroke-width="15" stroke-linecap="round"/>
<path d="M1421.92 751.886C1423.51 751.822 1424.83 750.157 1426.36 749.665C1437.06 746.242 1449.33 746.803 1456.5 756.086C1463.82 765.552 1466.97 777.203 1466.49 789.052C1465.92 803.284 1466.78 817.54 1465.83 831.753C1463.58 865.237 1459.57 898.525 1457.49 932.046C1455.65 961.689 1456.4 991.21 1453.56 1020.89C1451.2 1045.51 1450.67 1070.64 1447.51 1095.12C1446.59 1102.24 1446.02 1116.57 1439.62 1121.36C1428.51 1129.65 1420.86 1140.29 1405.89 1142.04C1380.7 1144.99 1355.6 1135.91 1330.29 1136.82C1294.24 1138.11 1258.03 1134.97 1221.91 1134.64C1211.63 1134.55 1201.44 1132.9 1191.23 1132.82C1181.25 1132.73 1186.84 1140.69 1181.71 1147.48C1170.08 1162.88 1150.83 1168.92 1132.88 1172.78C1112.6 1177.15 1095.74 1171 1080.22 1157.25C1076.76 1154.18 1066.4 1141.76 1069.33 1136.37C1070.55 1134.13 1068.61 1126 1066.61 1124.81" stroke="black" stroke-width="15" stroke-linecap="round"/>
<path d="M903.977 709.337C894.906 708.694 885.069 706.744 876.176 708.474C849.62 713.643 841.207 744.492 840.04 768.172C837.533 818.999 843.808 869.816 841.523 920.712C839.996 954.728 836.363 988.531 835.13 1022.62C834.457 1041.22 830.46 1063.62 835.701 1081.76C843.958 1110.34 867.794 1110.36 893.849 1113.19C910.776 1115.03 927.699 1111.84 944.434 1114.56C959.159 1116.96 974.144 1118.44 988.583 1122.35C1006.88 1127.29 1029.37 1132.72 1048.46 1129.36C1051.22 1128.87 1070.11 1126.47 1067.6 1129.72" stroke="black" stroke-width="15" stroke-linecap="round"/>
<path d="M1216.56 838.201C1217.72 832.355 1218.45 824.443 1220.12 817.956C1224.04 802.718 1235.82 792.901 1245.92 781.515C1258.53 767.317 1270.06 750.196 1278.3 733.075C1299.66 688.748 1296.84 640.776 1262.64 603.72C1232.41 570.972 1183.97 557.553 1140.23 560.419C1102.13 562.917 1060.1 583.982 1047.36 622.714C1034.65 661.359 1034.14 701.161 1053.71 737.744C1068.69 765.769 1099.84 796.264 1094.14 830.353" stroke="black" stroke-width="15" stroke-linecap="round"/>
<path d="M1099.27 828.223C1106.06 826.649 1113.94 828.022 1120.78 828.271C1134.15 828.758 1147.56 829.246 1160.9 830.192C1175.26 831.21 1198.86 829.658 1210.15 840.746C1223.31 853.672 1212.6 874.307 1195.08 876.102C1175.4 878.118 1155.2 875.806 1135.44 875.474C1120.71 875.227 1090.02 877.395 1079.63 864.409C1073.15 856.316 1073 843.103 1081.07 836.258C1088.35 830.076 1100.31 830.058 1109.19 828.927" stroke="black" stroke-width="15" stroke-linecap="round"/>
<path d="M1103.55 873.398C1103.55 882.422 1105.05 894.522 1112.33 900.611C1124.58 910.873 1142.11 914.168 1157.63 912.779C1169.86 911.683 1181.96 909.155 1191.02 900.189C1196.75 894.513 1203.85 880.833 1203.29 872.99" stroke="black" stroke-width="15" stroke-linecap="round"/>
<path d="M1143.79 915.309C1137.37 914.854 1143.24 1082.55 1128.3 1110.32" stroke="black" stroke-width="15" stroke-linecap="round"/>
<path d="M1112.7 733.199C1108.86 732.494 1115.41 739.89 1116.27 741.813C1127.57 766.856 1128.11 800.112 1127.07 827.179" stroke="black" stroke-width="15" stroke-linecap="round"/>
<path d="M1206.46 737.633C1182.97 758.009 1180.37 801.774 1179.93 830.927" stroke="black" stroke-width="15" stroke-linecap="round"/>
<path d="M1121.83 744.915C1097.94 746.196 1169.34 751.352 1193.25 752.191" stroke="black" stroke-width="15" stroke-linecap="round"/>
<path d="M1938.75 591.301C1932.95 589.848 1921.97 597.631 1917.97 599.857C1897.24 611.393 1882.29 626.55 1869.04 646.044C1851.18 672.305 1854.8 699.023 1862.42 728.248C1874.21 773.448 1920.56 801.482 1966.94 795.159C2018.05 788.19 2049.97 749.267 2054.23 697.813C2059.32 636.36 1989.93 589.278 1934.65 594.336" stroke="black" stroke-width="10" stroke-linecap="round"/>
<path d="M2080.74 526.66C2075.37 532.915 2072.77 543.09 2069.79 550.359C2058.23 578.606 2046.52 606.763 2034.35 634.715" stroke="black" stroke-width="10" stroke-linecap="round"/>
<path d="M2035 436.559C2054.61 461.255 2068.01 492.491 2083.13 520.006" stroke="black" stroke-width="10" stroke-linecap="round"/>
<path d="M1802.5 355.912C1879.42 388.012 1959.11 413.835 2037.08 443.317" stroke="black" stroke-width="10" stroke-linecap="round"/>
<path d="M1793.35 364.645C1766.61 408.456 1750.5 458.143 1733.17 506.148C1704.56 585.397 1676.49 664.476 1645.29 742.729" stroke="black" stroke-width="10" stroke-linecap="round"/>
<path d="M1638.32 753.746C1704.54 782.067 1771.29 809.412 1837.81 837.042C1874.65 852.343 1911.2 865.193 1950.46 872.06" stroke="black" stroke-width="10" stroke-linecap="round"/>
<path d="M1965.29 793.23C1960.22 795.619 1957.65 810.959 1956.8 814.054C1952.38 830.052 1948.06 846.147 1943.54 862.054" stroke="black" stroke-width="10" stroke-linecap="round"/>
<path d="M2016.6 780.13C2027.76 803.844 2096.57 886.348 2033.9 896.574C2016.43 899.425 2003.75 886.625 1998.44 871.207C1989.54 845.356 1986.59 820.418 1973.28 796.105" stroke="black" stroke-width="10" stroke-linecap="round"/>
<path d="M1954.83 630.154C1959.84 631.458 1964.41 631.686 1969.41 633.729C1978.1 637.277 1985.21 640.996 1993.07 646.416C2006.31 655.558 2007.91 663.712 2016.84 675.011" stroke="black" stroke-width="10" stroke-linecap="round"/>
<path d="M2025.96 440.818C2027.53 436.431 2022.8 449.591 2021.22 453.977C2015.67 469.4 2004.1 488.872 2002.81 505.136C2002.46 509.547 2077.32 525.998 2082.82 533.419" stroke="black" stroke-width="10" stroke-linecap="round"/>
<path d="M1800.18 454.272C1852.96 473.264 1906.72 489.75 1959.01 509.916" stroke="black" stroke-width="10" stroke-linecap="round"/>
<path d="M1787.95 517.506C1796.88 523.256 1806.62 526.521 1816.63 530.162C1846.71 541.112 1876.75 552.124 1906.75 563.257" stroke="black" stroke-width="10" stroke-linecap="round"/>
<path d="M1757.57 572.706C1787.35 583.258 1817.29 593.281 1847.2 603.453" stroke="black" stroke-width="10" stroke-linecap="round"/>
<path d="M1742.68 634.982C1735.13 636.56 1746.39 639.537 1748.41 640.386C1767.1 648.233 1785.6 656.45 1804.16 664.617" stroke="black" stroke-width="10" stroke-linecap="round"/>
<path d="M1719.8 694.385C1747.72 705.889 1775.59 717.536 1803.53 729.019" stroke="black" stroke-width="10" stroke-linecap="round"/>
<path d="M1943.07 580.985L1941.74 580.506" stroke="black" stroke-width="16" stroke-linecap="round"/>
<path d="M1943.55 579.656C1920.67 580.46 1896.12 601.309 1880.61 616.044C1852.12 643.111 1834.89 677.114 1845.41 716.436C1857.29 760.849 1894.27 776.986 1937.12 781.578C1968.68 784.96 2016.35 771.799 2032.86 742.212C2057.53 697.982 2038.94 654.346 2011.06 615.298C1992.93 589.92 1971.4 581.208 1941.74 580.508" stroke="black" stroke-width="16" stroke-linecap="round"/>
<path d="M1971.8 785.204C1966.57 779.463 1967.16 783.31 1969.11 789.912C1974.41 807.914 1983.02 825.323 1990.03 842.695C1995.12 855.333 1999.99 867.781 2009.91 877.486C2020.75 888.1 2055.57 898.283 2059.77 875.806C2062.63 860.533 2048.42 842.255 2040.4 831.012C2028.98 814.982 2018.78 801.126 2009.86 783.866" stroke="black" stroke-width="16" stroke-linecap="round"/>
<path d="M1960.63 803.729C1955.57 817.778 1953.82 832.273 1951.11 846.896" stroke="black" stroke-width="16" stroke-linecap="round"/>
<path d="M2024.3 626.742C2012.97 658.248 2051.61 565.371 2060.96 533.219" stroke="black" stroke-width="16" stroke-linecap="round"/>
<path d="M2069.2 506.129C2064.65 518.799 2062.5 531.67 2059.79 544.825" stroke="black" stroke-width="16" stroke-linecap="round"/>
<path d="M2016.33 414.963C2020.55 426.948 2029.46 438.38 2036.01 448.929C2048.21 468.574 2059.87 488.411 2071.39 508.416" stroke="black" stroke-width="16" stroke-linecap="round"/>
<path d="M1792.83 351.082C1790.39 349.845 1797.34 354.2 1799.79 355.422C1865.65 388.321 1941.66 405.523 2011.55 428.271" stroke="black" stroke-width="16" stroke-linecap="round"/>
<path d="M1787.78 356.777C1721.96 480.979 1706.69 627.145 1647.76 754.287" stroke="black" stroke-width="16" stroke-linecap="round"/>
<path d="M1642.07 749.231C1647.61 754.292 1655.24 756.534 1662.04 759.172C1710.22 777.864 1759.25 794.43 1807.73 812.343C1850.64 828.198 1895.64 851.366 1941.96 855.625" stroke="black" stroke-width="16" stroke-linecap="round"/>
<path d="M1946.12 622.659C1972.88 624.933 2005.76 648.645 2011.54 674.754" stroke="black" stroke-width="16" stroke-linecap="round"/>
<path d="M2017.24 433.325C2011.23 443.529 1991.44 490.712 2003.82 496.63C2028.2 508.289 2061.71 516.681 2088.58 519.111" stroke="black" stroke-width="16" stroke-linecap="round"/>
<path d="M240.851 1443.98C302.568 1432.65 363.711 1418.41 425.845 1409.32C499.105 1398.6 572.177 1391.11 644.947 1377.76" stroke="black" stroke-width="14" stroke-linecap="round"/>
<path d="M242.108 1442.16C223.555 1465.93 241.167 1511.85 248.555 1537.89" stroke="black" stroke-width="14" stroke-linecap="round"/>
<path d="M251.07 1534.26C261.825 1538.52 278.208 1533.12 288.545 1531.18C329.265 1523.5 369.826 1515.4 410.781 1509.01C494.001 1496.01 577.193 1483.94 660.058 1468.73" stroke="black" stroke-width="14" stroke-linecap="round"/>
<path d="M656.401 1370.9C636.94 1377.04 658.25 1451.35 660.466 1462.3" stroke="black" stroke-width="14" stroke-linecap="round"/>
<path d="M632.623 1357.25C632.552 1356.01 633.057 1357.97 633.323 1358.33C636.86 1363.19 639.286 1368.7 643.178 1373.36" stroke="black" stroke-width="14" stroke-linecap="round"/>
<path d="M248.381 1425.39C246.292 1432.02 241.495 1438.39 238.636 1444.75" stroke="black" stroke-width="14" stroke-linecap="round"/>
<path d="M665.453 1345.27L663.453 1345.64" stroke="black" stroke-width="14" stroke-linecap="round"/>
<path d="M170.675 1438.83C243.894 1421.15 317.535 1407.87 391.795 1394.92C443.114 1385.97 494.136 1376.02 545.728 1368.7C569.227 1365.37 592.764 1362.23 616.214 1358.56C635.028 1355.62 652.782 1350.94 671.275 1346.96" stroke="black" stroke-width="14" stroke-linecap="round"/>
<path d="M654.178 1277.06C653.011 1277.14 650.205 1275.28 650.712 1276.74C652.308 1281.34 655.602 1285.64 657.5 1290.15C665.674 1309.6 668.168 1325.49 664.778 1346.08" stroke="black" stroke-width="14" stroke-linecap="round"/>
<path d="M162.473 1361.1C165.448 1360.55 168.378 1359.71 171.316 1359.02C218.493 1347.9 266.252 1339.96 314.017 1331.87C421.883 1313.6 529.482 1293.77 637.322 1275.33" stroke="black" stroke-width="14" stroke-linecap="round"/>
<path d="M635.743 1274.25C642.906 1273.74 649.064 1276.69 654.786 1280.4" stroke="black" stroke-width="14" stroke-linecap="round"/>
<path d="M184.587 1316.4C174.845 1330.52 167.321 1345.69 159.686 1360.93" stroke="black" stroke-width="14" stroke-linecap="round"/>
<path d="M628.253 1252.19C635.273 1260.82 642.465 1269.31 649.512 1277.92" stroke="black" stroke-width="14" stroke-linecap="round"/>
<path d="M610.443 1185.18C612.15 1194.48 615.366 1203.5 617.85 1212.61C622.12 1228.26 631.724 1250.98 622.579 1266.33" stroke="black" stroke-width="14" stroke-linecap="round"/>
<path d="M188.81 1343.17C190.181 1342.92 191.515 1342.59 192.915 1342.8C214.387 1346.16 239.922 1338.67 260.676 1334.08C338.851 1316.79 417.093 1299.52 496.258 1287.21C533.755 1281.38 571.954 1278.37 609.252 1271.53C612.91 1270.85 627.128 1267.62 626.942 1267.59" stroke="black" stroke-width="14" stroke-linecap="round"/>
<path d="M179.096 1260.2C263.297 1248.46 346.952 1230.81 430.717 1216.24C482.997 1207.15 535.595 1199.82 587.771 1190.14C594.969 1188.8 604.419 1187.77 610.862 1183.72" stroke="black" stroke-width="14" stroke-linecap="round"/>
<path d="M177.397 1258.45C174.267 1256.82 177.973 1265.55 179.047 1268.91C186.627 1292.61 196.67 1316.13 195.355 1341.29" stroke="black" stroke-width="14" stroke-linecap="round"/>
<path d="M159.997 1366.38C159.899 1364.66 161.689 1367.23 161.885 1367.48C165.964 1372.7 167.018 1379.97 168.455 1386.18C172.095 1401.91 174.577 1417.64 177.141 1433.51" stroke="black" stroke-width="14" stroke-linecap="round"/>
<path d="M191.767 1224.12C184.584 1235.12 178.362 1246.7 171.82 1258.1" stroke="black" stroke-width="14" stroke-linecap="round"/>
<path d="M521.63 1144.28C520.722 1145.35 537.088 1142.69 537.994 1142.51C541.622 1141.76 556.08 1139.92 557.625 1137.68" stroke="black" stroke-width="14" stroke-linecap="round"/>
<path d="M555.136 1135.38C555.469 1134.9 556.127 1136.03 556.522 1136.47C560.323 1140.65 564.489 1144.37 568.728 1148.12C581.731 1159.65 594.935 1172.15 609.161 1181.97" stroke="black" stroke-width="14" stroke-linecap="round"/>
<path d="M165.504 1178.63C163.358 1179.28 163.854 1183.86 163.922 1185.24C164.683 1200.79 167.687 1216.75 178.678 1227.89" stroke="black" stroke-width="14" stroke-linecap="round"/>
<path d="M174.979 1226.51C181.556 1229.3 192.085 1225.72 198.124 1224.56C231.162 1218.24 264.096 1211.2 296.881 1203.68C341.437 1193.46 385.44 1183.82 430.671 1177.21C453.779 1173.84 476.931 1170.8 500.143 1168.21C506.309 1167.53 515.456 1167.99 520.633 1165.14" stroke="black" stroke-width="14" stroke-linecap="round"/>
<path d="M161.685 1176.59C185.029 1172.3 208.254 1167.44 231.557 1162.88C322.689 1145.06 414.707 1132.27 506.251 1116.79" stroke="black" stroke-width="14" stroke-linecap="round"/>
<path d="M506.489 1118.12C504.387 1117.63 504.716 1120.13 504.327 1121.77C500.961 1136.01 509.204 1149.85 514.563 1162.12" stroke="black" stroke-width="14" stroke-linecap="round"/>
<path d="M461.748 1073.29C462.328 1076.45 463.503 1078.59 465.903 1080.91C478.791 1093.34 494.193 1103.3 505.041 1117.71" stroke="black" stroke-width="14" stroke-linecap="round"/>
<path d="M178.642 1130.06C206.413 1121.71 235.853 1116.43 264.349 1110.66C331.984 1096.97 400.23 1085.68 468.848 1078.18" stroke="black" stroke-width="14" stroke-linecap="round"/>
<path d="M180.084 1122.91C181.94 1124.67 180.489 1128.3 180.042 1130.19C176.197 1146.42 171.48 1162.39 166.84 1178.39" stroke="black" stroke-width="14" stroke-linecap="round"/>
<path d="M232.964 1451.07C294.68 1439.75 355.823 1425.51 417.958 1416.42C491.218 1405.7 564.289 1398.21 637.059 1384.86" stroke="black" stroke-width="6" stroke-linecap="round"/>
<path d="M234.217 1449.25C215.664 1473.03 233.277 1518.94 240.665 1544.98" stroke="black" stroke-width="6" stroke-linecap="round"/>
<path d="M243.181 1541.36C253.937 1545.62 270.32 1540.22 280.657 1538.27C321.377 1530.6 361.938 1522.5 402.893 1516.1C486.112 1503.11 569.304 1491.04 652.17 1475.83" stroke="black" stroke-width="6" stroke-linecap="round"/>
<path d="M648.514 1378C629.053 1384.14 650.362 1458.45 652.578 1469.4" stroke="black" stroke-width="6" stroke-linecap="round"/>
<path d="M624.734 1364.34C624.664 1363.11 625.168 1365.06 625.435 1365.43C628.972 1370.29 631.397 1375.79 635.29 1380.45" stroke="black" stroke-width="6" stroke-linecap="round"/>
<path d="M240.49 1432.49C238.401 1439.11 233.604 1445.48 230.745 1451.85" stroke="black" stroke-width="6" stroke-linecap="round"/>
<path d="M657.564 1352.37L655.564 1352.73" stroke="black" stroke-width="6" stroke-linecap="round"/>
<path d="M162.788 1445.93C236.007 1428.25 309.648 1414.97 383.908 1402.02C435.227 1393.07 486.249 1383.12 537.841 1375.8C561.34 1372.47 584.877 1369.33 608.327 1365.66C627.141 1362.72 644.895 1358.04 663.388 1354.06" stroke="black" stroke-width="6" stroke-linecap="round"/>
<path d="M646.286 1284.15C645.119 1284.23 642.314 1282.37 642.82 1283.83C644.416 1288.43 647.71 1292.73 649.608 1297.24C657.782 1316.69 660.277 1332.58 656.887 1353.17" stroke="black" stroke-width="6" stroke-linecap="round"/>
<path d="M154.583 1368.19C157.559 1367.65 160.488 1366.8 163.427 1366.11C210.603 1354.99 258.363 1347.05 306.127 1338.96C413.993 1320.69 521.592 1300.86 629.432 1282.42" stroke="black" stroke-width="6" stroke-linecap="round"/>
<path d="M627.852 1281.34C635.015 1280.83 641.173 1283.78 646.896 1287.49" stroke="black" stroke-width="6" stroke-linecap="round"/>
<path d="M176.696 1323.49C166.955 1337.61 159.431 1352.78 151.796 1368.02" stroke="black" stroke-width="6" stroke-linecap="round"/>
<path d="M620.362 1259.29C627.381 1267.91 634.574 1276.41 641.62 1285.01" stroke="black" stroke-width="6" stroke-linecap="round"/>
<path d="M602.552 1192.27C604.259 1201.57 607.475 1210.6 609.959 1219.7C614.229 1235.35 623.833 1258.07 614.688 1273.42" stroke="black" stroke-width="6" stroke-linecap="round"/>
<path d="M180.924 1350.28C182.295 1350.03 183.629 1349.69 185.029 1349.91C206.501 1353.27 232.036 1345.77 252.79 1341.18C330.965 1323.9 409.207 1306.62 488.372 1294.31C525.869 1288.48 564.068 1285.47 601.366 1278.63C605.024 1277.96 619.242 1274.72 619.056 1274.69" stroke="black" stroke-width="6" stroke-linecap="round"/>
<path d="M171.208 1267.29C255.408 1255.56 339.063 1237.9 422.828 1223.34C475.108 1214.24 527.706 1206.91 579.882 1197.23C587.08 1195.9 596.53 1194.87 602.973 1190.81" stroke="black" stroke-width="6" stroke-linecap="round"/>
<path d="M169.508 1265.55C166.378 1263.92 170.084 1272.64 171.158 1276C178.738 1299.7 188.781 1323.23 187.466 1348.38" stroke="black" stroke-width="6" stroke-linecap="round"/>
<path d="M152.109 1373.47C152.011 1371.76 153.801 1374.33 153.997 1374.58C158.077 1379.8 159.13 1387.07 160.568 1393.28C164.208 1409 166.689 1424.74 169.254 1440.61" stroke="black" stroke-width="6" stroke-linecap="round"/>
<path d="M183.881 1231.22C176.697 1242.22 170.476 1253.81 163.934 1265.2" stroke="black" stroke-width="6" stroke-linecap="round"/>
<path d="M513.742 1151.38C512.833 1152.45 529.2 1149.79 530.105 1149.61C533.733 1148.86 548.191 1147.02 549.737 1144.78" stroke="black" stroke-width="6" stroke-linecap="round"/>
<path d="M547.246 1142.48C547.58 1142 548.238 1143.13 548.632 1143.56C552.434 1147.75 556.6 1151.46 560.839 1155.22C573.841 1166.75 587.046 1179.25 601.272 1189.06" stroke="black" stroke-width="6" stroke-linecap="round"/>
<path d="M157.613 1185.72C155.467 1186.37 155.963 1190.95 156.031 1192.33C156.793 1207.88 159.797 1223.84 170.787 1234.98" stroke="black" stroke-width="6" stroke-linecap="round"/>
<path d="M167.093 1233.61C173.671 1236.4 184.199 1232.82 190.238 1231.66C223.276 1225.34 256.21 1218.3 288.995 1210.78C333.551 1200.57 377.555 1190.92 422.786 1184.31C445.894 1180.94 469.045 1177.9 492.257 1175.32C498.423 1174.63 507.57 1175.1 512.747 1172.24" stroke="black" stroke-width="6" stroke-linecap="round"/>
<path d="M153.794 1183.68C177.138 1179.39 200.363 1174.53 223.666 1169.97C314.798 1152.15 406.816 1139.36 498.36 1123.89" stroke="black" stroke-width="6" stroke-linecap="round"/>
<path d="M498.6 1125.22C496.498 1124.73 496.827 1127.22 496.438 1128.87C493.072 1143.1 501.315 1156.94 506.674 1169.21" stroke="black" stroke-width="6" stroke-linecap="round"/>
<path d="M362.428 359.434C378.475 351.045 392.836 335.139 406.361 323.857C441.495 294.551 476.67 265.297 511.65 235.809" stroke="black" stroke-width="6" stroke-linecap="round"/>
<path d="M515.018 238.239C584.536 266.04 656.643 290.229 724.475 322.002" stroke="black" stroke-width="6" stroke-linecap="round"/>
<path d="M722.791 323.497C676.667 362.898 629.9 401.639 582.919 440.015" stroke="black" stroke-width="6" stroke-linecap="round"/>
<path d="M362.242 362.613C290.831 334.055 504.627 422.079 578.992 441.699" stroke="black" stroke-width="6" stroke-linecap="round"/>
<path d="M369.16 358.872C367.357 358.4 362.2 358.395 360.475 358.894C345.485 363.231 335.792 381.167 337.756 395.965C339.788 411.269 349.961 420.698 362.247 427.692" stroke="black" stroke-width="6" stroke-linecap="round"/>
<path d="M360.003 427.879C368.139 432.229 374.217 437.809 383.609 441.778C435.158 463.562 490.101 478.348 540.286 503.228" stroke="black" stroke-width="6" stroke-linecap="round"/>
<path d="M699.982 402.231C649.135 433.508 604.794 472.854 551.319 500.049" stroke="black" stroke-width="6" stroke-linecap="round"/>
<path d="M570.764 446C574.509 449.566 568.506 463.803 567.587 467.506" stroke="black" stroke-width="6" stroke-linecap="round"/>
<path d="M554.311 492.569C553.343 494.742 551.986 496.718 550.758 498.741" stroke="black" stroke-width="6" stroke-linecap="round"/>
<path d="M570.763 451.426C564.802 468.803 560.395 487.149 554.872 504.725" stroke="black" stroke-width="6" stroke-linecap="round"/>
<path d="M720.361 326.865C721.147 327.531 721.128 328.152 721.109 329.213C720.973 336.813 716.705 348.726 714.961 354.834C704.583 391.164 693.693 427.373 678.295 461.889" stroke="black" stroke-width="6" stroke-linecap="round"/>
<path d="M682.409 457.025C634.604 499.06 583.016 538.159 529.82 572.796" stroke="black" stroke-width="6" stroke-linecap="round"/>
<path d="M552.629 504.911C543.102 528.734 534.004 552.35 523.275 575.603" stroke="black" stroke-width="6" stroke-linecap="round"/>
<path d="M385.812 444.709C371.829 434.835 346.638 431.251 330.862 437.618C316.555 443.391 312.038 458.959 313.92 473.203C316.887 495.656 331.628 500.174 347.107 511.661" stroke="black" stroke-width="6" stroke-linecap="round"/>
<path d="M346.359 513.53C350.216 512.139 359.852 519.427 362.162 520.272C417.401 540.472 474.357 555.85 529.633 575.976" stroke="black" stroke-width="6" stroke-linecap="round"/>
<path d="M320.946 506.39C320.515 505.384 320.579 505.747 321.244 506.262C326.406 510.258 334.193 512.551 339.909 514.591C387.24 531.484 434.792 547.465 481.353 566.459C498.687 573.53 516.133 582.991 534.375 587.292" stroke="black" stroke-width="15" stroke-linecap="round"/>
<path d="M362.16 344.93C383.714 325.766 406.395 308.293 428.971 290.338C459.269 266.243 491.665 245.792 520.921 220.468" stroke="black" stroke-width="15" stroke-linecap="round"/>
<path d="M520.729 218.166C517.276 217.211 525.328 224.056 528.624 225.462C571.389 243.702 616.667 255.938 659.905 273.081C687.482 284.014 714.157 297.048 741.446 308.655" stroke="black" stroke-width="15" stroke-linecap="round"/>
<path d="M748.348 308.08C743.209 312.872 737.521 316.814 731.816 320.992C684.64 355.543 638.48 391.755 591.888 426.788" stroke="black" stroke-width="15" stroke-linecap="round"/>
<path d="M364.268 342.436C369.284 345.208 373.335 348.559 379.609 351.043C450.829 379.234 523.82 405.308 597.064 427.747" stroke="black" stroke-width="15" stroke-linecap="round"/>
<path d="M744.514 312.103C738.592 315.46 734.967 334.204 733.82 337.608C719.337 380.591 705.679 423.506 687.768 465.128" stroke="black" stroke-width="15" stroke-linecap="round"/>
<path d="M691.986 460.145C682.562 479.568 650.187 497.409 635.061 509.175C599.947 536.487 564.83 563.815 529.582 590.934" stroke="black" stroke-width="15" stroke-linecap="round"/>
<path d="M717.292 391.303C666.946 429.049 609.104 460.466 567.159 508.094" stroke="black" stroke-width="15" stroke-linecap="round"/>
<path d="M351.048 428.339C355.915 431.028 361.096 433.854 366.911 436.103C410.768 453.069 454.998 469.119 498.959 485.82C521.288 494.303 543.596 503.889 567.161 508.09" stroke="black" stroke-width="15" stroke-linecap="round"/>
<path d="M375.199 345.695C368.441 342.08 362.327 343.861 354.98 347.124C333.535 356.646 311.581 373.742 322.077 399.891C329.535 418.47 344.534 425.995 361.209 433.519" stroke="black" stroke-width="15" stroke-linecap="round"/>
<path d="M337.046 421.634C324.37 414.378 311.224 422.334 301.232 433.014C285.196 450.154 286.476 472.985 300.747 490.775C313.034 506.093 326.564 508.437 343.382 514.25" stroke="black" stroke-width="15" stroke-linecap="round"/>
<path d="M594.188 426.597C587.974 424.97 565.49 507.596 562.365 517.299" stroke="black" stroke-width="15" stroke-linecap="round"/>
<path d="M565.049 499.464C552.785 530.131 540.22 560.704 528.24 591.509" stroke="black" stroke-width="15" stroke-linecap="round"/>
<path d="M898 418.312C899.716 433.757 912.27 444.654 921.946 455.942" stroke="black" stroke-width="14" stroke-linecap="round"/>
<path d="M1116.94 367C1117.96 385.386 1119.88 404.107 1123.78 422.114C1127.38 438.788 1119.42 425.059 1113.52 418.313" stroke="black" stroke-width="14" stroke-linecap="round"/>
<path d="M1421.39 397.787C1409.92 410.143 1387.19 427.392 1387.19 445.679" stroke="black" stroke-width="14" stroke-linecap="round"/>
<path d="M1674.87 228.842C1686.22 249.805 1703.62 268.655 1717.56 287.962" stroke="black" stroke-width="11" stroke-linecap="round"/>
<path d="M1835.8 205.85C1835.8 225.933 1834.76 245.487 1839.09 264.97" stroke="black" stroke-width="11" stroke-linecap="round"/>
<path d="M2023.02 245.264C2012.94 258.217 2007.31 273.386 2000.03 287.961" stroke="black" stroke-width="11" stroke-linecap="round"/>
<path d="M288.83 189.428L318.39 218.988" stroke="black" stroke-width="11" stroke-linecap="round"/>
<path d="M436.63 110.602C447.521 130.311 454.758 152.056 462.905 173.006" stroke="black" stroke-width="11" stroke-linecap="round"/>
<path d="M679.679 110.602C667.258 125.889 657.68 143.599 646.834 159.868" stroke="black" stroke-width="11" stroke-linecap="round"/>
<path d="M118.038 1026.96C129.561 1034.03 140.512 1041.31 150.883 1049.95" stroke="black" stroke-width="11" stroke-linecap="round"/>
<path d="M295.398 908.723C295.91 925.592 298.676 941.533 301.967 957.989" stroke="black" stroke-width="11" stroke-linecap="round"/>
<path d="M518.741 902.152C510.946 920.222 501.516 937.248 492.465 954.703" stroke="black" stroke-width="11" stroke-linecap="round"/>
</svg>
