<?xml version="1.0" encoding="utf-8"?>
<!-- Generator: Adobe Illustrator 27.5.0, SVG Export Plug-In . SVG Version: 6.00 Build 0)  -->
<svg version="1.1" xmlns="http://www.w3.org/2000/svg" xmlns:xlink="http://www.w3.org/1999/xlink" x="0px" y="0px"
	 viewBox="0 0 500 500" style="enable-background:new 0 0 500 500;" xml:space="preserve">
<g id="BACKGROUND">
	<rect style="fill:#FFFFFF;" width="500" height="500"/>
</g>
<g id="OBJECTS">
	<g>
		<g>
			<defs>
				<path id="SVGID_1_" d="M113.371,359.15c-28.419-8.465-56.478-25.038-68.806-52.007c-12.259-26.819-6.364-59.3,8.894-84.534
					c15.258-25.234,38.725-44.372,62.848-61.331c3.186-2.239,6.468-4.527,8.634-7.763c2.167-3.236,2.983-7.694,0.949-11.014
					c-3.411-5.567-11.65-4.624-17.703-7.07c-10.872-4.394-12.802-20.241-6.48-30.118s17.825-14.979,28.862-18.942
					c45.097-16.196,93.586-19.696,141.473-17.999c101.721,3.605,138.61,32.563,158.69,53.075
					c20.079,20.513,32.777,49.136,30.479,77.749c-1.35,16.806-7.664,32.863-15.601,47.738
					c-34.03,63.78-100.708,108.985-172.555,116.985c-27.949,3.112-56.185,0.931-84.222-1.253
					C165.13,360.819,136.158,365.937,113.371,359.15z"/>
			</defs>
			<use xlink:href="#SVGID_1_"  style="overflow:visible;fill:#E0EFEC;"/>
			<clipPath id="SVGID_00000026159663961160852890000003067376516364632505_">
				<use xlink:href="#SVGID_1_"  style="overflow:visible;"/>
			</clipPath>
			
				<rect x="105.981" y="46.118" style="clip-path:url(#SVGID_00000026159663961160852890000003067376516364632505_);fill:#D2DDE0;" width="11.293" height="339"/>
			
				<rect x="51.759" y="46.118" style="clip-path:url(#SVGID_00000026159663961160852890000003067376516364632505_);fill:#D2DDE0;" width="11.293" height="339"/>
			
				<rect x="160.202" y="46.118" style="clip-path:url(#SVGID_00000026159663961160852890000003067376516364632505_);fill:#D2DDE0;" width="11.293" height="339"/>
			
				<rect x="268.646" y="46.118" style="clip-path:url(#SVGID_00000026159663961160852890000003067376516364632505_);fill:#D2DDE0;" width="11.293" height="339"/>
			
				<rect x="214.424" y="46.118" style="clip-path:url(#SVGID_00000026159663961160852890000003067376516364632505_);fill:#D2DDE0;" width="11.293" height="339"/>
			
				<rect x="322.867" y="46.118" style="clip-path:url(#SVGID_00000026159663961160852890000003067376516364632505_);fill:#D2DDE0;" width="11.293" height="339"/>
			
				<rect x="431.311" y="46.118" style="clip-path:url(#SVGID_00000026159663961160852890000003067376516364632505_);fill:#D2DDE0;" width="11.293" height="339"/>
			
				<rect x="377.089" y="46.118" style="clip-path:url(#SVGID_00000026159663961160852890000003067376516364632505_);fill:#D2DDE0;" width="11.293" height="339"/>
		</g>
		<path style="fill:#D2DDE0;" d="M471.177,433.866c0,5.334-94.652,5.334-211.412,5.334s-211.412,0-211.412-5.334
			c0-5.334,94.652-5.334,211.412-5.334S471.177,428.531,471.177,433.866z"/>
	</g>
	<g>
		<g>
			<g>
				<rect x="179.559" y="58.174" style="fill:#F6A97D;" width="72.529" height="84.983"/>
				<path style="fill:#978A00;" d="M245.196,112.776c-18.481,13.979-40.662,23.108-63.212,26.635v-32.31
					c9.852-4.229,19.704-8.467,29.556-12.696C222.895,100.645,233.841,106.537,245.196,112.776z"/>
				<path style="fill:#D45A35;" d="M252.089,110.306v32.85h-70.105v-8.394c12.374-6.384,25.095-12.002,38.064-16.829
					C230.527,114.035,241.338,109.669,252.089,110.306z"/>
				<path style="fill:#FFFFFF;" d="M232.417,77.684c0-3.042-2.466-5.507-5.508-5.507s-5.507,2.466-5.507,5.507
					c0,3.042,2.466,5.507,5.507,5.507S232.417,80.725,232.417,77.684z"/>
				
					<line style="fill:none;stroke:#011E24;stroke-width:0.8;stroke-linecap:round;stroke-linejoin:round;stroke-miterlimit:10;" x1="181.984" y1="107.102" x2="181.984" y2="58.853"/>
			</g>
			<g>
				<g>
					<rect x="268.001" y="158.195" style="fill:#D45A35;" width="140.077" height="17.664"/>
					
						<polyline style="fill:none;stroke:#011E24;stroke-width:0.8;stroke-linecap:round;stroke-linejoin:round;stroke-miterlimit:10;" points="
						394.018,171.029 403.226,171.029 403.226,158.195 					"/>
				</g>
				<g>
					<g>
						
							<rect x="326.265" y="132.497" transform="matrix(-1 -1.224647e-16 1.224647e-16 -1 684.8171 272.0999)" style="fill:#F84C0C;" width="32.286" height="7.106"/>
						<path style="fill:#FFFFFF;" d="M392.96,139.603h-34.408c-1.962,0-3.553-1.591-3.553-3.553l0,0
							c0-1.962,1.591-3.553,3.553-3.553h34.408V139.603z"/>
						
							<path style="fill:none;stroke:#011E24;stroke-width:0.8;stroke-linecap:round;stroke-linejoin:round;stroke-miterlimit:10;" d="
							M351.427,132.95c-1.117,0.583-1.915,1.739-2.065,2.99c-0.15,1.251,0.352,2.563,1.299,3.394"/>
						
							<path style="fill:none;stroke:#011E24;stroke-width:0.8;stroke-linecap:round;stroke-linejoin:round;stroke-miterlimit:10;" d="
							M347.219,132.809c-0.811,0.846-1.274,2.017-1.26,3.189c0.014,1.172,0.503,2.332,1.333,3.16"/>
					</g>
					<g>
						
							<rect x="326.265" y="139.603" transform="matrix(-1 -1.224647e-16 1.224647e-16 -1 688.7708 287.2697)" style="fill:#F84C0C;" width="36.24" height="8.063"/>
						<path style="fill:#FFFFFF;" d="M401.127,147.667h-38.6c-2.215,0-4.01-1.795-4.01-4.01v-0.043c0-2.215,1.795-4.01,4.01-4.01
							h38.6V147.667z"/>
						
							<line style="fill:none;stroke:#011E24;stroke-width:0.8;stroke-linecap:round;stroke-linejoin:round;stroke-miterlimit:10;" x1="392.96" y1="139.603" x2="331.254" y2="139.603"/>
						
							<path style="fill:none;stroke:#011E24;stroke-width:0.8;stroke-linecap:round;stroke-linejoin:round;stroke-miterlimit:10;" d="
							M335.256,143.157c4.078-0.105,8.155-0.211,12.233-0.316"/>
						
							<path style="fill:none;stroke:#011E24;stroke-width:0.8;stroke-linecap:round;stroke-linejoin:round;stroke-miterlimit:10;" d="
							M335.726,144.978c4.509-0.067,9.018-0.134,13.526-0.201"/>
					</g>
					<g>
						
							<rect x="326.265" y="147.667" transform="matrix(-1 -1.224647e-16 1.224647e-16 -1 687.3799 307.1757)" style="fill:#F84C0C;" width="34.849" height="11.843"/>
						<path style="fill:#FFFFFF;" d="M398.254,159.509h-38.487c-2.708,0-4.904-2.196-4.904-4.904v-2.035
							c0-2.708,2.196-4.904,4.904-4.904h38.487V159.509z"/>
						
							<line style="fill:none;stroke:#011E24;stroke-width:0.8;stroke-linecap:round;stroke-linejoin:round;stroke-miterlimit:10;" x1="398.254" y1="147.667" x2="331.921" y2="147.667"/>
						
							<path style="fill:none;stroke:#011E24;stroke-width:0.8;stroke-linecap:round;stroke-linejoin:round;stroke-miterlimit:10;" d="
							M349.982,147.688c-1.481,1.492-2.412,3.518-2.581,5.613c-0.168,2.095,0.428,4.244,1.652,5.953"/>
					</g>
					<g>
						
							<rect x="326.265" y="159.509" transform="matrix(-1 -1.224647e-16 1.224647e-16 -1 685.3296 330.5382)" style="fill:#F84C0C;" width="32.799" height="11.52"/>
						<path style="fill:#FFFFFF;" d="M394.018,171.029h-39.927c-2.531,0-4.582-2.052-4.582-4.582v-2.355
							c0-2.531,2.052-4.582,4.582-4.582h39.927V171.029z"/>
						
							<line style="fill:none;stroke:#011E24;stroke-width:0.8;stroke-linecap:round;stroke-linejoin:round;stroke-miterlimit:10;" x1="394.018" y1="159.509" x2="331.921" y2="159.509"/>
						
							<path style="fill:none;stroke:#011E24;stroke-width:0.8;stroke-linecap:round;stroke-linejoin:round;stroke-miterlimit:10;" d="
							M336.946,159.854c-1.071,1.641-1.595,3.632-1.472,5.587c0.124,1.955,0.895,3.864,2.163,5.357"/>
						
							<path style="fill:none;stroke:#011E24;stroke-width:0.8;stroke-linecap:round;stroke-linejoin:round;stroke-miterlimit:10;" d="
							M340.111,160.043c-2.182,3.049-2.136,7.512,0.109,10.515"/>
					</g>
				</g>
				<g>
					<g>
						<rect x="308.736" y="130.737" style="fill:#FF81AC;" width="24.031" height="40.292"/>
						
							<line style="fill:none;stroke:#011E24;stroke-width:0.8;stroke-linecap:round;stroke-linejoin:round;stroke-miterlimit:10;" x1="327.607" y1="130.737" x2="327.607" y2="170.554"/>
						
							<line style="fill:none;stroke:#011E24;stroke-width:0.8;stroke-linecap:round;stroke-linejoin:round;stroke-miterlimit:10;" x1="328.077" y1="146.506" x2="332.247" y2="146.506"/>
						
							<line style="fill:none;stroke:#011E24;stroke-width:0.8;stroke-linecap:round;stroke-linejoin:round;stroke-miterlimit:10;" x1="328.077" y1="150.635" x2="332.548" y2="150.635"/>
					</g>
					<g>
						<rect x="300.634" y="127.902" style="fill:#FFFFFF;" width="24.031" height="43.127"/>
						
							<line style="fill:none;stroke:#011E24;stroke-width:0.8;stroke-linecap:round;stroke-linejoin:round;stroke-miterlimit:10;" x1="321.842" y1="128.426" x2="321.842" y2="171.029"/>
					</g>
					<g>
						<rect x="296.935" y="131.783" style="fill:#F84C0C;" width="22.79" height="39.246"/>
						
							<line style="fill:none;stroke:#011E24;stroke-width:0.8;stroke-linecap:round;stroke-linejoin:round;stroke-miterlimit:10;" x1="316.241" y1="132.083" x2="316.241" y2="170.554"/>
					</g>
					<g>
						<rect x="287.156" y="121.558" style="fill:#FF81AC;" width="27.652" height="49.471"/>
						<rect x="307.195" y="159.186" style="fill:#FFFFFF;" width="7.613" height="2.779"/>
						<rect x="307.195" y="163.855" style="fill:#FFFFFF;" width="7.613" height="2.779"/>
						
							<line style="fill:none;stroke:#011E24;stroke-width:0.8;stroke-linecap:round;stroke-linejoin:round;stroke-miterlimit:10;" x1="307.195" y1="170.554" x2="307.195" y2="122.118"/>
						
							<path style="fill:none;stroke:#011E24;stroke-width:0.8;stroke-linecap:round;stroke-linejoin:round;stroke-miterlimit:10;" d="
							M310.557,131.079c0.049,4.941,0.098,9.882,0.147,14.823"/>
						
							<path style="fill:none;stroke:#011E24;stroke-width:0.8;stroke-linecap:round;stroke-linejoin:round;stroke-miterlimit:10;" d="
							M312.332,131.195c-0.021,2.863-0.043,5.726-0.064,8.589"/>
					</g>
					<g>
						<rect x="273.329" y="125.843" style="fill:#978A00;" width="27.652" height="45.186"/>
						<rect x="295.905" y="131.783" style="fill:#FFFFFF;" width="5.077" height="5.077"/>
						
							<line style="fill:none;stroke:#011E24;stroke-width:0.8;stroke-linecap:round;stroke-linejoin:round;stroke-miterlimit:10;" x1="295.905" y1="126.607" x2="295.905" y2="158.195"/>
						
							<path style="fill:none;stroke:#011E24;stroke-width:0.8;stroke-linecap:round;stroke-linejoin:round;stroke-miterlimit:10;" d="
							M296.313,145.099c1.569-0.039,3.137-0.078,4.706-0.116"/>
						
							<path style="fill:none;stroke:#011E24;stroke-width:0.8;stroke-linecap:round;stroke-linejoin:round;stroke-miterlimit:10;" d="
							M296.313,148.019c1.451,0,2.902,0,4.353,0"/>
					</g>
				</g>
				<g>
					<rect x="268.001" y="158.195" style="fill:#D45A35;" width="28.323" height="17.664"/>
					
						<line style="fill:none;stroke:#011E24;stroke-width:0.8;stroke-linecap:round;stroke-linejoin:round;stroke-miterlimit:10;" x1="291.254" y1="158.195" x2="291.254" y2="175.439"/>
				</g>
			</g>
		</g>
		<g>
			<g>
				<g>
					<g>
						<path style="fill:#978A00;" d="M352.757,203.462c4.424,6.519,6.868,14.363,6.931,22.242
							C353.75,219.827,350.629,211.541,352.757,203.462z"/>
						<path style="fill:#978A00;" d="M362.348,228.046c3.997-0.899,7.66-3.214,10.188-6.437c2.528-3.224,3.902-7.333,3.822-11.429
							C368.894,213.49,364.077,220.066,362.348,228.046z"/>
						<path style="fill:#978A00;" d="M357.618,183.794c4.358,6.969,5.925,15.631,4.284,23.685
							C356.723,200.854,354.912,191.756,357.618,183.794z"/>
						<path style="fill:#978A00;" d="M364.606,215.881c7.367-4.481,12.537-12.404,13.671-20.952
							C370.888,199.831,365.952,207.117,364.606,215.881z"/>
						<path style="fill:#978A00;" d="M364.687,203.416c5.853-6.745,8.649-16.045,7.485-24.899
							C366.079,185.092,363.447,194.538,364.687,203.416z"/>
						
							<path style="fill:none;stroke:#011E24;stroke-width:0.8;stroke-linecap:round;stroke-linejoin:round;stroke-miterlimit:10;" d="
							M366.483,197.188c-7.054,26.1-8.29,53.754-3.594,80.379"/>
					</g>
					<g>
						<path style="fill:#FF81AC;" d="M356.669,254.639v-22.128c0-1.452,1.177-2.628,2.628-2.628h3.622
							c1.452,0,2.628,1.177,2.628,2.628v22.129c0,3.161,1.755,6.09,4.592,7.485c6.828,3.357,11.515,10.398,11.454,18.534
							c-0.079,10.703-8.659,19.721-19.347,20.299c-11.831,0.64-21.624-8.764-21.624-20.455c0-8.076,4.677-15.052,11.468-18.386
							C354.924,260.728,356.669,257.795,356.669,254.639z"/>
						
							<path style="fill:none;stroke:#FFFFFF;stroke-width:0.8;stroke-linecap:round;stroke-linejoin:round;stroke-miterlimit:10;" d="
							M377.769,276.7c-0.139-5.735-4.707-11.054-10.354-12.058"/>
						
							<path style="fill:none;stroke:#011E24;stroke-width:0.8;stroke-linecap:round;stroke-linejoin:round;stroke-miterlimit:10;" d="
							M359.268,297.917c-3.6-0.27-7.09-1.824-9.7-4.318c-2.61-2.494-4.32-5.91-4.753-9.494"/>
					</g>
				</g>
				<g>
					<path style="fill:#FFFFFF;" d="M316.529,267.824l1.353-22.353h-25.412l1.353,22.353c0.249,4.106,2.656,7.587,6.077,9.378
						c2.199,1.152,3.615,3.384,3.5,5.864l-0.385,8.342c-0.092,1.987-1.131,3.81-2.795,4.901l-2.919,1.914
						c-0.694,0.455-0.372,1.534,0.458,1.534h14.836c0.83,0,1.152-1.079,0.458-1.534l-2.919-1.914
						c-1.664-1.091-2.703-2.913-2.795-4.901l-0.385-8.342c-0.115-2.48,1.301-4.712,3.5-5.864
						C313.873,275.41,316.281,271.93,316.529,267.824z"/>
					<path style="fill:#F84C0C;" d="M293.824,267.824l-0.728-12.023h24.161l-0.728,12.023c-0.363,6.004-5.338,10.686-11.353,10.686
						l0,0C299.162,278.51,294.187,273.827,293.824,267.824z"/>
					
						<path style="fill:none;stroke:#FFFFFF;stroke-width:0.8;stroke-linecap:round;stroke-linejoin:round;stroke-miterlimit:10;" d="
						M313.806,268.708c-0.183,2.955-2.397,5.675-5.254,6.454"/>
					
						<path style="fill:none;stroke:#FFFFFF;stroke-width:0.8;stroke-linecap:round;stroke-linejoin:round;stroke-miterlimit:10;" d="
						M295.941,252.227c0.521,4.867,1.041,9.734,1.562,14.601"/>
					
						<path style="fill:none;stroke:#011E24;stroke-width:0.8;stroke-linecap:round;stroke-linejoin:round;stroke-miterlimit:10;" d="
						M297.999,298.03c3.921-0.026,7.842-0.053,11.763-0.079"/>
				</g>
				<g>
					<g>
						<polygon style="fill:#011E24;" points="428.215,432.49 422.542,432.49 396.505,305.667 413.883,305.667 						"/>
						
							<line style="fill:none;stroke:#FFFFFF;stroke-width:0.8;stroke-linecap:round;stroke-linejoin:round;stroke-miterlimit:10;" x1="405.462" y1="307.096" x2="425.765" y2="431.986"/>
					</g>
					<g>
						<polygon style="fill:#011E24;" points="314.846,432.49 320.52,432.49 332.556,305.667 315.178,305.667 						"/>
						
							<line style="fill:none;stroke:#FFFFFF;stroke-width:0.8;stroke-linecap:round;stroke-linejoin:round;stroke-miterlimit:10;" x1="323.701" y1="307.051" x2="317.923" y2="431.986"/>
					</g>
					<g>
						<rect x="276.551" y="299.757" style="fill:#011E24;" width="147.784" height="7.339"/>
						
							<line style="fill:none;stroke:#FFFFFF;stroke-width:0.8;stroke-linecap:round;stroke-linejoin:round;stroke-miterlimit:10;" x1="315.174" y1="307.096" x2="332.556" y2="307.096"/>
						
							<line style="fill:none;stroke:#FFFFFF;stroke-width:0.8;stroke-linecap:round;stroke-linejoin:round;stroke-miterlimit:10;" x1="396.798" y1="307.096" x2="414.126" y2="307.096"/>
					</g>
				</g>
			</g>
		</g>
	</g>
	<g>
		<g>
			<g>
				<path style="fill:#FF81AC;" d="M40.309,206.078c0,0,77.023-30.11,139.218,0l17.867,123.874L96.363,305.667L40.309,206.078z"/>
				<path style="fill:none;stroke:#011E24;stroke-width:0.8;stroke-linecap:round;stroke-linejoin:round;stroke-miterlimit:10;" d="
					M99.626,229.212c2.823,1.647,5.647,3.294,8.471,4.941"/>
				<path style="fill:none;stroke:#011E24;stroke-width:0.8;stroke-linecap:round;stroke-linejoin:round;stroke-miterlimit:10;" d="
					M104.712,220.776c1.573,2.507,3.145,5.015,4.717,7.522"/>
			</g>
			<polygon style="fill:#D45A35;" points="111.527,432.532 107.4,432.532 117.989,365.599 127.312,365.599 			"/>
			<polygon style="fill:#D45A35;" points="204.704,432.532 208.83,432.532 198.242,365.599 188.919,365.599 			"/>
			<rect x="161.292" y="344.601" style="fill:#FF81AC;" width="74.606" height="23.157"/>
		</g>
		<g>
			<g>
				<path style="fill:none;stroke:#011E24;stroke-width:0.8;stroke-linecap:round;stroke-linejoin:round;stroke-miterlimit:10;" d="
					M161.511,221.784c0.347,1.102,1.53,1.741,2.672,1.919c1.142,0.178,2.31,0.013,3.463,0.096c2.063,0.148,4.055,1.127,5.433,2.67
					s2.126,3.632,2.041,5.699"/>
				<path style="fill:#F84C0C;" d="M173.471,231.169c-0.395-2.831-2.62-5.32-5.39-6.026c-1.461-0.373-3.054-0.297-4.396-0.984
					c-1.74-0.891-2.634-2.835-3.307-4.67c-2.039-5.564-3.521-11.387-3.743-17.308c-4.844-1.927-10.524-1.629-15.14,0.794
					c-4.616,2.424-8.086,6.93-9.25,12.012c-0.226,0.986-0.374,2.004-0.809,2.917c-0.435,0.913-1.233,1.73-2.236,1.863
					c-1.5,0.2-2.716-1.102-4.026-1.861c-2.24-1.298-5.243-0.973-7.301,0.597c-2.059,1.57-3.158,4.233-3.049,6.819
					c0.109,2.586,1.349,5.061,3.185,6.886l51.925,6.231C172.405,237.002,173.866,234,173.471,231.169z"/>
			</g>
			<g>
				<path style="fill:#FFFFFF;" d="M175.356,235.802c-6.579-1.301-13.15-2.837-19.729-4.137c-0.004-1.501-0.908-2.932-2.19-3.713
					c-1.282-0.781-2.89-0.944-4.349-0.588c-1.459,0.355-2.507,1.464-3.562,2.532c-4.322-0.654-8.643-1.308-12.965-1.962
					c-4.104-0.621-8.48-0.373-12.247,1.37c-3.767,1.742-6.939,4.742-8.89,8.405c-3.149,5.915-4.961,12.44-7.337,18.706
					c3.438,0.584,6.801,1.149,10.239,1.734c0.044,8.079,0.266,16.127,0.309,24.206l72.952-10.894
					c3.624-9.257,7.576-18.486,11.2-27.743C191.37,240.023,183.487,237.409,175.356,235.802z"/>
				<path style="fill:none;stroke:#011E24;stroke-width:0.8;stroke-linecap:round;stroke-linejoin:round;stroke-miterlimit:10;" d="
					M121.841,229.282c3.371-1.245,7.52,0.154,9.447,3.187c1.642,2.583,1.657,5.839,1.619,8.9
					c-0.068,5.522-0.136,11.044-0.204,16.567"/>
				<path style="fill:none;stroke:#011E24;stroke-width:0.8;stroke-linecap:round;stroke-linejoin:round;stroke-miterlimit:10;" d="
					M112.235,250.353c0.706,0.824,1.412,1.647,2.118,2.471"/>
				<path style="fill:none;stroke:#011E24;stroke-width:0.8;stroke-linecap:round;stroke-linejoin:round;stroke-miterlimit:10;" d="
					M125.934,250.28c-1.174,1.062-2.348,2.124-3.521,3.185"/>
				<path style="fill:none;stroke:#011E24;stroke-width:0.8;stroke-linecap:round;stroke-linejoin:round;stroke-miterlimit:10;" d="
					M117.529,241.529c0.353,1.176,0.706,2.353,1.059,3.529"/>
				<path style="fill:none;stroke:#011E24;stroke-width:0.8;stroke-linecap:round;stroke-linejoin:round;stroke-miterlimit:10;" d="
					M125.655,242.294c0.824-0.112,1.649-0.225,2.473-0.337"/>
				<path style="fill:none;stroke:#011E24;stroke-width:0.8;stroke-linecap:round;stroke-linejoin:round;stroke-miterlimit:10;" d="
					M121.059,233.059c-0.824,0.118-1.647,0.235-2.471,0.353"/>
				<path style="fill:none;stroke:#011E24;stroke-width:0.8;stroke-linecap:round;stroke-linejoin:round;stroke-miterlimit:10;" d="
					M152.118,238c1.176,0.235,2.353,0.471,3.529,0.706"/>
				<path style="fill:none;stroke:#011E24;stroke-width:0.8;stroke-linecap:round;stroke-linejoin:round;stroke-miterlimit:10;" d="
					M154.171,246.832c0.117,0.941,0.234,1.882,0.351,2.824"/>
				<path style="fill:none;stroke:#011E24;stroke-width:0.8;stroke-linecap:round;stroke-linejoin:round;stroke-miterlimit:10;" d="
					M163.412,247.176c0.941,0,1.882,0,2.824,0"/>
				<path style="fill:none;stroke:#011E24;stroke-width:0.8;stroke-linecap:round;stroke-linejoin:round;stroke-miterlimit:10;" d="
					M178.207,240.773c0.823-0.471,1.647-0.941,2.47-1.412"/>
				<path style="fill:none;stroke:#011E24;stroke-width:0.8;stroke-linecap:round;stroke-linejoin:round;stroke-miterlimit:10;" d="
					M180,246.118c0.824,0.353,1.647,0.706,2.471,1.059"/>
			</g>
			<g>
				<g>
					<polygon style="fill:#978A00;" points="135.07,274.441 136.714,253.98 180.6,251.79 200.096,292.413 221.867,350.941 
						186.271,352.529 					"/>
					
						<path style="fill:none;stroke:#011E24;stroke-width:0.8;stroke-linecap:round;stroke-linejoin:round;stroke-miterlimit:10;" d="
						M175.059,271.882c0-4.118,1.057-7.903,1.057-12.021c-9.876,1.007-19.751,2.015-29.627,3.022
						c1.405,4.355,2.532,9.561,3.936,13.917"/>
				</g>
				<g>
					<path style="fill:#978A00;" d="M142.493,257.606l-4.746-21.487c-0.8-3.624-3.348-6.613-6.798-7.979l-1.529-0.605v-1.447
						l7.934,1.493c3.539,0.666,6.403,3.267,7.405,6.727l6.68,23.064L142.493,257.606z"/>
					
						<path style="fill:none;stroke:#011E24;stroke-width:0.8;stroke-linecap:round;stroke-linejoin:round;stroke-miterlimit:10;" d="
						M142.482,252.802c0.227,1.695,1.865,3.08,3.575,3.022c1.709-0.058,3.25-1.55,3.361-3.257L142.482,252.802z"/>
				</g>
				<g>
					<path style="fill:#978A00;" d="M172.302,256.888l-5.538-18.03c-0.934-3.041-3.316-5.419-6.359-6.347l-1.348-0.411l-0.1-1.236
						l6.882,0.728c3.07,0.325,5.696,2.349,6.791,5.236l7.299,19.244L172.302,256.888z"/>
					
						<path style="fill:none;stroke:#011E24;stroke-width:0.8;stroke-linecap:round;stroke-linejoin:round;stroke-miterlimit:10;" d="
						M171.315,251.01c0.547,0.81,1.255,1.536,2.135,1.963c0.88,0.427,1.946,0.527,2.838,0.126c0.892-0.4,1.553-1.347,1.481-2.322
						L171.315,251.01z"/>
				</g>
			</g>
			<g>
				<path style="fill:#F6A97D;" d="M157.011,232.468c-0.077-2.391-0.116-4.696-0.193-7.087c2.09-0.34,4.01-1.616,5.134-3.411
					s1.073-3.971,0.964-6.086c-0.177-3.432-1.136-6.821-2.785-9.836c-0.867-1.586-2.594-3.953-4.218-3.16
					c-3.799,1.854-7.302,3.96-11.101,5.814c-0.53,1.854-1.059,3.708-1.589,5.562c-0.425-0.69-0.907-1.049-1.332-1.739
					c-2.065-0.304-4.265,0.763-5.304,2.573c-1.04,1.81-0.853,4.248,0.45,5.879c1.303,1.631,3.64,2.35,5.634,1.736
					c0.189,2.628,0.637,5.132,0.826,7.76C146.789,233.713,152.791,234.344,157.011,232.468z"/>
				<circle style="fill:#011E24;" cx="150.601" cy="215.315" r="0.8"/>
				<circle style="fill:#011E24;" cx="160.747" cy="213.912" r="0.8"/>
				<path style="fill:none;stroke:#011E24;stroke-width:0.8;stroke-linecap:round;stroke-linejoin:round;stroke-miterlimit:10;" d="
					M156.254,213.474c0.414,1.361,0.829,2.722,1.243,4.083c-0.439-0.154-0.896-0.363-1.335-0.517"/>
				<path style="fill:none;stroke:#011E24;stroke-width:0.8;stroke-linecap:round;stroke-linejoin:round;stroke-miterlimit:10;" d="
					M153.316,218.337c-0.126,0.458,0.129,0.99,0.565,1.179c0.436,0.189,0.998,0.012,1.248-0.392"/>
				<path style="fill:none;stroke:#011E24;stroke-width:0.8;stroke-linecap:round;stroke-linejoin:round;stroke-miterlimit:10;" d="
					M148.252,212.33c0.312-0.793,1.048-1.403,1.885-1.562c0.837-0.159,1.746,0.139,2.327,0.762"/>
				<path style="fill:none;stroke:#011E24;stroke-width:0.8;stroke-linecap:round;stroke-linejoin:round;stroke-miterlimit:10;" d="
					M159.264,210.552c0.676-0.089,1.353-0.177,2.029-0.266"/>
				<path style="fill:none;stroke:#011E24;stroke-width:0.8;stroke-linecap:round;stroke-linejoin:round;stroke-miterlimit:10;" d="
					M147.769,224.736c3.073,1.304,6.57,1.588,9.813,0.797"/>
				<path style="fill:none;stroke:#011E24;stroke-width:0.8;stroke-linecap:round;stroke-linejoin:round;stroke-miterlimit:10;" d="
					M138.625,216.158c1.294,0.209,2.587,0.418,3.881,0.627"/>
				<path style="fill:none;stroke:#011E24;stroke-width:0.8;stroke-linecap:round;stroke-linejoin:round;stroke-miterlimit:10;" d="
					M142.588,223c0.382-0.118,0.765-0.235,1.147-0.353"/>
			</g>
			<g>
				<path style="fill:#FFFFFF;" d="M191.294,225.691l30.45,6.279c4.964,1.024,9.739,2.812,14.154,5.302l0,0l0,0
					c0.549-4.219,3.002-7.953,6.656-10.133l16.035-9.563l2.579,5.156l-26.585,31.246l-46.576-12.534L191.294,225.691z"/>
				<g>
					<path style="fill:#011E24;" d="M242.785,280.661l20.87-58.943c0.372-1.05-0.857-1.937-1.736-1.252l-20.196,15.723l-0.11,1.537
						c-0.362,5.072-6.862,6.925-9.844,2.806v0l-41.559-11.473c-1.129-0.312-2.285,0.401-2.514,1.549l-10.334,51.762l39.52,10.027
						L242.785,280.661z"/>
					
						<path style="fill:none;stroke:#FFFFFF;stroke-width:0.8;stroke-linecap:round;stroke-linejoin:round;stroke-miterlimit:10;" d="
						M231.181,241.648c-3.552,11.233-7.104,22.467-10.657,33.7"/>
					
						<path style="fill:none;stroke:#FFFFFF;stroke-width:0.8;stroke-linecap:round;stroke-linejoin:round;stroke-miterlimit:10;" d="
						M242.479,239.297c-3.911,10.827-7.821,21.655-11.732,32.482"/>
					
						<path style="fill:none;stroke:#FFFFFF;stroke-width:0.8;stroke-linecap:round;stroke-linejoin:round;stroke-miterlimit:10;" d="
						M229.229,248.7c0.895,1.664,2.598,2.83,4.424,3.027c1.826,0.198,3.724-0.578,4.931-2.014"/>
					
						<path style="fill:none;stroke:#FFFFFF;stroke-width:0.8;stroke-linecap:round;stroke-linejoin:round;stroke-miterlimit:10;" d="
						M227.85,253.192c0.758,1.615,2.234,2.839,3.907,3.238c1.672,0.399,3.507-0.034,4.856-1.147"/>
				</g>
				<g>
					<polygon style="fill:#F84C0C;" points="193.839,247.356 219.879,253.98 218.438,260.66 191.894,252.969 					"/>
					
						<path style="fill:none;stroke:#011E24;stroke-width:0.8;stroke-linecap:round;stroke-linejoin:round;stroke-miterlimit:10;" d="
						M197.389,251.681c6.145,1.819,12.29,3.638,18.435,5.457"/>
				</g>
			</g>
			<g>
				<path style="fill:#FF81AC;" d="M289.88,432.49h-48.47c-4.06,0-7.31-3.35-7.2-7.4l0.22-7.89l0.04-1.29l-4.8-12.81l39.82-5.24
					l2.69,7.02c2.25,5.9,5.76,11.24,10.27,15.65c0.05,0.06,0.11,0.11,0.16,0.16l8.66,8.39
					C292.55,430.32,291.67,432.49,289.88,432.49z"/>
				<path style="fill:#F84C0C;" d="M248.94,432.49h-7.53c-4.06,0-7.31-3.35-7.2-7.4l0.22-7.89c4.29,1.6,8.12,4.45,10.87,8.12
					C246.91,427.48,248.14,429.92,248.94,432.49z"/>
				<path style="fill:#F84C0C;" d="M289.88,432.49h-17.36c0.58-1.91,1.43-3.73,2.54-5.39c1.86-2.77,4.44-5.03,7.39-6.57
					c0.05,0.06,0.11,0.11,0.16,0.16l8.66,8.39C292.55,430.32,291.67,432.49,289.88,432.49z"/>
			</g>
			<g>
				<path style="fill:#FF81AC;" d="M344.51,378.09l-15.35,3l-24.68,4.82l-5.8,1.13c-4.47,0.87-8.96-1.46-10.82-5.62l-2.14-4.78
					l-1.07-2.4l-6.83-4.34l33.3-28.31l0.53,0.85c4.15,6.67,9.45,12.56,15.65,17.4l6.8,5.3l11.38,8.88
					C347.04,375.23,346.44,377.71,344.51,378.09z"/>
				<path style="fill:#F84C0C;" d="M344.51,378.09l-15.35,3c-0.22-5.66,1.55-11.41,4.94-15.95l11.38,8.88
					C347.04,375.23,346.44,377.71,344.51,378.09z"/>
				<path style="fill:#F84C0C;" d="M304.48,385.91l-5.8,1.13c-4.47,0.87-8.96-1.46-10.82-5.62l-2.14-4.78
					c3.87-0.34,7.84,0.46,11.27,2.29C300.03,380.56,302.62,383,304.48,385.91z"/>
			</g>
			<g>
				<path style="fill:#978A00;" d="M317.923,345.349c-16.249-22.911-33.912-44.59-54.363-63.845
					c-11.825-11.134-31.163-13.42-46.249-7.401c-12.354,4.929-24.215,11.091-35.35,18.366l28.704,38.007
					c3.3,26.829,10.162,54.23,19.097,79.741c16.477-1.085,32.505-1.347,48.982-2.431c-4.127-15.409-8.617-30.058-12.744-45.467
					c4.299,6.038,9.107,12.13,13.406,18.168C292.172,368.776,305.158,357.059,317.923,345.349z"/>
				<path style="fill:none;stroke:#011E24;stroke-width:0.8;stroke-linecap:round;stroke-linejoin:round;stroke-miterlimit:10;" d="
					M181.628,292.183c3.716-2.218,7.432-4.437,11.148-6.655"/>
				<path style="fill:none;stroke:#011E24;stroke-width:0.8;stroke-linecap:round;stroke-linejoin:round;stroke-miterlimit:10;" d="
					M212.953,344.796c-1.62-6.162-3.251-12.402-3.31-18.773c-0.059-6.371,1.619-12.992,5.887-17.722
					c3.63-4.023,9.021-6.399,14.439-6.365c8.365,0.053,15.913,5.629,20.556,12.587c4.643,6.958,6.891,15.196,9.067,23.273
					c2.499,9.278,4.999,18.555,7.498,27.833"/>
				<path style="fill:none;stroke:#011E24;stroke-width:0.8;stroke-linecap:round;stroke-linejoin:round;stroke-miterlimit:10;" d="
					M272.124,370.856c13.27-11.146,26.54-22.293,39.81-33.439"/>
				<path style="fill:none;stroke:#011E24;stroke-width:0.8;stroke-linecap:round;stroke-linejoin:round;stroke-miterlimit:10;" d="
					M226.426,399.668c16.463-1.169,32.926-2.337,49.388-3.506"/>
				<path style="fill:none;stroke:#011E24;stroke-width:0.8;stroke-linecap:round;stroke-linejoin:round;stroke-miterlimit:10;" d="
					M207.332,337.369c1.857,2.373,3.714,4.746,5.571,7.118"/>
				<path style="fill:none;stroke:#011E24;stroke-width:0.8;stroke-linecap:round;stroke-linejoin:round;stroke-miterlimit:10;" d="
					M235.776,272.087c1.781,4.364,5.564,7.864,10.053,9.301c4.489,1.436,9.601,0.783,13.585-1.737"/>
				<path style="fill:none;stroke:#011E24;stroke-width:0.8;stroke-linecap:round;stroke-linejoin:round;stroke-miterlimit:10;" d="
					M219.325,305.324c2.188,3.685,6.241,6.194,10.515,6.509c4.274,0.315,8.651-1.574,11.355-4.899"/>
				<path style="fill:none;stroke:#011E24;stroke-width:0.8;stroke-linecap:round;stroke-linejoin:round;stroke-miterlimit:10;" d="
					M189.654,329.814c4.497-1.771,8.201-5.178,11.073-9.066c2.872-3.888,4.99-8.27,7.092-12.622c1.316-2.727,2.633-5.454,3.949-8.18
					c-0.085,1.513-0.159,3.093,0.454,4.478c0.614,1.386,2.147,2.491,3.609,2.092c1.843-0.503,2.388-2.822,2.496-4.729
					c0.108-1.907,0.324-4.186,2.014-5.077c1.987,1.94,3.974,3.88,5.961,5.821"/>
			</g>
			<g>
				<path style="fill:#F84C0C;" d="M155.962,205.293c1.111,1.109,2.036,2.418,2.507,3.889l6.792-0.865
					c-2.393-5.71-8.832-9.429-14.974-8.647c-6.141,0.782-11.444,5.995-12.33,12.123l18.068-2.3
					C156.005,208.093,155.984,206.693,155.962,205.293z"/>
				<path style="fill:none;stroke:#F84C0C;stroke-width:0.8;stroke-linecap:round;stroke-linejoin:round;stroke-miterlimit:10;" d="
					M143.248,203.543c3.26-3.44,8.293-5.103,12.961-4.281c4.668,0.821,8.831,4.102,10.721,8.448"/>
			</g>
			<g>
				<path style="fill:#F6A97D;" d="M106.02,256.743c-0.73,6.742-1.495,13.682-2.225,20.424c-0.639,5.894,0.514,12.147,4.422,16.605
					c3.907,4.458,9.974,6.931,15.884,6.476c14.104-1.087,28.395-5.437,42.197-8.54c6.378-1.434,12.505-3.968,18.036-7.452
					c2.78-1.751,5.374-3.914,8.11-5.792c2.973-2.041,5.949-4.078,8.907-6.14c-0.341-0.588-1.1-0.859-1.753-0.673
					c-1.765,0.5-3.479,1.007-5.244,1.507c3.54-2.128,7.136-4.465,10.677-6.593c-0.212-0.552-0.705-0.988-1.278-1.131
					c-0.574-0.143-0.935-0.001-1.486,0.215c-4.646,1.826-9.066,3.605-13.712,5.431c5.249-2.708,10.582-5.501,15.831-8.209
					c-0.202-0.557-0.656-1.017-1.211-1.226c-0.554-0.21-1.077,0.013-1.642,0.192c-5.463,1.729-10.967,3.429-16.43,5.157
					c5.311-2.164,10.504-4.331,15.815-6.495c-0.328-0.887-1.362-1.271-2.3-1.146c-7.479,0.992-14.959,1.985-22.438,2.977
					l-11.882,3.382l-33.35,6.533l0.753-14.638L106.02,256.743z"/>
				<path style="fill:none;stroke:#011E24;stroke-width:0.8;stroke-linecap:round;stroke-linejoin:round;stroke-miterlimit:10;" d="
					M131.012,272.192c-2.055,0.83-4.22,1.388-6.421,1.656"/>
				<path style="fill:none;stroke:#011E24;stroke-width:0.8;stroke-linecap:round;stroke-linejoin:round;stroke-miterlimit:10;" d="
					M184.563,267.318c2.442-0.94,4.883-1.879,7.325-2.819"/>
				<path style="fill:none;stroke:#011E24;stroke-width:0.8;stroke-linecap:round;stroke-linejoin:round;stroke-miterlimit:10;" d="
					M186.416,272.364c2.378-1.273,4.755-2.547,7.133-3.82"/>
				<path style="fill:none;stroke:#011E24;stroke-width:0.8;stroke-linecap:round;stroke-linejoin:round;stroke-miterlimit:10;" d="
					M187.658,277.498c2.988-1.764,5.977-3.528,8.965-5.292"/>
			</g>
		</g>
		<g>
			<path style="fill:#FF81AC;" d="M40.309,206.078l59.545,150.947c2.555,6.477,8.81,10.733,15.772,10.733h87.485L185.59,304.84
				c-1.768-6.351-7.553-10.744-14.145-10.744h-69.238l-26.936-71.153C71.06,211.818,60.068,204.756,48.2,205.55L40.309,206.078z"/>
			<path style="fill:none;stroke:#011E24;stroke-width:0.8;stroke-linecap:round;stroke-linejoin:round;stroke-miterlimit:10;" d="
				M194.907,365.717c-5.308-20.361-10.222-41.308-16.264-61.463c-1.561-5.206-6.739-9.099-12.173-9.153l-64.263-1.006L73.235,223"/>
		</g>
	</g>
</g>
</svg>
