<svg width="2297" height="1706" viewBox="0 0 2297 1706" fill="none" xmlns="http://www.w3.org/2000/svg">
<rect width="2297" height="1706" fill="white"/>
<path d="M775.127 649.123C785.667 649.123 791.579 650.459 800.412 656.347" stroke="black" stroke-width="10" stroke-linecap="round"/>
<path d="M865.43 501.025C875.95 504.181 886.522 522.117 894.327 529.922" stroke="black" stroke-width="10" stroke-linecap="round"/>
<path d="M1024.36 381.824C1027.74 383.698 1053.44 446.248 1035.2 414.333" stroke="black" stroke-width="10" stroke-linecap="round"/>
<path d="M1201.36 360.152C1202.32 373.657 1208.58 386.534 1208.58 399.886" stroke="black" stroke-width="10" stroke-linecap="round"/>
<path d="M1327.78 399.885C1323.45 409.095 1309.72 423.99 1309.72 432.394" stroke="black" stroke-width="10" stroke-linecap="round"/>
<path d="M1443.37 511.862C1431.29 511.152 1419.28 509.516 1407.25 508.25" stroke="black" stroke-width="10" stroke-linecap="round"/>
<path d="M1472.27 334.867C1481.28 343.375 1490.08 345.62 1501.17 349.316" stroke="black" stroke-width="10" stroke-linecap="round"/>
<path d="M1548.12 204.83C1549.2 211.28 1568.22 236.783 1558.96 222.891" stroke="black" stroke-width="10" stroke-linecap="round"/>
<path d="M1667.32 186.77C1667.32 190.839 1670.94 208.562 1670.94 204.83" stroke="black" stroke-width="10" stroke-linecap="round"/>
<path d="M1804.58 226.504C1804.14 232.237 1797.36 254.196 1797.36 251.789" stroke="black" stroke-width="10" stroke-linecap="round"/>
<path d="M179 850.383C180.469 857.726 186.926 862.657 193.449 864.831" stroke="black" stroke-width="10" stroke-linecap="round"/>
<path d="M197.061 745.631C200.193 752.941 235.786 787.318 218.733 774.528" stroke="black" stroke-width="10" stroke-linecap="round"/>
<path d="M290.976 680.613C296.874 687.048 301.616 694.106 306.227 701.483C310.744 708.71 293.39 690.252 287.364 684.225" stroke="black" stroke-width="10" stroke-linecap="round"/>
<path d="M431.849 677V705.897" stroke="black" stroke-width="10" stroke-linecap="round"/>
<path d="M560.224 687C560.224 692.889 561.631 721.619 553 708.673" stroke="black" stroke-width="10" stroke-linecap="round"/>
<path d="M1666 996.545C1666.54 1006.78 1669.05 1016.83 1671.05 1026.84" stroke="black" stroke-width="11" stroke-linecap="round"/>
<path d="M1772.04 961.199C1772.58 971.438 1775.09 981.486 1777.09 991.496" stroke="black" stroke-width="11" stroke-linecap="round"/>
<path d="M1908.37 941C1907.43 951.361 1903.32 960.779 1903.32 971.296" stroke="black" stroke-width="11" stroke-linecap="round"/>
<path d="M2024.51 1001.59C2021.65 1011.12 2012.41 1013.5 2004.31 1016.74" stroke="black" stroke-width="11" stroke-linecap="round"/>
<path d="M2110.35 1107.63C2093.23 1107.63 2076.79 1110.42 2059.85 1112.68" stroke="black" stroke-width="11" stroke-linecap="round"/>
<path d="M960.268 952C984.025 952 1008.43 949.712 1032.4 949.622C1087.25 949.416 1142.09 951.12 1196.92 951.12C1249.01 951.12 1300.37 945.716 1352.54 950.459C1381.67 953.107 1409.83 954.378 1439.02 954.378" stroke="black" stroke-width="16" stroke-linecap="round"/>
<path d="M1442.99 955.17C1444.46 943.369 1444.77 978.988 1443.78 990.839" stroke="black" stroke-width="16" stroke-linecap="round"/>
<path d="M953.927 948.828C953.927 964.338 956.129 980.101 957.097 995.594" stroke="black" stroke-width="16" stroke-linecap="round"/>
<path d="M960.268 994.01C958.141 996.136 957.591 996.877 961.148 997.533C966.316 998.485 971.758 997.65 976.913 997.268C1002.11 995.402 1027.3 993.212 1052.57 992.601C1124.63 990.859 1196.59 991.577 1268.65 989.65C1309.75 988.551 1351.08 987.612 1392.08 991.28C1406.76 992.593 1420.64 993.569 1435.33 993.569C1438.43 993.569 1454.84 995.55 1452.5 992.424" stroke="black" stroke-width="16" stroke-linecap="round"/>
<path d="M1290.8 948.83C1291.3 946.565 1294.92 944.699 1296.3 943.105C1307.27 930.457 1318.15 917.573 1327.53 903.737C1329.41 900.961 1329.27 903.323 1332.72 904.046C1346.77 906.986 1362.37 905.358 1376.67 905.235C1386.22 905.152 1383.13 904.19 1389.31 911.268C1396.89 919.957 1404.76 929.034 1413.31 936.764C1418.25 941.236 1430.91 956.379 1427.93 950.415" stroke="black" stroke-width="16" stroke-linecap="round"/>
<path d="M972.157 952C972.364 951.974 978.95 943.174 979.291 942.752C988.794 930.999 997.235 918.5 1005.89 906.203C1007.96 903.261 1026.37 904.742 1030.02 904.441C1040.37 903.587 1050.28 904.056 1060.49 904.441C1069.96 904.798 1074.02 913.64 1079.78 920.911C1086.91 929.908 1109.66 955.135 1104.53 944.866" stroke="black" stroke-width="16" stroke-linecap="round"/>
<path d="M1154.47 741.948C1145.1 750.274 1136.89 758.032 1129.98 769.162C1119.9 785.398 1114.76 800.651 1116.15 820.068C1117.3 835.977 1125.37 847.024 1134.47 859.436C1140.73 867.974 1147.14 876.094 1156.01 882.114C1166.91 889.516 1182.12 888.891 1194.71 888.191C1220.84 886.74 1256.19 877.55 1270.81 853.623C1292.07 818.826 1278.19 760.388 1239.19 744.678C1221.78 737.667 1206.95 733.036 1187.93 734.198C1177.5 734.835 1169.05 738.698 1159.22 741.156" stroke="black" stroke-width="16" stroke-linecap="round"/>
<path d="M1223.43 791.092C1225.39 775.361 1207.98 764.751 1193.13 765.904C1181.77 766.786 1166.16 776.569 1168.91 790.3C1171.3 802.236 1186.42 809.307 1196.92 812.406C1204.28 814.577 1221.25 813.073 1226.42 819.627C1230.97 825.395 1228.29 834.384 1225.05 839.84C1213.92 858.625 1183 857.534 1172.7 838.651" stroke="black" stroke-width="16" stroke-linecap="round"/>
<path d="M1197.27 756.217C1195.69 772.041 1198.41 788.082 1198.5 804.04C1198.6 820.204 1197 836.329 1196.83 852.479C1196.77 857.399 1198.06 872.107 1198.06 867.187" stroke="black" stroke-width="16" stroke-linecap="round"/>
<path d="M1009.41 719.755C1009.41 688.988 1010.4 781.293 1009.81 812.054C1009.43 831.49 1008.01 850.777 1007.21 870.181C1006.69 882.629 1007.97 896.969 1003.07 908.404" stroke="black" stroke-width="16" stroke-linecap="round"/>
<path d="M1072.82 723.719C1072.54 729.173 1070.87 734.398 1070.62 740.012C1069.25 770.573 1071.96 801.127 1070.62 831.694C1069.9 848.208 1069.67 864.494 1070.45 881.015C1070.86 889.804 1070.96 897.617 1068.86 906.027" stroke="black" stroke-width="16" stroke-linecap="round"/>
<path d="M1069.65 718.963C1072.98 715.164 1068.07 728.975 1068.07 734.023" stroke="black" stroke-width="16" stroke-linecap="round"/>
<path d="M1011 720.548C1007.63 720.968 1017.02 722.513 1017.82 722.441C1032.26 721.142 1046.74 720.479 1061.2 719.403C1062.39 719.314 1070.44 719.736 1069.65 718.17" stroke="black" stroke-width="16" stroke-linecap="round"/>
<path d="M1099.77 680.123C1099.43 681.829 1097.62 682.557 1096.6 683.822C1087.58 694.982 1078.82 706.328 1069.65 717.377" stroke="black" stroke-width="16" stroke-linecap="round"/>
<path d="M984.84 682.5C975.09 674.144 999.676 703.491 1007.83 713.413" stroke="black" stroke-width="16" stroke-linecap="round"/>
<path d="M1299.52 684.879C1300.51 684.879 1302.39 689.701 1302.87 690.427C1309.88 701.097 1317.57 711.265 1324.09 722.133" stroke="black" stroke-width="16" stroke-linecap="round"/>
<path d="M1328.05 720.549C1347.88 720.549 1367.73 721.032 1387.5 719.756" stroke="black" stroke-width="16" stroke-linecap="round"/>
<path d="M1412.87 683.293C1420.49 670.978 1394.79 705.928 1385.92 717.377" stroke="black" stroke-width="16" stroke-linecap="round"/>
<path d="M1325.68 729.268C1320.37 787.643 1330.57 846.9 1324.09 905.234" stroke="black" stroke-width="16" stroke-linecap="round"/>
<path d="M1387.5 730.059C1385.83 765.168 1386.71 800.204 1386.97 835.48C1387.16 860.258 1387.23 886.947 1384.33 911.574" stroke="black" stroke-width="16" stroke-linecap="round"/>
<path d="M946 636.527C946 657.223 949.539 680.018 973.302 681.531C997.136 683.049 1020.88 682.189 1044.73 681.751C1127.2 680.238 1209.73 671.215 1292.39 675.807C1323.61 677.541 1354.89 679.967 1386.14 680.959C1400.7 681.421 1414.73 680.358 1428.9 676.952C1448.89 672.142 1449.33 652.158 1449.33 634.941" stroke="black" stroke-width="16" stroke-linecap="round"/>
<path d="M947.585 630.978C992.639 630.978 1038.13 629.853 1083.26 628.688C1145.28 627.088 1207.37 629.595 1269.4 627.984C1315.96 626.774 1362.77 629.13 1409.3 630.141C1421.77 630.413 1434.72 631.771 1446.95 631.771" stroke="black" stroke-width="16" stroke-linecap="round"/>
<path d="M949.171 628.601C950.531 627.488 952.324 626.91 953.927 626.223" stroke="black" stroke-width="16" stroke-linecap="round"/>
<path d="M952.341 628.601C954.542 628.401 956.707 627.31 958.638 626.355C973.092 619.209 987.25 611.13 1001.04 602.796C1013.44 595.306 1025.18 586.796 1037.51 579.193C1053.69 569.214 1071.17 562.175 1088.1 553.652C1112.64 541.299 1136.98 528.581 1159.27 512.567C1169.2 505.425 1185.07 504.781 1196.43 500.237C1206.54 496.194 1216.17 503.025 1225.19 506.93C1234.41 510.926 1243.71 513.865 1253.5 516.089C1267.81 519.34 1278.14 527.241 1289.74 535.685C1301.04 543.912 1313.87 550.097 1325.63 557.659C1340.25 567.059 1353.68 578.118 1368.22 587.559C1386.44 599.391 1407.72 610.997 1428.37 617.944C1435.13 620.218 1453.68 630.971 1447.74 627.016" stroke="black" stroke-width="16" stroke-linecap="round"/>
<path d="M1189.34 542.203C1181.37 542.203 1171.1 552.23 1168.03 558.496C1157.59 579.78 1180.39 602.584 1201.58 600.286C1227.02 597.529 1228.14 579.081 1223.43 558.232C1219.39 540.403 1198.05 541.633 1184.59 545.374" stroke="black" stroke-width="16" stroke-linecap="round"/>
<path d="M948.021 956.283C944.305 968.359 948.581 983.826 949.487 995.868" stroke="black" stroke-width="5" stroke-linecap="round"/>
<path d="M940.69 635.502L945.089 632.57" stroke="black" stroke-width="5" stroke-linecap="round"/>
<path d="M948.754 956.283C948.999 954.321 980.737 953.955 981.252 953.921C1017.67 951.481 1053.43 952.267 1089.86 952.984C1139.9 953.969 1190.07 953.91 1240.1 954.084C1280.15 954.222 1320.21 952.692 1360.19 950.826C1377.9 949.999 1395.59 951.611 1413.26 950.785C1417.02 950.609 1440.42 947.813 1442.09 951.151" stroke="black" stroke-width="5" stroke-linecap="round"/>
<path d="M1441.36 952.617C1447.34 953.281 1441.09 992.401 1440.63 996.6" stroke="black" stroke-width="5" stroke-linecap="round"/>
<path d="M950.22 998.067C984.335 998.067 1018.3 1002.55 1052.52 1002.3C1128.03 1001.76 1203.52 998.926 1279.03 1000.1C1316.86 1000.69 1354.56 1001.84 1392.25 998.067C1407.75 996.516 1423.87 997.319 1439.16 995.135" stroke="black" stroke-width="5" stroke-linecap="round"/>
<path d="M972.211 954.084C978.423 952.22 985.518 937.332 988.501 932.988C994.18 924.719 1000.41 918.336 1006.66 910.834" stroke="black" stroke-width="5" stroke-linecap="round"/>
<path d="M1010.33 907.17C1004.23 913.266 1036.65 911.568 1039.08 911.568C1046.08 911.568 1053.02 910.835 1060.01 910.835C1061.34 910.835 1065.19 910.835 1061.64 910.835" stroke="black" stroke-width="5" stroke-linecap="round"/>
<path d="M1060.18 911.568C1070.46 924.652 1079.98 938.241 1089.5 951.886" stroke="black" stroke-width="5" stroke-linecap="round"/>
<path d="M1289.62 951.152C1292.55 950.827 1295.63 943.781 1296.71 942.193C1303.6 932.052 1311.11 923.065 1319.67 914.5" stroke="black" stroke-width="5" stroke-linecap="round"/>
<path d="M1322.61 911.568C1329.89 915.941 1383.45 911.374 1383.45 913.767" stroke="black" stroke-width="5" stroke-linecap="round"/>
<path d="M1385.65 914.5C1385.76 915.429 1386.54 916.736 1387.11 917.595C1395.04 929.481 1405.75 942.46 1416.44 951.885" stroke="black" stroke-width="5" stroke-linecap="round"/>
<path d="M1296.22 687.989C1298.28 687.76 1297.99 688.155 1299.23 690.351C1305.79 702.007 1317.18 711.26 1325.54 721.709" stroke="black" stroke-width="5" stroke-linecap="round"/>
<path d="M1329.2 721.709C1345.81 721.709 1362.41 723.175 1379.05 723.175" stroke="black" stroke-width="5" stroke-linecap="round"/>
<path d="M1413.5 685.057C1411.45 685.467 1410.31 688.08 1409.27 689.618C1400.85 702.004 1389.38 712.418 1379.05 723.175" stroke="black" stroke-width="5" stroke-linecap="round"/>
<path d="M1322.61 721.709C1322.61 757.821 1320.62 793.809 1322.65 829.955C1323.7 848.699 1324.07 867.388 1324.07 886.155C1324.07 892.864 1325.18 900.721 1323.34 907.169" stroke="black" stroke-width="5" stroke-linecap="round"/>
<path d="M1381.98 721.709C1383.64 721.916 1383.55 726.767 1383.61 727.899C1384.11 737.582 1382.88 747.374 1382.8 757.058C1382.66 772.626 1383.96 788.113 1384.75 803.647C1386.03 828.915 1384.44 853.692 1382.88 878.906C1382.23 889.332 1382.7 901.329 1378.32 910.834" stroke="black" stroke-width="5" stroke-linecap="round"/>
<path d="M976.61 683.59C972.361 687.367 997.665 710.106 1000.15 712.871C1003.66 716.775 1008.63 724.569 1014.4 724.641C1027.04 724.798 1039.66 724.111 1052.28 723.501C1064.7 722.9 1068.43 719.383 1076.96 709.328C1080.92 704.654 1095.31 690.053 1092.43 682.857" stroke="black" stroke-width="5" stroke-linecap="round"/>
<path d="M1003.73 725.375C1002.86 725.499 1003.92 726.579 1004.1 727.045C1005.39 730.489 1004.61 736.958 1004.55 739.954C1004.17 756.901 1003.85 773.785 1004.26 790.738C1005.22 829.914 1009.77 870.468 1004.47 909.369" stroke="black" stroke-width="5" stroke-linecap="round"/>
<path d="M1070.44 720.977C1070.44 754.478 1068.88 788.143 1068.73 821.729C1068.59 850.912 1069.1 881.027 1066.04 910.102" stroke="black" stroke-width="5" stroke-linecap="round"/>
<path d="M976.61 679.925C978.401 676.342 1004.13 678.446 1005.69 678.419C1041.1 677.794 1076.48 676.307 1111.9 677.441C1164.63 679.13 1217.48 684.307 1270.23 681.717C1316.35 679.454 1362.16 682.858 1408.21 682.858C1421.11 682.858 1443.51 681.703 1448.69 666.731C1451.87 657.531 1448.61 647.982 1450.89 638.875" stroke="black" stroke-width="5" stroke-linecap="round"/>
<path d="M943.623 633.744C944.093 633.811 943.611 638.511 943.663 639.323C944.29 649.039 946.252 661.169 952.053 669.215C959.603 679.689 979.17 684.035 989.804 675.528" stroke="black" stroke-width="5" stroke-linecap="round"/>
<path d="M940.69 634.477C995.718 634.477 1050.51 631.2 1105.63 632.848C1164.42 634.606 1223.48 632.863 1282.21 635.943C1322.99 638.082 1364.27 630.779 1404.95 634.477C1418.56 635.715 1432.2 635.771 1445.84 636.513C1447.29 636.592 1457.69 637.546 1455.29 635.943" stroke="black" stroke-width="5" stroke-linecap="round"/>
<path d="M940.69 636.97C939.222 637.154 940.385 636.514 941.505 635.83C954.43 627.931 966.806 619.159 979.786 611.314C1001.44 598.228 1024.17 587.419 1045.43 573.644C1064.67 561.179 1084.87 549.85 1104.77 538.457C1119.1 530.251 1133.37 522.344 1148.14 514.959C1159.16 509.452 1169.66 503.253 1181.82 500.665C1202.73 496.216 1220.25 501.086 1239.04 510.48C1263.01 522.467 1283.09 539.814 1306.89 551.774C1329.9 563.342 1351.54 577.736 1372.49 592.662C1388.62 604.153 1406.2 614.226 1424.13 622.309C1430.78 625.307 1437.54 627.814 1444.54 629.803C1445.73 630.144 1453.86 633.387 1453.09 631.839" stroke="black" stroke-width="5" stroke-linecap="round"/>
<path d="M1174.53 549.737C1165.44 550.646 1163.15 568.184 1163.86 574.497C1166.56 598.312 1191 608.1 1212.28 600.479C1232.01 593.417 1240.09 570.123 1223.93 554.624C1208.94 540.244 1189.91 543.145 1172.33 549.004" stroke="black" stroke-width="5" stroke-linecap="round"/>
<path d="M1136.41 757.188C1125.16 769.69 1120.45 790.565 1120.04 806.71C1119.25 838.451 1134.09 862.632 1157.83 882.213C1175.37 896.676 1196.48 892.498 1216.97 887.507C1237.37 882.537 1258.22 871.272 1267.22 851.588C1275.4 833.706 1272.99 808.372 1266.77 790.094C1260.08 770.419 1244.23 754.308 1225.27 746.152C1196.91 733.944 1159.25 742.524 1136.41 762.32" stroke="black" stroke-width="5" stroke-linecap="round"/>
<path d="M1219.98 795.306C1219.98 775.817 1202.84 768.085 1185.65 775.147C1173.18 780.268 1167.26 791.864 1174.53 804.347C1181.08 815.582 1190.84 817.209 1203.36 818.03C1210.63 818.507 1222.99 821.828 1224.66 830.207C1226.62 840.009 1227.23 847.871 1219 855.171C1209.25 863.823 1193.95 862.727 1182.39 860.18C1170.04 857.46 1169.4 850.424 1169.4 839.289" stroke="black" stroke-width="5" stroke-linecap="round"/>
<path d="M1194.32 761.586C1191.85 778.918 1193.79 796.989 1194.77 814.528C1195.93 835.244 1197.25 856.006 1198.72 876.674" stroke="black" stroke-width="5" stroke-linecap="round"/>
<path d="M1559.28 409.349C1561.47 408.872 1563.62 407.643 1565.8 407.017C1584.49 401.645 1603.84 398.51 1622.76 394.045C1659.47 385.382 1696.93 380.305 1733.67 371.692C1761.15 365.249 1788.99 360.646 1816.55 354.639C1826.18 352.538 1835.91 350.779 1845.11 347.148C1848.37 345.864 1850.22 344.946 1851.22 341.517C1852.59 336.787 1848.59 327.942 1844.31 325.826C1839.28 323.342 1832.97 324.492 1827.55 324.369C1818.65 324.168 1809.72 325.178 1800.84 325.74C1791.84 326.311 1782.99 328.348 1774.07 329.652C1766.63 330.741 1759.11 331.184 1751.67 332.461C1740.51 334.379 1729.23 336.257 1717.96 337.433" stroke="black" stroke-width="15" stroke-linecap="round"/>
<path d="M1565.85 406.097C1560.84 407.188 1554.88 406.424 1551.05 402.469C1547.14 398.425 1546.04 390.394 1551.28 387.042C1563.92 378.952 1578.69 375.299 1593.15 371.921C1608.46 368.345 1623.26 362.901 1638.43 358.865C1647.97 356.326 1657.27 351.573 1666.86 349.481" stroke="black" stroke-width="15" stroke-linecap="round"/>
<path d="M1670.17 318.715C1660.08 321.894 1662.69 343.006 1667.09 349.129C1675.45 360.757 1696.91 360.489 1706.11 350.386C1714.22 341.478 1714.54 321.066 1703.64 313.999C1692.17 306.562 1676.47 307.509 1667.38 318.414" stroke="black" stroke-width="15" stroke-linecap="round"/>
<path d="M1606.42 395.885C1605.17 396.305 1605.13 398.855 1604.98 399.84C1602.7 414.328 1600.25 428.518 1596.39 442.684C1592.47 457.013 1587.29 470.95 1583.6 485.329C1581.3 494.308 1578.22 503.544 1577.51 512.833C1577.5 512.982 1575.72 524.409 1576.53 524.807C1578.83 525.949 1586.5 522.96 1588.8 522.284C1597.21 519.81 1606.12 518.914 1614.67 517.05C1625.57 514.674 1636 510.125 1646.89 507.752C1655.18 505.944 1663.73 505.2 1672.08 503.6C1674.06 503.222 1682.24 503.08 1683.52 501.082" stroke="black" stroke-width="15" stroke-linecap="round"/>
<path d="M1604.28 398.629C1604.8 397.918 1605.58 398.345 1606.46 398.155" stroke="black" stroke-width="15" stroke-linecap="round"/>
<path d="M1606.04 394.146C1606.31 395.401 1607.07 396.461 1607.78 397.509C1617.89 412.375 1627.18 427.678 1638.09 441.991C1647.78 454.707 1658.04 466.88 1668.59 478.893C1674.21 485.292 1679.81 490.886 1684.25 498.19" stroke="black" stroke-width="15" stroke-linecap="round"/>
<path d="M1578.54 524.873C1582.32 535.027 1589.56 546.081 1598.26 552.694C1605.42 558.141 1617.06 559.081 1625.78 559.897C1637.94 561.038 1649.21 554.303 1660.59 551.601C1669.35 549.521 1676.63 534.397 1679.58 526.875C1681.17 522.824 1686.52 508.436 1682.44 504.501" stroke="black" stroke-width="15" stroke-linecap="round"/>
<path d="M1792.37 357.177C1785.78 367.431 1786.93 382.359 1784.5 393.945C1782.15 405.123 1780.2 416.517 1776.61 427.379C1774.04 435.172 1771.44 442.695 1769.61 450.706C1767.46 460.083 1764.66 468.941 1763.07 478.485C1762.83 479.884 1763.19 484.689 1762.56 485.676" stroke="black" stroke-width="15" stroke-linecap="round"/>
<path d="M1762.84 486.979C1761.37 488.23 1767.76 486.144 1768.27 485.999C1788.76 480.133 1809.86 475.016 1830.81 471.026C1844.82 468.36 1887.18 462.598 1872.98 463.883" stroke="black" stroke-width="15" stroke-linecap="round"/>
<path d="M1793.71 359.156C1794.27 359.097 1795 359.653 1795.47 359.959C1796.77 360.794 1797.89 362.684 1798.72 363.83C1802.91 369.615 1806.53 375.745 1810.43 381.712C1815.63 389.644 1820.61 397.989 1826.06 405.72C1833.06 415.649 1842.26 423.978 1849.57 433.728C1855.46 441.599 1861.9 449.242 1868.24 456.744C1869.8 458.591 1870.96 460.716 1872.58 462.5C1873.72 463.754 1875.08 464.532 1872.89 463.445" stroke="black" stroke-width="15" stroke-linecap="round"/>
<path d="M1762.22 486.205C1762.87 486.146 1763.49 487.853 1763.83 488.358C1768.19 494.99 1771.93 502.402 1777.74 507.986C1790.9 520.634 1812.76 522.057 1828.99 515.707C1848.55 508.058 1880.02 488.554 1870.53 463.053" stroke="black" stroke-width="15" stroke-linecap="round"/>
<path d="M1683.72 380.857C1686.14 380.638 1694.22 422.994 1695.15 427.026C1700.74 451.284 1706.03 475.47 1710.58 499.938C1713.06 513.242 1715.5 526.609 1719.24 539.63C1720.64 544.543 1722.09 549.367 1722.91 554.408" stroke="black" stroke-width="15" stroke-linecap="round"/>
<path d="M1715.48 376.209C1715.99 377.84 1716.52 379.131 1716.91 380.905C1721.67 402.737 1727.57 424.108 1733.21 445.713C1741.01 475.567 1744.86 506.254 1750.89 536.472C1752.05 542.258 1753.42 548.197 1754.66 553.86" stroke="black" stroke-width="15" stroke-linecap="round"/>
<path d="M1723.84 552.384C1724.42 555.054 1724.67 557.524 1725.54 560.206" stroke="black" stroke-width="15" stroke-linecap="round"/>
<path d="M1689.08 591.366C1681.72 587.227 1686.52 572.748 1692.48 569.584C1703.02 563.991 1714.81 562.345 1726.1 558.967C1736.87 555.746 1748.16 555.044 1759.22 553.317C1765.68 552.307 1772.26 552.159 1778.69 550.893C1782.35 550.173 1786.09 550.727 1789.39 552.633C1793.64 555.081 1795.64 558.109 1797.52 562.521C1798.21 564.148 1801.59 571.792 1799.74 572.71" stroke="black" stroke-width="15" stroke-linecap="round"/>
<path d="M1681.27 628.584C1680.34 624.317 1678.56 620.161 1677.58 615.832C1675.57 607.004 1681.24 601.581 1688.96 598.226C1705.96 590.844 1724.72 586.409 1742.72 582.411C1756.19 579.42 1769.65 576.675 1783.3 574.704C1794.31 573.116 1810.42 567.608 1819.36 577.112C1821.47 579.35 1829.75 595.899 1826.95 597.285" stroke="black" stroke-width="15" stroke-linecap="round"/>
<path d="M1682.57 628.297C1682.77 627.498 1685.94 626.504 1686.65 626.244C1701.18 620.891 1716.61 616.852 1731.63 613.076C1750.4 608.355 1769.49 606.218 1788.54 603.023C1799.42 601.199 1809.78 598.293 1820.51 595.954C1822.16 595.595 1830.73 593.847 1829.51 594.446" stroke="black" stroke-width="15" stroke-linecap="round"/>
<path d="M1719.32 1051.62C1704.18 1069.93 1705.42 1102.35 1702.74 1124.36C1699.04 1154.89 1693.56 1185.18 1689.68 1215.69C1685.73 1246.78 1685.05 1277.91 1682.48 1309.09C1680.04 1338.72 1674.05 1367.84 1670.12 1397.26C1668.94 1406.05 1669.83 1418.54 1666.3 1426.71" stroke="black" stroke-width="6" stroke-linecap="round"/>
<path d="M1640.37 1381.16C1640.87 1379.37 1705.17 1390.82 1713.28 1391.96C1767.09 1399.48 1821.17 1405.36 1875.21 1410.83C1893.24 1412.65 1911.4 1413.1 1929.23 1416.67C1944.38 1419.71 1959.27 1422.46 1974.61 1424.44C1979.35 1425.06 1984.02 1425.82 1988.69 1426.84C1990.66 1427.27 1999.18 1429.44 1997.73 1428.18" stroke="black" stroke-width="6" stroke-linecap="round"/>
<path d="M1729.1 1227.58L1729.83 1227.67" stroke="black" stroke-width="6" stroke-linecap="round"/>
<path d="M1729.99 1232.13C1732.42 1231.92 1740.24 1225.06 1741.64 1224.1C1754.94 1214.98 1766.39 1204.44 1777.99 1193.32C1789.81 1181.99 1802.92 1173.64 1816.49 1164.67C1825.93 1158.43 1836.28 1151.2 1844.25 1143.05C1850.18 1137 1851.25 1149.22 1854.32 1153.57C1866.54 1170.87 1882.6 1184.38 1895.8 1200.72C1901.44 1207.71 1906.36 1214.17 1912.43 1220.6C1918.49 1227.03 1933.31 1208.09 1938.11 1203.9C1947.21 1195.96 1958.05 1189.79 1966.97 1181.73C1976.19 1173.4 1986.51 1165.65 1996.43 1158.16C1999.96 1155.49 2006.44 1149.5 2010.99 1148.61" stroke="black" stroke-width="6" stroke-linecap="round"/>
<path d="M1982.3 1130.09C1968.98 1131.46 2002.32 1137.63 2004.31 1137.96C2010.92 1139.06 2022.83 1137.22 2021.66 1146.21C2020.36 1156.28 2016.88 1166 2015.56 1176.22C2015.29 1178.23 2014.59 1192.11 2013.84 1183.77" stroke="black" stroke-width="6" stroke-linecap="round"/>
<path d="M1731.43 1278.22C1727.29 1296.78 1729.51 1316.45 1725.2 1335.23C1723.93 1340.71 1719.29 1354.32 1726.24 1358.6C1733.74 1363.21 1746.77 1360.89 1755.37 1362C1756.67 1362.17 1760.3 1363.49 1760.6 1361.61C1761.42 1356.42 1761.95 1351.17 1762.63 1345.96C1763.86 1336.46 1762.73 1326.66 1764.26 1317.14C1765.97 1306.55 1773.56 1291.34 1768.87 1280.6C1767.83 1278.23 1750.04 1279.15 1746.58 1278.7C1741.6 1278.05 1736.26 1278.37 1731.33 1278.94" stroke="black" stroke-width="6" stroke-linecap="round"/>
<path d="M1793.63 1255.18C1796.8 1262.22 1791.56 1276.2 1790.33 1283.17C1787.21 1300.84 1784.08 1318.59 1781.63 1336.37C1780.96 1341.25 1775.71 1359.41 1780.8 1363.11C1790.14 1369.89 1802.42 1367.04 1813.02 1369.63C1815.97 1370.35 1820.49 1371.71 1821.55 1368.22C1823.28 1362.52 1823.63 1355.07 1823.98 1349.17C1824.59 1338.83 1822.94 1327.87 1824.81 1317.65C1827.37 1303.68 1830.61 1289.67 1832.44 1275.58C1833.36 1268.44 1836.92 1260.92 1827.29 1258.14C1822.99 1256.9 1817.41 1256.45 1812.97 1256.37C1809 1256.3 1799.25 1258.96 1796.35 1257.01" stroke="black" stroke-width="6" stroke-linecap="round"/>
<path d="M1853.1 1293.23C1854.27 1292.2 1852.63 1294 1852.3 1294.94C1850.8 1299.22 1851.3 1304.86 1851.02 1309.25C1850.31 1320.45 1849.14 1331.62 1848.16 1342.8C1847.78 1347.19 1841.12 1374.58 1849.46 1375.66C1856.75 1376.61 1866.89 1377.06 1873.62 1379.9C1878.29 1381.88 1879.35 1378.51 1880.29 1374.43C1882.69 1364.14 1881.66 1352.79 1883.02 1342.26C1884.83 1328.29 1886.64 1314.33 1888.45 1300.36C1889.03 1295.82 1861.8 1296.58 1856.46 1295.89" stroke="black" stroke-width="6" stroke-linecap="round"/>
<path d="M1923.83 1255.76C1917.69 1265.32 1917.08 1279.99 1915.59 1290.8C1913.2 1308.15 1911.39 1325.57 1908.28 1342.82C1906.62 1352.01 1905.71 1361.36 1904.51 1370.62C1904.11 1373.72 1903.04 1376.39 1905.34 1378.83C1911.49 1385.35 1929.07 1383.29 1937.42 1384.88C1949.76 1387.22 1944.95 1372.31 1945.25 1363.48C1946.06 1339.2 1950.81 1316.09 1953.91 1292.14C1954.48 1287.74 1963.08 1260.64 1957.79 1258.72C1946.83 1254.75 1934.21 1263.03 1923.8 1261.68" stroke="black" stroke-width="6" stroke-linecap="round"/>
<path d="M1746.1 1281.97C1742.1 1287.91 1737.54 1293.41 1733.11 1299.03" stroke="black" stroke-width="6" stroke-linecap="round"/>
<path d="M1763.5 1285.16C1765.85 1284.34 1759.98 1288.69 1758.37 1290.59C1751.26 1298.93 1744.43 1307.53 1737.48 1316" stroke="black" stroke-width="6" stroke-linecap="round"/>
<path d="M1763.21 1298.24C1753.57 1312.56 1740.53 1325.18 1729.42 1338.39" stroke="black" stroke-width="6" stroke-linecap="round"/>
<path d="M1762.44 1315.02C1752.53 1326.4 1743.75 1338.91 1734.38 1350.75" stroke="black" stroke-width="6" stroke-linecap="round"/>
<path d="M1760.64 1332.59C1761.29 1332.77 1759.23 1334.85 1759.07 1335.04C1753.76 1341.49 1748.67 1348.07 1743.7 1354.77" stroke="black" stroke-width="6" stroke-linecap="round"/>
<path d="M1813.53 1260.7C1813.32 1261.55 1812.32 1262.18 1811.75 1262.77C1806.69 1268 1801.26 1272.73 1795.87 1277.63" stroke="black" stroke-width="6" stroke-linecap="round"/>
<path d="M1827.82 1262.56C1826.79 1262.65 1825.14 1265.14 1824.75 1265.54C1815.49 1275.32 1805.32 1282.59 1794.66 1290.6" stroke="black" stroke-width="6" stroke-linecap="round"/>
<path d="M1827.12 1278.87C1827.1 1278.07 1825.23 1280.72 1825.15 1280.8C1820.61 1285.22 1814.98 1288.78 1809.98 1292.58C1803.53 1297.47 1798 1302.83 1791.93 1308.05" stroke="black" stroke-width="6" stroke-linecap="round"/>
<path d="M1825.72 1293.22C1824.81 1293.3 1823.87 1294.73 1823.27 1295.29C1811.87 1306.04 1799.62 1315.58 1787.36 1325.27" stroke="black" stroke-width="6" stroke-linecap="round"/>
<path d="M1824.74 1308.08C1823.67 1308.91 1823.09 1310 1822.17 1310.98C1811.38 1322.55 1798.26 1332.41 1786.47 1342.97" stroke="black" stroke-width="6" stroke-linecap="round"/>
<path d="M1821.67 1324.56C1821.27 1325.72 1819.64 1326.85 1818.82 1327.68C1810.4 1336.11 1801.11 1343.58 1791.97 1351.18" stroke="black" stroke-width="6" stroke-linecap="round"/>
<path d="M1821.94 1340.53C1821.93 1339.67 1820.55 1341.78 1820.53 1341.81C1814.19 1349.1 1806.53 1355.4 1799.48 1361.99" stroke="black" stroke-width="6" stroke-linecap="round"/>
<path d="M1870.32 1299.93C1865.14 1303.92 1860.87 1308.87 1856.36 1313.59" stroke="black" stroke-width="6" stroke-linecap="round"/>
<path d="M1882.3 1301.48C1881.91 1303.07 1880.14 1304.53 1879.13 1305.63C1871.9 1313.57 1864.19 1320.81 1856.36 1328.12" stroke="black" stroke-width="6" stroke-linecap="round"/>
<path d="M1881.72 1316.87C1873.56 1327.65 1862.51 1336.82 1853.05 1346.43" stroke="black" stroke-width="6" stroke-linecap="round"/>
<path d="M1878.87 1335.25C1878.94 1334.64 1877.46 1336.48 1877.34 1336.62C1869.44 1344.67 1861.87 1353.06 1853.96 1361.08" stroke="black" stroke-width="6" stroke-linecap="round"/>
<path d="M1877.98 1352.94C1879 1353.21 1877.28 1354.72 1877.04 1355.01C1871.74 1361.16 1866.62 1367.38 1861.69 1373.8" stroke="black" stroke-width="6" stroke-linecap="round"/>
<path d="M1936.77 1264.48C1942.3 1260.71 1925.92 1272.32 1920.29 1275.94" stroke="black" stroke-width="6" stroke-linecap="round"/>
<path d="M1954.02 1261.56C1951.89 1262.55 1949.91 1264.7 1948.17 1266.14C1937.05 1275.32 1925.75 1284.18 1914.34 1292.98" stroke="black" stroke-width="6" stroke-linecap="round"/>
<path d="M1950.97 1274.29C1941.6 1284.3 1930.69 1292.92 1920.23 1301.71" stroke="black" stroke-width="6" stroke-linecap="round"/>
<path d="M1947.84 1291.22C1947.13 1293.12 1945.1 1295.04 1943.81 1296.4C1933.82 1306.95 1923 1316.61 1912.34 1326.46" stroke="black" stroke-width="6" stroke-linecap="round"/>
<path d="M1946.37 1309.78C1932.86 1320.19 1922.8 1335.1 1909.77 1346.28" stroke="black" stroke-width="6" stroke-linecap="round"/>
<path d="M1946.69 1329.03C1936.56 1343.36 1920.99 1355.48 1907.21 1366.1" stroke="black" stroke-width="6" stroke-linecap="round"/>
<path d="M1945.86 1346.27C1936.54 1353.83 1928.64 1364.06 1919.98 1372.44" stroke="black" stroke-width="6" stroke-linecap="round"/>
<path d="M1945.66 1365.93C1940.84 1365.84 1933.98 1376.63 1931.25 1379.53" stroke="black" stroke-width="6" stroke-linecap="round"/>
<path d="M1717.79 1064.71C1718.1 1047.35 1710.95 1098.87 1709.76 1116.19C1704.95 1186.07 1691.36 1255.32 1679.65 1324.29C1675.62 1347.99 1671.23 1371.94 1668.81 1395.88C1668.31 1400.81 1670.02 1412.54 1666.74 1416.3" stroke="black" stroke-width="17" stroke-linecap="round"/>
<path d="M1651.53 1382.49C1652.11 1382.04 1652.07 1382.44 1652.96 1382.77C1663.45 1386.69 1674.62 1388.87 1685.65 1390.65C1718.62 1395.95 1751.94 1397.72 1784.9 1403.3C1807.45 1407.11 1829.9 1407.01 1852.57 1409.27C1869.78 1410.99 1886.87 1414.05 1904.12 1415.2C1930.15 1416.92 1955.86 1421.49 1981.75 1424.64C1987.34 1425.32 1992.96 1424.87 1998.63 1425.6" stroke="black" stroke-width="17" stroke-linecap="round"/>
<path d="M1731.87 1234.92C1744.03 1227.89 1754.13 1216.23 1764.93 1207.39C1788.79 1187.85 1816.02 1172.78 1839.68 1153.15C1842.73 1150.62 1848.28 1142.55 1852.63 1147.14C1858.5 1153.34 1861.37 1161.89 1866.33 1168.75C1871.46 1175.85 1876.24 1181.41 1883.23 1186.69C1894.12 1194.9 1904.47 1203.12 1911.44 1215C1912.78 1217.29 1914.48 1218.9 1916.16 1220.82C1916.84 1221.59 1926.91 1211.85 1928.11 1210.8C1938.62 1201.59 1948.42 1192.11 1960.27 1184.62C1971.64 1177.45 1982.17 1169.62 1994.07 1163.22C1998.69 1160.73 2013.39 1156.51 2015.74 1151.67" stroke="black" stroke-width="17" stroke-linecap="round"/>
<path d="M1978.52 1136.44C1990.06 1134.81 2003.16 1138.4 2014.68 1139.89C2021.02 1140.72 2018.05 1145.79 2016.89 1151.2C2015.34 1158.42 2013.45 1165.5 2012.39 1172.8C2012 1175.46 2010.06 1178.13 2011.39 1180.49" stroke="black" stroke-width="17" stroke-linecap="round"/>
<path d="M1731.21 1282.59C1730.2 1290.39 1731.06 1298.22 1730.48 1306.07C1729.59 1318.04 1726.91 1330.07 1724.29 1341.77C1723.2 1346.67 1720.2 1356.83 1727.49 1358.61C1737.07 1360.95 1747.1 1359.96 1756.88 1361.23C1763.55 1362.09 1763.68 1344.76 1765.11 1339.94C1767.98 1330.29 1771.56 1319.43 1772.4 1309.39C1772.8 1304.66 1776.35 1294.08 1772.86 1289.82C1768.07 1283.96 1753.97 1284.08 1747.24 1284.36C1741.26 1284.61 1735.63 1285.9 1729.85 1283.64" stroke="black" stroke-width="17" stroke-linecap="round"/>
<path d="M1794.72 1260.2C1795.47 1260.3 1784.34 1326.72 1783.31 1334.72C1782.01 1344.75 1780.37 1355.5 1780.19 1365.64C1780.14 1368.17 1780.36 1369.17 1783.02 1369.51C1795.34 1371.11 1807.28 1375.1 1819.64 1376.7C1827.97 1377.78 1827.66 1354.29 1828.59 1348.81C1831.15 1333.74 1833.7 1319.01 1837.27 1304.15C1839.86 1293.34 1841.35 1280.71 1841.26 1269.63C1841.09 1248.72 1805.74 1256.73 1791.74 1254.92" stroke="black" stroke-width="17" stroke-linecap="round"/>
<path d="M1856.18 1296.33C1858.45 1278.75 1847.6 1330.75 1844.26 1348.15C1843.56 1351.78 1838.21 1372.04 1843.63 1374.84C1853.06 1379.73 1863.34 1379.53 1873.56 1380.63C1877.12 1381.01 1882.71 1381.81 1884.11 1377.43C1886.73 1369.21 1888.47 1359.04 1889.57 1350.52C1891.08 1338.87 1893.19 1327.09 1894.09 1315.35C1896 1290.36 1869.62 1294.46 1852.48 1296.46" stroke="black" stroke-width="17" stroke-linecap="round"/>
<path d="M1921.17 1262.49C1917.7 1277.42 1915.44 1292.9 1912.57 1308.15C1909.23 1325.97 1908.71 1343.62 1906.52 1361.49C1905.58 1369.16 1903.64 1377.12 1904.1 1384.85C1904.38 1389.46 1912.25 1388.87 1915.54 1388.78C1922.21 1388.61 1927.93 1390.23 1934.21 1392.43C1937.15 1393.45 1942.7 1397.22 1943.98 1392.67C1946.28 1384.54 1945.31 1375.54 1946.77 1367.21C1948 1360.16 1949.55 1353.27 1949.84 1346.08C1950.43 1331.9 1954.41 1317.91 1956.23 1303.84C1957.65 1292.88 1958.7 1281.84 1961.22 1271.08C1963.35 1261.97 1956.4 1260.39 1948.29 1259.34C1944.86 1258.89 1919.78 1259.09 1919.52 1261.06" stroke="black" stroke-width="17" stroke-linecap="round"/>
<path d="M268.847 1000.39L265.661 1004.07" stroke="black" stroke-width="6" stroke-linecap="round"/>
<path d="M295.827 968.629C288.397 972.61 282.153 977.219 276.01 982.889" stroke="black" stroke-width="6" stroke-linecap="round"/>
<path d="M337.691 1042.23C335.816 1048.84 340.8 1058.89 342.644 1065.06" stroke="black" stroke-width="6" stroke-linecap="round"/>
<path d="M361.377 1160.61C361.981 1167.68 363.593 1173.84 365.71 1180.59" stroke="black" stroke-width="6" stroke-linecap="round"/>
<path d="M476.74 1044.94C471.108 1046.92 484.743 1079.28 485.478 1082.67C491.329 1109.64 489.458 1139.28 477.72 1164.26" stroke="black" stroke-width="6" stroke-linecap="round"/>
<path d="M242.649 1127.59C247.696 1176.45 284.043 1212.04 327.222 1232.77" stroke="black" stroke-width="6" stroke-linecap="round"/>
<path d="M322.669 881.129C328.104 906.183 345.358 981.135 339.923 956.08" stroke="black" stroke-width="6" stroke-linecap="round"/>
<path d="M583.422 829.545C582.321 844.305 589.341 861.546 592.951 875.514C598.719 897.832 606.084 919.691 611.596 942.084C615.277 957.035 615.482 972.746 620.213 987.42C622.751 995.292 626.521 1003.52 627.862 1011.72C629.426 1021.26 629.162 1031.23 631.206 1040.65C631.945 1044.06 634.482 1050.04 631.756 1043.19" stroke="black" stroke-width="6" stroke-linecap="round"/>
<path d="M509.468 1108.56C526.917 1104.78 543.942 1098.53 560.552 1092.01C584.203 1082.72 611.707 1072.54 627.699 1052.04" stroke="black" stroke-width="6" stroke-linecap="round"/>
<path d="M321.224 874.468C321.256 868.307 336.963 854.747 340.242 851.416C354.866 836.561 374.893 829.651 393.829 822.416C415.001 814.326 434.642 808.311 456.833 803.658C471.694 800.543 486.287 801.572 501.323 801.091C521.467 800.448 544.292 798.298 563.425 805.219C568.427 807.029 579.397 814.1 575.393 821.107C574.534 822.611 575.809 823.788 575.313 825.33C574.406 828.152 568.058 831.104 565.715 832.614C553.498 840.485 540.32 844.751 526.829 849.792C499.395 860.044 474.733 873.783 445.792 880.32C413.372 887.643 383.054 889.083 349.881 887.178C340.181 886.622 326.623 876.394 324.537 866.777" stroke="black" stroke-width="6" stroke-linecap="round"/>
<path d="M571.353 815.232C573.566 815.034 574.815 826.604 575.193 828.345" stroke="black" stroke-width="6" stroke-linecap="round"/>
<path d="M576.935 818.006C570.907 814.127 580.374 832.014 583.377 838.523" stroke="black" stroke-width="6" stroke-linecap="round"/>
<path d="M337.286 934.736C355.276 944.871 384.195 943.976 404.454 943.852C433.511 943.675 461.272 942.295 488.654 931.731C511.892 922.766 536.099 917.083 558.799 906.61C570.3 901.304 585.89 894.808 594.44 884.933" stroke="black" stroke-width="6" stroke-linecap="round"/>
<path d="M534.756 889.909C551.369 886.306 575.512 876.402 586.634 862.719" stroke="black" stroke-width="6" stroke-linecap="round"/>
<path d="M547.264 942.981C535.261 949.114 553.548 944.515 557.248 943.085C575.168 936.155 590.961 927.886 602.328 912.111" stroke="black" stroke-width="6" stroke-linecap="round"/>
<path d="M466.009 995.465C468.6 999.006 484.946 993.998 488.147 993.43C501.099 991.133 513.196 986.538 525.929 983.409C544.704 978.794 563.251 972.517 580.837 964.581C590.067 960.416 596.418 954.84 603.687 948.225C606.123 946.007 613.847 940.487 610.627 941.185" stroke="black" stroke-width="6" stroke-linecap="round"/>
<path d="M558.695 1000.27C547.002 1004.61 583.125 993.895 593.92 987.648C602.215 982.848 611.14 969.967 620.418 967.955" stroke="black" stroke-width="6" stroke-linecap="round"/>
<path d="M496.673 1049.58C519.573 1044.61 543.98 1038.86 566.6 1031.87C580.167 1027.67 594.988 1021.55 606.38 1012.95C610.138 1010.11 625.8 1001.08 626.401 995.542" stroke="black" stroke-width="6" stroke-linecap="round"/>
<path d="M570.87 1056.4C567.061 1059.61 570.604 1059.65 573.856 1058.69C585.27 1055.31 596.784 1049.45 607.047 1043.57C615.089 1038.97 621.452 1033.6 628.455 1027.97" stroke="black" stroke-width="6" stroke-linecap="round"/>
<path d="M376.152 870.523C404.397 866.02 432.92 869.167 461.19 863.035" stroke="black" stroke-width="6" stroke-linecap="round"/>
<path d="M251.636 1038.31C234.871 1067.84 228.678 1104.19 238.673 1137.4C251.936 1181.46 286.711 1221.18 331.707 1234.5C358.159 1242.34 388.006 1241.82 413.483 1230.65C425.955 1225.17 435.858 1218.34 446.492 1209.87C452.739 1204.9 458.21 1199 463.897 1193.42C471.324 1186.12 480.162 1179.92 486.7 1171.8C501.527 1153.37 505.776 1136.26 508.623 1112.59C511.299 1090.32 512.281 1064.03 502.383 1043.34C492.997 1023.73 481.973 1007.01 465.581 992.659C457.461 985.551 449.596 977.621 440.681 971.498C428.729 963.29 413.763 961.282 399.717 959.276C379.034 956.323 358.117 959.061 338.058 964.492C316.722 970.268 291.682 978.998 273.858 992.341C252.011 1008.7 247.256 1033.27 236.482 1056.77" stroke="black" stroke-width="16" stroke-linecap="round"/>
<path d="M390.554 1056.86C388.007 1045.12 366.324 1040.38 356.866 1042C338.833 1045.1 328.335 1066.39 333.76 1083.29C338.801 1098.99 351.99 1102.56 366.752 1104.95C385.338 1107.96 425.001 1120.46 408.938 1145.91C401.141 1158.27 387.969 1161.52 374.002 1162.09C361.41 1162.61 344.004 1162.87 341.696 1148.08" stroke="black" stroke-width="16" stroke-linecap="round"/>
<path d="M354.016 1020.89C355.422 1027.37 357.44 1034.02 359.078 1040.55" stroke="black" stroke-width="16" stroke-linecap="round"/>
<path d="M382.586 1159.97C383.287 1159.81 382.823 1160.89 382.954 1161.66C383.816 1166.74 384.536 1171.82 385.462 1176.9" stroke="black" stroke-width="16" stroke-linecap="round"/>
<path d="M301.444 1043.47C297.065 1053.4 291.036 1061.94 288.387 1072.82C284.073 1090.53 282.898 1105.8 287.622 1123.67C297.631 1161.52 327.966 1185.31 366.923 1187.93C411.716 1190.93 450.624 1160.96 457.671 1115.65C461.698 1089.77 452.463 1064.82 436.963 1044.71C426.814 1031.55 415.873 1016.33 399.977 1009.94C381.855 1002.66 360.485 1009.88 342.778 1015.08C327.383 1019.6 308.428 1032.24 298.56 1044.89" stroke="black" stroke-width="16" stroke-linecap="round"/>
<path d="M451.384 1024.52C451.239 1022.9 452.984 1025.32 453.1 1025.48C462.664 1038.39 470.472 1053.66 476.365 1068.54C484.746 1089.71 487.765 1112.17 480.697 1133.9" stroke="black" stroke-width="16" stroke-linecap="round"/>
<path d="M282.594 1173.67C278.069 1175.26 287.142 1182.34 290.675 1185.58C319.802 1212.33 355.331 1220.05 393.464 1217.47" stroke="black" stroke-width="16" stroke-linecap="round"/>
<path d="M336.113 964.114C331.128 935.69 326.167 907.222 320.045 879" stroke="black" stroke-width="16" stroke-linecap="round"/>
<path d="M584.204 827.284C583.901 829.197 584.786 830.725 585.343 832.536C589.13 844.843 591.236 857.746 594.064 870.288C603.153 910.595 606.013 951.187 617.999 990.855C618.471 992.415 635.826 1046.76 631.992 1047.6" stroke="black" stroke-width="16" stroke-linecap="round"/>
<path d="M509.838 1110.01C519.512 1111.82 532.229 1106.72 541.144 1104.28C561.295 1098.78 583.673 1091.99 601.925 1081.52C611.134 1076.24 618.648 1070.78 625.325 1062.66C628.624 1058.64 633.824 1055.77 634.178 1050.31" stroke="black" stroke-width="16" stroke-linecap="round"/>
<path d="M319.384 875.95C323.328 880.223 334.896 883.632 339.876 885.784C357.202 893.272 375.612 894.316 394.169 892.809C434.698 889.517 470.694 877.844 508.129 862.946C531.644 853.588 552.718 845.445 571.257 827.701C583.521 815.965 566.937 808.135 555.978 805.917C532.108 801.085 508.136 801.726 483.897 802.75C458.408 803.827 432.515 808.368 408.392 816.911C379.227 827.24 353.067 839.844 327.096 856.717C321.356 860.446 316.506 862.648 317.012 870.123C317.682 880.031 327.092 880.509 334.925 881.359" stroke="black" stroke-width="16" stroke-linecap="round"/>
<path d="M365.417 874.742C372.702 873.162 381.76 875.722 388.98 875.839C410.62 876.19 429.193 871.285 449.898 866.794" stroke="black" stroke-width="16" stroke-linecap="round"/>
<path d="M590.553 860.233C590.047 858.424 589.313 856.527 587.462 857.844C582.727 861.213 578.606 865.446 573.948 868.934C557.546 881.219 540.252 887.347 521.338 894.403" stroke="black" stroke-width="16" stroke-linecap="round"/>
<path d="M331.189 934.053C331.689 935.475 334.268 937.833 335.396 938.728C347.362 948.219 366.448 950.219 381.127 950.847C419.808 952.502 459.992 944.913 496.899 933.628C520.712 926.346 544.953 918.926 567.056 907.28C579.509 900.718 590.475 890.022 602.87 883.902" stroke="black" stroke-width="16" stroke-linecap="round"/>
<path d="M596.461 913.23C585.249 933.134 563.486 941.484 544.146 951.716" stroke="black" stroke-width="16" stroke-linecap="round"/>
<path d="M607.088 936.464C595.283 954.808 578.405 963.436 558.746 972.004C529.929 984.563 498.691 992.19 468.76 1001.59" stroke="black" stroke-width="16" stroke-linecap="round"/>
<path d="M609.725 967.023C608.75 967.366 607.547 969.596 606.907 970.384C593.256 987.18 569.205 995.298 549.558 1002.42" stroke="black" stroke-width="16" stroke-linecap="round"/>
<path d="M618.067 990.757C616.263 991.148 615.778 992.181 615.099 993.84C610.138 1005.95 601.335 1015.05 589.897 1021.17C562.568 1035.78 533.691 1042.57 504.298 1051.35" stroke="black" stroke-width="16" stroke-linecap="round"/>
<path d="M621.962 1023.43C612.785 1043.06 584.684 1049.85 567.627 1059.96" stroke="black" stroke-width="16" stroke-linecap="round"/>
<path d="M943.652 1384.87C984.092 1395.99 1024.69 1406.26 1064.9 1418.34C1079 1422.57 1093.49 1428.33 1106.27 1435.74C1111.31 1438.66 1119.32 1446.7 1120.94 1452.31C1124.85 1465.85 1113.53 1479.73 1110.12 1492.12C1108.74 1497.16 1107.9 1502.31 1106.51 1507.35C1106.17 1508.59 1104.62 1514.01 1106.16 1510.68" stroke="black" stroke-width="9" stroke-linecap="round"/>
<path d="M946.546 1386.81C941.524 1385.43 936.085 1383.86 931.07 1386.3C921.486 1390.96 918.119 1406.96 914.104 1415.91C908.764 1427.83 908.658 1441.49 905.21 1454.03C902.26 1464.76 918.92 1469.11 927.098 1471.86C957.45 1482.07 989.561 1487.01 1020.53 1495.1C1041.39 1500.56 1062.21 1506.02 1082.96 1511.73C1087.85 1513.07 1092.82 1513.4 1097.26 1511.19C1103.31 1508.18 1105.71 1502.91 1109.14 1497.79" stroke="black" stroke-width="9" stroke-linecap="round"/>
<path d="M968.35 1403.09C967.953 1405.83 1001.21 1411.72 1003.46 1412.3C1018.94 1416.26 1033.66 1422.76 1049.06 1427C1056.01 1428.91 1062.95 1430.82 1069.9 1432.72" stroke="black" stroke-width="9" stroke-linecap="round"/>
<path d="M1101.91 1463.81C1099.4 1472.95 1095.15 1482.91 1091.37 1491.76" stroke="black" stroke-width="9" stroke-linecap="round"/>
<path d="M935.38 1412.88C932.181 1422.41 930.023 1432.36 927.347 1442.09" stroke="black" stroke-width="9" stroke-linecap="round"/>
<path d="M961.41 1465.74C992.899 1474.4 1025.64 1478.83 1057.12 1487.48" stroke="black" stroke-width="9" stroke-linecap="round"/>
<path d="M936.349 1411.43C934.321 1423.34 972.728 1420 971.1 1405.56" stroke="black" stroke-width="9" stroke-linecap="round"/>
<path d="M1067.53 1430.93C1072.54 1435.43 1079.04 1436.73 1085.39 1438.7" stroke="black" stroke-width="9" stroke-linecap="round"/>
<path d="M1087.28 1438.08C1086.76 1439.97 1084.84 1440.72 1084.47 1442.86C1083.78 1446.87 1084.11 1451.97 1085.94 1455.64C1089.23 1462.25 1094.74 1462.18 1100.85 1463.52" stroke="black" stroke-width="9" stroke-linecap="round"/>
<path d="M946.921 1462.33C953.674 1464.18 960.89 1467.33 967.782 1467.49" stroke="black" stroke-width="9" stroke-linecap="round"/>
<path d="M1055 1486.9C1057.37 1487.55 1059.72 1487.97 1061.76 1489.33" stroke="black" stroke-width="9" stroke-linecap="round"/>
<path d="M1061.61 1489.86C1066.43 1484.28 1069.41 1479.23 1077.88 1479.17C1084.86 1479.11 1091.27 1483.42 1091.66 1490.7" stroke="black" stroke-width="9" stroke-linecap="round"/>
<path d="M928.795 1443.06C942.382 1440.08 947.782 1451.14 949.046 1462.91" stroke="black" stroke-width="9" stroke-linecap="round"/>
<path d="M1032.83 1434.53C1030.73 1430.28 1026.79 1427 1021.94 1425.54C1016.44 1423.89 1009.05 1426.47 1006.64 1431.9C1002.7 1440.77 1008.3 1446.65 1016.09 1449.48C1019.84 1450.84 1024.89 1451.68 1027.75 1454.65C1031.05 1458.09 1027.69 1462.87 1023.98 1464.06C1013.65 1467.38 1000.75 1463.04 1000.38 1450.75" stroke="black" stroke-width="9" stroke-linecap="round"/>
<path d="M1023.34 1423.35C1026.29 1412.63 1016.18 1444.42 1013.47 1455.2C1012.54 1458.89 1012.34 1462.99 1010.78 1466.49C1010.01 1468.23 1011.02 1466.2 1012.33 1465.46" stroke="black" stroke-width="9" stroke-linecap="round"/>
<path d="M868.049 1290.24C870.67 1302.47 877.387 1317.33 885.802 1325.74" stroke="black" stroke-width="10" stroke-linecap="round"/>
<path d="M1002.97 1247.63V1272.48" stroke="black" stroke-width="10" stroke-linecap="round"/>
<path d="M1155.65 1279.58C1146.34 1279.58 1131.63 1303.08 1141.45 1307.99" stroke="black" stroke-width="10" stroke-linecap="round"/>
<path d="M1237.32 1418.06C1226.61 1417.3 1216.12 1414.51 1205.36 1414.51" stroke="black" stroke-width="10" stroke-linecap="round"/>
</svg>
