<?xml version="1.0" ?><!DOCTYPE svg  PUBLIC '-//W3C//DTD SVG 1.1//EN'  'http://www.w3.org/Graphics/SVG/1.1/DTD/svg11.dtd'><svg id="Layer_1" style="enable-background:new 0 0 1600 1200;" version="1.1" viewBox="0 0 1600 1200" xml:space="preserve" xmlns="http://www.w3.org/2000/svg" xmlns:vectornator="http://vectornator.io" xmlns:xlink="http://www.w3.org/1999/xlink"><style type="text/css">
	.st0{fill:#EFB940;}
	.st1{fill:#8197E5;}
	.st2{fill:#A97653;}
	.st3{fill:#FEFFFF;}
	.st4{fill:#2552C2;}
	.st5{fill:#2E2543;}
</style><g><g id="Layer_1_1_"><g><path d="M1432.6,470.2h-301.4c-7.4,0-13.5-6.4-13.5-14.3V277c0-7.9,6.1-14.3,13.5-14.3h301.4c7.4,0,13.5,6.4,13.5,14.3v178.8      C1446.1,463.7,1440.1,470.2,1432.6,470.2z M1131.3,264.7c-6.3,0-11.5,5.5-11.5,12.3v178.8c0,6.8,5.2,12.3,11.5,12.3h301.4      c6.3,0,11.5-5.5,11.5-12.3V277c0-6.8-5.2-12.3-11.5-12.3H1131.3z"/></g><g><path class="st0" d="M1308.6,367.3l-42.1,23.8v-48.2L1308.6,367.3z"/></g><g><path class="st1" d="M1143.1,289h280.8c3.4,0,6.1,2.2,6.1,4.9v10.7c0,2.7-2.8,4.9-6.1,4.9h-280.8c-3.4,0-6.1-2.2-6.1-4.9v-10.7      C1137,291.2,1139.7,289,1143.1,289z"/></g><g><path class="st0" d="M838.2,482.1c-116.1,11.7-256,82.7-281.8,109.3C530.7,618,560,769,560,769L400.8,971.6l97,66.9l94.7-114.8      l11.5,50.5l101.7-48.7l-18.7-95.7c0,0,31.4-34.6,42.5-47.7c11.1-13.1,57.5-28.2,163.4-43.5C999.4,723.3,989.3,602,989.3,602      L838.2,482.1z"/></g><g><path class="st2" d="M1060.1,263.9c0,0,0.6-4.6,8.3-0.3c7.8,4.3,1.8,15.3-2.5,18.9c-4.3,3.7-14,1.7-14,1.7l-4.5,44.5      c-15.3,7.1-55.2,30.4-55.2,30.4l0.6-37.3l10.8-30.1c-15-12.5-2.1-38.5-2.1-38.5l10.5-28.4l25.6-2.1L1060.1,263.9z"/></g><g><path class="st3" d="M1054.6,248.7c3.6,2.9,37.6,13.3,37.6,13.3c-0.6,5.4-3.5,11.3-3.5,11.3c-15.3-12.5-26.7-9.9-28.7-9.6      c-2,0.3-7,4.8-7,4.8c-14.1,3.6-50.9-22.8-50.9-22.8c-3.6-16.3,11.4-19.8,11.4-19.8S1051.1,245.8,1054.6,248.7z"/></g><g><path class="st2" d="M1039.7,661.3c0,0-22.9,10.2-34.1,13.8c-11.2,3.6-13.7-6.2-13.7-6.2c-7.6,0.1-8.5-8.5-8.5-8.5      c-6.2-1.5-4.3-9.6-4.3-9.6c-5.8-2-2.4-8.2-2.4-8.2c6.6-3.1,19.4-16.5,18.9-18.7c-0.4-2.2-4.6-4.9-10.4-2c-5.8,3-16.4,6-21.6,2.4      c-5.2-3.6,16.2-17.2,31.3-19.9c15.1-2.7,29.8,8.6,29.8,8.6L1039.7,661.3z"/></g><g><path class="st2" d="M669.9,294.1c0,0-27.4-25.7-37.2-35.2c-9.7-9.5-18-6.1-18-6.1c-12.9-2.6-11.5,1.9-11.5,1.9      c-6.6-4-11.8-0.3-11.8-0.3c-14.9-12.8-18-7.8-18.6-4.8c-0.5,3,10.7,13.9,12.1,15.3c1.4,1.4,15.7,22.6,15.7,22.6      c-11.7-10.6-20.7-11.7-21.2-9.4c-0.5,2.3,9.4,18.6,12.8,22.2c3.4,3.6,23,5.6,23,5.6l18.1,20L669.9,294.1z"/></g><g><path class="st1" d="M630.7,328.1c5.7,16.4,23,39.9,41,63.4c27.2,38.1,56.1,67.5,72.6,72.8c41.9,16.4,157.9-62.7,157.9-62.7      c-73.7,69.3-69.9,80.9-69.9,80.9l157,122.2c88.8-95.3,88.1-140.1,88.1-140.1l41.3,63.2c-87.1,63.1-94.9,84.2-94.9,84.2l15.5,49      c138.3-55,156.9-98.8,156.9-98.8c14.5-24-17.3-109.9-17.3-109.9c-32.8-88.2-59.4-98.1-66.8-103.7c-7.5-5.5-40-13.1-40-13.1      c4.4-8.1-1.5-11.1-8.5-14.3c-7-3.1-16.1,4.1-16.1,4.1l0.1,2.8l-33.3,16.1l-22,14.7l1.6-37.6l3.7-12.2      c-16-10.7-21.4-0.4-21.4-0.4c-18.9-10.8-45.4-7.1-45.4-7.1c-12.9,1.2-160.6,75.2-160.6,75.2c-77.3-83.9-100.3-82.9-100.3-82.9      L630.7,328.1z"/></g><g><path class="st0" d="M1017.8,917l140.3-68.1l-11.2,155.5L1017.8,917z"/></g><g><path class="st4" d="M1142.9,908.4c0-18.1,14.6-32.7,32.7-32.7c18.1,0,32.7,14.6,32.7,32.7c0,18.1-14.6,32.7-32.7,32.7      C1157.5,941.1,1142.9,926.5,1142.9,908.4z"/></g><g><path class="st4" d="M814.4,116.4l67.4,53.8c8.5,6.8,9.8,19.1,3.1,27.6l-1.3,1.7c-6.8,8.5-19.1,9.8-27.6,3.1l-67.4-53.8      c-8.5-6.8-9.8-19.1-3.1-27.6l1.3-1.7C793.6,111,805.9,109.6,814.4,116.4z"/></g><g><path class="st4" d="M1197.8,433.2c0-4.1,3.3-7.4,7.4-7.4c4.1,0,7.4,3.3,7.4,7.4c0,4.1-3.3,7.4-7.4,7.4      C1201.1,440.6,1197.8,437.3,1197.8,433.2z"/></g><g><path class="st4" d="M1184.1,430h221.1v6.3h-221.1V430z"/></g><g><path class="st0" d="M1343.7,324.9h59.3v16.9h-59.3V324.9z"/></g><g><path class="st0" d="M1343.7,351.7h59.3v16.9h-59.3V351.7z"/></g><g><path class="st0" d="M1343.7,375.8h59.3v16.9h-59.3V375.8z"/></g><g><path class="st3" d="M1113.2,431.7c-0.4,0-0.8-0.2-0.9-0.6c-0.2-0.5,0-1.1,0.5-1.3l20.6-9.1c0.5-0.2,1.1,0,1.3,0.5      c0.2,0.5,0,1.1-0.5,1.3l-20.6,9.1C1113.4,431.7,1113.3,431.7,1113.2,431.7z"/></g><g><path class="st3" d="M1162.9,519.7c-0.4,0-0.8-0.3-1-0.7l-6.9-21.6c-0.2-0.5,0.1-1.1,0.7-1.3c0.5-0.2,1.1,0.1,1.3,0.7l6.9,21.6      c0.2,0.5-0.1,1.1-0.7,1.3C1163.1,519.6,1163,519.7,1162.9,519.7z"/></g><g><path class="st3" d="M1078.4,597.1c-0.4,0-0.8-0.3-0.9-0.7c-0.2-0.5,0.1-1.1,0.6-1.3l19.2-6.9c0.5-0.2,1.1,0.1,1.3,0.6      c0.2,0.5-0.1,1.1-0.6,1.3l-19.2,6.9C1078.6,597.1,1078.5,597.1,1078.4,597.1z"/></g><g><path class="st3" d="M1028.8,489.5c-0.1,0-0.2,0-0.3,0c-0.5-0.2-0.8-0.7-0.6-1.3l5.5-17c0.2-0.5,0.7-0.8,1.3-0.6      c0.5,0.2,0.8,0.7,0.6,1.3l-5.5,17C1029.6,489.3,1029.2,489.5,1028.8,489.5z"/></g><g><path class="st3" d="M1045.6,377.5c-0.5,0-0.9-0.3-1-0.8c-0.1-0.5,0.2-1.1,0.8-1.2l22.8-5.1c0.5-0.1,1.1,0.2,1.2,0.8      c0.1,0.5-0.2,1.1-0.8,1.2l-22.8,5.1C1045.7,377.5,1045.6,377.5,1045.6,377.5z"/></g><g><path class="st3" d="M981.9,553.3c-0.2,0-0.3,0-0.5-0.1c-0.5-0.3-0.6-0.9-0.4-1.4l9.2-16.2c0.3-0.5,0.9-0.6,1.4-0.4      c0.5,0.3,0.6,0.9,0.4,1.4l-9.2,16.2C982.6,553.1,982.2,553.3,981.9,553.3z"/></g><g><path class="st3" d="M976.8,462.7c-0.3,0-0.5-0.1-0.7-0.3l-16.8-17.1c-0.4-0.4-0.4-1,0-1.4c0.4-0.4,1-0.4,1.4,0l16.8,17.1      c0.4,0.4,0.4,1,0,1.4C977.3,462.6,977.1,462.7,976.8,462.7z"/></g><g><path class="st3" d="M898.9,486.4c-0.2,0-0.4-0.1-0.6-0.2c-0.5-0.3-0.6-0.9-0.3-1.4l10.5-15.2c0.3-0.5,0.9-0.6,1.4-0.3      c0.5,0.3,0.6,0.9,0.3,1.4L899.7,486C899.5,486.3,899.2,486.4,898.9,486.4z"/></g><g><path class="st3" d="M939.7,393.9c-0.3,0-0.6-0.1-0.8-0.3c-0.4-0.4-0.3-1,0.1-1.4l14.6-12.7c0.4-0.4,1-0.3,1.4,0.1      c0.4,0.4,0.3,1-0.1,1.4l-14.6,12.7C940.2,393.9,940,393.9,939.7,393.9z"/></g><g><path class="st3" d="M907.4,331.2c-0.4,0-0.7-0.2-0.9-0.6c-0.2-0.5,0-1.1,0.5-1.3l11.4-5.4c0.5-0.2,1.1,0,1.3,0.5      c0.2,0.5,0,1.1-0.5,1.3l-11.4,5.4C907.7,331.2,907.6,331.2,907.4,331.2z"/></g><g><path class="st3" d="M835.2,401.5c-0.3,0-0.6-0.1-0.8-0.4c-0.3-0.4-0.2-1.1,0.2-1.4l15.8-11.7c0.4-0.3,1.1-0.2,1.4,0.2      c0.3,0.4,0.2,1.1-0.2,1.4l-15.8,11.7C835.6,401.5,835.4,401.5,835.2,401.5z"/></g><g><path class="st3" d="M779.3,423.7c-0.1,0-0.2,0-0.3-0.1l-19.2-6.6c-0.5-0.2-0.8-0.7-0.6-1.3c0.2-0.5,0.7-0.8,1.3-0.6l19.2,6.6      c0.5,0.2,0.8,0.7,0.6,1.3C780.1,423.4,779.7,423.7,779.3,423.7z"/></g><g><path class="st3" d="M830.7,370.9c-0.2,0-0.3,0-0.5-0.1c-0.5-0.3-0.7-0.9-0.4-1.4l6.8-12.1c0.3-0.5,0.9-0.7,1.4-0.4      c0.5,0.3,0.7,0.9,0.4,1.4l-6.8,12.1C831.4,370.7,831.1,370.9,830.7,370.9z"/></g><g><path class="st3" d="M688.7,378.5c-0.4,0-0.8-0.2-0.9-0.6l-9.4-21.5c-0.2-0.5,0-1.1,0.5-1.3c0.5-0.2,1.1,0,1.3,0.5l9.4,21.5      c0.2,0.5,0,1.1-0.5,1.3C688.9,378.4,688.8,378.5,688.7,378.5z"/></g><g><path class="st3" d="M694.7,327.2c-0.5,0-0.9-0.3-1-0.8c-0.1-0.5,0.3-1.1,0.8-1.2l16.5-2.9c0.6-0.1,1.1,0.3,1.2,0.8      c0.1,0.5-0.3,1.1-0.8,1.2l-16.5,2.9C694.8,327.2,694.7,327.2,694.7,327.2z"/></g><g><path class="st3" d="M845.5,482.8c-0.3,0-0.7-0.2-0.9-0.5c-0.3-0.5-0.1-1.1,0.3-1.4l12.6-7.6c0.5-0.3,1.1-0.1,1.4,0.3      c0.3,0.5,0.1,1.1-0.3,1.4l-12.6,7.6C845.8,482.8,845.6,482.8,845.5,482.8z"/></g></g><g id="Layer_2_1_"><g><path class="st1" d="M228.4,256.1c0-16.2,13.2-29.4,29.4-29.4s29.4,13.2,29.4,29.4c0,16.2-13.1,29.4-29.4,29.4      S228.4,272.3,228.4,256.1z"/></g><g><path class="st1" d="M204.8,349.3c0,7.5,27.2,5.9,54.7,5.9c26.5,0,53.2,1.7,53.2-5.1c0-28.7-26.2-53.9-54.6-53.9      S204.8,320.6,204.8,349.3z"/></g><g><path class="st0" d="M352.6,236.8h262.4c7.5,0,13.6,6.1,13.6,13.6l0,0c0,7.5-6.1,13.6-13.6,13.6H352.6      c-7.5,0-13.6-6.1-13.6-13.6l0,0C339,242.9,345.1,236.8,352.6,236.8z"/></g><g><path d="M539.8,308.9H352.1c-7.8,0-14.2-6.4-14.2-14.2c0-7.8,6.4-14.2,14.2-14.2h187.6c7.8,0,14.2,6.4,14.2,14.2      C553.9,302.6,547.6,308.9,539.8,308.9z M352.1,282.6c-6.7,0-12.2,5.5-12.2,12.2c0,6.7,5.5,12.2,12.2,12.2h187.6      c6.7,0,12.2-5.5,12.2-12.2c0-6.7-5.5-12.2-12.2-12.2H352.1z"/></g><g><path d="M605.6,353.7H352.1c-7.8,0-14.1-6.3-14.1-14.1c0-7.8,6.3-14.1,14.1-14.1h253.5c7.8,0,14.1,6.3,14.1,14.1      C619.8,347.3,613.4,353.7,605.6,353.7z M352.1,327.4c-6.7,0-12.1,5.4-12.1,12.1c0,6.7,5.4,12.1,12.1,12.1h253.5      c6.7,0,12.1-5.4,12.1-12.1c0-6.7-5.4-12.1-12.1-12.1H352.1z"/></g><g><path d="M1089.2,273.8c-0.2,0-0.4-0.1-0.6-0.2c-0.2-0.2-24.1-16.1-33.3-6.7c-7.1,7.2-39.2-8.9-50.7-17c-6.7-4.7-5.6-12-2.3-17.3      c3.1-4.9,8.6-8.9,11.8-7.1c4.9,2.7,35.2,19.1,40.3,21.1c5.1,2,38,14.4,38.4,14.5c0.4,0.2,0.7,0.5,0.6,1      c-0.2,5.2-3.3,10.9-3.4,11.2c-0.1,0.2-0.4,0.4-0.6,0.5C1089.3,273.8,1089.2,273.8,1089.2,273.8z M1063.4,261.9      c9.9,0,21.9,7.2,25.4,9.4c0.8-1.7,2.3-5.3,2.6-8.6c-4.8-1.8-33-12.4-37.7-14.2c-5.2-2.1-35.6-18.5-40.5-21.3      c-1.7-0.9-6.2,1.7-9.2,6.5c-1.7,2.8-5.1,9.8,1.7,14.6c12.8,9.1,42.6,22.9,48.1,17.2C1056.4,262.9,1059.7,261.9,1063.4,261.9z"/></g><g><path d="M1056.5,274.7c-0.2,0-0.5-0.1-0.6-0.2c-0.4-0.4-0.5-1-0.1-1.4c0.2-0.2,4-4.6,8.5-6.9c0.5-0.2,1.1,0,1.3,0.5      c0.2,0.5,0,1.1-0.5,1.3c-4.2,2.1-7.8,6.3-7.9,6.4C1057,274.6,1056.8,274.7,1056.5,274.7z"/></g><g><path d="M1047.2,252.3c-0.2,0-0.3,0-0.5-0.1c-0.3-0.1-28.1-14.4-35.7-19.1c-0.5-0.3-0.6-0.9-0.3-1.4c0.3-0.5,0.9-0.6,1.4-0.3      c7.6,4.6,35.3,18.8,35.6,19c0.5,0.3,0.7,0.9,0.4,1.3C1047.9,252.1,1047.5,252.3,1047.2,252.3z"/></g><g><path d="M1052.7,267.1c-2.4,1.3-21-3.9-34.9-10.5c-10.3-4.9-17-11.7-17-11.7c-9.1,17,52,31.1,53.6,27.7c1.6-3.4,7.1-9.1,7.1-9.1      S1056.9,264.8,1052.7,267.1z"/></g><g><path d="M1019.2,277.4c-5.3,0-11.8-1.5-14.5-8.2c-0.2-0.5,0-1.1,0.6-1.3c0.5-0.2,1.1,0,1.3,0.6c3.6,9.2,16.6,6.7,19,6.2      c0.1,0,0.1,0,0.2-0.1c0.8-0.2,1.3,0,1.5,0.6c0.2,0.5-0.2,1.1-0.7,1.2C1026.6,276.5,1023.3,277.4,1019.2,277.4z"/></g><g><path d="M1078.4,230.1c-2.2-11.9-27.8-31.3-44.9-28.2c-17.1,3.1-21.2,24.5-21.2,24.5l25.8-2.3l13.1,23.2l41,15.1      C1100.4,238.9,1078.4,230.1,1078.4,230.1z"/></g><g><path d="M1086.4,272.2c-9.6,10.3-21.9,11.5-21.9,11.5c13.1-12.5,4.8-19.2,4.8-19.2C1073.2,263,1086.4,272.2,1086.4,272.2z"/></g><g><path d="M1003.8,291.8l-5.7,15.7c34.6,1.9,50.4-20.6,50.4-20.6C1015.2,306.2,1003.8,291.8,1003.8,291.8z"/></g><g><path d="M991.4,361.3c-0.3,0-0.7-0.2-0.9-0.5c-0.9-1.6-21.6-38.6-15.6-52c1.1-2.5,3.1-4.1,5.8-4.7c10.6-2.3,17.1,4.2,17.4,4.5      c0.4,0.4,0.4,1,0,1.4c-0.4,0.4-1,0.4-1.4,0c-0.2-0.3-6-6-15.5-3.9c-2.1,0.5-3.6,1.6-4.4,3.5c-5.6,12.5,15.3,49.8,15.5,50.2      c0.3,0.5,0.1,1.1-0.4,1.4C991.7,361.3,991.5,361.3,991.4,361.3z"/></g><g><path d="M991.5,361.1c-0.4,0-0.8-0.3-1-0.7c-0.2-0.5,0.1-1.1,0.6-1.3c2.8-0.9,68-22.1,76.4-23.1c3.3-0.4,4.4-2.9,4.4-5      c-0.1-3.8-3.2-7.8-9-8.4c-10.5-1-14.1,3.2-14.1,3.2c-0.4,0.4-1,0.5-1.4,0.1c-0.4-0.4-0.5-1-0.1-1.4c0.2-0.2,4.3-5,15.9-3.9      c7,0.7,10.7,5.7,10.8,10.3c0.1,3.8-2.4,6.6-6.1,7c-8.2,1-75.3,22.8-76,23C991.7,361.1,991.6,361.1,991.5,361.1z"/></g><g><path d="M982.1,652.5c-2.3,0-4.1-0.5-5.5-1.6c-3.3-2.7-2.1-7.5-2-7.7c0.1-0.2,0.2-0.4,0.4-0.6c0.2-0.1,16.1-10.7,18.9-16.7      c0.8-1.7,0.7-3-0.2-3.9c-1.7-1.5-5.4-1.3-8.1,0.3c-4.2,2.6-17.8,5.7-22.1,3.1c-1.1-0.7-1.7-1.7-1.6-2.9      c0.4-6.4,23.8-17.9,32.8-19.4c9.4-1.6,27.8,7.6,28.6,8c0.5,0.2,0.7,0.8,0.4,1.3c-0.2,0.5-0.9,0.7-1.3,0.4      c-0.2-0.1-18.5-9.3-27.3-7.8c-9.4,1.6-30.9,13-31.2,17.5c0,0.3,0,0.7,0.6,1.1c3.4,2,16.1-0.6,20-3.1c3.5-2.1,8.2-2.2,10.5-0.1      c1,0.8,2.3,2.8,0.7,6.2c-2.8,6-16.8,15.6-19.2,17.2c-0.2,1-0.5,3.8,1.4,5.3c2.1,1.7,8.4,2.9,27.4-7.1c0.5-0.3,1.1-0.1,1.4,0.4      c0.3,0.5,0.1,1.1-0.4,1.4C995.5,649.6,987.5,652.5,982.1,652.5z"/></g><g><path d="M963.3,624.4c-0.4,0-0.9-0.3-1-0.8c-0.1-0.5,0.2-1.1,0.7-1.2c4.5-1.1,7.5-2.9,8.8-5.1c1-1.8,0.5-3.2,0.5-3.3      c-0.2-0.5,0.1-1.1,0.6-1.3c0.5-0.2,1.1,0.1,1.3,0.6c0,0.1,0.8,2.3-0.6,4.9c-1.5,2.8-4.9,4.9-10.1,6.2      C963.5,624.4,963.4,624.4,963.3,624.4z"/></g><g><path d="M987,662.1c-2.5,0-4.6-0.6-6.1-1.7c-4.2-3-3.3-8.6-3.2-8.8c0.1-0.5,0.6-0.9,1.2-0.8c0.5,0.1,0.9,0.6,0.8,1.2      c0,0.1-0.7,4.6,2.4,6.9c3.1,2.2,10.4,2.7,28.1-7c0.5-0.3,1.1-0.1,1.4,0.4c0.3,0.5,0.1,1.1-0.4,1.4      C1000.7,659.2,992.7,662.1,987,662.1z"/></g><g><path d="M992.7,669.8c-2,0-3.8-0.4-5.4-1.2c-5-2.6-5.3-8.4-5.3-8.7c0-0.6,0.4-1,1-1c0.5,0,1,0.4,1,1c0,0,0.3,4.9,4.2,7      c3.4,1.8,10.5,1.9,24.9-7.3c0.5-0.3,1.1-0.2,1.4,0.3c0.3,0.5,0.2,1.1-0.3,1.4C1005.3,667,998.1,669.8,992.7,669.8z"/></g><g><path d="M1001.3,677c-2,0-3.7-0.4-5.2-1.2c-4-2.1-5-6.2-5-6.3c-0.1-0.5,0.2-1.1,0.7-1.2c0.5-0.1,1.1,0.2,1.2,0.7      c0,0,0.9,3.4,4,5.1c2.6,1.4,6.1,1.3,10.3-0.2c12.9-4.7,32.7-14,32.9-14.1c0.5-0.2,1.1,0,1.3,0.5c0.2,0.5,0,1.1-0.5,1.3      c-0.2,0.1-20,9.5-33,14.2C1005.6,676.6,1003.3,677,1001.3,677z"/></g><g><path d="M954,655.8C953.9,655.8,953.9,655.8,954,655.8c-4-0.1-12.6-12.1-14.3-14.6c-0.3-0.4-0.2-1,0.2-1.3l22.4-19.4      c0.4-0.4,1-0.3,1.4,0.1c0.4,0.4,0.3,1-0.1,1.4l-21.7,18.8c4.4,6.2,9.8,12.5,11.9,12.9L976,641c0.5-0.3,1.1-0.1,1.4,0.4      s0.1,1.1-0.4,1.4l-22.6,12.9C954.3,655.8,954.1,655.8,954,655.8z"/></g><g><path d="M1024.3,705.8c-0.3,0-0.6-0.2-0.8-0.4l-18.8-27.8c-0.3-0.5-0.2-1.1,0.3-1.4c0.5-0.3,1.1-0.2,1.4,0.3l18.3,27l14.5-8.5      l-14.2-27.5c-0.3-0.5-0.1-1.1,0.4-1.3c0.5-0.3,1.1-0.1,1.3,0.4l14.7,28.4c0.2,0.5,0.1,1.1-0.4,1.3l-16.1,9.5      C1024.6,705.8,1024.4,705.8,1024.3,705.8z"/></g><g><path d="M555.3,778c-0.2,0-0.4-0.1-0.6-0.2c-0.5-0.3-0.6-0.9-0.3-1.4c38.6-56.6,74.8-102.5,87.1-115.7      c34.1-36.6,236.2-125.3,244.8-129c0.5-0.2,1.1,0,1.3,0.5c0.2,0.5,0,1.1-0.5,1.3c-2.1,0.9-210.3,92.2-244.1,128.6      c-12.3,13.1-48.3,58.9-86.9,115.4C555.9,777.9,555.6,778,555.3,778z"/></g><g><path d="M904.8,402.1c-0.2,0-0.4-0.1-0.6-0.2c-0.4-0.3-0.5-0.9-0.2-1.4l19.3-26.6c0.3-0.4,0.9-0.5,1.4-0.2      c0.4,0.3,0.5,0.9,0.2,1.4l-19.3,26.6C905.4,401.9,905.1,402.1,904.8,402.1z"/></g><g><path d="M1077.3,466.6c-0.4,0-0.8-0.3-1-0.7c-0.4-1.4-9-33.9-10-43.9c-0.1-0.5,0.3-1,0.9-1.1c0.5-0.1,1,0.3,1.1,0.9      c1,9.8,9.9,43.2,10,43.6c0.1,0.5-0.2,1.1-0.7,1.2C1077.5,466.6,1077.4,466.6,1077.3,466.6z"/></g><g><path d="M1117.3,528.9c-0.5,0-1-0.4-1-1c0-0.6,0.4-1,1-1l20.2-0.9c0.6,0,1,0.4,1,1s-0.4,1-1,1L1117.3,528.9      C1117.3,528.9,1117.3,528.9,1117.3,528.9z"/></g><g><path d="M778.8,398.9c-0.4,0-0.7-0.2-0.9-0.6l-9.4-19.5c-0.2-0.5,0-1.1,0.5-1.3s1.1,0,1.3,0.5l9.4,19.5c0.2,0.5,0,1.1-0.5,1.3      C779.1,398.9,779,398.9,778.8,398.9z"/></g><g><path d="M999.3,467.4c-0.1,0-0.3,0-0.4-0.1c-0.5-0.2-0.7-0.8-0.5-1.3c4.7-10-5.1-47.1-8.7-61.1c-4.6-17.6,3.3-43.4,3.7-44.5      c0.2-0.5,0.7-0.8,1.3-0.7c0.5,0.2,0.8,0.7,0.7,1.3c-0.1,0.3-8.1,26.3-3.6,43.4c6.3,24.1,13,53,8.6,62.4      C1000,467.2,999.7,467.4,999.3,467.4z"/></g><g><path d="M1017.2,470c-0.5,0-1-0.4-1-1c0-0.3-0.9-25.8-23.2-49.7c-23-24.7-4.6-61.5-4.4-61.9c0.3-0.5,0.9-0.7,1.3-0.4      c0.5,0.3,0.7,0.9,0.4,1.3c-0.2,0.4-18,35.9,4.1,59.6c22.8,24.5,23.7,50.8,23.7,51.1C1018.2,469.5,1017.7,470,1017.2,470      C1017.2,470,1017.2,470,1017.2,470z"/></g><g><path d="M427.8,1157.1c-0.2,0-0.4,0-0.5-0.1l-213.3-129.4c-0.4-0.2-0.6-0.8-0.4-1.2c0.2-0.5,4.8-12.6,16.8-23      c11-9.6,30.6-19.3,61.2-11.2c59.6,15.8,106.9-14.9,110.7-21.1c0.3-0.5,0.9-0.6,1.4-0.3c0.5,0.3,0.6,0.9,0.3,1.4      c-5.5,8.8-55.1,37.3-112.9,21.9c-29.7-7.9-48.7,1.5-59.3,10.8c-9.9,8.6-14.7,18.6-15.9,21.4l211.7,128.4l64.7-120.5      c0.3-0.5,0.9-0.7,1.4-0.4c0.5,0.3,0.7,0.9,0.4,1.4l-65.2,121.5c-0.1,0.2-0.4,0.4-0.6,0.5C428,1157.1,427.9,1157.1,427.8,1157.1z      "/></g><g><path d="M538,1144.4c-0.3,0-0.6-0.2-0.8-0.4c-0.3-0.4-7.3-10.9-8.8-26c-1.3-14,2.1-34.8,26.2-54.1      c46.9-37.7,49.5-91.8,46.7-98.2c-0.2-0.5,0-1.1,0.5-1.3c0.5-0.2,1.1,0,1.3,0.5c3.9,9.2-1.9,64-47.3,100.5      c-18.7,15.1-27.3,32.7-25.4,52.3c1.2,12.5,6.4,21.9,8,24.4l218.1-90.8l-51.1-126c-0.2-0.5,0-1.1,0.6-1.3c0.5-0.2,1.1,0,1.3,0.6      l51.5,126.9c0.2,0.5,0,1.1-0.5,1.3l-219.8,91.5C538.2,1144.3,538.1,1144.4,538,1144.4z"/></g><g><path d="M436.1,1141.9c-0.2,0-0.4,0-0.5-0.1l-212.8-127.6c-0.5-0.3-0.6-0.9-0.3-1.4c0.3-0.5,0.9-0.6,1.4-0.3l212.8,127.6      c0.5,0.3,0.6,0.9,0.3,1.4C436.7,1141.7,436.4,1141.9,436.1,1141.9z"/></g><g><path d="M532.4,1130c-0.4,0-0.8-0.2-0.9-0.6c-0.2-0.5,0-1.1,0.5-1.3c1.6-0.7,161.7-69.9,217.1-93.3c0.5-0.2,1.1,0,1.3,0.5      c0.2,0.5,0,1.1-0.5,1.3c-55.4,23.4-215.5,92.6-217.1,93.3C532.7,1130,532.5,1130,532.4,1130z"/></g><g><path d="M376,1011.8c-0.2,0-0.4,0-0.5-0.2l-24.7-15.7c-0.5-0.3-0.6-0.9-0.3-1.4c0.3-0.5,0.9-0.6,1.4-0.3l24.7,15.7      c0.5,0.3,0.6,0.9,0.3,1.4C376.7,1011.6,376.3,1011.8,376,1011.8z"/></g><g><path d="M591.3,1019.8c-0.4,0-0.8-0.2-0.9-0.6c-0.2-0.5,0.1-1.1,0.6-1.3l26.7-10.5c0.5-0.2,1.1,0.1,1.3,0.6      c0.2,0.5-0.1,1.1-0.6,1.3l-26.7,10.5C591.6,1019.8,591.5,1019.8,591.3,1019.8z"/></g><g><path d="M362.8,1014.5c-0.2,0-0.4-0.1-0.6-0.2L338,998.2c-0.5-0.3-0.6-0.9-0.3-1.4c0.3-0.5,0.9-0.6,1.4-0.3l24.2,16.1      c0.5,0.3,0.6,0.9,0.3,1.4C363.4,1014.3,363.1,1014.5,362.8,1014.5z"/></g><g><path d="M585.8,1031c-0.4,0-0.8-0.3-0.9-0.7c-0.2-0.5,0.1-1.1,0.6-1.3l26.8-9.9c0.5-0.2,1.1,0.1,1.3,0.6s-0.1,1.1-0.6,1.3      l-26.8,9.9C586,1031,585.9,1031,585.8,1031z"/></g><g><path d="M468.1,1062.4c-23.3,0-39.2-3.9-46.2-11.5c-3.2-3.4-4.5-7.6-4-12.3c3.8-34.9-35.9-51-36.3-51.2      c-0.5-0.2-0.8-0.8-0.6-1.3c0.2-0.5,0.8-0.8,1.3-0.6c0.4,0.2,41.5,16.8,37.6,53.3c-0.5,4.2,0.7,7.8,3.5,10.8      c7.2,7.8,25.7,11.6,52.1,10.7l0.5,0c0,0,0,0,0,0c0.5,0,1,0.4,1,1c0,0.6-0.4,1-1,1l-0.5,0C473,1062.4,470.5,1062.4,468.1,1062.4z      "/></g><g><path d="M674.5,995.2c-3.7,0-7.1-1.3-10.1-3.9c-25.8-22.5-61.4-0.6-61.8-0.4c-0.5,0.3-1.1,0.2-1.4-0.3s-0.2-1.1,0.3-1.4      c0.4-0.2,37.3-23,64.2,0.5c3.1,2.7,6.7,3.8,10.7,3.3c10.3-1.3,24-13.6,38.5-34.7l0.3-0.4c0.3-0.5,0.9-0.6,1.4-0.3      c0.5,0.3,0.6,0.9,0.3,1.4l-0.3,0.4c-15,21.9-28.8,34.2-39.9,35.5C675.9,995.1,675.2,995.2,674.5,995.2z"/></g><g><path d="M618.4,110.7c-0.2-0.1-0.5-0.1-0.7,0.1l-5.6,2.9c-0.5,0.2-0.7,0.8-0.4,1.3l6.2,12.2l-12.2,6.2c-0.5,0.2-0.7,0.8-0.4,1.3      l2.8,5.7c0.2,0.5,0.8,0.7,1.3,0.4l12.2-6.2l6.2,12.2c0.2,0.5,0.8,0.7,1.3,0.4l5.6-2.9c0.5-0.2,0.7-0.8,0.4-1.3l-6.2-12.2      l12.2-6.2c0.5-0.2,0.7-0.8,0.4-1.3c-0.4-0.7-2.5-5-2.8-5.7c-0.2-0.5-0.8-0.7-1.3-0.4l-12.2,6.2l-6.2-12.2      C618.9,111,618.6,110.8,618.4,110.7z M617.7,112.9l6.2,12.2c0.2,0.5,0.8,0.7,1.3,0.4l12.2-6.2c0.6,1.1,1.4,2.8,2,3.9l-12.2,6.2      c-0.5,0.2-0.7,0.8-0.4,1.3L633,143l-3.9,2l-6.2-12.2c-0.2-0.5-0.8-0.7-1.3-0.4l-12.2,6.2l-2-3.9l12.2-6.2      c0.5-0.2,0.7-0.8,0.4-1.3l-6.2-12.2L617.7,112.9z"/></g><g><g><path d="M564.5,485.7c-0.3,0-0.6-0.1-0.8-0.4l-35.6-48c-0.3-0.3-0.3-0.8,0-1.2l29.8-41.4c0.2-0.3,0.5-0.4,0.8-0.4       c0.3,0,0.6,0.1,0.8,0.4l29,38.3c0.2,0.3,0.3,0.7,0.1,1l-23.2,51.1c-0.1,0.3-0.5,0.5-0.8,0.6       C564.6,485.7,564.6,485.7,564.5,485.7z M530.2,436.7l34.2,46l22.2-49l-27.8-36.7L530.2,436.7z"/></g><g><path d="M561.5,444.8c-0.1,0-0.1,0-0.2,0l-32.5-6.7c-0.5-0.1-0.9-0.6-0.8-1.2c0.1-0.5,0.6-0.9,1.2-0.8l32.2,6.6l25.9-10       c0.5-0.2,1.1,0.1,1.3,0.6c0.2,0.5-0.1,1.1-0.6,1.3l-26.2,10.1C561.8,444.7,561.6,444.8,561.5,444.8z"/></g><g><path d="M565.2,484.9c-0.5,0-1-0.4-1-0.9l-3.2-40.8l-2.9-45.9c0-0.6,0.4-1,0.9-1.1c0.6,0,1,0.4,1.1,0.9L563,443l3.2,40.7       C566.2,484.3,565.8,484.8,565.2,484.9C565.2,484.9,565.2,484.9,565.2,484.9z"/></g></g><g><path d="M632.2,325.6c-0.3,0-0.5-0.1-0.7-0.3L615,307.4c-2.7-0.2-17.6-1.7-23.6-7.1c-6.6-6-13.4-15.6-12.7-22.5      c0.1-1.4,1-1.9,1.5-2.1c3.2-1.3,12,4.7,17.7,9.1c-3.6-5.5-9.2-14.1-12.3-17.5c-1-1.1-2.2-2.3-3.5-3.7c-5.5-5.6-11.7-12-9.4-15.9      c0.7-1.2,1.8-1.9,3.2-2.1c4-0.5,10.5,3.6,17.9,11.3c9.3,9.7,18.2,20.5,18.3,20.6c0.3,0.4,0.3,1.1-0.1,1.4      c-0.4,0.3-1.1,0.3-1.4-0.1c-0.1-0.1-8.9-10.9-18.2-20.5c-8.1-8.4-13.7-11.1-16.3-10.7c-0.8,0.1-1.3,0.4-1.7,1.1      c-1.5,2.6,4.9,9.1,9.1,13.5c1.3,1.3,2.5,2.6,3.5,3.7c4.8,5.3,15.3,22.1,15.7,22.8c0.3,0.4,0.2,1-0.2,1.3c-0.4,0.3-0.9,0.3-1.3,0      c-8.2-6.9-18.1-13.4-20.4-12.5c-0.1,0-0.2,0.1-0.2,0.5c-0.6,6,5.6,15,12,20.8c5.9,5.4,22.6,6.6,22.8,6.6c0.3,0,0.5,0.1,0.7,0.3      l16.7,18.2c0.4,0.4,0.3,1-0.1,1.4C632.6,325.5,632.4,325.6,632.2,325.6z"/></g><g><path d="M618.9,269.4c-0.3,0-0.6-0.1-0.8-0.4c-10.4-12.2-17.3-14.8-21.2-14.8c0,0-0.1,0-0.1,0c-3.3,0-4.7,1.8-4.8,1.9      c-0.3,0.4-1,0.5-1.4,0.2c-0.4-0.3-0.5-1-0.2-1.4c0.1-0.1,2.1-2.5,6.3-2.6c6.4-0.1,14.1,5.1,23,15.5c0.4,0.4,0.3,1.1-0.1,1.4      C619.3,269.4,619.1,269.4,618.9,269.4z"/></g><g><path d="M625.7,262.3c-0.3,0-0.5-0.1-0.7-0.3c-14.3-14.2-21.9-7.7-22.2-7.4c-0.4,0.4-1,0.3-1.4-0.1s-0.3-1,0.1-1.4      c0.4-0.3,9.2-8.2,25,7.4c0.4,0.4,0.4,1,0,1.4C626.3,262.2,626,262.3,625.7,262.3z"/></g><g><path d="M668.5,294.8c-0.2,0-0.5-0.1-0.7-0.3c-0.3-0.3-27.5-25.7-37-35.2c-9-9-15.6-5.6-15.7-5.6c-0.5,0.3-1.1,0.1-1.4-0.4      c-0.3-0.5-0.1-1.1,0.4-1.4c0.3-0.2,8-4.2,18,5.9c9.5,9.5,36.7,34.9,37,35.2c0.4,0.4,0.4,1,0,1.4      C669,294.7,668.8,294.8,668.5,294.8z"/></g><g><path d="M582.7,289.4c-0.5,0-0.9-0.3-1-0.8c-0.1-0.5,0.2-1.1,0.8-1.2c0.1,0,1.4-0.3,2-1.7c0.7-1.5,0.2-3.7-1.3-6.5      c-0.3-0.5-0.1-1.1,0.4-1.4c0.5-0.3,1.1-0.1,1.4,0.4c1.9,3.4,2.3,6.2,1.4,8.3c-1,2.3-3.3,2.7-3.4,2.8      C582.8,289.3,582.8,289.4,582.7,289.4z"/></g><g><path d="M582.4,254c-0.2,0-0.5,0-0.7,0c-4.2-0.5-7.5-5.7-7.6-5.9c-0.3-0.5-0.2-1.1,0.3-1.4c0.5-0.3,1.1-0.2,1.4,0.3      c0,0,3,4.6,6.2,5c1.1,0.1,2.1-0.2,3-1.1c0.4-0.4,1-0.3,1.4,0.1c0.4,0.4,0.3,1-0.1,1.4C585.1,253.5,583.8,254,582.4,254z"/></g><g><path d="M1502.7,1092.9c-50.4,0-95.2-16-129.7-46.9c-24.4-21.9-43.2-51.1-54.4-84.6c-11.2-33.7-14.8-72.1-10.4-111      c5.9-51.9-2.4-87.7-24.6-106.6c-26.9-22.7-65.4-11.9-65.8-11.8c-0.5,0.2-1.1-0.2-1.2-0.7c-0.2-0.5,0.2-1.1,0.7-1.2      c0.4-0.1,39.9-11.2,67.6,12.2c22.8,19.3,31.3,55.7,25.3,108.3c-9,78.6,14.4,149.3,64.1,193.8c47.1,42.2,113.7,56.2,187.5,39.5      c0.5-0.1,1.1,0.2,1.2,0.8s-0.2,1.1-0.8,1.2C1541.8,1090.6,1521.8,1092.9,1502.7,1092.9z"/></g><g><path d="M592.8,925.5l5.7,23L688.6,829L592.8,925.5z"/></g><g><path class="st3" d="M462,1007.7c-0.2,0-0.4-0.1-0.6-0.2c-0.4-0.3-0.5-1-0.2-1.4c1.8-2.3,4.3-5.6,7.4-9.6c0.3-0.4,1-0.5,1.4-0.2      c0.4,0.3,0.5,1,0.2,1.4c-3.1,4-5.6,7.2-7.4,9.6C462.6,1007.5,462.3,1007.7,462,1007.7z M476.7,988.6c-0.2,0-0.4-0.1-0.6-0.2      c-0.4-0.3-0.5-1-0.2-1.4c2.3-2.9,4.8-6.1,7.4-9.5c0.3-0.4,1-0.5,1.4-0.2c0.4,0.3,0.5,1,0.2,1.4c-2.6,3.4-5.1,6.6-7.4,9.5      C477.3,988.4,477,988.6,476.7,988.6z M491.6,969.6c-0.2,0-0.4-0.1-0.6-0.2c-0.4-0.3-0.5-1-0.2-1.4c2.4-3,4.9-6.2,7.4-9.5      c0.3-0.4,1-0.5,1.4-0.2c0.4,0.3,0.5,1,0.2,1.4c-2.6,3.3-5.1,6.4-7.4,9.5C492.1,969.4,491.9,969.6,491.6,969.6z M506.4,950.7      c-0.2,0-0.4-0.1-0.6-0.2c-0.4-0.3-0.5-1-0.2-1.4c2.4-3.1,4.9-6.2,7.5-9.4c0.3-0.4,1-0.5,1.4-0.2c0.4,0.3,0.5,1,0.2,1.4      c-2.6,3.2-5,6.4-7.5,9.4C507,950.5,506.7,950.7,506.4,950.7z M521.4,931.8c-0.2,0-0.4-0.1-0.6-0.2c-0.4-0.3-0.5-1-0.2-1.4      c2.5-3.1,5-6.2,7.5-9.4c0.3-0.4,1-0.5,1.4-0.2c0.4,0.3,0.5,1,0.2,1.4c-2.5,3.2-5,6.3-7.5,9.4C522,931.7,521.7,931.8,521.4,931.8      z M536.4,913c-0.2,0-0.4-0.1-0.6-0.2c-0.4-0.3-0.5-1-0.2-1.4c2.5-3.1,5-6.2,7.5-9.4c0.3-0.4,1-0.5,1.4-0.1      c0.4,0.3,0.5,1,0.1,1.4c-2.5,3.2-5.1,6.3-7.5,9.4C537,912.9,536.7,913,536.4,913z M551.6,894.3c-0.2,0-0.4-0.1-0.6-0.2      c-0.4-0.3-0.5-1-0.1-1.4c2.5-3.1,5-6.2,7.6-9.3c0.3-0.4,1-0.5,1.4-0.1c0.4,0.3,0.5,1,0.1,1.4c-2.6,3.1-5.1,6.2-7.6,9.3      C552.1,894.2,551.8,894.3,551.6,894.3z M566.8,875.7c-0.2,0-0.4-0.1-0.6-0.2c-0.4-0.4-0.5-1-0.1-1.4c2.5-3.1,5.1-6.2,7.6-9.3      c0.4-0.4,1-0.5,1.4-0.1c0.4,0.4,0.5,1,0.1,1.4c-2.6,3.1-5.1,6.2-7.6,9.3C567.3,875.6,567.1,875.7,566.8,875.7z M582.1,857.2      c-0.2,0-0.5-0.1-0.6-0.2c-0.4-0.4-0.5-1-0.1-1.4c2.6-3.1,5.1-6.2,7.7-9.2c0.4-0.4,1-0.5,1.4-0.1c0.4,0.4,0.5,1,0.1,1.4      c-2.6,3.1-5.1,6.2-7.7,9.2C582.6,857.1,582.4,857.2,582.1,857.2z M597.5,838.7c-0.2,0-0.5-0.1-0.6-0.2c-0.4-0.4-0.5-1-0.1-1.4      c2.6-3.1,5.2-6.1,7.8-9.2c0.4-0.4,1-0.5,1.4-0.1c0.4,0.4,0.5,1,0.1,1.4c-2.6,3-5.2,6.1-7.8,9.2      C598.1,838.6,597.8,838.7,597.5,838.7z M613.1,820.4c-0.2,0-0.5-0.1-0.6-0.2c-0.4-0.4-0.5-1-0.1-1.4c2.6-3.1,5.2-6.1,7.8-9.1      c0.4-0.4,1-0.5,1.4-0.1c0.4,0.4,0.5,1,0.1,1.4c-2.6,3-5.2,6.1-7.8,9.1C613.6,820.3,613.3,820.4,613.1,820.4z M628.8,802.2      c-0.2,0-0.5-0.1-0.7-0.2c-0.4-0.4-0.5-1-0.1-1.4c2.7-3,5.3-6.1,7.9-9c0.4-0.4,1-0.5,1.4-0.1c0.4,0.4,0.5,1,0.1,1.4      c-2.6,3-5.3,6-7.9,9C629.3,802.1,629.1,802.2,628.8,802.2z M644.7,784.2c-0.2,0-0.5-0.1-0.7-0.3c-0.4-0.4-0.4-1-0.1-1.4      c2.7-3,5.4-6,8-8.9c0.4-0.4,1-0.4,1.4-0.1c0.4,0.4,0.4,1,0.1,1.4c-2.7,2.9-5.3,5.9-8,8.9C645.2,784,645,784.2,644.7,784.2z       M660.8,766.3c-0.2,0-0.5-0.1-0.7-0.3c-0.4-0.4-0.4-1-0.1-1.4c2.8-3,5.5-5.9,8.2-8.8c0.4-0.4,1-0.4,1.4,0c0.4,0.4,0.4,1,0,1.4      c-2.7,2.9-5.4,5.8-8.2,8.8C661.4,766.2,661.1,766.3,660.8,766.3z M677.3,748.8c-0.3,0-0.5-0.1-0.7-0.3c-0.4-0.4-0.4-1,0-1.4      c2.9-3,5.7-5.9,8.4-8.6c0.4-0.4,1-0.4,1.4,0c0.4,0.4,0.4,1,0,1.4c-2.7,2.7-5.5,5.6-8.4,8.6C677.8,748.7,677.6,748.8,677.3,748.8      z M694.3,731.8c-0.3,0-0.5-0.1-0.7-0.3c-0.4-0.4-0.4-1,0-1.4c3-2.9,6-5.7,8.8-8.3c0.4-0.4,1-0.3,1.4,0.1s0.3,1-0.1,1.4      c-2.8,2.5-5.7,5.3-8.7,8.3C694.8,731.7,694.5,731.8,694.3,731.8z M712,715.5c-0.3,0-0.6-0.1-0.8-0.4c-0.4-0.4-0.3-1.1,0.1-1.4      c3.4-2.9,6.5-5.4,9.4-7.6c0.4-0.3,1.1-0.2,1.4,0.2c0.3,0.4,0.2,1.1-0.2,1.4c-2.9,2.1-6,4.7-9.3,7.5      C712.5,715.4,712.2,715.5,712,715.5z M731.4,701.3c-0.4,0-0.7-0.2-0.9-0.5c-0.3-0.5-0.1-1.1,0.4-1.4c2.8-1.5,5.2-2.5,7.4-3      l4.1-1c0.5-0.1,1.1,0.2,1.2,0.7c0.1,0.5-0.2,1.1-0.7,1.2l-4.1,1c-1.9,0.5-4.2,1.4-6.9,2.9C731.8,701.3,731.6,701.3,731.4,701.3z       M754.4,694.6c-0.5,0-0.9-0.3-1-0.8c-0.1-0.5,0.2-1.1,0.7-1.2l11.7-2.8c0.5-0.1,1.1,0.2,1.2,0.7c0.1,0.5-0.2,1.1-0.7,1.2      l-11.7,2.8C754.5,694.6,754.4,694.6,754.4,694.6z M777.8,689c-0.5,0-0.9-0.3-1-0.8c-0.1-0.5,0.2-1.1,0.7-1.2l11.7-2.8      c0.5-0.1,1.1,0.2,1.2,0.7c0.1,0.5-0.2,1.1-0.7,1.2L778,689C777.9,689,777.9,689,777.8,689z M801.2,683.5c-0.5,0-0.9-0.3-1-0.8      c-0.1-0.5,0.2-1.1,0.7-1.2l11.7-2.8c0.5-0.1,1.1,0.2,1.2,0.7c0.1,0.5-0.2,1.1-0.7,1.2l-11.7,2.8      C801.3,683.5,801.3,683.5,801.2,683.5z M824.6,678c-0.5,0-0.9-0.3-1-0.8c-0.1-0.5,0.2-1.1,0.7-1.2l11.7-2.8      c0.5-0.1,1.1,0.2,1.2,0.7c0.1,0.5-0.2,1.1-0.7,1.2l-11.7,2.8C824.7,678,824.7,678,824.6,678z M848,672.5c-0.5,0-0.9-0.3-1-0.8      c-0.1-0.5,0.2-1.1,0.7-1.2l11.7-2.8c0.5-0.1,1.1,0.2,1.2,0.7c0.1,0.5-0.2,1.1-0.7,1.2l-11.7,2.8      C848.1,672.4,848.1,672.5,848,672.5z M871.4,666.9c-0.5,0-0.9-0.3-1-0.8c-0.1-0.5,0.2-1.1,0.7-1.2l11.7-2.8      c0.5-0.1,1.1,0.2,1.2,0.7c0.1,0.5-0.2,1.1-0.7,1.2l-11.7,2.8C871.5,666.9,871.5,666.9,871.4,666.9z M894.8,661.4      c-0.5,0-0.9-0.3-1-0.8c-0.1-0.5,0.2-1.1,0.7-1.2l11.7-2.8c0.5-0.1,1.1,0.2,1.2,0.7c0.1,0.5-0.2,1.1-0.7,1.2l-11.7,2.8      C895,661.4,894.9,661.4,894.8,661.4z M918.2,655.9c-0.5,0-0.9-0.3-1-0.8c-0.1-0.5,0.2-1.1,0.7-1.2l11.8-2.8      c0.5-0.1,1.1,0.2,1.2,0.7c0.1,0.5-0.2,1.1-0.7,1.2l-11.8,2.8C918.4,655.9,918.3,655.9,918.2,655.9z"/></g><g><path d="M770.7,253.3c-1.2-1-3-1.2-5.1-0.4l-4.8,2c-2.8,1.1-7.6,1.6-10.6,1l-5.1-1c-4.4-0.8-7,2.3-5.3,6.4l1.9,4.8      c1.1,2.8,1.6,7.7,1,10.6l-1,5c-0.8,4.4,2.3,7,6.4,5.3l4.8-1.9c2.8-1.1,7.7-1.6,10.6-1l5.1,1c4.4,0.8,7-2.3,5.3-6.4l-1.9-4.8      c-1.1-2.8-1.6-7.6-1.1-10.6l1-5.1C772.5,256,771.9,254.2,770.7,253.3z M768.9,255.5c0.4,0.3,0.5,1.1,0.3,2.1l-0.9,5      c-0.7,3.5-0.2,8.9,1.2,12.3l1.9,4.8c0.8,2,0.1,2.8-2,2.4l-5.1-1c-3.5-0.7-8.9-0.1-12.2,1.2l-4.8,1.9c-2,0.8-2.8,0.1-2.4-2l1-5.1      c0.7-3.5,0.1-8.9-1.2-12.3l-1.9-4.8c-0.8-2-0.1-2.8,2-2.4l5,0.9c3.5,0.7,9,0.1,12.3-1.2l4.8-1.9      C767.8,255.2,768.5,255.2,768.9,255.5z"/></g><g><path d="M163.1,777.3c-36.1,0-75.4-10.3-117.7-30.8c-0.5-0.2-0.7-0.8-0.5-1.3c0.2-0.5,0.8-0.7,1.3-0.5      c67.9,33,128.2,39.3,179.3,18.9c51-20.4,91.9-68.3,118-138.4c19.4-51.9,53.4-67.9,78.6-72.2c27.2-4.7,50.2,3.1,50.4,3.2      c0.5,0.2,0.8,0.7,0.6,1.3c-0.2,0.5-0.8,0.8-1.3,0.6c-0.2-0.1-22.8-7.7-49.5-3.1c-24.6,4.2-58,20-77,70.9      c-26.4,70.7-67.6,118.9-119.2,139.6C206.6,773.3,185.5,777.3,163.1,777.3z"/></g><g><path d="M981.9,135.6c-16.6,0-31.2-2.9-42.9-6.5c-29.1-8.9-47.6-24.1-47.8-24.2c-0.4-0.4-0.5-1-0.1-1.4c0.4-0.4,1-0.5,1.4-0.1      c0.2,0.1,18.4,15.1,47.1,23.9c26.5,8.1,67.6,12.6,113.1-12.4c28.1-15.4,50-36.7,71.2-57.4c14.1-13.7,27.5-26.7,42.3-37.9      c0.4-0.3,1.1-0.2,1.4,0.2c0.3,0.4,0.2,1.1-0.2,1.4c-14.8,11.1-28.1,24-42.2,37.7c-21.3,20.7-43.4,42.2-71.7,57.7      C1027.7,130.8,1003.2,135.6,981.9,135.6z"/></g><g><g><path class="st0" d="M1317.7,606.7c0-17.3,13.9-31.4,31.1-31.4c17.2,0,31.1,14.1,31.1,31.4c0,17.3-13.9,31.4-31.1,31.4       C1331.6,638.1,1317.7,624,1317.7,606.7z"/></g><g><path class="st0" d="M1317.7,606.7c0-17.3,13.9-31.4,31.1-31.4c17.2,0,31.1,14.1,31.1,31.4c0,17.3-13.9,31.4-31.1,31.4       C1331.6,638.1,1317.7,624,1317.7,606.7z"/></g><g><path class="st5" d="M1347.6,574c-12.7,0.6-24.4,8.6-29.1,21.2c-6.3,16.9,2.3,35.6,19.2,41.9c16.9,6.3,35.6-2.3,41.9-19.2       c6.3-16.9-2.3-35.6-19.2-41.9C1356.2,574.4,1351.9,573.8,1347.6,574z M1347.7,575.9c4-0.2,8.1,0.4,12,1.9       c15.9,5.9,23.9,23.6,18,39.4c-5.9,15.9-23.5,23.9-39.4,18s-23.9-23.5-18-39.4C1324.7,583.9,1335.8,576.4,1347.7,575.9z"/></g><g><path class="st5" d="M1308.3,553.7c-0.9,0.1-1.6,0.5-2.2,1c-6.9,6.1,7.9,32.9,32.6,60.7c24.7,27.8,49.5,45.7,56.4,39.6       c4.9-4.3-0.9-18.7-14.1-37.5c-0.3-0.4-0.9-0.5-1.4-0.2c-0.4,0.3-0.5,0.9-0.2,1.4c12.5,17.8,18.1,31.7,14.4,34.9       c-5.5,4.9-29.9-12.7-53.6-39.4c-23.7-26.8-38.2-53.1-32.7-58c3.5-3.1,17.3,4.8,33.7,19.3c0.4,0.4,1,0.3,1.4-0.1       c0.4-0.4,0.3-1-0.1-1.4C1327.2,560.5,1314.4,552.6,1308.3,553.7z"/></g></g><g><path class="st0" d="M1155.7,423.3c-2.2,5.5,0.8,2.5,4.2,3.6c3.4,1.1,8.9,4,8.7,1.8c-0.2-2.2-0.7-5.4,1.4-8.9      c2.1-3.5-0.1-3.7-1.6-3.7c-1.5,0-5.4-0.2-8-2.1c-2.6-1.9-3.2-0.5-3.2-0.5C1157.2,414.4,1157.9,417.8,1155.7,423.3z"/></g><g><path class="st0" d="M1155.7,423.3c-2.2,5.5,0.8,2.5,4.2,3.6c3.4,1.1,8.9,4,8.7,1.8c-0.2-2.2-0.7-5.4,1.4-8.9      c2.1-3.5-0.1-3.7-1.6-3.7c-1.5,0-5.4-0.2-8-2.1c-2.6-1.9-3.2-0.5-3.2-0.5C1157.2,414.4,1157.9,417.8,1155.7,423.3z"/></g><g><g><path class="st4" d="M270.4,463.4h16.8v57.7h-16.8V463.4z"/></g><g><path class="st1" d="M297.1,483.9H315v36.7h-17.9V483.9z"/></g><g><path class="st0" d="M323.4,500.2h16.7v20.3h-16.7V500.2z"/></g><g><path class="st0" d="M337,410.2c0-4.1,3.3-7.3,7.3-7.3c4.1,0,7.3,3.3,7.3,7.3c0,4.1-3.3,7.3-7.3,7.3       C340.3,417.6,337,414.3,337,410.2z"/></g><g><path class="st4" d="M358.2,409.9c0-4.1,3.3-7.3,7.3-7.3c4.1,0,7.3,3.3,7.3,7.3c0,4.1-3.3,7.3-7.3,7.3       C361.5,417.2,358.2,413.9,358.2,409.9z"/></g><g><path class="st4" d="M270.4,463.4h16.8v57.7h-16.8V463.4z"/></g><g><path class="st1" d="M297.1,483.9H315v36.7h-17.9V483.9z"/></g><g><path class="st0" d="M323.4,500.2h16.7v20.3h-16.7V500.2z"/></g><g><path class="st0" d="M337,410.2c0-4.1,3.3-7.3,7.3-7.3c4.1,0,7.3,3.3,7.3,7.3c0,4.1-3.3,7.3-7.3,7.3       C340.3,417.6,337,414.3,337,410.2z"/></g><g><path d="M236,392.9c-0.4,0-0.7,0.3-0.7,0.7c0,1.1,0,143.3,0,144.5c0,0.4,0.3,0.7,0.7,0.7h144.5c0.4,0,0.7-0.3,0.7-0.7V393.6       c0-0.4-0.3-0.7-0.7-0.7H236z M236.7,394.3h143.1v143.1H236.7C236.7,534.9,236.7,396.8,236.7,394.3z"/></g><g><path d="M323.5,402.3c-4.5,0-8.1,3.6-8.1,8.1s3.6,8.1,8.1,8.1s8.1-3.6,8.1-8.1C331.6,405.9,327.9,402.3,323.5,402.3z        M323.5,403.7c3.7,0,6.7,3,6.7,6.7c0,3.7-3,6.7-6.7,6.7c-3.7,0-6.7-3-6.7-6.7C316.7,406.7,319.7,403.7,323.5,403.7z"/></g><g><path d="M344.5,402.3c-4.5,0-8.1,3.6-8.1,8.1s3.6,8.1,8.1,8.1s8.1-3.6,8.1-8.1C352.6,405.9,349,402.3,344.5,402.3z        M344.5,403.7c3.7,0,6.7,3,6.7,6.7c0,3.7-3,6.7-6.7,6.7c-3.7,0-6.7-3-6.7-6.7C337.7,406.7,340.8,403.7,344.5,403.7z"/></g><g><path d="M365.3,402.3c-4.5,0-8.1,3.6-8.1,8.1s3.6,8.1,8.1,8.1s8.1-3.6,8.1-8.1C373.5,405.9,369.8,402.3,365.3,402.3z        M365.3,403.7c3.7,0,6.7,3,6.7,6.7c0,3.7-3,6.7-6.7,6.7c-3.7,0-6.7-3-6.7-6.7C358.6,406.7,361.6,403.7,365.3,403.7z"/></g><g><path d="M270,462.8c-0.4,0-0.7,0.3-0.7,0.7c0,0.5,0,57.3,0,57.7c0,0.4,0.3,0.7,0.7,0.7h16.9c0.4,0,0.7-0.3,0.7-0.7v-57.7       c0-0.4-0.3-0.7-0.7-0.7H270z M270.7,464.2h15.5v56.3h-15.5C270.7,518.7,270.7,466,270.7,464.2z"/></g><g><path d="M297.7,483c-0.4,0-0.7,0.3-0.7,0.7c0,1.2,0,36.3,0,37.5c0,0.4,0.3,0.7,0.7,0.7h16.9c0.4,0,0.7-0.3,0.7-0.7v-37.5       c0-0.4-0.3-0.7-0.7-0.7H297.7z M298.4,484.4h15.5v36.1h-15.5C298.4,518.2,298.4,486.7,298.4,484.4z"/></g><g><path d="M323.5,499.8c-0.4,0-0.7,0.3-0.7,0.7c0,0.6,0,20,0,20.7c0,0.4,0.3,0.7,0.7,0.7h16.9c0.4,0,0.7-0.3,0.7-0.7v-20.7       c0-0.4-0.3-0.7-0.7-0.7H323.5z M324.3,501.3h15.5v19.2h-15.5C324.3,518.8,324.3,503,324.3,501.3z"/></g></g><g><path class="st5" d="M1158.4,412.3c-1.2-0.1-2.2,0.9-2.1,2.5l0.1,2.5c0.1,1.5-0.4,3.7-1.2,5l-1.2,2.2c-1.1,1.9,0,3.5,2.1,3.4      l2.5-0.1c1.4-0.1,3.7,0.5,5,1.2l2.2,1.2c1.9,1.1,3.5,0,3.4-2.1l-0.1-2.5c-0.1-1.5,0.4-3.7,1.2-5l1.2-2.2      c1.1-1.9,0.1-3.5-2.1-3.4l-2.5,0.1c-1.5,0.1-3.7-0.4-5-1.2l-2.1-1.2C1159.3,412.4,1158.8,412.3,1158.4,412.3z M1158.1,413.7      c0.2-0.1,0.6-0.1,1,0.2l2.2,1.2c1.5,0.9,4.1,1.5,5.8,1.4l2.5-0.1c1-0.1,1.3,0.4,0.8,1.3l-1.2,2.1c-0.9,1.5-1.4,4.1-1.3,5.8      l0.1,2.5c0.1,1-0.4,1.3-1.3,0.8l-2.2-1.2c-1.5-0.9-4.1-1.5-5.8-1.4l-2.5,0.1c-1,0.1-1.3-0.4-0.8-1.3l1.2-2.1      c0.8-1.5,1.4-4.1,1.3-5.8l-0.1-2.5C1157.7,414.2,1157.8,413.9,1158.1,413.7z"/></g></g></g></svg>