<svg width="2029" height="1609" viewBox="0 0 2029 1609" fill="none" xmlns="http://www.w3.org/2000/svg">
<rect width="2029" height="1609" fill="white"/>
<path d="M976.682 482.658C976.528 483.733 968.039 482.658 966.113 482.658C944.564 482.658 922.818 492.095 902.153 497.327C825.311 516.781 770.661 578.866 742.892 651.76C704.207 753.307 743.488 881.969 843.934 928.007C864.563 937.462 864.597 959.565 861.518 979.576C858.343 1000.21 876.655 997.771 892.222 1001.81C909.773 1006.36 927.826 1009.98 945.887 1012.01C951.354 1012.63 976.954 1012.72 971.762 1014.02" stroke="black" stroke-width="13" stroke-linecap="round"/>
<path d="M901.243 1004.19C897.764 1035.49 894.923 1065.21 906.527 1096.94C919.745 1133.08 941.536 1128.83 971.762 1128.83" stroke="black" stroke-width="13" stroke-linecap="round"/>
<path d="M993.081 407.221C979.804 424.924 984.433 476.089 983.515 493.138C977.176 610.856 979.425 729.394 977.046 847.285C975.096 943.942 978.345 1040.56 976.044 1137.2C975.588 1156.34 976.56 1175.47 973.402 1194.42" stroke="black" stroke-width="13" stroke-linecap="round"/>
<path d="M981.602 653.221C999.729 616.967 1016.59 580.996 1031.35 543.159C1037.13 528.338 1047.04 516.547 1053.4 502.251C1053.67 501.627 1118.52 524.508 1125.37 526.668C1157.33 536.739 1187.72 547.04 1216.49 564.297C1226.99 570.602 1228.26 589.553 1232.7 600.195C1241.11 620.321 1251.13 639.898 1259.49 659.963C1263.36 669.258 1274.43 688.614 1274.43 698.776C1274.43 710.244 1254.61 729.015 1249.01 739.138C1247.33 742.182 1243.08 758.643 1240.72 759.821" stroke="black" stroke-width="13" stroke-linecap="round"/>
<path d="M1219.4 571.225C1222.21 571.576 1221.11 576.708 1220.95 578.696C1220.02 590.348 1211.64 602.364 1206.64 612.407C1205.86 613.984 1179.64 661.603 1180.4 662.7C1182.31 665.426 1194.42 670.43 1197.08 671.902C1214.21 681.397 1231.75 690.023 1249.83 697.504C1253.61 699.068 1276.41 710.527 1270.24 708.984" stroke="black" stroke-width="13" stroke-linecap="round"/>
<path d="M981.602 882.816L1130.84 953.336" stroke="black" stroke-width="13" stroke-linecap="round"/>
<path d="M994.722 877.9V876.26" stroke="black" stroke-width="13" stroke-linecap="round"/>
<path d="M1142.32 812.302C1154.41 813.511 1346.43 798.504 1347.32 817.222C1348.75 847.251 1343.11 877.085 1345.68 907.604C1347.94 934.515 1348.96 960.846 1348.96 987.69C1348.96 993.072 1349.16 1004.85 1351.42 1009.83C1356.38 1020.74 1336.08 1014.02 1331.01 1014.02C1305.18 1014.02 1261.12 1010.81 1239.08 1025.5" stroke="black" stroke-width="13" stroke-linecap="round"/>
<path d="M1142.32 802.459C1142.32 843.969 1143.34 885.604 1143.96 927.098" stroke="black" stroke-width="13" stroke-linecap="round"/>
<path d="M1147.24 809.012C1150.35 804.498 1153.74 800.238 1157.08 795.893" stroke="black" stroke-width="13" stroke-linecap="round"/>
<path d="M1137.4 823.782C1156.78 802.252 1175.77 780.49 1196.44 759.822" stroke="black" stroke-width="13" stroke-linecap="round"/>
<path d="M1194.8 761.461C1129.73 761.461 1325.03 760.943 1389.96 756.541" stroke="black" stroke-width="13" stroke-linecap="round"/>
<path d="M1404.72 758.177C1400.74 753.694 1338.39 824.343 1335.84 827.057" stroke="black" stroke-width="13" stroke-linecap="round"/>
<path d="M1406.36 763.1C1406.36 825.124 1408 887.88 1408 950.059" stroke="black" stroke-width="13" stroke-linecap="round"/>
<path d="M1337.48 1025.5C1344.28 1031.54 1400.93 961.174 1408 953.34" stroke="black" stroke-width="13" stroke-linecap="round"/>
<path d="M1128.17 1023.21C1118.63 1024.01 1111.82 1034.2 1108.43 1042.07C1102.21 1056.5 1099.13 1074.18 1107.57 1088.38C1114.36 1099.81 1126.41 1104.5 1139.18 1105.78C1147.18 1106.58 1157.19 1105.44 1163.77 1100.61C1181.66 1087.46 1189.54 1064.02 1179.39 1043.79C1173.92 1032.9 1165.35 1023.15 1152.86 1021.03C1143.57 1019.45 1134.6 1020.11 1125.95 1023.85" stroke="black" stroke-width="13" stroke-linecap="round"/>
<path d="M1129.84 946.493C1134.44 946.493 1156.81 942.986 1158.25 946.224C1159.9 949.922 1159.49 956.414 1160.58 960.579C1161.43 963.807 1161.5 972.27 1163.48 974.904C1165.89 978.115 1173.75 981.169 1177.41 982.603C1179.87 983.565 1183.41 986.465 1185.77 984.633C1188.67 982.375 1193.49 981.948 1196.87 980.604C1202.16 978.504 1207.51 976.187 1212.51 973.471C1215.55 971.822 1217.97 967.285 1219.88 970.218C1222.51 974.261 1225.85 977.484 1229.34 980.753C1231.84 983.089 1242.08 987.112 1237.82 991.377C1235.03 994.163 1231.01 995.691 1228.42 998.629C1224.9 1002.61 1221.8 1007.57 1219.55 1012.33C1215.98 1019.9 1221.13 1029.14 1224.51 1036.74C1225.53 1039.05 1227.37 1039.99 1229.82 1040.74C1237.17 1042.98 1245.07 1044.52 1252.62 1045.87C1258.59 1046.94 1261.12 1046.75 1260.88 1052.94C1260.67 1058.54 1259.84 1064.01 1259.84 1069.63C1259.84 1071.7 1260.86 1074.25 1260.65 1076.16C1260.45 1077.95 1251.45 1079.09 1249.75 1079.53C1243.68 1081.12 1237.57 1083.03 1231.97 1085.83C1228.28 1087.68 1226.7 1091.83 1224.09 1095.23C1216.67 1104.89 1215.2 1106.56 1222.83 1115.52C1226.59 1119.94 1229.95 1124.61 1233.55 1129.1C1235.19 1131.15 1239.85 1134.72 1238.77 1137.85C1237.39 1141.87 1230.51 1145.96 1227.1 1147.93C1222.86 1150.39 1218.57 1154.38 1216.03 1158.56C1214.32 1161.37 1197.42 1148.74 1194.54 1146.86C1188 1142.58 1175.62 1150.71 1169.59 1153.72C1163.17 1156.94 1164.6 1174.32 1162.19 1180.58C1161.1 1183.43 1152.69 1182.31 1150.58 1182.31C1143.9 1182.31 1136.8 1183.61 1130.2 1182.43C1126.17 1181.72 1126.42 1171.16 1125.49 1167.81C1124.76 1165.22 1124.59 1158.47 1122.32 1156.65C1118.27 1153.38 1113.01 1149.66 1108.36 1147.43C1105.82 1146.21 1101.68 1143.1 1098.69 1143.1C1092.42 1143.1 1086.41 1150.83 1082.54 1154.86C1078.17 1159.41 1077.05 1161.51 1072.37 1156.83C1065.89 1150.35 1059.86 1144.4 1052.31 1139.13C1047.21 1135.57 1046.8 1135.42 1051.18 1130.57C1054.85 1126.5 1063.1 1118.8 1063.74 1113.02C1064.36 1107.48 1058.8 1099.32 1056.37 1094.46C1054.34 1090.4 1047.36 1090.69 1043.57 1089.32C1038.47 1087.48 1030.48 1084.62 1026.53 1080.67C1024.21 1078.35 1026.71 1064.7 1026.71 1060.94C1026.71 1053.32 1025.6 1051.75 1034.11 1049.63C1042.6 1047.52 1051.71 1047.11 1059.95 1044.02C1060.95 1043.65 1060.52 1042.01 1060.67 1041.13C1061.48 1036.13 1064.98 1031.93 1067.29 1027.55C1068.29 1025.66 1069.78 1023.75 1068.75 1021.55C1064.58 1012.57 1055.08 1003.54 1047.6 997.465C1043.82 994.397 1040.83 994.205 1046.19 991.974C1055.64 988.046 1065.92 984.929 1072.25 976.396C1076.05 971.266 1073.39 964.27 1081.8 971.442C1086.34 975.316 1090.98 978.8 1095.76 982.364C1096.74 983.09 1099.43 986.333 1100.84 986.125C1105.96 985.366 1117.15 981.786 1120.83 977.769C1124.28 974.004 1124.62 964.086 1125.25 959.415C1125.86 954.879 1127.69 949.909 1127.69 945.419" stroke="black" stroke-width="13" stroke-linecap="round"/>
<path d="M1176.04 544.58C1179.7 540.11 1180.46 532.388 1182.96 527.331C1195.46 502.133 1221.4 494.652 1247.6 502.83C1272.64 510.645 1290.73 540.377 1280.37 565.799C1273.18 583.459 1251.98 591.837 1236.74 600.984" stroke="black" stroke-width="13" stroke-linecap="round"/>
<path d="M1120.71 520.405C1125.25 515.357 1128.52 506.061 1129.34 499.545C1129.86 495.309 1123.63 489.108 1121.64 485.608C1119.56 481.959 1118.41 475.743 1115.64 472.716C1114.26 471.213 1114.41 469.033 1113.61 467.225C1111.5 462.474 1113.36 462.327 1117.31 458.809C1123.79 453.031 1130.36 447.196 1135.48 440.127C1137.43 437.442 1136.3 437.363 1138.65 438.426C1146.22 441.855 1153.03 446.023 1159.27 451.527C1160.75 452.831 1163.53 455.424 1165.54 455.824C1169.1 456.537 1174.56 453.566 1177.83 452.482C1182.81 450.831 1187.85 449.357 1192.75 447.468C1197.38 445.682 1197.62 437.678 1198.96 433.741C1201.67 425.758 1204.89 417.972 1207.61 409.985C1210.22 402.362 1208.1 405.503 1217.49 406.434C1218.11 406.496 1238.54 405.433 1238.86 406.852C1241.27 417.694 1241.78 428.433 1242.35 439.351C1242.46 441.448 1253.55 444.936 1255.3 445.737C1260.62 448.161 1265.59 450.897 1271.06 453.019C1274.96 454.532 1275.98 452.92 1279.57 451.05C1286.5 447.434 1293.5 443.801 1300.25 439.858C1304.43 437.415 1308.25 434.89 1312.66 432.875C1316.14 431.285 1318.81 434.738 1321.91 436.635C1327.32 439.94 1331.72 443.927 1336.51 448.006C1339.9 450.897 1335.67 453.942 1333.22 456.63C1326.62 463.896 1319.72 470.935 1312.93 478.028C1311.32 479.712 1309.78 481.119 1308.99 483.34C1307.23 488.275 1310.67 495.239 1311.71 500.112C1312.04 501.677 1312.5 512.109 1314.09 512.347C1319.19 513.112 1324.54 514.916 1329.67 515.929C1344.86 518.928 1359.32 523.472 1374.91 524.135C1378.05 524.269 1378.29 524.145 1377.42 527.299C1375.9 532.854 1374.67 538.22 1373.99 543.951C1373.65 546.82 1374.92 559.339 1372.29 560.813C1362.54 566.27 1350.46 564.965 1340.18 568.214C1332.07 570.772 1330.06 579.26 1326.45 586.478C1325.61 588.151 1318.05 600.527 1321.14 602.414C1328.23 606.748 1335.13 612.145 1341.25 617.753C1344.13 620.387 1347.21 624.723 1348.65 628.318C1349.47 630.37 1351.38 631.647 1352.11 633.63C1353.19 636.541 1337.69 650.442 1335.55 653.147C1334.59 654.359 1324.62 668.93 1322.6 666.905C1312.89 657.191 1305.35 644.17 1292.07 638.703C1291.64 638.528 1284.27 645.57 1283.24 646.224C1279.75 648.42 1275.79 651.108 1271.78 652.312C1267.71 653.532 1265.13 654.239 1261.99 657.385" stroke="black" stroke-width="13" stroke-linecap="round"/>
<path d="M731.209 468.783C735.439 476.089 741.819 480.03 747.874 485.448C756.113 492.82 762.422 499.82 768.242 509.519" stroke="black" stroke-width="13" stroke-linecap="round"/>
<path d="M627.517 726.166C644.82 726.166 662.053 728.018 679.363 728.018" stroke="black" stroke-width="13" stroke-linecap="round"/>
<path d="M738.615 981.687C748.652 964.542 766.906 952.881 775.648 935.396" stroke="black" stroke-width="13" stroke-linecap="round"/>
<path d="M971.164 493.518C971.011 494.593 962.521 493.518 960.596 493.518C939.046 493.518 917.301 502.955 896.636 508.186C819.794 527.64 765.143 589.726 737.374 662.619C698.69 764.167 737.971 892.828 838.416 938.866C859.045 948.322 859.079 970.424 856.001 990.435C852.825 1011.07 871.138 1008.63 886.705 1012.67C904.256 1017.22 922.309 1020.84 940.369 1022.87C945.837 1023.49 971.436 1023.58 966.244 1024.87" stroke="black" stroke-width="6" stroke-linecap="round"/>
<path d="M895.724 1015.05C892.246 1046.35 889.405 1076.07 901.009 1107.8C914.226 1143.94 936.018 1139.69 966.244 1139.69" stroke="black" stroke-width="6" stroke-linecap="round"/>
<path d="M987.564 418.08C974.287 435.784 978.916 486.949 977.998 503.997C971.659 621.715 973.907 740.253 971.529 858.144C969.579 954.802 972.828 1051.42 970.527 1148.06C970.071 1167.2 971.043 1186.33 967.885 1205.28" stroke="black" stroke-width="6" stroke-linecap="round"/>
<path d="M976.085 664.08C994.212 627.826 1011.08 591.856 1025.83 554.019C1031.61 539.197 1041.53 527.407 1047.88 513.11C1048.16 512.487 1113 535.367 1119.86 537.528C1151.81 547.598 1182.21 557.9 1210.97 575.156C1221.48 581.461 1222.74 600.412 1227.19 611.054C1235.6 631.18 1245.61 650.758 1253.97 670.823C1257.84 680.117 1268.91 699.473 1268.91 709.636C1268.91 721.103 1249.09 739.875 1243.49 749.998C1241.81 753.041 1237.56 769.502 1235.2 770.68" stroke="black" stroke-width="6" stroke-linecap="round"/>
<path d="M1213.88 582.084C1216.69 582.435 1215.59 587.567 1215.43 589.555C1214.5 601.208 1206.13 613.223 1201.13 623.266C1200.34 624.843 1174.12 672.463 1174.89 673.559C1176.8 676.285 1188.9 681.289 1191.56 682.761C1208.69 692.256 1226.23 700.882 1244.31 708.363C1248.09 709.927 1270.89 721.386 1264.72 719.843" stroke="black" stroke-width="6" stroke-linecap="round"/>
<path d="M976.085 893.676L1125.32 964.195" stroke="black" stroke-width="6" stroke-linecap="round"/>
<path d="M989.204 888.759V887.119" stroke="black" stroke-width="6" stroke-linecap="round"/>
<path d="M1136.8 823.161C1148.89 824.37 1340.91 809.363 1341.8 828.081C1343.23 858.11 1337.59 887.944 1340.16 918.463C1342.43 945.375 1343.44 971.706 1343.44 998.549C1343.44 1003.93 1343.64 1015.71 1345.9 1020.69C1350.86 1031.6 1330.57 1024.88 1325.49 1024.88C1299.66 1024.88 1255.6 1021.67 1233.56 1036.36" stroke="black" stroke-width="6" stroke-linecap="round"/>
<path d="M1136.8 813.318C1136.8 854.828 1137.82 896.464 1138.44 937.958" stroke="black" stroke-width="6" stroke-linecap="round"/>
<path d="M1141.72 819.872C1144.84 815.357 1148.22 811.097 1151.56 806.752" stroke="black" stroke-width="6" stroke-linecap="round"/>
<path d="M1131.88 834.643C1151.26 813.113 1170.26 791.352 1190.92 770.684" stroke="black" stroke-width="6" stroke-linecap="round"/>
<path d="M1189.28 772.32C1124.21 772.32 1319.52 771.802 1384.44 767.4" stroke="black" stroke-width="6" stroke-linecap="round"/>
<path d="M1399.2 769.037C1395.22 764.553 1332.87 835.203 1330.32 837.916" stroke="black" stroke-width="6" stroke-linecap="round"/>
<path d="M1400.84 773.959C1400.84 835.983 1402.48 898.74 1402.48 960.918" stroke="black" stroke-width="6" stroke-linecap="round"/>
<path d="M1331.96 1036.36C1338.76 1042.4 1395.41 972.036 1402.48 964.201" stroke="black" stroke-width="6" stroke-linecap="round"/>
<path d="M1122.65 1034.07C1113.11 1034.87 1106.3 1045.06 1102.91 1052.93C1096.69 1067.36 1093.61 1085.03 1102.05 1099.24C1108.84 1110.67 1120.89 1115.36 1133.66 1116.64C1141.66 1117.44 1151.67 1116.3 1158.25 1111.47C1176.14 1098.32 1184.02 1074.87 1173.87 1054.65C1168.4 1043.75 1159.84 1034.01 1147.34 1031.89C1138.06 1030.31 1129.08 1030.97 1120.43 1034.7" stroke="black" stroke-width="6" stroke-linecap="round"/>
<path d="M1124.32 957.352C1128.93 957.352 1151.3 953.845 1152.74 957.084C1154.38 960.781 1153.97 967.274 1155.06 971.438C1155.91 974.666 1155.98 983.13 1157.96 985.763C1160.37 988.974 1168.24 992.029 1171.89 993.463C1174.35 994.424 1177.89 997.324 1180.25 995.492C1183.15 993.235 1187.97 992.808 1191.35 991.463C1196.64 989.363 1201.99 987.046 1206.99 984.331C1210.03 982.681 1212.46 978.144 1214.36 981.078C1216.99 985.12 1220.33 988.343 1223.82 991.612C1226.32 993.948 1236.56 997.971 1232.3 1002.24C1229.51 1005.02 1225.5 1006.55 1222.9 1009.49C1219.38 1013.47 1216.28 1018.42 1214.03 1023.19C1210.46 1030.75 1215.61 1040 1218.99 1047.6C1220.02 1049.91 1221.85 1050.85 1224.3 1051.6C1231.65 1053.84 1239.55 1055.38 1247.1 1056.73C1253.08 1057.8 1255.6 1057.61 1255.37 1063.8C1255.15 1069.4 1254.32 1074.87 1254.32 1080.49C1254.32 1082.56 1255.34 1085.11 1255.13 1087.02C1254.93 1088.81 1245.93 1089.95 1244.23 1090.39C1238.17 1091.98 1232.05 1093.89 1226.45 1096.69C1222.76 1098.54 1221.18 1102.69 1218.57 1106.09C1211.15 1115.75 1209.68 1117.41 1217.32 1126.38C1221.07 1130.8 1224.43 1135.46 1228.03 1139.96C1229.67 1142.01 1234.33 1145.58 1233.25 1148.71C1231.87 1152.73 1224.99 1156.82 1221.58 1158.79C1217.34 1161.25 1213.05 1165.24 1210.51 1169.42C1208.81 1172.23 1191.9 1159.6 1189.02 1157.72C1182.48 1153.44 1170.1 1161.57 1164.08 1164.58C1157.65 1167.8 1159.08 1185.18 1156.67 1191.44C1155.58 1194.29 1147.17 1193.17 1145.07 1193.17C1138.38 1193.17 1131.28 1194.46 1124.68 1193.29C1120.65 1192.58 1120.91 1182.02 1119.97 1178.67C1119.24 1176.08 1119.07 1169.33 1116.8 1167.51C1112.75 1164.24 1107.49 1160.52 1102.84 1158.29C1100.3 1157.07 1096.16 1153.96 1093.17 1153.96C1086.91 1153.96 1080.89 1161.69 1077.02 1165.72C1072.65 1170.27 1071.53 1172.37 1066.85 1167.69C1060.37 1161.21 1054.34 1155.26 1046.79 1149.99C1041.69 1146.43 1041.28 1146.28 1045.66 1141.42C1049.33 1137.35 1057.58 1129.66 1058.22 1123.88C1058.84 1118.34 1053.28 1110.18 1050.85 1105.31C1048.82 1101.26 1041.84 1101.55 1038.05 1100.18C1032.95 1098.34 1024.96 1095.48 1021.01 1091.53C1018.69 1089.21 1021.19 1075.56 1021.19 1071.8C1021.19 1064.18 1020.08 1062.61 1028.59 1060.49C1037.08 1058.38 1046.19 1057.97 1054.43 1054.88C1055.43 1054.51 1055 1052.87 1055.15 1051.98C1055.96 1046.99 1059.46 1042.79 1061.77 1038.41C1062.77 1036.52 1064.26 1034.61 1063.24 1032.41C1059.07 1023.43 1049.56 1014.4 1042.08 1008.32C1038.3 1005.26 1035.31 1005.06 1040.67 1002.83C1050.13 998.906 1060.4 995.788 1066.73 987.255C1070.53 982.125 1067.87 975.13 1076.28 982.301C1080.82 986.175 1085.46 989.66 1090.24 993.224C1091.22 993.949 1093.91 997.192 1095.32 996.984C1100.44 996.225 1111.63 992.645 1115.31 988.628C1118.76 984.863 1119.1 974.945 1119.73 970.274C1120.34 965.739 1122.18 960.769 1122.18 956.278" stroke="black" stroke-width="6" stroke-linecap="round"/>
<path d="M1170.52 555.439C1174.18 550.97 1174.94 543.247 1177.45 538.19C1189.94 512.992 1215.88 505.511 1242.09 513.689C1267.13 521.505 1285.21 551.236 1274.85 576.658C1267.66 594.319 1246.47 602.697 1231.22 611.843" stroke="black" stroke-width="6" stroke-linecap="round"/>
<path d="M1115.19 531.264C1119.74 526.217 1123 516.921 1123.82 510.404C1124.35 506.169 1118.11 499.967 1116.12 496.467C1114.04 492.818 1112.89 486.602 1110.12 483.575C1108.74 482.072 1108.89 479.893 1108.09 478.084C1105.98 473.333 1107.84 473.187 1111.79 469.668C1118.28 463.891 1124.85 458.056 1129.97 450.986C1131.91 448.302 1130.78 448.222 1133.13 449.285C1140.7 452.715 1147.51 456.882 1153.75 462.386C1155.23 463.69 1158.02 466.283 1160.02 466.684C1163.58 467.396 1169.05 464.425 1172.31 463.341C1177.29 461.69 1182.34 460.217 1187.23 458.328C1191.86 456.542 1192.1 448.538 1193.44 444.6C1196.15 436.617 1199.37 428.831 1202.1 420.845C1204.7 413.222 1202.59 416.362 1211.97 417.293C1212.59 417.355 1233.03 416.292 1233.34 417.711C1235.75 428.553 1236.26 439.293 1236.83 450.21C1236.94 452.308 1248.03 455.795 1249.79 456.597C1255.1 459.021 1260.07 461.756 1265.54 463.879C1269.45 465.392 1270.46 463.779 1274.05 461.909C1280.98 458.293 1287.98 454.661 1294.73 450.718C1298.91 448.275 1302.74 445.75 1307.14 443.734C1310.62 442.144 1313.29 445.597 1316.4 447.495C1321.8 450.8 1326.21 454.786 1330.99 458.865C1334.38 461.756 1330.15 464.802 1327.71 467.49C1321.1 474.755 1314.2 481.794 1307.41 488.887C1305.8 490.572 1304.27 491.979 1303.47 494.199C1301.71 499.134 1305.15 506.099 1306.19 510.971C1306.52 512.536 1306.99 522.968 1308.58 523.207C1313.67 523.971 1319.02 525.775 1324.15 526.788C1339.35 529.787 1353.8 534.331 1369.4 534.995C1372.54 535.128 1372.77 535.005 1371.9 538.158C1370.38 543.713 1369.15 549.08 1368.47 554.811C1368.13 557.679 1369.4 570.199 1366.77 571.672C1357.03 577.129 1344.95 575.825 1334.66 579.073C1326.56 581.632 1324.54 590.119 1320.93 597.337C1320.1 599.01 1312.53 611.386 1315.62 613.273C1322.71 617.607 1329.61 623.005 1335.73 628.613C1338.61 631.246 1341.7 635.583 1343.13 639.177C1343.96 641.23 1345.86 642.506 1346.6 644.489C1347.68 647.401 1332.17 661.301 1330.03 664.007C1329.08 665.219 1319.11 679.789 1317.08 677.764C1307.37 668.05 1299.83 655.03 1286.55 649.563C1286.13 649.387 1278.76 656.43 1277.72 657.083C1274.24 659.28 1270.27 661.967 1266.26 663.171C1262.19 664.391 1259.62 665.099 1256.47 668.244" stroke="black" stroke-width="6" stroke-linecap="round"/>
<path d="M725.692 479.643C729.921 486.948 736.301 490.89 742.356 496.307C750.595 503.679 756.905 510.68 762.724 520.378" stroke="black" stroke-width="6" stroke-linecap="round"/>
<path d="M622 737.025C639.303 737.025 656.536 738.877 673.846 738.877" stroke="black" stroke-width="6" stroke-linecap="round"/>
<path d="M733.098 992.547C743.134 975.401 761.388 963.741 770.13 946.256" stroke="black" stroke-width="6" stroke-linecap="round"/>
</svg>
