<svg width="2297" height="1706" viewBox="0 0 2297 1706" fill="none" xmlns="http://www.w3.org/2000/svg">
<rect width="2297" height="1706" fill="white"/>
<path d="M775.127 649.123C785.667 649.123 791.579 650.459 800.412 656.347" stroke="black" stroke-width="10" stroke-linecap="round"/>
<path d="M865.43 501.025C875.95 504.181 886.522 522.117 894.327 529.922" stroke="black" stroke-width="10" stroke-linecap="round"/>
<path d="M1024.36 381.824C1027.74 383.698 1053.44 446.248 1035.2 414.333" stroke="black" stroke-width="10" stroke-linecap="round"/>
<path d="M1201.36 360.152C1202.32 373.657 1208.58 386.534 1208.58 399.886" stroke="black" stroke-width="10" stroke-linecap="round"/>
<path d="M1327.78 399.885C1323.45 409.095 1309.72 423.99 1309.72 432.394" stroke="black" stroke-width="10" stroke-linecap="round"/>
<path d="M1443.37 511.862C1431.29 511.152 1419.28 509.516 1407.25 508.25" stroke="black" stroke-width="10" stroke-linecap="round"/>
<path d="M1472.27 334.867C1481.28 343.375 1490.08 345.62 1501.17 349.316" stroke="black" stroke-width="10" stroke-linecap="round"/>
<path d="M1548.12 204.83C1549.2 211.28 1568.22 236.783 1558.96 222.891" stroke="black" stroke-width="10" stroke-linecap="round"/>
<path d="M1667.32 186.77C1667.32 190.839 1670.94 208.562 1670.94 204.83" stroke="black" stroke-width="10" stroke-linecap="round"/>
<path d="M1804.58 226.504C1804.14 232.237 1797.36 254.196 1797.36 251.789" stroke="black" stroke-width="10" stroke-linecap="round"/>
<path d="M179 850.383C180.469 857.726 186.926 862.657 193.449 864.831" stroke="black" stroke-width="10" stroke-linecap="round"/>
<path d="M197.061 745.631C200.193 752.941 235.786 787.318 218.733 774.528" stroke="black" stroke-width="10" stroke-linecap="round"/>
<path d="M290.976 680.613C296.874 687.048 301.616 694.106 306.227 701.483C310.744 708.71 293.39 690.252 287.364 684.225" stroke="black" stroke-width="10" stroke-linecap="round"/>
<path d="M431.849 677V705.897" stroke="black" stroke-width="10" stroke-linecap="round"/>
<path d="M560.224 687C560.224 692.889 561.631 721.619 553 708.673" stroke="black" stroke-width="10" stroke-linecap="round"/>
<path d="M1666 996.545C1666.54 1006.78 1669.05 1016.83 1671.05 1026.84" stroke="black" stroke-width="11" stroke-linecap="round"/>
<path d="M1772.04 961.199C1772.58 971.438 1775.09 981.486 1777.09 991.496" stroke="black" stroke-width="11" stroke-linecap="round"/>
<path d="M1908.37 941C1907.43 951.361 1903.32 960.779 1903.32 971.296" stroke="black" stroke-width="11" stroke-linecap="round"/>
<path d="M2024.51 1001.59C2021.65 1011.12 2012.41 1013.5 2004.31 1016.74" stroke="black" stroke-width="11" stroke-linecap="round"/>
<path d="M2110.35 1107.63C2093.23 1107.63 2076.79 1110.42 2059.85 1112.68" stroke="black" stroke-width="11" stroke-linecap="round"/>
<path d="M868.049 1290.24C870.67 1302.47 877.387 1317.33 885.802 1325.74" stroke="black" stroke-width="10" stroke-linecap="round"/>
<path d="M1002.97 1247.63V1272.48" stroke="black" stroke-width="10" stroke-linecap="round"/>
<path d="M1155.65 1279.58C1146.34 1279.58 1131.63 1303.08 1141.45 1307.99" stroke="black" stroke-width="10" stroke-linecap="round"/>
<path d="M1237.32 1418.06C1226.61 1417.3 1216.12 1414.51 1205.36 1414.51" stroke="black" stroke-width="10" stroke-linecap="round"/>
<path d="M978.226 800.033C976.492 800.25 975.288 801.762 973.092 801.81C953.893 802.237 931.53 778.375 920.767 764.886C905.473 745.72 900.014 708.757 919.681 690.15C935.693 675.001 954.38 677.249 971.266 689.311C984.06 698.449 980.031 715.812 967.415 724.507C944.537 740.274 924.001 704.688 921.063 686.694C914.615 647.2 935.607 608.988 966.181 585.598C981.61 573.795 1009 558.621 1024.04 579.674C1027.44 584.445 1031.31 595.827 1024.92 600.111C1010.27 609.935 992.204 586.934 994.615 573.553C1002.28 530.996 1052.84 509.732 1090.48 505.234C1117.29 502.031 1154.81 497.262 1174.79 519.45C1188.56 534.74 1197.65 549.663 1179.58 564.766C1164.16 577.654 1149.04 566.852 1142.71 549.464C1129.79 514.033 1186.86 507.342 1208.7 504.395C1235.51 500.778 1269.53 500.166 1294.94 511.108C1311.21 518.115 1335.63 532.558 1335.91 553.018C1336.09 565.258 1327.44 576.685 1318.54 584.413C1308.84 592.837 1285.82 588.681 1287.93 572.664C1291.26 547.492 1328.47 549.236 1346.18 551.636C1376.11 555.688 1401.94 572.368 1420.47 596.013C1433.35 612.44 1442.3 633.917 1444.96 654.707C1446.85 669.527 1448.4 690.87 1430.4 695.481C1415.9 699.194 1397.71 689.988 1396.73 673.662C1395.37 651.053 1424.74 642.251 1442.24 643.748C1488.12 647.671 1494.96 699.607 1494.96 736.453C1494.96 769.094 1480.61 810.699 1441.06 808.228C1424.37 807.184 1408.55 797.935 1394.16 790.259C1378.14 781.708 1362.95 771.978 1347.52 762.468C1328.29 750.624 1307.84 740.433 1288.38 728.851C1245.23 703.176 1198.69 698.152 1149.81 709.105C1125.29 714.601 1097.98 724.435 1082.68 745.635C1069.54 763.841 1087.97 780.289 1105.88 783.743C1129.95 788.385 1154.69 779.35 1172.82 763.8C1193.02 746.469 1194.08 720.848 1203.23 697.308C1212.36 673.793 1226.17 646.504 1249.82 634.764C1266.97 626.252 1291.01 625.955 1308.96 632.246C1319.08 635.793 1335.69 644.644 1336.16 657.027C1336.71 671.346 1321.34 680.485 1308.67 682.153C1288.47 684.81 1264.01 671.951 1247.65 661.322C1226.83 647.79 1209.31 633.692 1185.45 625.286C1148.24 612.176 1098 604.232 1061.5 624.595C1044.36 634.158 1034.75 650.72 1033.07 670.158C1032.16 680.618 1030.7 697.681 1039.63 705.255C1061.92 724.146 1100.43 667.114 1075.77 659.544C1058.88 654.359 1034.16 691.565 1029.17 702.491C1023.12 715.737 1021.36 731.382 1018.26 745.536C1015.3 759.022 1013.67 772.367 1015.94 786.113C1025.75 845.54 1107.61 859.056 1156.82 847.422C1177.28 842.588 1196.1 829.897 1217.15 827.924C1235.45 826.208 1255.31 836.572 1270.76 845.497C1284.64 853.521 1298.54 864.995 1314.34 868.994C1333.27 873.787 1350.43 857.161 1360 843.375C1364.42 837.016 1372.01 829.568 1371.9 821.26C1371.81 814.32 1368.52 806.619 1365.63 800.428C1359.28 786.791 1345.94 779.522 1331.27 781.571C1318.59 783.343 1312.26 790.018 1301.16 795.393C1285.37 803.045 1271.29 795.867 1255.9 791.296C1242.09 787.196 1225.22 790.303 1215.02 801.514C1209.35 807.753 1209.54 819.221 1209.45 826.986C1209.25 843.188 1212.31 858.19 1223.22 870.722C1243.82 894.401 1276.18 901.534 1294.8 928.181C1314.58 956.507 1310.03 988.057 1305.21 1020.39" stroke="black" stroke-width="6" stroke-linecap="round"/>
<path d="M977.062 807.991C975.821 806.594 974.971 805.751 973.167 804.875C952.92 795.04 931.716 788.32 917.689 769.087C898.635 742.96 908.137 694.484 938.894 680.503C958.696 671.502 977.713 678.323 983.294 699.977C988.002 718.245 966.495 726.657 951.92 721.917C934.77 716.341 919.933 702.73 915.179 685.004C909.662 664.427 919.939 642.973 930.585 625.977C944.411 603.905 965.264 577.539 991.602 570.283C1007.56 565.885 1025.98 574.564 1032.8 589.713C1037.26 599.615 1028.93 610.681 1018 609.706C1007.74 608.79 998.657 598.532 997.445 588.631C996.354 579.729 1001.51 570.645 1005.88 563.402C1013.57 550.663 1022.89 537.809 1034.27 528.09C1047.11 517.131 1064.26 514.536 1080.4 512.165C1096.86 509.749 1113.39 508.473 1129.48 513.636C1144.34 518.408 1184.96 532.724 1180.5 554.617C1177.11 571.236 1154.52 570.223 1146.27 558.685C1129 534.568 1150.55 512.78 1172.75 504.202C1190.73 497.258 1211.15 494.685 1230.31 496.629C1252.02 498.834 1273.58 509.371 1293.79 517.098C1318.66 526.608 1340.84 540.298 1354.33 564.008C1377.77 605.2 1285.76 618.941 1288.55 572.187C1292.08 513.172 1388.65 563.364 1411.58 582.962C1427.73 596.765 1437.72 611.299 1443.61 631.56C1450.15 654.089 1447.61 672.216 1433.35 690.63C1419.83 708.094 1390.11 711.001 1380.04 688.206C1367.57 659.997 1407.67 643.079 1429.8 647.095C1447.01 650.219 1466.59 657.804 1477.58 672.022C1489.07 686.886 1496.16 709.568 1494.84 728.192C1493.28 750.409 1485.92 806.755 1454.56 808.207C1430.71 809.311 1410.96 796.38 1391.46 784.449C1370.84 771.834 1350.34 759.986 1330.23 746.497C1281.78 714.013 1229.21 682.232 1168.9 690.457C1145.34 693.669 1118.57 703.649 1102.47 721.614C1089.94 735.602 1079.51 761.131 1090.87 778.564C1121.47 825.507 1181.31 789.401 1205.55 754.849C1215.08 741.271 1220.48 727.474 1221.04 710.969C1221.93 684.993 1226.4 664.944 1242.25 643.806C1252.02 630.779 1272.2 620.26 1288.64 622.342C1307.14 624.686 1328.36 647.986 1328.54 666.655C1328.72 685.727 1314.79 695.836 1296.65 696.688C1265.28 698.162 1240.7 673.943 1217.93 656.01C1196.2 638.892 1172.92 622.545 1149.94 607.11C1132.45 595.353 1111.74 584.203 1090.1 584.78C1044.16 586.005 1005.88 652.982 1033.45 692.101C1052.04 718.486 1106.6 701.981 1105.93 668.992C1105.78 661.259 1095.95 658.73 1089.88 658.477C1078.93 658.02 1068.97 663.984 1061.02 670.983C1038.67 690.638 1029.54 719.781 1023.24 747.969C1018.99 766.926 1020.95 790.144 1030.2 807.471C1040.85 827.399 1068.87 834.34 1089.45 835.773C1100.36 836.533 1110.05 835.748 1120.13 831.446C1129.09 827.621 1137.09 823.437 1146.79 821.839C1160.42 819.591 1170.96 818.92 1184.43 822.531C1209.61 829.279 1232.8 844.423 1256.75 854.468C1286.61 866.993 1315.99 876.656 1348.36 868.402C1372.27 862.305 1414.59 836.537 1399.34 806.563C1391.46 791.083 1372.8 784.896 1356.67 782.372C1335.59 779.073 1318.99 784.608 1300.41 794.056C1288.17 800.28 1273.42 799.247 1260.34 796.566C1246.65 793.762 1222.29 779.868 1208.75 787.219C1197.16 793.517 1190.67 809.95 1190.67 822.531C1190.67 843.686 1204.97 864.295 1220.96 876.97C1245.32 896.288 1278.56 906.832 1295.09 934.699C1308.62 957.52 1306.21 982.261 1298.77 1006.62" stroke="black" stroke-width="6" stroke-linecap="round"/>
<path d="M1675.42 367.293C1684.19 371.926 1696.45 371.671 1706.06 373.597C1716.68 375.725 1728.71 377.666 1738.68 381.988C1747.02 385.602 1739.22 396.996 1732.83 397.668C1718.7 399.152 1703.36 395.261 1689.74 391.624C1682.15 389.595 1670.24 386.741 1666.89 378.233C1664.44 371.999 1677.36 370.31 1681.06 369.972" stroke="black" stroke-width="16" stroke-linecap="round"/>
<path d="M1679.99 307.494C1678.78 313.009 1683.52 320.829 1684.62 326.07C1687.23 338.538 1688.05 354.644 1683.69 366.721" stroke="black" stroke-width="16" stroke-linecap="round"/>
<path d="M1680.25 308.507C1684.67 310.01 1690.14 317.161 1693.45 320.17C1694.53 321.146 1701.91 330.404 1702.64 329.511C1707.4 323.698 1713.44 319.241 1718.41 313.624C1718.91 313.057 1721.96 311.002 1721.84 310.976" stroke="black" stroke-width="16" stroke-linecap="round"/>
<path d="M1723.26 313.209C1723.98 313.463 1724.74 315.478 1725.12 316.119C1728.65 322.114 1730.49 328.96 1733.88 334.995C1736.37 339.418 1752.72 329.804 1757.16 329.089C1759.18 328.763 1761.16 328.317 1763.17 328.127C1768.12 327.661 1759.47 332.101 1758.42 332.905C1752.34 337.526 1749.8 344.688 1745.61 350.802C1739.68 359.452 1737.31 369.4 1734.52 379.371" stroke="black" stroke-width="16" stroke-linecap="round"/>
<path d="M1678.36 395.242C1677.77 395.187 1677.81 395.677 1677.65 396.15C1675.48 402.987 1673.2 409.757 1671.19 416.668C1665.72 435.479 1660.94 454.751 1652.54 472.536C1645.44 487.559 1635.88 500.524 1625.51 513.336" stroke="black" stroke-width="16" stroke-linecap="round"/>
<path d="M1730.05 406.149C1725.99 420.854 1723.5 436.119 1722.08 451.338C1719.68 477.134 1724.39 501.831 1726.3 527.408" stroke="black" stroke-width="16" stroke-linecap="round"/>
<path d="M1603.53 534.801C1605.41 534.417 1609.99 527.221 1610.91 525.948C1613.82 521.935 1615.54 516.098 1619.68 513.2C1622.97 510.894 1627.43 511.812 1631.15 512.192C1639.67 513.062 1648 514.964 1656.45 516.307C1669.1 518.318 1681.53 520.881 1694.04 523.639C1707.47 526.602 1722.19 529.224 1732.62 538.877C1735.77 541.794 1735.99 546.429 1736.5 550.478C1736.87 553.462 1737.85 559.69 1737.36 561.918" stroke="black" stroke-width="16" stroke-linecap="round"/>
<path d="M1583.35 567.71C1585.23 559.195 1583.8 543.646 1593.56 540.01C1608.25 534.535 1627 539.99 1641.71 543.234C1657.53 546.724 1673.02 551.522 1688.83 555.007C1703.71 558.29 1718.72 561.199 1733 566.718C1737.52 568.464 1740.8 572.185 1742.63 576.608C1745.09 582.533 1742.7 589.8 1741.39 595.751C1741.17 596.736 1740.55 602.023 1740 599.861" stroke="black" stroke-width="16" stroke-linecap="round"/>
<path d="M1582.85 569.989C1605.82 575.054 1628.83 579.582 1651.71 585.068C1675.59 590.793 1699.54 595.722 1723.47 601C1726.42 601.649 1729.64 601.495 1732.5 602.537C1733.49 602.898 1740.22 604.518 1737.47 602.65" stroke="black" stroke-width="16" stroke-linecap="round"/>
<path d="M1724.08 285.614C1720.16 285.195 1718.03 288.391 1716.14 291.47C1710.16 301.184 1717.57 310.464 1727.87 311.348C1736.29 312.069 1738.26 308.388 1739.96 300.447C1742.5 288.534 1734.64 283.555 1723.72 280.746" stroke="black" stroke-width="16" stroke-linecap="round"/>
<path d="M1676.03 368.986C1672.59 371.48 1694.13 375.145 1695.58 375.369C1707.7 377.237 1721.99 378.264 1733.04 383.889C1741.62 388.251 1738.91 399.713 1731.24 403.516C1724.14 407.036 1715.43 404.548 1708.01 403.536C1700.6 402.527 1693.15 401.586 1685.8 400.225C1679.81 399.115 1672.09 396.406 1668.16 391.45C1665.6 388.221 1666.01 383.541 1666.7 379.74C1667.85 373.451 1672.45 371.865 1677.69 369.354" stroke="black" stroke-width="5" stroke-linecap="round"/>
<path d="M1679.73 368.055C1680.32 361.676 1679.94 353.768 1679.58 347.156C1679.11 338.284 1677.48 329.658 1676.15 320.907C1675.68 317.845 1675.6 314.509 1674.38 311.62C1673.61 309.785 1676.08 313.473 1676.42 313.817C1682.45 319.891 1690.37 323.59 1696.54 329.512C1698.38 331.274 1699.59 334.325 1701.77 331.474C1704.79 327.53 1707.75 324.431 1711.57 321.213C1714.07 319.108 1716.22 314.992 1719.3 313.73C1720.51 313.237 1728.44 331.279 1729.79 334.386C1731.53 338.378 1731.76 340.314 1736.66 339.33C1743.2 338.017 1749.63 335.025 1756.16 333.343C1757.25 333.063 1762.48 330.337 1760.29 332.829C1756.36 337.283 1751.41 340.416 1747.76 345.336C1740.02 355.756 1737.73 369.081 1735.02 381.411" stroke="black" stroke-width="5" stroke-linecap="round"/>
<path d="M1673.06 400.938C1670.69 411.691 1668.28 422.465 1665.4 433.184C1661.83 446.45 1659.17 460.184 1653.53 472.784C1646.58 488.296 1636.45 501.186 1625.44 513.887" stroke="black" stroke-width="5" stroke-linecap="round"/>
<path d="M1727.41 405.362C1726.58 405.286 1721.2 429.092 1721.2 429.098C1715.12 462.08 1717.62 494.765 1718.42 527.994" stroke="black" stroke-width="5" stroke-linecap="round"/>
<path d="M1601.56 542.983C1604.28 543.236 1609.88 523.601 1612.93 521.034C1614.76 519.495 1616.16 518.633 1618.64 518.928C1626.72 519.889 1634.68 521.962 1642.79 522.959C1653.57 524.287 1664.3 525.438 1675.02 527.286C1687.86 529.499 1700.36 534.376 1713.06 537.292C1718.57 538.556 1724.53 540.088 1729.6 542.686C1735.16 545.537 1735.5 554.983 1736 560.597C1736.2 562.764 1736.76 571.236 1736.43 570.396" stroke="black" stroke-width="5" stroke-linecap="round"/>
<path d="M1579.77 573.112C1579.46 573.043 1580.87 568.964 1581.15 568.175C1583.68 560.996 1581.68 549.212 1590.5 546.168C1600.28 542.795 1616.2 548.535 1625.66 550.62C1639.45 553.661 1653.24 556.702 1667.03 559.743C1683.6 563.399 1700.64 564.31 1717.14 567.948C1722.86 569.209 1730.93 572.137 1735.08 576.499C1739.5 581.132 1740.32 587.811 1739.35 594.002C1739.05 595.861 1738.4 604.847 1737.35 603.202" stroke="black" stroke-width="5" stroke-linecap="round"/>
<path d="M1580.64 574.471C1618.89 587.007 1658.25 591.399 1697.44 599.906C1708.14 602.227 1718.76 604.931 1729.46 607.29C1731.8 607.807 1734.64 608.492 1736.06 606.415" stroke="black" stroke-width="5" stroke-linecap="round"/>
<path d="M1722.41 290.701C1722.56 289.049 1719.22 290.845 1718.68 291.173C1710.74 296.047 1711.37 303.715 1716.17 310.773C1722.36 319.88 1738.08 310.75 1738.3 301.225C1738.53 291.488 1729.7 289.398 1722.16 286.568" stroke="black" stroke-width="5" stroke-linecap="round"/>
<path d="M1654.56 1219.47C1663.84 1191.53 1674.45 1164.04 1683.6 1136.07C1689.56 1117.84 1696.96 1079.58 1723.18 1081.27C1736.84 1082.15 1752.17 1083.79 1765.33 1087.6C1782.19 1092.47 1800.79 1098.04 1816.48 1105.87C1827.53 1111.39 1838.78 1115.71 1850.33 1120.02C1851.37 1120.41 1857.64 1121.62 1857.85 1123.08" stroke="black" stroke-width="13" stroke-linecap="round"/>
<path d="M1857.69 1123.56C1854.09 1134.41 1845.55 1143.71 1843.96 1155.53C1842.21 1168.59 1854.05 1171.67 1864.13 1175.01C1883.63 1181.48 1885.83 1210.05 1867.92 1220.32C1858.6 1225.66 1849.17 1221.39 1839.43 1221.02C1827.27 1220.56 1822.41 1228.11 1817.32 1238.02C1812.34 1247.71 1810 1257.96 1809.39 1268.74C1809.24 1271.37 1807.28 1269.63 1805.2 1268.94C1800.05 1267.23 1794.89 1265.14 1789.61 1263.89C1784.77 1262.74 1757.92 1259.1 1760.33 1252.34C1765.65 1237.4 1767.36 1212.42 1748.25 1206.08C1741 1203.68 1731.8 1201.29 1724.38 1203.88C1715.98 1206.8 1712.48 1211.58 1709.35 1219.33C1706.91 1225.38 1708.88 1233.86 1701.51 1236.91C1698.79 1238.04 1695.46 1237.06 1692.8 1236.17C1686.58 1234.11 1680.25 1231.93 1674.14 1229.57C1671.82 1228.67 1658.88 1222.8 1657.12 1224.56" stroke="black" stroke-width="13" stroke-linecap="round"/>
<path d="M1895.97 1207.32C1906.02 1210.42 1916.51 1212.14 1926.73 1214.59C1940.13 1217.8 1953.11 1222.08 1966.19 1226.39C1986.06 1232.93 2005.01 1239.74 2023.71 1249.07C2029.9 1252.16 2037.94 1254.59 2041.11 1261.45C2045.2 1270.31 2041.28 1280.3 2038.55 1288.97C2030.75 1313.69 2024.59 1339.27 2014.71 1363.26C2011.2 1371.79 2008.34 1380.75 2004.51 1389.13C2003.27 1391.82 2001.28 1396.99 1998.56 1398.35" stroke="black" stroke-width="13" stroke-linecap="round"/>
<path d="M1896.77 1208.12C1891.58 1223.74 1879.19 1251.18 1898.3 1261.9C1907.05 1266.8 1913 1269.17 1913.63 1280.36C1914.13 1289.39 1913.56 1302.04 1905.03 1307.5C1898.92 1311.41 1888.05 1311.42 1881.09 1310.3C1869.11 1308.39 1866.85 1314.24 1863.42 1324.56C1860.9 1332.15 1856.98 1339.17 1854.45 1346.81C1853.84 1348.65 1852.58 1356.07 1851.27 1354.77" stroke="black" stroke-width="13" stroke-linecap="round"/>
<path d="M1853.03 1355.88C1849.09 1358.15 1852.98 1358.47 1855.75 1359.46C1865.36 1362.91 1874.85 1366.58 1884.15 1370.75C1887.82 1372.39 1897.26 1373.61 1897.78 1378.51C1898.22 1382.64 1896.72 1387.12 1896.22 1391.19C1895.27 1398.91 1896.94 1406 1900.65 1412.9C1905.95 1422.75 1917.92 1425.84 1928.29 1424.35C1938.24 1422.91 1943.14 1413.18 1947.47 1405.26C1953.19 1394.8 1963.46 1398.16 1973.22 1401.63C1979.17 1403.75 1985.08 1405.78 1991.07 1407.77C1993.5 1408.57 1996.17 1410.02 1998.82 1409.98C2001.08 1409.96 2005.03 1394.49 2005.55 1393.25" stroke="black" stroke-width="13" stroke-linecap="round"/>
<path d="M2001.25 1390.23C2001.87 1388.36 2003.69 1387.12 2004.91 1385.61" stroke="black" stroke-width="13" stroke-linecap="round"/>
<path d="M1848.32 1358.88C1846.93 1359.78 1846.47 1361.58 1846.13 1363.07C1844.31 1371.09 1841.05 1379.18 1838.45 1387.01C1835.61 1395.56 1832.82 1403.78 1822.43 1402.26C1812.82 1400.85 1800.03 1393.6 1792.78 1403.08C1786.9 1410.77 1778.73 1423.5 1781.67 1433.81C1783.84 1441.43 1790.35 1448.84 1797.33 1452.5C1801.73 1454.81 1807.02 1456.12 1810.49 1459.87C1817.79 1467.74 1810.31 1480.31 1807.45 1488.39C1806.14 1492.1 1799.03 1502.53 1802.11 1506.88C1806.5 1513.1 1819.13 1516.43 1825.99 1519.17C1838.97 1524.35 1852.24 1528.66 1865.28 1533.68C1879.13 1539.01 1892.8 1544.43 1907.2 1548.25C1918.93 1551.36 1930.64 1552.49 1942.68 1553.57C1953.5 1554.54 1957.58 1548.03 1960.86 1538.36C1969.66 1512.45 1979.28 1486.78 1987.89 1460.83C1992.15 1448 1996.87 1435.14 2000.26 1422.07C2001.77 1416.24 2002.48 1413.59 2000.86 1407.39" stroke="black" stroke-width="13" stroke-linecap="round"/>
<path d="M1847.49 1354.36C1845.93 1354.03 1844.25 1354.71 1842.54 1354.34C1834.37 1352.55 1826.87 1349.64 1818.99 1347.02C1815.07 1345.72 1812.08 1343.23 1808.77 1340.86C1804.47 1337.78 1804.78 1336.53 1804.5 1331.72C1804.24 1327.23 1805.22 1324.4 1803.76 1319.66C1801.67 1312.89 1798.86 1308.64 1794.09 1303.52C1790.79 1299.98 1788.36 1295.02 1783.59 1293.43C1777.19 1291.31 1770.63 1291.51 1764.4 1294.17C1755.89 1297.79 1750.41 1305.96 1745.99 1313.78C1742.78 1319.45 1737.11 1317.27 1732.46 1314.59C1724.13 1309.79 1701.41 1302.53 1697.06 1315.62C1688.26 1342.15 1679.53 1368.86 1670.03 1395.19C1665.66 1407.3 1659.34 1419.15 1655.98 1431.57C1653.82 1439.56 1649.49 1449.48 1656.47 1456.01C1665.39 1464.33 1678.56 1469.95 1689.59 1475.1C1704.15 1481.9 1719.97 1486.2 1735.09 1491.56C1749.62 1496.7 1764.58 1501.87 1779.54 1505.63C1783.92 1506.74 1788.37 1507.62 1792.66 1509.05C1793.27 1509.25 1797.31 1510.72 1796.91 1509.93" stroke="black" stroke-width="13" stroke-linecap="round"/>
<path d="M1656.66 1223.64C1654.88 1219.5 1658.24 1213.65 1659.24 1209.69C1663.25 1193.71 1668.03 1177.27 1674.11 1161.95C1683.85 1137.36 1688.48 1111.71 1703.1 1089.06C1721.95 1059.86 1754.69 1088.93 1776.98 1096.33C1799.65 1103.86 1822.88 1109.38 1845.37 1117.43C1854.59 1120.73 1856.62 1123.51 1854.19 1132.36C1851.46 1142.31 1848.6 1154.71 1852.26 1164.71C1855.95 1174.76 1866.74 1178.03 1870.52 1187.39C1874.25 1196.64 1880.61 1217.31 1868.12 1223.01C1863.61 1225.07 1859.85 1228.9 1854.77 1230C1848.98 1231.26 1840.92 1229.4 1835 1228.77C1823.83 1227.6 1823.15 1235.51 1819.06 1244.91C1816.52 1250.76 1813.16 1256.18 1810.46 1261.84C1809.14 1264.62 1809.42 1267.81 1808.26 1270.76C1807.27 1273.25 1793.83 1267.64 1791.9 1266.88C1782.81 1263.33 1773.81 1260.78 1764.53 1257.84C1758.03 1255.79 1759.51 1255.39 1762.62 1250.36C1772.84 1233.85 1758.73 1216.88 1746.95 1206.08C1735.8 1195.87 1724.17 1206.93 1716.81 1216C1713.1 1220.57 1705.03 1237.71 1698.32 1237.82C1689.08 1237.97 1680.33 1231.1 1671.15 1230.05C1666.32 1229.5 1661.46 1228.8 1656.66 1228.44" stroke="black" stroke-width="7" stroke-linecap="round"/>
<path d="M1907.61 1210.11C1905.59 1209.44 1899.35 1208.17 1901.36 1208.84C1925.26 1216.77 1949.15 1225.34 1973.32 1232.32C1995.01 1238.59 2022.52 1246.36 2038.31 1263.54C2046.27 1272.2 2046.59 1278.38 2042.9 1289.51C2038.35 1303.2 2033.32 1316.49 2029.5 1330.41C2025.63 1344.48 2020.97 1359.64 2013.78 1372.41C2008.73 1381.4 2004.31 1390.89 2002.64 1401.16C1997.88 1430.29 1968.18 1389.01 1953.59 1400.66C1948.14 1405.02 1944.37 1412.06 1939.44 1416.91C1936.14 1420.15 1928.03 1417.74 1924.32 1416.51C1911.66 1412.31 1901.16 1399.87 1900.6 1386.59C1899.99 1371.97 1888.96 1371.48 1876.45 1366.39C1872.37 1364.73 1850.39 1357.47 1851.68 1355.06C1858.23 1342.74 1859.06 1328.47 1864.53 1315.93C1867.34 1309.48 1876.29 1313.41 1881.25 1314.99C1888.66 1317.37 1895 1319.17 1902.27 1315.52C1933.08 1300.07 1916.75 1262.67 1889.97 1253.07C1886.45 1251.81 1888.68 1249.07 1889.23 1245.8C1890.67 1237.19 1889.94 1224.97 1893.96 1216.96C1897.34 1210.23 1896.44 1212.18 1900.16 1208.44" stroke="black" stroke-width="7" stroke-linecap="round"/>
<path d="M2000.58 1421.81C2000.73 1421.07 2000.16 1420.43 1999.83 1419.79C1997.77 1415.68 1995.95 1428.17 1994.86 1432.63C1988.78 1457.47 1984.36 1482.31 1973.55 1505.66C1966.81 1520.22 1960.93 1535.48 1948.76 1546.47C1935.54 1558.41 1916.34 1553.68 1901 1548.8C1879.14 1541.85 1856.08 1536.95 1834.91 1527.98C1826.02 1524.21 1818.17 1518.68 1810.01 1513.8C1802.28 1509.18 1808.44 1496.21 1809.39 1488.61C1809.75 1485.76 1815.38 1464.71 1813.56 1463.05C1810.5 1460.26 1804.68 1459.05 1801.05 1456.81C1795.43 1453.34 1791.61 1448.36 1789.13 1442.23C1785.44 1433.1 1778.46 1413.05 1788.68 1405.54C1796.75 1399.61 1809.91 1395.91 1819.07 1400.78C1837.82 1410.73 1840.35 1390.22 1843.14 1375.56C1843.93 1371.35 1847.9 1362.67 1847.06 1358.5C1846.5 1355.69 1827.01 1352.2 1825.41 1351.67C1815.98 1348.54 1809.19 1345.85 1810.02 1335.36C1811.48 1316.95 1807.34 1304.15 1788.05 1297.75C1779.98 1295.07 1771.4 1296.19 1763.68 1298.99C1756.64 1301.54 1753.17 1313.78 1750.95 1320.46C1749.43 1325.05 1737.02 1318.22 1733.73 1317.28C1721.53 1313.81 1708.33 1314.18 1696.39 1310.44C1691.92 1309.04 1693.55 1313.21 1693.12 1317.09C1692.46 1323.09 1690.61 1328.66 1688.73 1334.35C1684.15 1348.13 1678.67 1361.35 1673.1 1374.73C1667.6 1387.94 1663.13 1401.48 1657.46 1414.62C1653.4 1424.02 1647.28 1434.75 1648.36 1445.38C1650.96 1471.08 1677.17 1467.2 1694.77 1477.55C1717.17 1490.72 1741.36 1497.12 1765.81 1504.73C1778.86 1508.79 1817.95 1521.23 1804.97 1516.93" stroke="black" stroke-width="7" stroke-linecap="round"/>
<path d="M1736.43 1085.16C1725.25 1090.58 1712.67 1093.8 1701.04 1098.18" stroke="black" stroke-width="7" stroke-linecap="round"/>
<path d="M1753.47 1094.87C1734.43 1100.09 1715.88 1107.03 1697.27 1113.59" stroke="black" stroke-width="7" stroke-linecap="round"/>
<path d="M1766.19 1104.04C1742.15 1110.88 1718.1 1118.18 1694.45 1126.16" stroke="black" stroke-width="7" stroke-linecap="round"/>
<path d="M1796.2 1111.3C1759.65 1121.6 1723.56 1133.65 1687.31 1144.96" stroke="black" stroke-width="7" stroke-linecap="round"/>
<path d="M1819.73 1116.41C1817.56 1117.5 1815.88 1118.07 1813.32 1118.91C1793.64 1125.34 1773.71 1131 1753.95 1137.16C1727.51 1145.4 1700.27 1153.24 1676.26 1167.41" stroke="black" stroke-width="7" stroke-linecap="round"/>
<path d="M1838.39 1123.95C1835.19 1125.52 1832.3 1126.66 1828.82 1127.83C1806.85 1135.18 1784.67 1141.88 1762.75 1149.38C1730.65 1160.36 1699.26 1172.05 1669.66 1188.63" stroke="black" stroke-width="7" stroke-linecap="round"/>
<path d="M1669.27 1203.37C1682.28 1200.38 1694.74 1194.47 1707.28 1190.02C1728.01 1182.66 1748.52 1174.79 1769.15 1167.17C1787.1 1160.54 1804.7 1153.89 1822.97 1148.11C1829.41 1146.06 1837.94 1143.58 1842.73 1139.36" stroke="black" stroke-width="7" stroke-linecap="round"/>
<path d="M1679.17 1226.46C1683.31 1223.79 1687.6 1221.58 1692.06 1219.44C1711.79 1209.93 1731.8 1201.08 1752.04 1192.73C1777.6 1182.19 1803.67 1172.89 1828.7 1161.26" stroke="black" stroke-width="7" stroke-linecap="round"/>
<path d="M1769.96 1202.56C1795.09 1193.59 1820.75 1186.01 1846.16 1177.87" stroke="black" stroke-width="7" stroke-linecap="round"/>
<path d="M1787.83 1220.65L1866.86 1196.9" stroke="black" stroke-width="7" stroke-linecap="round"/>
<path d="M1777.99 1239.45C1794.55 1234.05 1810.73 1227.33 1827.16 1221.55" stroke="black" stroke-width="7" stroke-linecap="round"/>
<path d="M1785.85 1257.82C1794.15 1253.81 1803.49 1252.3 1812.33 1249.95" stroke="black" stroke-width="7" stroke-linecap="round"/>
<path d="M1923.08 1221C1915.95 1227.29 1906.61 1231.51 1898.53 1236.34" stroke="black" stroke-width="7" stroke-linecap="round"/>
<path d="M1937.79 1237.29C1924.25 1239.43 1911.22 1244.48 1898.35 1249.02" stroke="black" stroke-width="7" stroke-linecap="round"/>
<path d="M1918.1 1262.28C1932.98 1255.61 1949.38 1250.83 1965.03 1246.41C1971.58 1244.55 1978.77 1243.94 1984.91 1240.85" stroke="black" stroke-width="7" stroke-linecap="round"/>
<path d="M1932.61 1275.15C1963.51 1268.14 1996.93 1266.86 2026.81 1256.1" stroke="black" stroke-width="7" stroke-linecap="round"/>
<path d="M1944.31 1290.44C1973.24 1280.56 2003.76 1274.85 2033.27 1266.97" stroke="black" stroke-width="7" stroke-linecap="round"/>
<path d="M1908.91 1322.29C1934.99 1316.46 1961 1309.88 1986.94 1303.47C2001.8 1299.79 2017.73 1296.57 2031.93 1290.52C2035.37 1289.06 2034.93 1288.95 2036.72 1286.89" stroke="black" stroke-width="7" stroke-linecap="round"/>
<path d="M1862.43 1347.12C1921.1 1336.17 1979.13 1322.1 2038.16 1312.87" stroke="black" stroke-width="7" stroke-linecap="round"/>
<path d="M1876.95 1359.98C1892.66 1358.62 1908.25 1354 1923.54 1350.52C1954.4 1343.48 1985.06 1336.29 2015.63 1328.2" stroke="black" stroke-width="7" stroke-linecap="round"/>
<path d="M1908.57 1371.83C1944.77 1362.2 1982.19 1356.29 2018.87 1348.73" stroke="black" stroke-width="7" stroke-linecap="round"/>
<path d="M1921.88 1388.32C1954.45 1381.76 1986.58 1373.91 2018.7 1365.44" stroke="black" stroke-width="7" stroke-linecap="round"/>
<path d="M1969.81 1395.5C1979.4 1394.93 1989.09 1392.95 1998.6 1391.64" stroke="black" stroke-width="7" stroke-linecap="round"/>
<path d="M1857.04 1379.54C1861.28 1376.64 1865.6 1373.87 1869.91 1371.07" stroke="black" stroke-width="7" stroke-linecap="round"/>
<path d="M1840.96 1401.71C1861.08 1398 1880.76 1389.44 1899.73 1382.3" stroke="black" stroke-width="7" stroke-linecap="round"/>
<path d="M1815.63 1429.52C1843.91 1419.9 1872.44 1410.95 1900.76 1401.43" stroke="black" stroke-width="7" stroke-linecap="round"/>
<path d="M1815.65 1445.63C1845.75 1435.95 1876.08 1426.93 1906.21 1417.33" stroke="black" stroke-width="7" stroke-linecap="round"/>
<path d="M1826.55 1471.39C1835.07 1465.56 1844.98 1462.34 1854.68 1458.96C1883.9 1448.77 1913.5 1441.11 1943.28 1432.99" stroke="black" stroke-width="7" stroke-linecap="round"/>
<path d="M1822.35 1490.11C1875.15 1470.3 1929.02 1453.31 1981.94 1433.74" stroke="black" stroke-width="7" stroke-linecap="round"/>
<path d="M1818.75 1507.03C1836.42 1496.37 1858.2 1491.46 1877.54 1485.18C1905.73 1476.03 1933.92 1467.03 1961.63 1456.52" stroke="black" stroke-width="7" stroke-linecap="round"/>
<path d="M1847.14 1512.44C1862.88 1504.92 1881.67 1500.91 1898.19 1496.18C1922.46 1489.22 1946.85 1482.61 1971.52 1477.25" stroke="black" stroke-width="7" stroke-linecap="round"/>
<path d="M1872.52 1522.87C1877.22 1519.1 1891.49 1516.84 1895.36 1515.84C1921.68 1509.03 1948.14 1502.76 1974.57 1496.36" stroke="black" stroke-width="7" stroke-linecap="round"/>
<path d="M1902.14 1536.73C1923.02 1526.25 1948.15 1522.65 1970.57 1516.51" stroke="black" stroke-width="7" stroke-linecap="round"/>
<path d="M1704.56 1329.6C1711.21 1325.92 1717.76 1323.55 1724.88 1320.92" stroke="black" stroke-width="7" stroke-linecap="round"/>
<path d="M1703.38 1349.33C1720.43 1343.86 1737.31 1337.12 1754.3 1331.35" stroke="black" stroke-width="7" stroke-linecap="round"/>
<path d="M1697.16 1368.06C1726.22 1356.5 1756.23 1347.65 1786.12 1338.56" stroke="black" stroke-width="7" stroke-linecap="round"/>
<path d="M1686.93 1394.86C1728.71 1379.2 1768.79 1359.37 1811.29 1345.57" stroke="black" stroke-width="7" stroke-linecap="round"/>
<path d="M1671.26 1427.9C1684.32 1416.62 1702.03 1409.51 1717.3 1402.26C1744.56 1389.32 1772.54 1377.61 1800.04 1365.32" stroke="black" stroke-width="7" stroke-linecap="round"/>
<path d="M1662.22 1443.01C1679.86 1436.92 1697.23 1427.76 1714.24 1420.36C1745.28 1406.85 1776.28 1393.38 1806.9 1379" stroke="black" stroke-width="7" stroke-linecap="round"/>
<path d="M1696.46 1451.02C1726.12 1437.71 1756.45 1425.95 1786.61 1413.86" stroke="black" stroke-width="7" stroke-linecap="round"/>
<path d="M1712.18 1462.27C1736.01 1450.95 1762.21 1443.65 1787.04 1434.8" stroke="black" stroke-width="7" stroke-linecap="round"/>
<path d="M1722.47 1481.79C1743.48 1470.82 1767.63 1464.6 1789.89 1456.53" stroke="black" stroke-width="7" stroke-linecap="round"/>
<path d="M1759.73 1486.77C1761.63 1485.1 1763.08 1484.32 1765.64 1483.22C1779.5 1477.26 1794.04 1473.03 1808.23 1467.99" stroke="black" stroke-width="7" stroke-linecap="round"/>
<path d="M1774.83 1491.79C1785.63 1485.27 1799.5 1483.64 1811.46 1480.47" stroke="black" stroke-width="7" stroke-linecap="round"/>
<path d="M483.628 1094.84C465.179 1035.76 442.369 978.21 424.5 918.981C414.825 886.91 410.029 853.209 400.015 821.138C395.817 807.693 386.194 786.38 370.569 783.14C361.863 781.335 353.06 776.681 344.036 779.498C335.682 782.107 327.08 795.075 325.237 803.258C322.123 817.092 334.973 834.373 348.098 838.274C360.193 841.87 372.359 825.824 361.264 816.89C351.854 809.313 334.982 819.099 327.129 824.464C309.291 836.653 305.555 854.962 306.264 875.19C306.684 887.175 312.373 905.588 326.018 908.657C338.013 911.355 336.189 890.42 329.311 885.781C306.069 870.104 284.468 923.284 291.735 938.64C296.745 949.225 308.253 957.168 317.136 964.175C329.248 973.729 342.705 985.916 358.989 986.423C375.326 986.932 395.775 958.6 379.753 945.908C353.364 925.005 337.948 965.346 336.46 984.41C334.215 1013.2 376.492 1044.88 400.754 1021.4C412.115 1010.4 404.643 991.521 388.731 999.19C381.904 1002.48 377.592 1010.77 378.033 1018.11C379.454 1041.8 393.105 1059.52 414.759 1068.23C432.428 1075.33 430.196 1096.86 436.693 1111.14C446.25 1132.14 486.492 1092.15 489.37 1101.37" stroke="black" stroke-width="5" stroke-linecap="round"/>
<path d="M396.753 801.8C398.364 802.526 399.721 801.798 401.326 801.297C412.173 797.91 422.969 794.433 433.629 790.491C436.699 789.355 440.466 787.514 443.796 787.162C444.526 787.085 443.748 789.193 443.74 789.287C443.362 793.852 444.802 798.326 446.061 802.648C447.105 806.231 448.287 819.365 451.409 818.457C458.814 816.303 469.038 819.11 476.091 821.443C478.453 822.224 484.329 828.997 487.395 827.68C493.131 825.216 494.612 808.421 495.662 802.788C496.092 800.48 504.726 806.912 506.984 808.095C514.792 812.188 522.954 816.883 531.413 819.488C537.902 821.487 540.853 820.266 539.221 828.36C538.741 830.741 533.523 843.1 535.511 845.454C539.853 850.597 545.469 852.798 549.442 858.789C552.451 863.327 553.527 868.683 556.213 873.228C562.206 883.37 574.826 869.092 583.859 870.559C590.136 871.578 593.777 893.43 595.281 898.248C596.992 903.728 598.097 912.354 600.724 917.163C600.759 917.225 576.333 924.434 576.533 929.909C576.805 937.38 576.84 944.763 574.048 951.916C573.072 954.418 570.75 959.688 570.99 962.535C571.491 968.491 591.466 968.216 591.918 973.582C592.345 978.659 586.714 987.076 585.172 991.985C582.972 998.99 579.981 1006.52 576.575 1013.02C575.842 1014.42 574.447 1020.11 572.783 1020.63C569.59 1021.63 562.465 1014.62 559.787 1012.76C547.461 1004.2 532.331 1025.99 521.291 1031.72C519.071 1032.88 513.891 1031.57 514.154 1034.05C514.817 1040.33 523.505 1046.05 524.896 1052.65C526.294 1059.28 485.562 1068.33 480.473 1069.92" stroke="black" stroke-width="5" stroke-linecap="round"/>
<path d="M413.602 855.752C412.199 858.927 417.475 857.259 418.622 857.012C433.98 853.706 451.31 846.89 467.045 849.757C483.167 852.695 489.823 857.088 501.663 868.096C512.428 878.105 521.365 888.795 527.928 901.998C541.345 928.989 538.524 950.502 526.912 977.113C520.005 992.945 495.521 1007.23 481.674 1015.14C475.468 1018.69 468.627 1022.71 461.777 1024.85" stroke="black" stroke-width="5" stroke-linecap="round"/>
<path d="M422.914 1158.21C458.901 1146.97 494.86 1135.74 530.835 1124.51C541.459 1121.19 577.758 1102.76 587.445 1116.81C592.98 1124.84 587.445 1133.31 579.707 1136.81C563.63 1144.06 546.337 1149.48 529.718 1155.35C504.38 1164.28 479.041 1175.98 453.016 1182.17C445.855 1183.88 431.705 1189.29 425.388 1182.27C422.309 1178.84 415.595 1152.26 422.124 1155.68" stroke="black" stroke-width="5" stroke-linecap="round"/>
<path d="M432.181 1184.93C429.449 1186.17 426.617 1197.47 426.194 1199.34C423.135 1212.91 430.448 1217.47 442.306 1215.54C462.843 1212.21 483.573 1202.71 503.354 1196.53C519.35 1191.54 535.061 1185.81 550.611 1179.62C562.26 1174.98 575.961 1173.6 586.614 1166.83C591.279 1163.87 599.917 1162.74 600.161 1155.56C600.571 1143.51 581.989 1141.51 574.354 1142.39" stroke="black" stroke-width="5" stroke-linecap="round"/>
<path d="M452.302 1213.82C446.758 1216.25 447.2 1233.63 447.719 1237.66C449.57 1252.05 459.396 1253.24 470.614 1249.74C497.272 1241.41 524.19 1232.48 549.845 1221.3C558.709 1217.43 595.468 1211.87 597.841 1199.83C599.822 1189.79 595.234 1174.23 582.671 1174.96" stroke="black" stroke-width="5" stroke-linecap="round"/>
<path d="M482.329 1250.71C479.138 1252.16 495.158 1268.97 496.516 1270.13C506.311 1278.47 530.444 1269.91 541.493 1265.34C559.547 1257.87 585.67 1245.46 584.295 1221.64" stroke="black" stroke-width="5" stroke-linecap="round"/>
<path d="M491.496 1096.46C494.368 1105.66 487.026 1077.68 483.905 1068.57C477.602 1050.16 469.613 1032.1 462.401 1014.02C452.922 990.243 448.859 964.839 439.932 940.864C427.736 908.11 413.67 875.634 405.99 841.407C403.357 829.67 402.633 815.597 396.906 804.858C390.48 792.811 377.669 787.371 365.088 784.067C349.659 780.015 334.066 784.445 334.994 803.985C335.479 814.196 342.122 827.155 351.785 831.517C362.817 836.497 358.789 817.635 354.917 813.22C347.819 805.129 334.766 814.591 329.042 819.81C312.657 834.749 298.458 856.56 304.835 879.603C307.678 889.875 319.575 910.958 333.556 905.086C345.587 900.033 334.455 879.529 327.417 875.438C313.806 867.526 305.79 880.658 301.916 891.874C293.832 915.28 291.999 939.67 309.339 959.482C321.488 973.363 349.509 985.636 364.447 967.787C374.835 955.373 356.415 936.077 343.318 943.658C334.232 948.917 326.949 964.458 326.244 974.408C324.671 996.611 342.101 1025.52 364.215 1031.45C375.161 1034.39 394.606 1028.04 397.96 1016.07C399.407 1010.91 396.816 1001.72 389.896 1003.37C383.387 1004.92 381.074 1010.6 381.386 1016.97C382.154 1032.63 403.888 1044.85 413.574 1054.45C424.868 1065.64 428.672 1082.6 434.452 1096.86C436.073 1100.86 437.202 1105.07 438.489 1109.19C440.015 1114.08 445.414 1110.63 449.87 1109.41C453.297 1108.47 484.782 1096.43 485.388 1098.37" stroke="black" stroke-width="13" stroke-linecap="round"/>
<path d="M398.846 807.794C399.814 806.185 401.984 805.975 403.616 805.327C412.172 801.924 420.046 797.072 428.535 793.588C432.392 792.006 437.441 789.771 441.677 790.649C447.261 791.807 442.871 820.481 446.289 818.538C460.051 810.718 478.311 815.028 492.241 819.739C494.294 820.434 498.47 823.215 498.449 822.922C497.909 815.398 504.89 806.638 508.257 800.213C508.682 799.403 509.022 800.855 509.251 801.16C510.903 803.352 513.727 805.104 516.037 806.49C522.255 810.22 529.246 811.927 535.387 816.276C539.528 819.21 544.879 819.362 543.004 823.674C541.062 828.14 535.006 835.178 534.766 839.934C534.685 841.543 538.961 842.518 539.935 843.068C544.769 845.801 548.071 850.538 551.576 854.704C556.143 860.132 561.19 869.394 561.809 876.741C562.176 881.107 575.768 874.218 579.746 873.654C593.207 871.746 589.07 874.889 593.149 887.951C595.702 896.126 598.167 904.32 600.707 912.454C601.278 914.283 595.148 916.787 593.938 917.314C589.993 919.033 583.435 917.599 580.496 921.232C577.258 925.235 579.177 938.746 578.654 943.362C578.168 947.652 573.489 956.483 574.406 960.471C575.611 965.713 586.85 969.206 590.754 972.871C596.944 978.68 596.446 979.737 592.392 988.7C587.283 999.995 581.461 1013.69 573.652 1023.51C573.005 1024.32 560.296 1005.71 552.531 1012.23C544.44 1019.02 538.487 1025.7 528.546 1030.24C518.866 1034.66 518.863 1037.49 523.314 1048.07C525.012 1052.11 526.78 1056.04 529.563 1059.44C532.129 1062.57 524.82 1063.99 522.711 1064.93C512.533 1069.44 502.689 1074.08 492.836 1079.28" stroke="black" stroke-width="13" stroke-linecap="round"/>
<path d="M415.059 859.71C415.725 851.175 442.436 850.121 447.719 849.652C464.059 848.2 483.41 853.84 497.112 862.767C519.815 877.558 533.824 905.246 538.526 931.586C544.447 964.752 521.295 994.17 495.021 1010.53C485.603 1016.4 476.406 1021.96 466.27 1026.4" stroke="black" stroke-width="13" stroke-linecap="round"/>
<path d="M427.063 1155.79C461.498 1143.11 496.407 1133.17 531.766 1123.14C545.685 1119.19 559.018 1114.35 572.513 1109.16C578.001 1107.05 587.847 1100.8 593.924 1103.78C600.755 1107.13 601.16 1118.67 597.954 1124.59C592.715 1134.26 576.809 1139.05 567.23 1142.19C544.644 1149.59 521.996 1158.92 499.92 1167.86C486.44 1173.32 471.932 1181.07 457.482 1183.58C447.613 1185.29 436.981 1185.51 426.993 1184.49C409.778 1182.72 421.736 1164.36 429.305 1157.6" stroke="black" stroke-width="13" stroke-linecap="round"/>
<path d="M433.546 1187.29C432.456 1184.8 424.458 1192.97 423.046 1193.92" stroke="black" stroke-width="13" stroke-linecap="round"/>
<path d="M430.729 1189.01C425.886 1187.19 426.659 1199.22 426.952 1200.61C429.575 1213.06 436.529 1222.72 449.666 1220.43C476.476 1215.76 504.32 1203.99 529.738 1194.78C545.479 1189.07 561.276 1184.13 576.649 1177.43C588.624 1172.21 602.705 1168.17 613.242 1160.14C619.012 1155.74 611.417 1147.29 607.784 1144.15C602.017 1139.17 597.449 1136.85 589.595 1136.89" stroke="black" stroke-width="13" stroke-linecap="round"/>
<path d="M455.25 1216.54L455.488 1217.3" stroke="black" stroke-width="13" stroke-linecap="round"/>
<path d="M455.489 1217.31C452.192 1224.5 449.394 1239 458.245 1243.73C465.966 1247.86 476.55 1246.29 484.628 1244.43C509.362 1238.73 532.725 1229.23 556.899 1221.68C572.253 1216.89 589.969 1210.85 601.987 1199.69C609.217 1192.97 596.212 1180.25 591.351 1177.4" stroke="black" stroke-width="13" stroke-linecap="round"/>
<path d="M482.203 1249.2C489.226 1253.42 493.742 1262.06 501.042 1266.59C515.723 1275.71 534.387 1268.39 549.125 1262.24C558.816 1258.2 569.156 1252.42 576.241 1244.42C579.694 1240.52 591.522 1222.84 583.229 1218.49" stroke="black" stroke-width="13" stroke-linecap="round"/>
<path d="M1028.61 1362.66C1027.6 1355.2 1029.95 1377.73 1031.73 1385.03C1033.08 1390.56 1032.91 1393.42 1038.13 1395.03C1044.34 1396.95 1050.86 1398.7 1057.3 1399.53C1058.67 1399.7 1060.83 1399.02 1062.08 1399.4C1062.58 1399.55 1063.73 1403.56 1063.74 1403.59C1065.32 1407.6 1067.16 1411.51 1069.02 1415.38C1069.44 1416.25 1073.08 1421.37 1072.68 1422.27C1072.34 1423.02 1070.54 1423.77 1069.98 1424.2C1067.56 1426.05 1065.34 1428.21 1063.41 1430.6C1059.53 1435.39 1051.65 1441.94 1055.53 1448.5C1060.32 1456.59 1066.88 1463.75 1071.85 1471.61C1072.21 1472.19 1068.93 1477.88 1068.64 1478.5C1066.31 1483.47 1063.78 1488.75 1062.16 1494.05C1061.5 1496.19 1061.55 1496.47 1059 1496.63C1052.75 1497.03 1046.44 1496.59 1040.17 1496.96C1033.92 1497.33 1032.93 1497.7 1033.18 1505.38C1033.44 1513.28 1034.14 1521.74 1033.08 1529.59C1032.83 1531.4 1026.57 1533.97 1025.28 1534.72C1021.08 1537.19 1016.28 1538.82 1012.77 1542.4C1012.74 1542.43 1011.17 1544.17 1011.02 1544.07C1003.88 1539.04 995.961 1535.35 988.948 1530.03C985.545 1527.45 982.196 1524.42 978.367 1522.55C977.456 1522.11 975.245 1525.1 974.605 1525.73C970.546 1529.72 966.313 1533.54 961.841 1537.01C959.259 1539 957.401 1538.48 954.171 1537.88C948.64 1536.86 943.306 1535.38 937.957 1533.61C932.756 1531.88 932.655 1520.52 931.7 1515.95C931.258 1513.84 927.782 1496.33 924.965 1496.46C919.349 1496.71 913.789 1496.15 908.169 1496.63C906.698 1496.76 906.534 1497.04 905.987 1495.97C903.212 1490.57 901 1485.01 898.42 1479.51C897.16 1476.82 893.994 1473.65 893.244 1470.82C893.054 1470.1 894.888 1467.67 895.074 1467.31C897.036 1463.58 898.716 1459.7 900.478 1455.87C902.492 1451.48 905.174 1447.63 907.359 1443.41C907.726 1442.7 907.813 1442.7 907.442 1441.98C904.642 1436.6 901.91 1431.11 899.023 1425.78C897.89 1423.69 896.452 1422.13 895.032 1420.3C893.39 1418.18 900.041 1407.18 900.811 1405.38C901.831 1403.01 903.65 1395.09 906.34 1393.63C907.798 1392.84 910.6 1393.21 912.119 1393.15C916.012 1392.98 919.873 1392.87 923.677 1391.9C925.27 1391.49 926.889 1391.02 928.499 1390.71C929.125 1390.59 929.39 1379.82 929.538 1378.76C930.237 1373.79 931.628 1368.81 931.7 1363.76C931.729 1361.73 931.359 1361.36 933.384 1360.63C939.237 1358.5 945.082 1356.28 950.762 1353.67C953.024 1352.64 955.725 1350.07 958.079 1349.57C959.288 1349.32 961.341 1351.34 962.174 1351.92C965.34 1354.13 968.51 1356.34 971.653 1358.59C976.466 1362.03 981.404 1365.25 985.871 1369.2C987.393 1370.54 986.673 1370.61 988.573 1368.94C992.947 1365.08 998.651 1362.59 1002.56 1358.26C1003.27 1357.47 1006.87 1350.53 1007.41 1350.43C1010.02 1349.91 1017.08 1356.25 1019.01 1358.24C1019.13 1358.36 1025.92 1364.39 1025.6 1362.86C1024.9 1359.54 1018.62 1355.92 1015.72 1354.86C1014.84 1354.54 1008.6 1353.63 1011.94 1354.81C1015.76 1356.17 1019.92 1356.39 1023.62 1357.95C1024.69 1358.4 1031.35 1360.05 1028.24 1359.51" stroke="black" stroke-width="6" stroke-linecap="round"/>
<path d="M977.721 1404.11C967.202 1404.43 955.667 1412.97 949.866 1421.77C937.034 1441.22 941.373 1471.96 962.214 1483.06C978.437 1491.7 1003.3 1485.51 1012.68 1468.61C1019.66 1456.05 1017.39 1441.34 1011.31 1428.85C1004.18 1414.19 992.285 1407.84 978.095 1403.32" stroke="black" stroke-width="6" stroke-linecap="round"/>
<path d="M1050.76 1445.98C1050.29 1445.92 1050.38 1445.98 1050.92 1446.99C1055.85 1456.09 1064.74 1462.12 1069.8 1471.2C1071.95 1475.05 1061.51 1486.63 1059.47 1490.04C1058.01 1492.48 1053.48 1492.17 1051.13 1492.6C1045.47 1493.66 1039.88 1495.19 1034.21 1496.2C1028.46 1497.23 1028.99 1512.13 1028.14 1516.77C1027.89 1518.13 1027.86 1526.9 1026.75 1527.58C1023.19 1529.78 1019.27 1531.35 1015.69 1533.57C1013.58 1534.88 1011.19 1536.96 1008.85 1537.78C1008.41 1537.93 1004.4 1534.97 1004.11 1534.8C997.767 1531.04 991.924 1526.93 985.986 1522.52C984.844 1521.67 982.418 1519.31 980.748 1519.47C977.766 1519.75 973.683 1526.86 971.747 1528.81C967.884 1532.7 963.531 1536.06 960.106 1540.41C959.191 1541.57 958.209 1543.14 956.635 1543.09C948.077 1542.78 938.457 1538.45 930.817 1534.49C928.465 1533.27 928.659 1528.23 928.323 1526.02C926.979 1517.19 925.83 1508.39 923.833 1499.69C923.279 1497.27 920.7 1498.26 918.636 1498C914.453 1497.47 910.199 1496.7 906.122 1495.56C899.697 1493.77 896.247 1484.85 893.692 1479.01C891.849 1474.79 886.564 1470.32 889.701 1466.09C894.064 1460.21 899.109 1454.73 904.252 1449.62C906.613 1447.27 909.829 1445.22 911.028 1441.9C911.937 1439.39 904.034 1434.43 902.672 1433.17C898.898 1429.7 892.198 1424.74 893.338 1419.03C895.044 1410.48 898.606 1402.57 899.97 1393.94C900.083 1393.22 900.215 1392.46 900.364 1391.75C900.71 1390.11 903.413 1390.77 904.958 1390.37C911.06 1388.78 917.15 1387.09 923.293 1385.67C926.068 1385.04 928.826 1384.36 931.649 1384.01C935.649 1383.5 935.127 1383.64 934.559 1379.84C933.558 1373.14 937.69 1366.82 936.118 1360.52C935.56 1358.28 953.894 1349.8 956.718 1348.48C958.298 1347.74 958.602 1347.95 960.335 1348.7C968.578 1352.26 974.859 1357.18 980.145 1364.71C981.064 1366.02 983.081 1369.8 984.739 1370.26C987.049 1370.9 994.311 1362.39 995.798 1361C998.429 1358.55 1003.57 1350.81 1007.94 1351.42C1012.33 1352.03 1016.68 1353.03 1021.07 1353.7C1025.73 1354.41 1025.8 1354.56 1026.23 1359.53C1026.88 1366.98 1028.85 1374.08 1030.76 1381.25C1031.43 1383.76 1031.48 1388.78 1033.09 1390.76C1035.27 1393.46 1043.44 1393.82 1046.43 1394.4C1050.86 1395.27 1055.28 1395.95 1059.76 1396.42C1060.46 1396.49 1063.3 1396.21 1063.83 1396.86C1067.27 1401.09 1069.46 1407.27 1072.09 1412.12C1072.58 1413.03 1073.34 1413.82 1073.79 1414.71C1074.62 1416.34 1068.17 1421.51 1067.45 1422.21C1062.93 1426.61 1058.14 1430.73 1053.79 1435.32C1052.6 1436.58 1051.96 1438.25 1050.76 1439.27" stroke="black" stroke-width="10" stroke-linecap="round"/>
<path d="M1051.51 1436.9C1051.45 1437.36 1050.99 1437.41 1050.76 1437.78C1049.33 1440 1049.11 1443.07 1048.51 1445.59" stroke="black" stroke-width="10" stroke-linecap="round"/>
<path d="M983.781 1398.22C971.704 1398.22 957.096 1406.91 950.46 1417.32C945.533 1425.05 939.566 1437.15 940.295 1446.73C941.758 1465.96 955.44 1484.65 973.658 1488.74C994.149 1493.34 1013.08 1477.89 1018.99 1457.69C1022.05 1447.25 1022.62 1433.67 1018.23 1423.59C1015.67 1417.72 1011.81 1412.4 1006.94 1408.44C1002.82 1405.08 997.408 1402.12 992.47 1400.41C979.419 1395.89 991.376 1401.06 979.291 1398.22" stroke="black" stroke-width="10" stroke-linecap="round"/>
<path d="M1158.37 1422.64C1157.7 1417.68 1159.26 1432.66 1160.44 1437.51C1161.34 1441.19 1161.23 1443.09 1164.7 1444.16C1168.83 1445.44 1173.17 1446.6 1177.45 1447.15C1178.36 1447.27 1179.8 1446.82 1180.63 1447.06C1180.96 1447.17 1181.73 1449.83 1181.73 1449.85C1182.78 1452.52 1184 1455.12 1185.24 1457.7C1185.52 1458.27 1187.95 1461.68 1187.68 1462.27C1187.45 1462.77 1186.25 1463.27 1185.88 1463.56C1184.27 1464.79 1182.8 1466.22 1181.51 1467.82C1178.94 1471 1173.69 1475.36 1176.27 1479.72C1179.46 1485.1 1183.82 1489.86 1187.12 1495.09C1187.37 1495.47 1185.19 1499.26 1184.99 1499.67C1183.44 1502.98 1181.76 1506.49 1180.68 1510.01C1180.24 1511.43 1180.27 1511.62 1178.58 1511.73C1174.42 1511.99 1170.23 1511.7 1166.06 1511.95C1161.9 1512.19 1161.25 1512.44 1161.41 1517.55C1161.58 1522.8 1162.05 1528.43 1161.34 1533.65C1161.18 1534.85 1157.01 1536.56 1156.16 1537.06C1153.36 1538.7 1150.17 1539.78 1147.84 1542.16C1147.81 1542.19 1146.78 1543.34 1146.68 1543.27C1141.92 1539.93 1136.66 1537.48 1131.99 1533.94C1129.73 1532.22 1127.5 1530.2 1124.96 1528.96C1124.35 1528.67 1122.88 1530.66 1122.46 1531.08C1119.76 1533.73 1116.94 1536.27 1113.97 1538.58C1112.25 1539.91 1111.02 1539.55 1108.87 1539.16C1105.19 1538.48 1101.64 1537.49 1098.09 1536.31C1094.63 1535.17 1094.56 1527.61 1093.92 1524.58C1093.63 1523.17 1091.32 1511.52 1089.45 1511.61C1085.71 1511.78 1082.01 1511.4 1078.28 1511.73C1077.3 1511.81 1077.19 1512 1076.82 1511.29C1074.98 1507.7 1073.51 1504 1071.79 1500.34C1070.95 1498.55 1068.85 1496.44 1068.35 1494.56C1068.22 1494.08 1069.44 1492.46 1069.57 1492.23C1070.87 1489.75 1071.99 1487.17 1073.16 1484.62C1074.5 1481.7 1076.28 1479.14 1077.74 1476.33C1077.98 1475.86 1078.04 1475.86 1077.79 1475.39C1075.93 1471.8 1074.11 1468.15 1072.19 1464.61C1071.44 1463.22 1070.48 1462.18 1069.54 1460.96C1068.45 1459.55 1072.87 1452.24 1073.38 1451.05C1074.06 1449.47 1075.27 1444.2 1077.06 1443.23C1078.03 1442.7 1079.89 1442.95 1080.9 1442.91C1083.49 1442.8 1086.06 1442.72 1088.59 1442.08C1089.65 1441.81 1090.72 1441.49 1091.8 1441.29C1092.21 1441.21 1092.39 1434.04 1092.49 1433.34C1092.95 1430.04 1093.88 1426.72 1093.92 1423.37C1093.94 1422.01 1093.7 1421.77 1095.04 1421.28C1098.94 1419.86 1102.82 1418.39 1106.6 1416.66C1108.1 1415.97 1109.9 1414.26 1111.47 1413.93C1112.27 1413.76 1113.64 1415.1 1114.19 1415.49C1116.3 1416.96 1118.4 1418.43 1120.49 1419.92C1123.69 1422.22 1126.98 1424.36 1129.95 1426.98C1130.96 1427.88 1130.48 1427.92 1131.75 1426.81C1134.65 1424.24 1138.45 1422.59 1141.05 1419.71C1141.52 1419.19 1143.91 1414.57 1144.27 1414.5C1146.01 1414.16 1150.7 1418.37 1151.98 1419.69C1152.06 1419.78 1156.58 1423.79 1156.37 1422.77C1155.9 1420.56 1151.73 1418.15 1149.8 1417.45C1149.21 1417.23 1145.07 1416.63 1147.28 1417.42C1149.83 1418.32 1152.59 1418.46 1155.05 1419.5C1155.77 1419.8 1160.19 1420.9 1158.12 1420.54" stroke="black" stroke-width="6" stroke-linecap="round"/>
<path d="M1124.53 1450.2C1117.54 1450.41 1109.87 1456.09 1106.01 1461.94C1097.48 1474.87 1100.36 1495.32 1114.22 1502.7C1125.01 1508.44 1141.54 1504.32 1147.78 1493.09C1152.42 1484.74 1150.91 1474.95 1146.87 1466.65C1142.13 1456.9 1134.22 1452.68 1124.78 1449.67" stroke="black" stroke-width="6" stroke-linecap="round"/>
<path d="M1173.1 1478.04C1172.79 1477.99 1172.85 1478.04 1173.21 1478.71C1176.49 1484.76 1182.4 1488.77 1185.77 1494.81C1187.19 1497.37 1180.25 1505.07 1178.9 1507.33C1177.92 1508.96 1174.91 1508.75 1173.35 1509.04C1169.58 1509.74 1165.87 1510.76 1162.1 1511.43C1158.28 1512.11 1158.63 1522.02 1158.06 1525.11C1157.9 1526.02 1157.87 1531.85 1157.14 1532.3C1154.77 1533.77 1152.16 1534.81 1149.78 1536.28C1148.38 1537.15 1146.79 1538.53 1145.24 1539.08C1144.94 1539.19 1142.28 1537.21 1142.08 1537.1C1137.86 1534.6 1133.98 1531.87 1130.03 1528.93C1129.27 1528.37 1127.66 1526.8 1126.55 1526.9C1124.56 1527.1 1121.85 1531.82 1120.56 1533.12C1117.99 1535.71 1115.1 1537.94 1112.82 1540.83C1112.21 1541.61 1111.56 1542.65 1110.51 1542.61C1104.82 1542.41 1098.42 1539.53 1093.34 1536.89C1091.78 1536.08 1091.91 1532.73 1091.68 1531.27C1090.79 1525.39 1090.02 1519.54 1088.7 1513.75C1088.33 1512.14 1086.61 1512.8 1085.24 1512.63C1082.46 1512.28 1079.63 1511.77 1076.92 1511.01C1072.65 1509.82 1070.35 1503.88 1068.65 1500C1067.43 1497.2 1063.91 1494.22 1066 1491.41C1068.9 1487.5 1072.25 1483.86 1075.67 1480.46C1077.25 1478.9 1079.38 1477.53 1080.18 1475.32C1080.79 1473.65 1075.53 1470.35 1074.62 1469.52C1072.11 1467.21 1067.66 1463.91 1068.42 1460.11C1069.55 1454.43 1071.92 1449.17 1072.83 1443.43C1072.9 1442.95 1072.99 1442.44 1073.09 1441.97C1073.32 1440.88 1075.12 1441.32 1076.14 1441.05C1080.2 1439.99 1084.25 1438.87 1088.34 1437.93C1090.18 1437.51 1092.02 1437.06 1093.89 1436.82C1096.55 1436.49 1096.21 1436.58 1095.83 1434.05C1095.16 1429.6 1097.91 1425.4 1096.87 1421.2C1096.49 1419.72 1108.69 1414.07 1110.57 1413.2C1111.62 1412.71 1111.82 1412.85 1112.97 1413.34C1118.45 1415.71 1122.63 1418.98 1126.14 1423.99C1126.76 1424.86 1128.1 1427.37 1129.2 1427.68C1130.74 1428.11 1135.57 1422.45 1136.55 1421.52C1138.3 1419.89 1141.72 1414.75 1144.63 1415.15C1147.55 1415.56 1150.44 1416.22 1153.36 1416.67C1156.46 1417.14 1156.5 1417.24 1156.79 1420.55C1157.22 1425.5 1158.53 1430.22 1159.81 1434.99C1160.25 1436.66 1160.29 1439.99 1161.35 1441.31C1162.8 1443.11 1168.24 1443.35 1170.23 1443.74C1173.17 1444.31 1176.11 1444.77 1179.09 1445.08C1179.56 1445.13 1181.45 1444.93 1181.8 1445.37C1184.09 1448.19 1185.54 1452.29 1187.29 1455.52C1187.61 1456.12 1188.12 1456.65 1188.42 1457.24C1188.97 1458.32 1184.68 1461.76 1184.2 1462.23C1181.2 1465.15 1178.02 1467.9 1175.12 1470.95C1174.33 1471.79 1173.91 1472.9 1173.1 1473.57" stroke="black" stroke-width="10" stroke-linecap="round"/>
<path d="M1173.6 1472C1173.56 1472.3 1173.26 1472.34 1173.1 1472.58C1172.15 1474.06 1172.01 1476.1 1171.61 1477.78" stroke="black" stroke-width="10" stroke-linecap="round"/>
<path d="M1128.56 1446.28C1120.53 1446.28 1110.81 1452.05 1106.4 1458.98C1103.13 1464.12 1099.16 1472.16 1099.64 1478.53C1100.62 1491.33 1109.71 1503.76 1121.83 1506.48C1135.46 1509.54 1148.04 1499.26 1151.98 1485.83C1154.01 1478.88 1154.39 1469.85 1151.47 1463.15C1149.76 1459.24 1147.2 1455.71 1143.96 1453.07C1141.22 1450.84 1137.62 1448.87 1134.34 1447.73C1125.66 1444.73 1133.61 1448.17 1125.58 1446.28" stroke="black" stroke-width="10" stroke-linecap="round"/>
</svg>
