<svg width="2297" height="1706" viewBox="0 0 2297 1706" fill="none" xmlns="http://www.w3.org/2000/svg">
<rect width="2297" height="1706" fill="white"/>
<path d="M775.127 745.123C785.667 745.123 791.579 746.459 800.412 752.347" stroke="black" stroke-width="10" stroke-linecap="round"/>
<path d="M865.43 597.025C875.95 600.181 886.522 618.117 894.327 625.922" stroke="black" stroke-width="10" stroke-linecap="round"/>
<path d="M1024.36 477.824C1027.74 479.698 1053.44 542.248 1035.2 510.333" stroke="black" stroke-width="10" stroke-linecap="round"/>
<path d="M1201.36 456.152C1202.32 469.657 1208.58 482.534 1208.58 495.886" stroke="black" stroke-width="10" stroke-linecap="round"/>
<path d="M1327.78 495.885C1323.45 505.095 1309.72 519.99 1309.72 528.394" stroke="black" stroke-width="10" stroke-linecap="round"/>
<path d="M1443.37 607.862C1431.29 607.152 1419.28 605.516 1407.25 604.25" stroke="black" stroke-width="10" stroke-linecap="round"/>
<path d="M1472.27 430.867C1481.28 439.375 1490.08 441.62 1501.17 445.316" stroke="black" stroke-width="10" stroke-linecap="round"/>
<path d="M1548.12 300.83C1549.2 307.28 1568.22 332.783 1558.96 318.891" stroke="black" stroke-width="10" stroke-linecap="round"/>
<path d="M1667.32 282.77C1667.32 286.839 1670.94 304.562 1670.94 300.83" stroke="black" stroke-width="10" stroke-linecap="round"/>
<path d="M1804.58 322.504C1804.14 328.237 1797.36 350.196 1797.36 347.789" stroke="black" stroke-width="10" stroke-linecap="round"/>
<path d="M1631.2 1142.46C1634.41 1143.17 1650.38 1158.02 1645.65 1153.29" stroke="black" stroke-width="10" stroke-linecap="round"/>
<path d="M1739.57 1005.2C1740.13 1010.88 1743.18 1033.97 1743.18 1016.03" stroke="black" stroke-width="10" stroke-linecap="round"/>
<path d="M179 946.383C180.469 953.726 186.926 958.657 193.449 960.831" stroke="black" stroke-width="10" stroke-linecap="round"/>
<path d="M197.061 841.631C200.193 848.941 235.786 883.318 218.733 870.528" stroke="black" stroke-width="10" stroke-linecap="round"/>
<path d="M290.976 776.613C296.874 783.048 301.616 790.106 306.227 797.483C310.744 804.71 293.39 786.252 287.364 780.225" stroke="black" stroke-width="10" stroke-linecap="round"/>
<path d="M431.849 773V801.897" stroke="black" stroke-width="10" stroke-linecap="round"/>
<path d="M560.224 783C560.224 788.889 561.631 817.619 553 804.673" stroke="black" stroke-width="10" stroke-linecap="round"/>
<path d="M943.283 730.745C944.048 694.034 942.723 704.165 944.315 732.292C949.952 831.888 955.717 931.459 963.141 1030.94C963.25 1032.39 975.101 1105.41 957.209 1069.63" stroke="black" stroke-width="13" stroke-linecap="round"/>
<path d="M952.57 726.098C953.594 722.515 955.327 723.623 959.018 723.777C988.405 725.002 1020.19 721.694 1049.02 720.424C1133.72 716.695 1226.08 702.844 1310.02 712.172" stroke="black" stroke-width="13" stroke-linecap="round"/>
<path d="M1310.02 702.876C1304.56 588.123 1331.32 931.703 1337.87 1046.4" stroke="black" stroke-width="13" stroke-linecap="round"/>
<path d="M961.854 1074.27C953.406 1093.57 997.048 1088.79 1004.66 1088.45C1109.88 1083.79 1232.72 1081.21 1333.23 1051.05" stroke="black" stroke-width="13" stroke-linecap="round"/>
<path d="M934 740.019C973.328 706.474 1011.41 679.741 1059.34 661.102" stroke="black" stroke-width="13" stroke-linecap="round"/>
<path d="M1337.87 707.523C1300.57 726.172 1384.95 669.061 1398.22 661.102" stroke="black" stroke-width="13" stroke-linecap="round"/>
<path d="M1059.34 665.751C1179.14 664.175 1301.95 650.248 1421.43 661.109" stroke="black" stroke-width="13" stroke-linecap="round"/>
<path d="M1407.5 679.688C1402.95 770.764 1427.61 863.326 1440 953.577" stroke="black" stroke-width="13" stroke-linecap="round"/>
<path d="M1347.16 1041.76C1324.69 1059.97 1336.09 1053.59 1348.19 1039.69C1376.07 1007.66 1407.89 981.383 1440 953.555" stroke="black" stroke-width="13" stroke-linecap="round"/>
<path d="M1055.49 670.119V694.057" stroke="black" stroke-width="13" stroke-linecap="round"/>
<path d="M1055.49 736.236V772.713" stroke="black" stroke-width="13" stroke-linecap="round"/>
<path d="M1063.47 800.078C1061.77 811.706 1064.35 823.876 1065.75 835.415" stroke="black" stroke-width="13" stroke-linecap="round"/>
<path d="M1065.75 869.607C1066.85 878.353 1068 887.088 1069.17 895.825" stroke="black" stroke-width="13" stroke-linecap="round"/>
<path d="M1076.01 925.467C1075.14 936.931 1075.78 948.187 1076.01 959.664" stroke="black" stroke-width="13" stroke-linecap="round"/>
<path d="M969.994 1083.9C978.581 1075.31 990.097 1070.37 999.631 1063.38" stroke="black" stroke-width="13" stroke-linecap="round"/>
<path d="M1030.41 1041.73C1036.68 1037.81 1042.84 1032.52 1047.51 1026.92" stroke="black" stroke-width="13" stroke-linecap="round"/>
<path d="M1082.84 1000.69C1087.57 997.142 1093.28 993.72 1097.66 990.43" stroke="black" stroke-width="13" stroke-linecap="round"/>
<path d="M1126.16 991.574C1108.66 985.209 1163.39 990.434 1182.02 990.434" stroke="black" stroke-width="13" stroke-linecap="round"/>
<path d="M1216.21 983.587C1233.38 990.127 1254.83 979.278 1272.07 983.587" stroke="black" stroke-width="13" stroke-linecap="round"/>
<path d="M1306.27 973.336C1324.51 968.167 1343.66 968.561 1362.12 964.217" stroke="black" stroke-width="13" stroke-linecap="round"/>
<path d="M1394.04 955.097C1392.22 957.17 1397.78 956.233 1398.79 956.174C1409.37 955.551 1419.99 953.05 1430.51 951.678" stroke="black" stroke-width="13" stroke-linecap="round"/>
<path d="M1680.87 377.684C1674.33 396.442 1668.74 415.426 1661.73 433.942" stroke="black" stroke-width="18" stroke-linecap="round"/>
<path d="M1644.17 394.931C1665.6 402.779 1687.17 409.794 1708.99 416.426" stroke="black" stroke-width="18" stroke-linecap="round"/>
<path d="M1766.38 438.701C1786.47 445.341 1806.91 453.452 1827.75 457.372" stroke="black" stroke-width="18" stroke-linecap="round"/>
<path d="M1654.47 516.812C1654.81 517.153 1654.28 517.448 1654 517.661C1650.39 520.433 1645.98 522.558 1642.04 524.758C1630.91 530.979 1619.55 535.799 1607.51 539.932" stroke="black" stroke-width="18" stroke-linecap="round"/>
<path d="M1622.22 508.041C1627.51 519.557 1633.98 530.556 1640.62 541.341C1642.46 544.322 1643.47 547.796 1645.86 550.219" stroke="black" stroke-width="18" stroke-linecap="round"/>
<path d="M1733.73 547.628C1731.1 550.968 1756.12 557.244 1757.43 557.644C1765.94 560.246 1775.63 564.151 1784.4 565.41" stroke="black" stroke-width="18" stroke-linecap="round"/>
<path d="M1724.67 574.274C1724.37 575.734 1769.75 588.652 1776.16 591.237" stroke="black" stroke-width="18" stroke-linecap="round"/>
<path d="M1681.84 378.18C1674 394.392 1671.04 412.524 1664.04 428.865" stroke="black" stroke-width="5" stroke-linecap="round"/>
<path d="M1640.82 392.03C1639.51 392.139 1635.88 391.791 1638.45 393.053C1644.39 395.973 1651.74 397.108 1657.98 399.033C1671.27 403.131 1683.87 408.43 1696.77 413.55C1701.68 415.5 1707.6 418.54 1712.85 418.801" stroke="black" stroke-width="5" stroke-linecap="round"/>
<path d="M1763.86 438.992C1770.86 435.993 1780.91 438.157 1787.81 439.761C1795.3 441.5 1802.3 444.706 1808.88 448.629C1812.19 450.6 1814.85 452.52 1818.65 453.086" stroke="black" stroke-width="5" stroke-linecap="round"/>
<path d="M1621.46 502.334C1632.44 518.366 1643.4 534.373 1653.78 550.777" stroke="black" stroke-width="5" stroke-linecap="round"/>
<path d="M1654.82 519.356C1637.17 527.463 1619.44 535.183 1601.51 542.644" stroke="black" stroke-width="5" stroke-linecap="round"/>
<path d="M1731.79 544.965C1744.11 554.742 1761.94 557.349 1776.71 561.378" stroke="black" stroke-width="5" stroke-linecap="round"/>
<path d="M1722.44 574.13C1740.21 576.756 1758.16 580.131 1775.03 586.343" stroke="black" stroke-width="5" stroke-linecap="round"/>
<path d="M287.999 1025.78C290.72 1066.1 427.885 1069.05 448.801 1068.55" stroke="black" stroke-width="14" stroke-linecap="round"/>
<path d="M402.856 956.462C380.061 1024.14 355.612 1090.13 329.389 1156.28" stroke="black" stroke-width="14" stroke-linecap="round"/>
<path d="M465.434 928.34C500.194 956.727 532.766 969.576 574.946 983.985" stroke="black" stroke-width="14" stroke-linecap="round"/>
<path d="M580.687 875.662C578.378 948.088 566.873 1014.76 555.738 1085.97" stroke="black" stroke-width="14" stroke-linecap="round"/>
<path d="M273.978 1027.63C318.56 1056.41 370.957 1073.22 423.601 1074.71" stroke="black" stroke-width="5" stroke-linecap="round"/>
<path d="M388.568 973.391C379.385 1011.76 369.834 1049.49 355.709 1086.41C347.366 1108.22 336.826 1124.53 326.117 1144.41" stroke="black" stroke-width="5" stroke-linecap="round"/>
<path d="M466.851 926.462C454.304 929.323 464.937 938.555 471.774 941.915C499.53 955.555 534.767 972.404 565.46 976.045" stroke="black" stroke-width="5" stroke-linecap="round"/>
<path d="M578.378 887.752C571.406 955.359 562.054 1022.7 553.155 1090.08" stroke="black" stroke-width="5" stroke-linecap="round"/>
<path d="M459.447 921.919C455.445 923.882 462.235 929.204 463.748 930.305C490.645 949.863 523.39 962.84 553.051 977.63" stroke="black" stroke-width="5" stroke-linecap="round"/>
<path d="M576.795 875.344C578.239 890.336 575.359 905.973 573.585 920.724C568.396 963.862 561.248 1006.44 554.329 1049.27" stroke="black" stroke-width="5" stroke-linecap="round"/>
<path d="M706.212 1379.01C728.329 1386.71 757.271 1378.99 763.609 1351.09C764.518 1347.08 765.051 1332.59 758.545 1331.85C739.189 1329.64 725.258 1359.77 723.09 1374.53C719.494 1399 742.044 1430.75 767.131 1421.57" stroke="black" stroke-width="6" stroke-linecap="round"/>
<path d="M834.761 1394.62L865.937 1405.46" stroke="black" stroke-width="6" stroke-linecap="round"/>
<path d="M828.056 1419.47C837.153 1424.82 847.904 1425.89 858.103 1427.98" stroke="black" stroke-width="6" stroke-linecap="round"/>
<path d="M935.371 1417.98C932.044 1427.95 929.537 1437.39 928.212 1447.85C927.567 1452.94 921.044 1482.13 926.989 1462.52C935.768 1433.56 974.494 1396 981.079 1448.44C982.152 1456.99 974.282 1478.88 981.578 1474.29C986.66 1471.1 991.073 1453.65 995.162 1448.27C1023.75 1410.68 1020.04 1479.23 1019.63 1493.9" stroke="black" stroke-width="6" stroke-linecap="round"/>
<path d="M1083.87 1459.94C1065.43 1461.07 1051.86 1471.73 1051.94 1492.19C1052.01 1510.08 1063.15 1507.25 1074.53 1509.11" stroke="black" stroke-width="6" stroke-linecap="round"/>
<path d="M1099.32 1432.3C1107.74 1426.87 1109.89 1427.03 1110.27 1437.09C1110.9 1453.55 1112.13 1453.03 1129.21 1452.41" stroke="black" stroke-width="6" stroke-linecap="round"/>
<path d="M708.244 1378.66C715.114 1391.05 743.103 1385.15 752.69 1380.58C766.585 1373.96 775.192 1344.11 759.884 1334.31C741.47 1322.53 728.575 1364.26 727.662 1374.57C725.469 1399.31 737.535 1439.22 769.722 1427.83" stroke="black" stroke-width="6" stroke-linecap="round"/>
<path d="M832.503 1395.7C826.395 1389.09 849.368 1402 857.748 1405.28" stroke="black" stroke-width="6" stroke-linecap="round"/>
<path d="M824.126 1419.77C837.091 1424.28 853.794 1427.07 864.703 1435.48" stroke="black" stroke-width="6" stroke-linecap="round"/>
<path d="M930.129 1418.56C925.661 1414.56 924.85 1451.79 924.816 1454.11C924.766 1457.5 922.707 1466.87 924.893 1464.28C928.171 1460.39 931.676 1456.74 935.157 1453.03C941.982 1445.76 961.046 1420.19 972.509 1433.39C979.688 1441.66 978.593 1456.61 977.606 1466.65C977.47 1468.04 975.188 1475.48 977.983 1472.03C985.834 1462.35 992.898 1450.33 1003.97 1443.99C1016.43 1436.85 1024.64 1449.86 1024.97 1461.35C1025.31 1473.56 1021.56 1485.26 1022.51 1497.54" stroke="black" stroke-width="6" stroke-linecap="round"/>
<path d="M1080.89 1457.52C1070.64 1461.17 1065.34 1462.04 1056.74 1469.4C1050.49 1474.74 1037.71 1488.56 1042.76 1498.41C1046.74 1506.16 1061.36 1503.47 1068.2 1503.12" stroke="black" stroke-width="6" stroke-linecap="round"/>
<path d="M1097.12 1431.41C1109.37 1425.93 1105.83 1443.22 1104.46 1450.9C1103.73 1454.96 1127.54 1456.78 1132.34 1457.96" stroke="black" stroke-width="6" stroke-linecap="round"/>
<path d="M1632.63 1308.47C1628.05 1311.04 1630.12 1293.38 1630.87 1289.83C1645.42 1220.55 1706.43 1162.75 1772.83 1143.49C1842.26 1123.35 1936.14 1137.23 1965.72 1208.57C1984.99 1255.05 2001.41 1307.98 1990.87 1358.17" stroke="black" stroke-width="10" stroke-linecap="round"/>
<path d="M1639.2 1304.18C1620.88 1309.79 1660.27 1311.44 1668.51 1313.17" stroke="black" stroke-width="10" stroke-linecap="round"/>
<path d="M1990.87 1358.18C1972.21 1358.09 1954.14 1353.3 1935.97 1349.48" stroke="black" stroke-width="10" stroke-linecap="round"/>
<path d="M1920.68 1354.78C1931.87 1301.51 1914.47 1241.91 1860.72 1218.67C1795.35 1190.41 1720.01 1237.59 1702.38 1300.43" stroke="black" stroke-width="10" stroke-linecap="round"/>
<path d="M1659.96 1313.53C1671.71 1314.42 1683.4 1315.68 1695.09 1317.24" stroke="black" stroke-width="10" stroke-linecap="round"/>
<path d="M1701.14 1302.39C1699.28 1306.9 1697.33 1311.36 1695.38 1315.84" stroke="black" stroke-width="10" stroke-linecap="round"/>
<path d="M1924.78 1347.15C1927.19 1348.45 1929.61 1349.69 1932.06 1350.88" stroke="black" stroke-width="10" stroke-linecap="round"/>
<path d="M1630.23 1287.68C1629.2 1288.58 1637.53 1289.22 1638.98 1289.52" stroke="black" stroke-width="10" stroke-linecap="round"/>
<path d="M1635.63 1272.82C1637.26 1274.79 1641.02 1275.2 1643.35 1275.96" stroke="black" stroke-width="10" stroke-linecap="round"/>
<path d="M1641.19 1257.23C1644.72 1257.97 1647.92 1258.74 1651.25 1260.1" stroke="black" stroke-width="10" stroke-linecap="round"/>
<path d="M1656.16 1236.76C1655.14 1235.38 1666.82 1245.07 1670.68 1247.42" stroke="black" stroke-width="10" stroke-linecap="round"/>
<path d="M1670.7 1214.67C1668.4 1214.19 1674.22 1217.78 1675.77 1219.54" stroke="black" stroke-width="10" stroke-linecap="round"/>
<path d="M1685.59 1201.8C1687.13 1203.37 1689.52 1205 1689.78 1207.25" stroke="black" stroke-width="10" stroke-linecap="round"/>
<path d="M1699.17 1187.89C1700.28 1189.8 1700.65 1192.04 1702.63 1193.19" stroke="black" stroke-width="10" stroke-linecap="round"/>
<path d="M1717.17 1171.1C1716.44 1178.71 1725.56 1191.62 1728.32 1197.82" stroke="black" stroke-width="10" stroke-linecap="round"/>
<path d="M1741.59 1156.42C1742.1 1153.99 1744.76 1160.25 1746.5 1162.03" stroke="black" stroke-width="10" stroke-linecap="round"/>
<path d="M1766.35 1150.96C1765.62 1148.43 1769.49 1155.55 1769.65 1156.98" stroke="black" stroke-width="10" stroke-linecap="round"/>
<path d="M1786.01 1144.42C1786.79 1146.95 1787.97 1149.09 1788.28 1151.75" stroke="black" stroke-width="10" stroke-linecap="round"/>
<path d="M1807.08 1141.99C1807.4 1141.59 1807.99 1157.33 1807.94 1159.69" stroke="black" stroke-width="10" stroke-linecap="round"/>
<path d="M1844.1 1139.86C1844.62 1137.39 1841.57 1144.64 1841.26 1146.12" stroke="black" stroke-width="10" stroke-linecap="round"/>
<path d="M1861.65 1139.74C1859.97 1140.97 1860.55 1144.97 1860.11 1147.03" stroke="black" stroke-width="10" stroke-linecap="round"/>
<path d="M1881.65 1142.41C1878.89 1141.51 1877.77 1146.38 1877.35 1148.37" stroke="black" stroke-width="10" stroke-linecap="round"/>
<path d="M1909.65 1150.58C1907.61 1157.21 1903.12 1163.16 1899.67 1169.05" stroke="black" stroke-width="10" stroke-linecap="round"/>
<path d="M1928.2 1167.42C1929.01 1168.41 1924.14 1171.28 1923.48 1171.77" stroke="black" stroke-width="10" stroke-linecap="round"/>
<path d="M1951.17 1181.39C1948.69 1182.71 1945.85 1183.8 1944.11 1186" stroke="black" stroke-width="10" stroke-linecap="round"/>
<path d="M1961.7 1196.55C1959.61 1198.19 1957.5 1199.75 1955.36 1201.32" stroke="black" stroke-width="10" stroke-linecap="round"/>
<path d="M1975.45 1210.87C1969.36 1213.45 1963.23 1215.94 1957.1 1218.44" stroke="black" stroke-width="10" stroke-linecap="round"/>
<path d="M1973.58 1237.9C1971.89 1237.31 1974.42 1235.87 1973.58 1235.7C1971.78 1235.32 1969.56 1237.38 1968.17 1238.28" stroke="black" stroke-width="10" stroke-linecap="round"/>
<path d="M1982.3 1243.54C1978.9 1245.43 1975.47 1247.22 1972.02 1249" stroke="black" stroke-width="10" stroke-linecap="round"/>
<path d="M1984.42 1251.6C1980.85 1253.68 1976.95 1254.34 1972.98 1255.29" stroke="black" stroke-width="10" stroke-linecap="round"/>
<path d="M1995.14 1276.71C1992.37 1276.55 1989.59 1276.51 1986.81 1276.48" stroke="black" stroke-width="10" stroke-linecap="round"/>
<path d="M1994.12 1292.49C1989.32 1292.03 1984.6 1291.91 1979.79 1291.77" stroke="black" stroke-width="10" stroke-linecap="round"/>
<path d="M1977.18 1289.69C1974.84 1289.64 1969.64 1292.04 1973.82 1292.8C1976.48 1293.28 1980.23 1293.03 1982.71 1292.38" stroke="black" stroke-width="10" stroke-linecap="round"/>
<path d="M1996.55 1313.57C1993.44 1313.81 1990.42 1313.9 1987.33 1313.92" stroke="black" stroke-width="10" stroke-linecap="round"/>
<path d="M1998.05 1324.55C1995.15 1324.46 1992.42 1324.61 1989.56 1325.05" stroke="black" stroke-width="10" stroke-linecap="round"/>
<path d="M1996.9 1337.26C1994.19 1337.97 1991.77 1338.76 1988.99 1338.64" stroke="black" stroke-width="10" stroke-linecap="round"/>
<path d="M1640.7 1309.11C1642.1 1283.3 1657.08 1255.51 1669.74 1233.69C1687.7 1202.76 1711.07 1174.85 1743.86 1159.28C1797.23 1133.93 1874.49 1119.09 1925.62 1159.11C1958.8 1185.07 1979.47 1234.87 1987.19 1275.05C1991.1 1295.39 1991.23 1316.75 1992.29 1337.4C1992.85 1348.05 1993.27 1357.96 1990.18 1368.02" stroke="black" stroke-width="5" stroke-linecap="round"/>
<path d="M1643.47 1310.45C1661.31 1312.37 1679.08 1315.08 1696.92 1317.1" stroke="black" stroke-width="5" stroke-linecap="round"/>
<path d="M1915.45 1353.85C1923.03 1358.99 1986.85 1365.77 1987.15 1364.34" stroke="black" stroke-width="5" stroke-linecap="round"/>
<path d="M1685.51 1316.99C1692.06 1317.7 1698.14 1318.48 1704.64 1320.25" stroke="black" stroke-width="5" stroke-linecap="round"/>
<path d="M1706.83 1320.71C1707.41 1315.36 1708.8 1310.76 1710.66 1305.68C1716.92 1288.63 1722.89 1270.83 1732.34 1255.22C1754.46 1218.72 1797.74 1208.66 1837.48 1216.9C1877.2 1225.14 1899.48 1252.38 1912.91 1289.2C1918.72 1305.15 1928.16 1327.12 1925.78 1344.59" stroke="black" stroke-width="5" stroke-linecap="round"/>
<path d="M1923.01 1343.25C1925.91 1344.41 1924.09 1351.47 1924.52 1354.23" stroke="black" stroke-width="5" stroke-linecap="round"/>
<path d="M1878.13 986.684C1874.79 990.863 1875.1 993.768 1874.1 998.772" stroke="black" stroke-width="10" stroke-linecap="round"/>
<path d="M1982.9 1031.01C1981.34 1038.06 1971.23 1045.22 1966.78 1051.16" stroke="black" stroke-width="10" stroke-linecap="round"/>
<path d="M2079.61 1123.69C2070.1 1125.15 2060.64 1129.11 2051.41 1131.75" stroke="black" stroke-width="10" stroke-linecap="round"/>
<path d="M2119.91 1256.67C2117.83 1264.96 2090.47 1260.7 2083.64 1260.7" stroke="black" stroke-width="10" stroke-linecap="round"/>
<path d="M757.844 1244.22C758.398 1255.3 760.617 1266.4 761.99 1277.39" stroke="black" stroke-width="10" stroke-linecap="round"/>
<path d="M853.202 1235.93V1269.1" stroke="black" stroke-width="10" stroke-linecap="round"/>
<path d="M960.998 1248.37C960.474 1254.66 956.852 1296.22 956.852 1273.25" stroke="black" stroke-width="10" stroke-linecap="round"/>
<path d="M1060.5 1298.12C1059.55 1309.54 1054.96 1320.3 1052.21 1331.29" stroke="black" stroke-width="10" stroke-linecap="round"/>
<path d="M1160.01 1356.16C1157.32 1368.24 1127.77 1379.51 1118.55 1385.19" stroke="black" stroke-width="10" stroke-linecap="round"/>
</svg>
