<svg width="2029" height="1609" viewBox="0 0 2029 1609" fill="none" xmlns="http://www.w3.org/2000/svg">
<rect width="2029" height="1609" fill="white"/>
<path d="M664.632 830.51C664.632 817.432 669.496 804.434 669.732 790.985C670.112 769.336 679.572 752.427 682.163 731.539C684.411 713.411 693.722 696.406 697.622 678.468C701.446 660.877 708.011 643.897 713.4 626.752C736.223 554.132 796.2 499.57 869.825 481.164C913.888 470.149 958.847 457.817 1004.73 459.091C1045.06 460.211 1085.13 470.649 1122.67 484.83C1155.74 497.324 1187.88 517.526 1213.27 542.921C1232.21 561.862 1253.33 579.893 1271.05 599.578C1306.38 638.836 1323.56 681.793 1335.27 732.894C1345.65 778.198 1361.56 821.218 1347.39 867.803C1339.24 894.56 1330.33 921.731 1320.93 948.047C1307.25 986.345 1295.38 1025.39 1284.43 1064.55C1276.8 1091.87 1264.25 1116.56 1259.09 1144.79C1253.13 1177.45 1246.79 1215.47 1251.92 1248.47C1253.18 1256.56 1253.13 1265.01 1254.87 1273.01C1255.43 1275.58 1257.73 1284.84 1255.59 1283.77" stroke="black" stroke-width="6" stroke-linecap="round"/>
<path d="M835.321 1385.59C843.038 1382.79 852.678 1382.56 860.662 1380.81C904.024 1371.32 947.272 1361.26 990.71 1352.12C1044.83 1340.74 1099.15 1331.04 1153.11 1318.82C1187.95 1310.92 1223.41 1303.56 1257.02 1292.36" stroke="black" stroke-width="6" stroke-linecap="round"/>
<path d="M819.542 1239.3C814.123 1223.04 817.764 1273.61 818.984 1290.7C821.078 1320 826.436 1349.42 831.017 1378.43" stroke="black" stroke-width="6" stroke-linecap="round"/>
<path d="M813.806 1229.26C783.571 1242.7 754.95 1242.15 722.884 1238.58C692.272 1235.18 676.441 1216.73 664.633 1189.18C647.9 1150.13 655.724 1103.76 644.871 1063.83C638.924 1041.96 642.126 1008.6 625.587 990.839C613.636 978.003 601.025 965.869 585.106 957.53C570.244 949.745 567.971 944.385 581.52 930.835C599.255 913.101 612.918 892.146 631.643 875.294C640.494 867.328 646.271 858.085 653.158 848.519C659.904 839.151 658.618 830.163 660.33 819.035" stroke="black" stroke-width="6" stroke-linecap="round"/>
<path d="M666.99 830.306C668.099 809.249 673.958 788.57 674.515 767.13C675.343 735.268 682.387 704.534 693.699 674.764C703.491 648.996 715.525 624.793 728.182 600.342C744.476 568.865 767.81 550.826 798.552 534.189C820.528 522.296 839.919 504.465 862.306 493.919C888.546 481.558 917.254 474.24 945.328 467.458C1005.02 453.038 1061.82 463.711 1120.3 476.058C1145.75 481.43 1168.98 489.712 1190.67 504.173C1207.81 515.595 1218.94 531.803 1235.57 543.864C1261.16 562.412 1285.81 599.253 1297.34 628.54C1307.55 654.449 1326.64 675.346 1332.32 703.458C1335.37 718.556 1342.19 733.571 1343.9 748.772C1345.71 764.885 1344.17 781.362 1345.72 797.56" stroke="black" stroke-width="14" stroke-linecap="round"/>
<path d="M1268.33 1282.78C1268.33 1258.97 1272.79 1234.47 1272.79 1210.18C1272.79 1180.66 1274.8 1151.26 1275.85 1121.78C1276.88 1093.07 1287.42 1065.92 1294.21 1038.35C1300.37 1013.36 1312.39 990.386 1318.6 965.745C1328.06 928.257 1344.68 893.653 1350.94 854.857C1354.6 832.134 1350.19 808.565 1350.19 785.645" stroke="black" stroke-width="14" stroke-linecap="round"/>
<path d="M1268.32 1282.77C1268.02 1285.2 1259.08 1289.8 1256.74 1291.12C1232.96 1304.56 1203.16 1312.4 1176.78 1319.07C1140.82 1328.16 1103.04 1330.83 1066.72 1339C1041.15 1344.75 1015.36 1349.44 989.653 1354.55C980.518 1356.36 845.605 1380.27 845.605 1376.54" stroke="black" stroke-width="14" stroke-linecap="round"/>
<path d="M818.819 1235.16C816.008 1232.7 819.184 1237.54 819.48 1238.3C824.369 1250.87 823.856 1267.35 825.93 1280.47C831.298 1314.43 839.216 1348.34 842.634 1382.51" stroke="black" stroke-width="14" stroke-linecap="round"/>
<path d="M672.056 824.355C668.574 824.355 666.648 826.314 664.613 829.151C652.394 846.194 647.235 867.787 634.845 885.133C618.479 908.045 596.523 924.606 574.48 941.611C555.027 956.618 577.925 970.575 593.169 980.641C607.529 990.125 626.615 1000.15 632.199 1017.52C639.916 1041.53 638.552 1070.78 642.287 1096C646.677 1125.63 652.811 1155.23 658.66 1184.47C662.926 1205.81 675.982 1220.97 697.359 1226.98C719.171 1233.11 744.495 1238.66 767.481 1236.57C781.323 1235.31 803.486 1239.6 811.969 1227.72" stroke="black" stroke-width="14" stroke-linecap="round"/>
<path d="M1850.92 396.738C1845.21 395.007 1827.92 448.419 1825.36 454.186" stroke="black" stroke-width="18" stroke-linecap="round"/>
<path d="M1756.87 398.023C1761.74 400.798 1764.22 410.054 1766.76 414.525C1772.69 424.942 1780.87 436.693 1791.82 442.341C1798.7 445.891 1816.35 457.645 1824.12 454.661" stroke="black" stroke-width="18" stroke-linecap="round"/>
<path d="M1754.49 401.073C1736.23 442.103 1724.45 489.187 1697.92 525.877" stroke="black" stroke-width="18" stroke-linecap="round"/>
<path d="M1672.64 374.919C1665.09 371.557 1656.99 367.223 1648.74 364.51C1633.4 359.464 1619.36 359.565 1603.68 358.039C1583.22 356.048 1571.38 367.843 1556 378.481C1541.94 388.211 1529.85 399.89 1521.51 414.95C1512.12 431.914 1511.28 449.974 1510.86 468.88C1510.53 484.369 1509.05 500.511 1513.65 515.204C1518.38 530.359 1536.09 543.195 1546.86 554.184C1560.87 568.467 1577.82 567.206 1595.98 570.393C1615.59 573.835 1637.36 569.347 1655.11 560.243C1668.63 553.308 1684.46 549.78 1693.95 536.953C1698.37 530.992 1701.44 521.342 1703.26 513.87" stroke="black" stroke-width="18" stroke-linecap="round"/>
<path d="M1669.88 369.582C1661.82 387.706 1655.67 408.452 1648.03 425.603" stroke="black" stroke-width="18" stroke-linecap="round"/>
<path d="M1647.37 429.414C1642.08 426.323 1638.14 423.641 1630.36 421.449C1620.85 418.768 1610.6 416.409 1600.68 416.855C1598.43 416.956 1585.3 420.283 1587.34 421.189" stroke="black" stroke-width="18" stroke-linecap="round"/>
<path d="M1804.77 295.656C1806.73 297.111 1801.2 307.285 1800.84 308.414C1795.84 324.216 1796.31 342.929 1802.64 358.164C1807.37 369.532 1813.4 380.67 1821.7 389.863C1828.68 397.591 1837.34 401.502 1846.85 405.249" stroke="black" stroke-width="18" stroke-linecap="round"/>
<path d="M1806.29 296.659C1793.6 291.012 1781.42 284.155 1768.57 278.872C1765.79 277.727 1762.6 275.925 1759.71 275.275" stroke="black" stroke-width="18" stroke-linecap="round"/>
<path d="M1606.45 417.026C1604.58 416.194 1601.57 416.68 1599.57 416.841C1584.39 418.059 1573.22 428.255 1567.85 442.326C1563.48 453.768 1563.47 467.057 1564.74 479.05C1565.63 487.407 1570.04 498.964 1575.83 505.167C1588.79 519.042 1608.46 520.202 1626.26 518.026C1637.13 516.696 1646.05 502.659 1650.14 493.457" stroke="black" stroke-width="18" stroke-linecap="round"/>
<path d="M1761.36 276.16C1759.1 275.4 1756.9 274.563 1754.68 273.706" stroke="black" stroke-width="18" stroke-linecap="round"/>
<path d="M1755.5 273.033C1752.64 272.39 1749.5 279.318 1748.9 280.345C1734.79 304.654 1727.95 332.166 1716.32 357.627C1706.98 378.065 1695.37 397.323 1685.62 417.556C1674.19 441.291 1663.96 465.593 1652.5 489.329" stroke="black" stroke-width="18" stroke-linecap="round"/>
<path d="M1749.49 277.787C1749.68 277.471 1749.81 277.54 1750.11 277.74C1752.71 279.491 1755.76 280.851 1758.52 282.262C1770.51 288.397 1782.63 294.183 1795.02 299.47C1796.23 299.986 1800.04 300.876 1800.1 302.376" stroke="black" stroke-width="6" stroke-linecap="round"/>
<path d="M1800.18 300.344C1800.11 305.131 1798.26 310.338 1797.53 315.022C1795.21 329.831 1795.81 341.989 1801.14 356.038C1805.76 368.191 1811.37 381.367 1820.92 390.499C1827.2 396.505 1835.3 400.981 1842.43 405.903" stroke="black" stroke-width="6" stroke-linecap="round"/>
<path d="M1842.47 406.747C1842.66 407.338 1842.51 407.859 1842.31 408.443C1840.41 413.987 1836.39 419.221 1833.81 424.464C1828.02 436.202 1823.24 448.328 1817.15 459.924" stroke="black" stroke-width="6" stroke-linecap="round"/>
<path d="M1757.44 401.95C1756.61 402.497 1756.93 403.726 1757.22 404.514C1760.68 413.917 1767.68 422.981 1775.02 429.649C1787.67 441.153 1803.56 453.709 1820.45 458.085" stroke="black" stroke-width="6" stroke-linecap="round"/>
<path d="M1757.25 402.366C1756.48 400.924 1754.57 403.93 1754.37 404.364C1747.66 418.561 1743.42 433.889 1737.61 448.455C1726.97 475.153 1715.86 504.74 1697.48 527.379" stroke="black" stroke-width="6" stroke-linecap="round"/>
<path d="M1668.22 378.521C1668.66 377.073 1666.69 381.14 1666.07 382.523C1660.45 395.152 1655.17 407.94 1649.86 420.704C1648.08 424.981 1646.52 429.484 1644.17 433.501" stroke="black" stroke-width="6" stroke-linecap="round"/>
<path d="M1702.29 523.817C1694.58 533.554 1686.73 543.003 1677.25 551.093C1669.21 557.962 1659.21 562.44 1650.13 567.754C1636.1 575.952 1618.09 578.284 1602.12 576.294C1590.91 574.897 1581 572.761 1570.98 567.509C1562.4 563.007 1554.89 556.373 1547.61 549.993C1535.47 539.34 1525.08 527.515 1515.3 514.706C1509.46 507.043 1508.63 495.481 1506.67 486.305C1505.56 481.111 1505.51 475.618 1505.08 470.335C1504.66 465.308 1503.15 459.727 1503.86 454.714C1506.82 433.782 1512.72 413.431 1525.03 395.997C1535.86 380.663 1553.21 373.795 1569.19 365.224C1573.05 363.151 1576.86 360.759 1580.8 358.872C1586.86 355.977 1594.99 355.647 1601.6 355.572C1613.43 355.44 1623.9 359.046 1635.35 361.414C1644.6 363.328 1654.19 366.081 1662.86 369.94C1665.32 371.035 1667.39 372.783 1669.87 373.886" stroke="black" stroke-width="6" stroke-linecap="round"/>
<path d="M1641.14 430.089C1639.7 426.343 1632.51 424.356 1629.39 423.07C1618.2 418.451 1607.5 418.859 1596.16 422.555C1580.1 427.786 1564.21 441.922 1561.07 458.9C1556 486.371 1571.14 516.413 1599.51 523.329C1613.61 526.769 1630.13 524.001 1641.46 514.554C1650.2 507.271 1657.97 494.259 1659.74 482.982" stroke="black" stroke-width="6" stroke-linecap="round"/>
<path d="M1749.81 279.664C1749.06 283.158 1747.29 286.489 1746 289.786C1741.15 302.099 1737.13 314.705 1732.04 326.927C1719.92 356.024 1707.15 384.689 1692.68 412.688C1684.24 428.997 1674.02 444.845 1667.78 462.176C1664.54 471.196 1661.06 480.019 1657.16 488.776" stroke="black" stroke-width="6" stroke-linecap="round"/>
<path d="M388.188 172.397C388.012 171.012 390.441 168.361 391.037 167.371C395.931 159.233 400.164 150.887 404.416 142.406C409.001 133.265 415.637 125.496 421.421 117.124C424.926 112.052 427.996 106.783 431.765 101.881C437.856 93.9617 444.886 87.6213 453.126 82.2835C462.617 76.1345 473.866 76.2587 484.842 77.0133C495.073 77.7166 505.269 81.1958 511.761 89.3065C525.651 106.659 521.31 131.354 513.449 150.32C511.622 154.727 508.417 158.358 505.574 162.134C505.154 162.692 504.552 163.439 504.099 163.911C500.884 167.261 506.732 163.738 508.191 162.927C521.824 155.348 539.166 160.516 550.667 169.871C556.153 174.334 562.753 178.902 565.414 185.775C568.633 194.09 568.964 204.634 568.44 213.455C567.712 225.703 563.115 236.151 556.488 246.234C548.858 257.842 540.818 269.651 531.479 279.958C526.067 285.932 522.704 292.93 518.027 299.416C513.804 305.272 509.094 310.742 505.1 316.764C501.232 322.596 495.936 328.03 492.766 334.19" stroke="black" stroke-width="3" stroke-linecap="round"/>
<path d="M392.863 163.773C392.381 165.872 390.946 167.406 389.905 169.291" stroke="black" stroke-width="3" stroke-linecap="round"/>
<path d="M387.275 170.753C385.391 172.355 383.643 175.849 382.338 177.873C378.562 183.733 374.865 189.464 372.383 196.009C367.051 210.07 364.491 225.107 368.287 239.866C372.371 255.745 391.574 268.038 407.288 268.947C417.852 269.558 425.544 263.851 433.163 257.599C433.686 257.17 431.573 262.021 431.348 262.505C429.265 266.974 427.257 271.412 425.055 275.831C421.054 283.859 419.223 292.416 417.604 301.181C415.186 314.276 423.943 328.168 433.597 336.143C438.808 340.447 443.637 344.769 449.399 348.352C454.111 351.282 457.665 350.271 462.997 349.113C470.168 347.556 476.66 346.542 482.729 342.328C485.324 340.525 487.079 338.193 489.232 335.963C489.941 335.229 493.057 333.137 493.021 332.326" stroke="black" stroke-width="3" stroke-linecap="round"/>
<path d="M425.645 193.323C433.779 207.954 442.997 222.091 450.498 237.083C453.17 242.422 455.279 248.178 458.161 253.362C459.018 254.902 459.874 256.443 460.73 257.983C462.307 260.819 463.711 252.199 464.22 251.142C469.341 240.506 475.458 230.707 481.489 220.572C485.777 213.365 488.873 204.85 495.048 199.07C496.736 197.49 490.633 198.312 490.17 198.339C486.817 198.532 483.178 199.007 479.827 198.829C472.971 198.463 466.221 197.776 459.305 197.612C454.969 197.51 450.719 196.596 446.389 196.615C442.567 196.633 438.759 196.291 435.1 195.191C432.713 194.474 425.972 193.136 424.694 190.838" stroke="black" stroke-width="3" stroke-linecap="round"/>
<path d="M372.516 191.941C373.314 188.6 375.723 185.652 377.766 182.962C379.975 180.054 382.45 177.351 384.513 174.333C387.025 170.66 388.761 166.547 391.012 162.721C393.639 158.255 396.794 153.989 399.689 149.685C402.447 145.584 405.952 141.774 408.012 137.24C412.171 128.088 419.102 121.114 424.136 112.474C426.373 108.636 429.304 105.287 431.824 101.64C433.927 98.598 436.191 95.4067 438.928 92.8882C447.277 85.2059 457.465 80.2504 468.793 78.6945C472.374 78.2027 476.265 79.2404 479.865 79.7512C482.74 80.1592 485.5 80.8257 488.327 81.4556C493.453 82.5978 498.512 87.4017 501.16 91.7299C502.662 94.185 505.51 95.1164 507.322 97.0915C507.933 97.7571 508.133 98.8635 508.695 99.6159C509.509 100.707 510.445 101.703 511.155 102.869C512.19 104.568 513.301 106.378 513.905 108.279C517.741 120.345 519.201 132.263 512.657 143.699C509.678 148.905 506.579 154.077 504.26 159.608C503.024 162.559 499.586 165.751 499.332 168.893" stroke="black" stroke-width="14" stroke-linecap="round"/>
<path d="M500.438 166.861C500.159 167.836 500.851 167.177 501.422 166.86C504.015 165.418 507.002 164.833 509.723 163.669C513.818 161.917 517.377 161.723 521.692 161.651C525.736 161.585 529.233 163.703 533.034 164.557C536.696 165.381 540.394 166.885 543.497 169.043C547.115 171.559 550.405 175.767 553.204 179.146C556.536 183.169 558.991 187.812 561.518 192.357C566.835 201.921 567.852 214.048 562.914 224.003C560.478 228.915 557.664 233.592 554.886 238.314C551.415 244.216 548.756 250.542 545.323 256.432C539.174 266.986 531.477 276.624 525.434 287.261C522.8 291.897 519.41 295.699 516.475 300.09C513.999 303.795 510.531 307.296 508.432 311.212C507.848 312.302 501.047 323.661 499.903 322.878" stroke="black" stroke-width="14" stroke-linecap="round"/>
<path d="M503.018 320.438C502.397 319.619 495.699 332.188 494.982 333.208C491.281 338.472 485.106 342.177 479.682 345.395C472.632 349.579 463.435 349.832 455.584 348.459C451.682 347.777 448.009 347.572 444.291 345.995C440.341 344.321 436.729 341.977 433.511 339.14C426.817 333.241 419.744 326.078 416.681 317.589C415.147 313.335 413.485 309.28 413.025 304.743C412.595 300.496 411.401 296.212 412.538 291.985C414.498 284.692 420.421 279.546 423.941 272.979C425.783 269.544 427.597 266.772 429.934 263.648C430.624 262.726 432.586 260.053 431.58 260.612" stroke="black" stroke-width="14" stroke-linecap="round"/>
<path d="M372.583 185.685C372.489 185.562 372.117 186.217 371.866 186.357" stroke="black" stroke-width="14" stroke-linecap="round"/>
<path d="M374.851 183.879C375.167 184.631 374.007 185.85 373.756 186.488C372.375 190.014 371.101 193.561 369.613 197.049C367.892 201.081 367.471 205.167 366.159 209.286C364.766 213.66 363.545 217.399 363.158 221.984C362.276 232.437 366.748 240.032 372.768 248.292C376.173 252.964 380.005 257.232 385.031 260.186C389.185 262.626 393.811 263.15 398.32 264.631C403.758 266.417 409.576 266.536 415.085 265.083C418.626 264.149 421.978 262.646 425.502 261.746C426.629 261.458 428.724 260.153 429.929 260.497C430.691 260.714 433.049 260.433 432.288 260.216" stroke="black" stroke-width="14" stroke-linecap="round"/>
<path d="M423.537 193.359C425.593 197.057 428.027 200.517 429.979 204.293C434.766 213.551 439.046 223.11 444.111 232.222C446.916 237.266 450.372 241.749 452.721 247.056C453.836 249.573 455.233 251.954 456.902 254.14C458.335 256.017 458.722 258.94 460.876 260.279C462.587 261.344 465.828 248.555 466.635 246.82C468.684 242.419 471.75 238.375 474.19 234.166C476.052 230.955 478.132 227.927 479.855 224.623C482.644 219.274 485.193 213.856 487.462 208.274C489.018 204.445 491.819 200.826 494.404 197.597C495.069 196.766 496.173 194.856 496.024 196.696" stroke="black" stroke-width="14" stroke-linecap="round"/>
<path d="M425.782 193.474C425.643 193.292 425.73 193.635 426.096 193.739C432.288 195.506 439.961 194.511 446.279 194.533C455.202 194.566 464.262 194.187 473.147 195.172C477.904 195.699 482.674 195.519 487.403 196.125C489.915 196.446 492.524 196.863 495.056 196.673C495.67 196.627 497.318 196.532 495.699 196.603" stroke="black" stroke-width="14" stroke-linecap="round"/>
<path d="M1068.61 60.4921C1091.05 59.25 1114.3 64.0633 1136.39 67.7054C1152.1 70.2947 1167.7 73.063 1182.98 77.4836C1193.76 80.6007 1202.9 83.9442 1210.65 92.53C1218.12 100.81 1217.63 115.945 1216.62 126.253C1213.93 154.012 1207.54 181.35 1203 208.882C1201.6 217.384 1197.53 225.977 1197.97 234.645C1198.12 237.549 1198.43 248.427 1195.83 249.233" stroke="black" stroke-width="6" stroke-linecap="round"/>
<path d="M1076.85 58.1816C1072.15 57.9979 1064.69 60.6321 1060.18 62.4819C1054.67 64.7451 1048.37 64.8412 1043.7 68.823C1037.85 73.8088 1034.27 80.8907 1029.75 86.9994C1019.67 100.627 1018.77 121.117 1016.08 137.407C1013.21 154.875 1012.36 172.784 1009 190.094C1005.79 206.592 1004.16 222.682 1012.64 237.791C1017.34 246.165 1025.2 246.794 1033.24 251.031C1034.8 251.856 1035.97 253.795 1037.59 254.865C1040.23 256.618 1043.13 257.924 1046.05 259.145C1055.15 262.94 1066.21 265.089 1075.86 266.68C1096.08 270.013 1116.48 271.948 1136.78 274.916C1142.68 275.78 1151.94 277.514 1157.66 275.446C1165 272.791 1174.34 272.227 1180.16 266.544C1190.87 256.084 1197.78 243.764 1200.21 228.985" stroke="black" stroke-width="6" stroke-linecap="round"/>
<path d="M1090.49 124.917C1085.82 129.609 1080.66 132.731 1076.87 138.284C1072.14 145.228 1068.91 152.841 1067.25 161.134C1064.75 173.676 1064.96 186.291 1073.94 196.345C1089.25 213.469 1110.71 219.122 1132.43 211.521C1159.89 201.91 1168.13 168.322 1153.54 144.806C1147.99 135.861 1136.68 126.859 1126.86 123.049C1115.61 118.679 1101.31 121.774 1090.41 125.428" stroke="black" stroke-width="6" stroke-linecap="round"/>
<path d="M1172.27 102.746C1170.23 100.232 1162.37 107.35 1161.64 108.217C1154.15 117.039 1163.84 127.893 1173.29 129.041C1189.11 130.963 1192.36 100.085 1171.42 104.703" stroke="black" stroke-width="6" stroke-linecap="round"/>
<path d="M1072.64 62.1273C1073.22 60.0371 1089.29 63.9618 1090.53 64.0658C1105.54 65.3188 1120.46 66.8535 1135.41 68.7312C1143.92 69.8 1152.62 71.3153 1160.95 73.3979C1168.35 75.2478 1176.66 76.4719 1183.5 79.9741C1188.66 82.6167 1193.53 86.3197 1198.57 89.2641C1203.9 92.3815 1208.82 95.9433 1212.7 100.805C1218.97 108.649 1219.41 120.861 1218.72 130.439C1217.2 151.876 1211.49 172.948 1208 194.101C1206.3 204.447 1202.48 214.505 1202.21 225.077C1202.14 228.028 1202.37 231 1201.89 233.906C1201.71 235.044 1201.15 241.164 1201.71 237.797" stroke="black" stroke-width="16" stroke-linecap="round"/>
<path d="M1082.31 61.444C1076.61 60.7199 1070.46 62.4871 1064.85 63.2969C1058.14 64.2653 1050.11 64.6701 1044.14 68.1558C1028.04 77.5545 1025.95 96.6705 1023.2 113.359C1021.46 123.888 1019.08 134.301 1016.67 144.694C1014.25 155.124 1013.78 165.643 1012.48 176.238C1010.71 190.625 1007.66 205.436 1007.9 219.963" stroke="black" stroke-width="16" stroke-linecap="round"/>
<path d="M1004.21 217.535L1005.09 217.681" stroke="black" stroke-width="16" stroke-linecap="round"/>
<path d="M1007.08 213.908C1006.3 218.651 1008.91 225.441 1011.25 229.423C1015.29 236.298 1019.6 243.995 1026.86 248.036C1039.79 255.239 1053.52 257.087 1067.88 259.456C1088.27 262.817 1108.71 265.901 1129.14 269.1C1143.03 271.274 1155.05 272.039 1168.76 269.153C1174.06 268.036 1178.02 264.31 1181.97 260.856C1184.69 258.472 1188.55 256.598 1190.16 253.199C1192.57 248.108 1195.19 243.401 1197.44 238.206C1199.67 233.058 1200.77 226.907 1201.68 221.396C1202.25 217.922 1203.5 210.962 1202.54 207.876" stroke="black" stroke-width="16" stroke-linecap="round"/>
<path d="M1098.08 123.252C1099.33 125.231 1103.27 123.487 1105.35 123.362C1112.31 122.943 1119.89 124.93 1126.56 126.682C1139.26 130.015 1149.66 144.069 1155.07 155.419C1159.82 165.366 1158.21 179.982 1151.9 189.103C1145.55 198.266 1138.28 209.269 1126.48 211.91C1110.68 215.445 1086.84 212.07 1076.33 198.709C1068.04 188.165 1065.58 172.294 1068.67 159.367C1071.6 147.121 1078.83 135.194 1088.73 127.176C1091.17 125.2 1099.71 116.844 1102.74 122.653" stroke="black" stroke-width="16" stroke-linecap="round"/>
<path d="M1176.06 103.313C1174.38 104.389 1172.86 103.879 1171.08 104.364C1165.14 105.98 1160.28 109.194 1160.42 115.915C1160.59 124.377 1169.06 133.695 1178.07 131.197C1185.65 129.094 1189.3 120.342 1186.72 113.066C1185.83 110.541 1185.7 107.228 1182.87 106.055C1181.21 105.369 1176.66 103.578 1175.32 105.013" stroke="black" stroke-width="16" stroke-linecap="round"/>
<path d="M1694.02 799.215C1694.09 798.431 1693.59 798.236 1692.92 798.094" stroke="black" stroke-width="5" stroke-linecap="round"/>
<path d="M1690.86 799.426C1690.8 800.125 1692.04 801.065 1692.42 801.583C1695.15 805.267 1695.6 810.803 1696.46 815.165C1698.35 824.728 1702.66 835.203 1707.34 843.741C1711.97 852.208 1717.13 860.389 1721.88 868.79C1726.17 876.389 1727.92 885.27 1731.63 893.183C1736.67 903.931 1739.22 915.169 1743.32 926.245C1749.74 943.617 1755.52 961.208 1761.86 978.618C1768.03 995.561 1777.48 1010.99 1783.02 1028.2C1783.62 1030.08 1787.77 1043.21 1788.32 1042.1" stroke="black" stroke-width="5" stroke-linecap="round"/>
<path d="M1744.94 1035.46C1757.95 1038.25 1770.95 1041.04 1783.95 1043.83C1785.17 1044.09 1787.98 1045.37 1788.8 1043.98" stroke="black" stroke-width="5" stroke-linecap="round"/>
<path d="M1641.49 789.727C1644.47 792.79 1646 798.504 1647.56 802.216C1652.52 814.016 1656.29 826.009 1660.07 838.215C1670.02 870.271 1681.95 901.408 1696.86 931.463C1709.08 956.106 1720.11 981.047 1730.82 1006.36C1734.45 1014.94 1738.65 1023.11 1743.44 1031.1C1744.63 1033.1 1747.21 1037.04 1747.79 1038.73" stroke="black" stroke-width="5" stroke-linecap="round"/>
<path d="M1640.64 789.543C1642.61 792.579 1647.85 792.911 1650.96 793.58C1661.5 795.839 1672.41 798.057 1683.1 799.534C1686.36 799.984 1689.55 800.029 1692.8 800.726" stroke="black" stroke-width="5" stroke-linecap="round"/>
<path d="M1595.7 1007.45C1596.42 1007.53 1597.13 1007.01 1597.73 1006.68C1600.74 1005.08 1603.56 1002.61 1606.19 1000.59C1616.79 992.435 1627.44 984.377 1638.14 976.363C1653.46 964.89 1667.56 952.527 1681.48 939.622C1683.31 937.932 1695.59 928.796 1695.06 926.738" stroke="black" stroke-width="5" stroke-linecap="round"/>
<path d="M1738.41 898.33C1716.65 910.835 1779.33 869.086 1798.04 852.368C1806.39 844.91 1814.02 838.461 1823.39 832.397C1824.71 831.548 1829.04 829.409 1829.38 827.791" stroke="black" stroke-width="5" stroke-linecap="round"/>
<path d="M1643.64 793.328C1658.53 796.52 1673.66 799.764 1688.62 802.972" stroke="black" stroke-width="16" stroke-linecap="round"/>
<path d="M1686.91 805.113C1688.21 805.961 1689.04 807.65 1689.7 808.988C1695 819.638 1699.53 830.764 1704.38 841.618C1716.45 868.595 1723.44 896.94 1734.4 924.272C1745.68 952.358 1756.5 981.362 1771.58 1007.69C1776.04 1015.48 1781.08 1022.29 1785.08 1030.38C1785.99 1032.22 1790.22 1042.16 1789.52 1040.39" stroke="black" stroke-width="16" stroke-linecap="round"/>
<path d="M1746.64 1035.59C1747.81 1033.21 1775.4 1040.5 1780.42 1041.58C1783.89 1042.32 1787.14 1043.65 1790.55 1044.38" stroke="black" stroke-width="16" stroke-linecap="round"/>
<path d="M1643.43 791.402C1642.51 797.163 1649.01 804.201 1651.3 808.634C1662.44 830.161 1668.47 853.791 1678.28 875.893C1695.56 914.799 1711.76 954.342 1729.95 992.844C1735.91 1005.47 1739.22 1019.15 1744.29 1031.95" stroke="black" stroke-width="16" stroke-linecap="round"/>
<path d="M1595.73 1005.12C1595.13 1007.88 1598.31 1005.01 1599.39 1004.3C1609.01 997.936 1617.36 989.935 1626.2 982.589C1640.52 970.701 1655.51 960.184 1669.54 947.899C1671.03 946.593 1698.92 927.146 1697.39 925.921" stroke="black" stroke-width="16" stroke-linecap="round"/>
<path d="M1729.78 906.516C1729.61 907.304 1730.42 906.176 1730.56 905.952C1736.93 896.015 1750.66 887.978 1759.97 881.275C1772.75 872.074 1785.61 863.593 1797.8 853.561C1803.29 849.037 1808.71 844.317 1814.58 840.292C1818.25 837.778 1820.98 832.557 1825.02 830.959" stroke="black" stroke-width="16" stroke-linecap="round"/>
<path d="M303.447 497.648C306.931 516.173 309.567 534.824 313.892 553.189" stroke="black" stroke-width="16" stroke-linecap="round"/>
<path d="M303.499 493.218C310.43 497.653 284.825 501.767 282.781 502.225C262.752 506.714 241.955 509.048 222.589 515.903C213.194 519.229 205.349 523.411 197.105 529.1C189.521 534.334 186.76 541.488 181.974 549C170.057 567.703 177.525 598.593 178.972 618.767C179.938 632.225 188.472 671.897 185.978 658.636" stroke="black" stroke-width="16" stroke-linecap="round"/>
<path d="M308.926 555.009C291.836 558.223 269.879 560.978 258.518 575.498C242.831 595.547 253.892 629.307 258.024 651.281" stroke="black" stroke-width="16" stroke-linecap="round"/>
<path d="M257.702 649.57C265.913 654.569 287.837 644.841 296.694 643.123C302.968 641.905 309.258 640.76 315.54 639.579C317.242 639.259 322.915 639.004 321.787 637.519" stroke="black" stroke-width="16" stroke-linecap="round"/>
<path d="M327.236 638.262C324.242 622.34 329.149 670.745 327.528 686.865" stroke="black" stroke-width="16" stroke-linecap="round"/>
<path d="M275.456 692.234C276.835 693.3 277.905 694.216 279.517 695.01" stroke="black" stroke-width="16" stroke-linecap="round"/>
<path d="M272.309 699.019C269.816 701.919 279.117 699.41 280.635 699.125C289.938 697.375 299.741 695.677 308.796 692.846C313.854 691.265 318.582 691.203 323.738 690.233" stroke="black" stroke-width="16" stroke-linecap="round"/>
<path d="M270.228 702.065C271.602 701.342 272.89 700.901 274.34 700.408" stroke="black" stroke-width="16" stroke-linecap="round"/>
<path d="M272.841 697.15C271.476 699.423 272.418 703.469 272.704 705.826C277.568 746.01 286.672 786.146 293.638 826.04C297.318 847.108 301.674 868.005 303.671 889.325C304.168 894.625 303.234 902.021 305.212 906.926" stroke="black" stroke-width="16" stroke-linecap="round"/>
<path d="M241.5 916.252C243.048 921.084 291.321 901.883 302.006 903.99" stroke="black" stroke-width="16" stroke-linecap="round"/>
<path d="M202.513 718.338C197.425 719.97 218.452 797.758 219.712 803.524C227.856 840.798 235.473 878.592 240.645 916.415" stroke="black" stroke-width="16" stroke-linecap="round"/>
<path d="M156.423 722.581C154.371 723.239 164.935 722.251 165.921 722.122C177.152 720.657 188.34 718.359 199.087 714.755C201.991 713.781 204.61 712.758 207.691 712.941" stroke="black" stroke-width="16" stroke-linecap="round"/>
<path d="M139.252 673.613C141.019 683.008 143.951 692.278 146.273 701.537C146.895 704.017 154.56 725.948 152.099 727.817" stroke="black" stroke-width="16" stroke-linecap="round"/>
<path d="M134.819 673.562C150.816 672.035 166.446 666.659 181.754 661.787C185.196 660.692 195.83 658.551 192.281 659.218" stroke="black" stroke-width="16" stroke-linecap="round"/>
<path d="M300.101 498.118C277.291 502.407 254.475 506.497 231.653 510.989C214.802 514.306 193.874 520.604 181.877 533.449C166.463 549.953 168.035 580.62 171.922 601.289C175.402 619.797 185.843 675.32 182.363 656.812" stroke="black" stroke-width="5" stroke-linecap="round"/>
<path d="M301.228 499.603C297.245 500.352 307.338 533.298 308.388 537.931C309.052 540.861 312.708 560.653 311.703 555.308" stroke="black" stroke-width="5" stroke-linecap="round"/>
<path d="M310.576 553.825C290.66 557.57 253.3 558.057 250.473 585.012C248.742 601.509 251.317 621.751 255.735 637.551C256.648 640.819 260.581 656.476 257.12 652.934" stroke="black" stroke-width="5" stroke-linecap="round"/>
<path d="M264.898 644.682C263.677 645.074 263.835 645.747 264.387 646.475" stroke="black" stroke-width="5" stroke-linecap="round"/>
<path d="M261.37 652.982C241.435 656.731 300.79 642.442 321.017 640.918" stroke="black" stroke-width="5" stroke-linecap="round"/>
<path d="M324.448 641.121C319.469 625.591 329.023 706.048 326.01 690.021" stroke="black" stroke-width="5" stroke-linecap="round"/>
<path d="M274.553 700.542C292.032 697.255 309.341 693.152 326.828 689.864" stroke="black" stroke-width="5" stroke-linecap="round"/>
<path d="M270.766 702.953C270.648 720.186 275.133 738.346 277.592 755.292C281.935 785.211 288.032 813.972 295.717 843.155C299.923 859.129 302.073 874.897 303.309 891.297C303.656 895.902 303.968 900.918 306.204 904.936" stroke="black" stroke-width="5" stroke-linecap="round"/>
<path d="M242.153 916.132C260.43 911.827 278.531 909.405 297.034 906.283C298.876 905.972 306.169 905.058 306.715 903.143" stroke="black" stroke-width="5" stroke-linecap="round"/>
<path d="M199.805 717.996C202.856 726.17 204.28 734.777 205.889 743.334C212.273 777.285 217.25 811.506 224.678 845.255C230.327 870.923 235.917 896.502 240.774 922.332" stroke="black" stroke-width="5" stroke-linecap="round"/>
<path d="M153.313 723.344C154.097 725.788 194.014 711.962 201.492 713.436" stroke="black" stroke-width="5" stroke-linecap="round"/>
<path d="M139.618 677.575C142.698 693.956 147.03 711.156 147.376 727.854" stroke="black" stroke-width="5" stroke-linecap="round"/>
<path d="M138.49 676.093C146.688 674.551 195.193 661.902 195.526 663.671" stroke="black" stroke-width="5" stroke-linecap="round"/>
<path d="M598.686 339.98C617.891 362.011 645.156 375.678 664.38 397.246C672.448 406.298 681.269 414.275 690.162 422.532" stroke="black" stroke-width="10" stroke-linecap="round"/>
<path d="M1105.15 310.977C1102.42 334.91 1098.46 358.322 1098.46 382.373" stroke="black" stroke-width="10" stroke-linecap="round"/>
<path d="M433.582 690.27C465.614 702.014 501.899 710.35 536.214 710.35" stroke="black" stroke-width="10" stroke-linecap="round"/>
<path d="M1386.19 618.1C1412.43 591.073 1439.28 564.497 1467.47 539.832" stroke="black" stroke-width="10" stroke-linecap="round"/>
<path d="M1434.36 949.237C1476.7 945.004 1520.84 936.415 1560.79 922.145" stroke="black" stroke-width="10" stroke-linecap="round"/>
<path d="M47.8188 548.867C59.6389 549.322 70.4395 553.768 82.124 553.768" stroke="black" stroke-width="10" stroke-linecap="round"/>
<path d="M96.8262 441.051C106.916 442.172 114.579 453.903 121.33 460.654" stroke="black" stroke-width="10" stroke-linecap="round"/>
<path d="M234.047 392.043C234.047 399.193 236.215 453.585 243.848 445.951" stroke="black" stroke-width="10" stroke-linecap="round"/>
<path d="M194.841 166.609C208.521 166.609 220.861 171.51 234.047 171.51" stroke="black" stroke-width="10" stroke-linecap="round"/>
<path d="M253.649 73.4961C259.484 75.83 287.092 113.185 268.352 88.1983" stroke="black" stroke-width="10" stroke-linecap="round"/>
<path d="M371.268 34.2891C371.268 46.7223 378.917 54.2904 385.97 63.6935" stroke="black" stroke-width="10" stroke-linecap="round"/>
<path d="M876.044 73.4961C877.542 86.9782 894.254 94.2684 905.448 97.9998" stroke="black" stroke-width="10" stroke-linecap="round"/>
<path d="M969.158 19.5898C970.169 31.7234 975.209 42.6421 978.96 53.895" stroke="black" stroke-width="10" stroke-linecap="round"/>
<path d="M1258.3 44.0898C1257.11 54.8186 1248.5 61.7383 1248.5 73.4943" stroke="black" stroke-width="10" stroke-linecap="round"/>
<path d="M1277.9 127.406H1297.51" stroke="black" stroke-width="10" stroke-linecap="round"/>
<path d="M1669.96 191.113C1669.96 203.635 1670.76 211.514 1679.77 220.518" stroke="black" stroke-width="10" stroke-linecap="round"/>
<path d="M1763.08 176.41V200.914" stroke="black" stroke-width="10" stroke-linecap="round"/>
<path d="M1890.5 269.527C1889.48 278.668 1876.55 288.377 1870.89 294.031" stroke="black" stroke-width="10" stroke-linecap="round"/>
<path d="M1949.31 460.654C1940.9 453.087 1929.54 445.869 1919.9 441.051" stroke="black" stroke-width="10" stroke-linecap="round"/>
<path d="M1581.75 759.602C1582.77 769.818 1589.07 779.078 1591.55 789.006" stroke="black" stroke-width="10" stroke-linecap="round"/>
<path d="M1709.17 710.594C1709.92 718.889 1714.07 726.768 1714.07 735.097" stroke="black" stroke-width="10" stroke-linecap="round"/>
<path d="M1865.99 764.5C1865.21 771.512 1862.05 772.348 1856.19 774.301" stroke="black" stroke-width="10" stroke-linecap="round"/>
<path d="M1895.4 887.02H1929.7" stroke="black" stroke-width="10" stroke-linecap="round"/>
</svg>
