<svg width="2297" height="1706" viewBox="0 0 2297 1706" fill="none" xmlns="http://www.w3.org/2000/svg">
<rect width="2297" height="1706" fill="white"/>
<path d="M775.127 649.123C785.667 649.123 791.579 650.459 800.412 656.347" stroke="black" stroke-width="10" stroke-linecap="round"/>
<path d="M865.43 501.025C875.95 504.181 886.522 522.117 894.327 529.922" stroke="black" stroke-width="10" stroke-linecap="round"/>
<path d="M1024.36 381.824C1027.74 383.698 1053.44 446.248 1035.2 414.333" stroke="black" stroke-width="10" stroke-linecap="round"/>
<path d="M1201.36 360.152C1202.32 373.657 1208.58 386.534 1208.58 399.886" stroke="black" stroke-width="10" stroke-linecap="round"/>
<path d="M1327.78 399.885C1323.45 409.095 1309.72 423.99 1309.72 432.394" stroke="black" stroke-width="10" stroke-linecap="round"/>
<path d="M1443.37 511.862C1431.29 511.152 1419.28 509.516 1407.25 508.25" stroke="black" stroke-width="10" stroke-linecap="round"/>
<path d="M1472.27 334.867C1481.28 343.375 1490.08 345.62 1501.17 349.316" stroke="black" stroke-width="10" stroke-linecap="round"/>
<path d="M1548.12 204.83C1549.2 211.28 1568.22 236.783 1558.96 222.891" stroke="black" stroke-width="10" stroke-linecap="round"/>
<path d="M1667.32 186.77C1667.32 190.839 1670.94 208.562 1670.94 204.83" stroke="black" stroke-width="10" stroke-linecap="round"/>
<path d="M1804.58 226.504C1804.14 232.237 1797.36 254.196 1797.36 251.789" stroke="black" stroke-width="10" stroke-linecap="round"/>
<path d="M179 850.383C180.469 857.726 186.926 862.657 193.449 864.831" stroke="black" stroke-width="10" stroke-linecap="round"/>
<path d="M197.061 745.631C200.193 752.941 235.786 787.318 218.733 774.528" stroke="black" stroke-width="10" stroke-linecap="round"/>
<path d="M290.976 680.613C296.874 687.048 301.616 694.106 306.227 701.483C310.744 708.71 293.39 690.252 287.364 684.225" stroke="black" stroke-width="10" stroke-linecap="round"/>
<path d="M431.849 677V705.897" stroke="black" stroke-width="10" stroke-linecap="round"/>
<path d="M560.224 687C560.224 692.889 561.631 721.619 553 708.673" stroke="black" stroke-width="10" stroke-linecap="round"/>
<path d="M1036.96 652.178C1036.96 660.91 1035.24 669.493 1035.6 678.239C1036.26 694.121 1036.45 709.991 1036.84 725.885C1037.29 744.785 1036.76 763.265 1036.36 782.165C1035.98 800.373 1034.61 818.539 1035.22 836.763C1035.44 843.517 1036.82 850.131 1036.96 856.857C1037.08 862.114 1036.92 871.294 1041.98 874.633C1048.15 878.705 1056.2 879.285 1063.12 881.172C1078.21 885.288 1091.57 881.894 1106.64 882.473C1121.81 883.057 1136.83 881.148 1151.84 878.823C1155.6 878.241 1170.4 879.694 1172.38 876.728" stroke="black" stroke-width="14" stroke-linecap="round"/>
<path d="M1035.82 656.178C1037.88 650.827 1039.51 644.781 1042.74 640.021C1047.61 632.834 1058.39 631 1066.29 630.148C1091.86 627.393 1118.56 627.126 1144.29 627.641C1167.71 628.109 1191.13 629.932 1214.5 631.323C1230.71 632.288 1247.15 630.668 1263.29 632.751C1269.88 633.602 1280.77 632.87 1286.21 637.322C1291.01 641.25 1290.55 649.803 1291.51 655.352C1293.36 666.102 1291.8 677.203 1291.8 688.016C1291.8 691.835 1291.75 695.657 1291.8 699.475C1291.81 700.732 1293.02 707.109 1291.8 705.887" stroke="black" stroke-width="14" stroke-linecap="round"/>
<path d="M1292.94 696.746C1292.99 712.84 1294.37 729.111 1293.73 745.186C1293.16 759.542 1291.6 773.802 1290.78 788.134C1289.79 805.371 1289.87 822.742 1290.78 839.971C1291.83 859.921 1285.09 877.218 1263.55 879.713C1238.74 882.585 1214.07 880.413 1189.27 880.157C1169.96 879.958 1150.5 878.585 1131.24 877.3" stroke="black" stroke-width="14" stroke-linecap="round"/>
<path d="M1086.1 695.031C1085.78 714.604 1085.66 733.824 1087.94 753.311C1089.7 768.277 1087.22 783.67 1089.85 798.482C1092 810.59 1095.43 818.903 1106.77 824.416C1116.67 829.231 1129.85 828.61 1140.7 828.733C1154.91 828.893 1168.76 832.507 1182.98 832.733C1191.91 832.874 1200.81 833.875 1209.74 833.875C1218.74 833.875 1231.24 832.572 1238.63 826.416C1246.74 819.656 1243.36 802.492 1244.25 793.181C1245.24 782.741 1247.11 772.499 1247.67 762.009C1248.49 746.957 1247.07 731.872 1248.09 716.839C1248.8 706.296 1251.53 681.137 1237.39 676.303C1228.87 673.391 1217.98 673.21 1209.07 672.621C1192.79 671.543 1176.75 671.034 1160.41 671.034C1135.09 671.034 1091.29 663.395 1087.24 698.46" stroke="black" stroke-width="14" stroke-linecap="round"/>
<path d="M1081.2 560.104C1080.99 573.328 1082.32 586.501 1082.26 599.741C1082.24 604.776 1083.39 619.219 1080.68 621.939" stroke="black" stroke-width="14" stroke-linecap="round"/>
<path d="M1194.83 553.234C1193.94 557.338 1194.46 561.645 1194.57 565.801C1194.83 576.215 1194.9 586.627 1194.71 597.042C1194.54 606.925 1194.83 636.582 1194.83 626.697" stroke="black" stroke-width="14" stroke-linecap="round"/>
<path d="M1138.81 534.736C1139.22 554.601 1139.86 574.614 1139.93 594.457C1139.96 604.293 1138.57 614.204 1138.28 624.054" stroke="black" stroke-width="14" stroke-linecap="round"/>
<path d="M1133.53 484.527C1103.54 494.166 1115.87 539.844 1146.97 532.797C1157.33 530.452 1160.26 518.347 1158.54 509.191C1155.27 491.784 1143.58 488.227 1127.71 488.227" stroke="black" stroke-width="14" stroke-linecap="round"/>
<path d="M1249.27 535.793C1248.37 559.157 1248.78 581.997 1250.09 605.321C1250.45 611.653 1252.9 621.424 1250.33 627.224" stroke="black" stroke-width="14" stroke-linecap="round"/>
<path d="M1249.27 484C1236.61 488.631 1228.14 499.932 1232.47 513.772C1234.87 521.434 1240.69 536.832 1251.88 532.035C1263.56 527.028 1269.9 517.68 1266.12 504.612C1262.87 493.368 1255.97 487.7 1244.51 487.7" stroke="black" stroke-width="14" stroke-linecap="round"/>
<path d="M1311.42 668.024C1323.44 667.401 1335.35 667.502 1347.36 668.024" stroke="black" stroke-width="14" stroke-linecap="round"/>
<path d="M1293.45 666.439C1324.58 667.325 1356.85 667.496 1387.53 667.496" stroke="black" stroke-width="14" stroke-linecap="round"/>
<path d="M1296.62 723.517C1314.42 722.81 1334.12 724.574 1351.06 724.574" stroke="black" stroke-width="14" stroke-linecap="round"/>
<path d="M1368.5 704.491C1359.81 711.505 1352.6 718.835 1354.99 730.799C1358.02 745.915 1377.79 748.062 1390.08 745.949C1399.86 744.268 1403.79 733.568 1404.85 724.692C1406.76 708.624 1390.42 704.676 1378.54 702.377" stroke="black" stroke-width="14" stroke-linecap="round"/>
<path d="M1293.98 782.71C1317.64 782.546 1341.02 782.462 1364.65 782.974C1374.36 783.184 1385.03 783.238 1394.4 783.238" stroke="black" stroke-width="14" stroke-linecap="round"/>
<path d="M1293.98 837.675C1305.97 840.283 1320.11 837.675 1332.33 837.264C1338.18 837.067 1344.24 837.147 1350 837.147" stroke="black" stroke-width="14" stroke-linecap="round"/>
<path d="M1369.56 820.234C1362.28 826.299 1357.78 834.132 1361.34 843.606C1364.91 853.143 1378.2 856.9 1387.17 854.47C1396.49 851.944 1399.96 841.224 1401.03 832.625C1401.47 829.088 1401.59 824.985 1399.97 821.702C1396.28 814.179 1388.71 815.622 1381.71 814.949" stroke="black" stroke-width="14" stroke-linecap="round"/>
<path d="M1030.36 668.447C1006.51 668.447 982.66 668.447 958.837 668.447C956.849 668.447 949.581 668.689 948.972 666.861" stroke="black" stroke-width="14" stroke-linecap="round"/>
<path d="M897.854 670.091C894.454 654.451 908.496 646.856 921.489 643.607C929.705 647.715 937.268 659.907 938.167 669.211C938.937 677.187 931.159 685.11 923.75 687.415C912.61 690.88 900.122 680.526 897.854 670.091Z" stroke="black" stroke-width="14" stroke-linecap="round"/>
<path d="M971.697 723.94C990.266 723.94 1013.02 725.285 1029.83 722.883" stroke="black" stroke-width="14" stroke-linecap="round"/>
<path d="M1035.65 722.883C1037.57 722.935 1037.08 722.653 1036.7 723.412" stroke="black" stroke-width="14" stroke-linecap="round"/>
<path d="M947.386 779.962C975.24 779.369 1003.07 780.49 1030.89 780.49" stroke="black" stroke-width="14" stroke-linecap="round"/>
<path d="M900.878 766.222C899.047 772.564 894.849 781.578 898.352 788.037C901.244 793.368 907.222 797.498 912.974 798.901C923.008 801.348 930.438 796.893 936.464 788.859C944.213 778.527 933.428 769.896 926.892 762.757C918.835 753.957 907.259 765.643 900.349 770.45" stroke="black" stroke-width="14" stroke-linecap="round"/>
<path d="M966.941 837.041C964.778 837.762 964.661 838.073 967 838.098C971.447 838.146 975.939 837.473 980.388 837.364C991.015 837.105 1001.94 837.017 1012.57 837.687C1017.29 837.984 1021.93 837.57 1026.66 837.57" stroke="black" stroke-width="14" stroke-linecap="round"/>
<path d="M1247.89 892.217C1247.89 920.15 1249.75 948.943 1247.89 976.778" stroke="black" stroke-width="14" stroke-linecap="round"/>
<path d="M1194.52 885.346C1195.58 901.958 1195 917.914 1194.52 934.497" stroke="black" stroke-width="14" stroke-linecap="round"/>
<path d="M1189.23 942.953C1184.95 943.488 1179.64 946.181 1176.6 949.383C1164.95 961.686 1176.55 979.722 1190.05 984.118C1203.31 988.436 1211.67 980.569 1213.78 967.793C1215.82 955.445 1211.72 945.333 1198.21 944.539" stroke="black" stroke-width="14" stroke-linecap="round"/>
<path d="M1140.61 887.988C1138.77 911.195 1138.08 934.128 1140.2 957.34C1140.57 961.395 1143.29 970.393 1140.61 973.078" stroke="black" stroke-width="14" stroke-linecap="round"/>
<path d="M1077.72 891.16C1078.54 905.88 1078.28 919.875 1077.72 934.498" stroke="black" stroke-width="14" stroke-linecap="round"/>
<path d="M1077.72 938.725C1072.45 941.439 1067.83 944.928 1065.38 950.704C1060.87 961.354 1061.9 978.832 1075.66 981.416C1087.36 983.612 1105.65 981.83 1106.2 966.559C1106.49 958.533 1102.31 951.487 1096.48 946.3C1090.32 940.825 1083.3 941.456 1075.6 941.896" stroke="black" stroke-width="14" stroke-linecap="round"/>
<path d="M1037.83 645.741C1038.8 674.413 1037.35 702.789 1039.42 731.489C1041.23 756.593 1041.06 781.814 1041.48 806.963C1041.78 824.678 1040.53 844.581 1046.95 861.552C1049.71 868.816 1056.23 872.695 1062.41 876.868C1077.54 887.069 1090.29 887.283 1108.74 886.902C1129 886.485 1149.36 885.239 1169.57 885.126C1190.95 885.006 1212.23 886.63 1233.53 886.854C1246.53 886.991 1262.15 885.796 1273.81 879.412C1286.92 872.229 1294.07 860.023 1294.45 845.276C1295.07 821.146 1293.32 797.274 1292.58 773.163C1291.79 747.563 1290.18 721.961 1290.18 696.345C1290.18 679.394 1292.89 655.665 1284.9 640.172C1279.37 629.459 1266.39 626.729 1255.66 626.729C1235.05 626.729 1214.15 625.56 1193.58 626.921C1159.89 629.15 1126.8 633.953 1093.09 635.419C1077.92 636.078 1053.02 636.047 1041.29 646.605" stroke="black" stroke-width="7" stroke-linecap="round"/>
<path d="M1085.36 695C1085.36 717.995 1084.58 740.983 1087.19 763.897C1088.31 773.8 1089.84 783.652 1090.36 793.616C1090.74 801.064 1089.77 809.499 1094.2 815.989C1103.52 829.68 1131.89 831.249 1146.34 830.585C1169.3 829.529 1192.13 824.469 1215.23 825.975C1225.22 826.627 1233.85 826.594 1239.67 817.525C1243.54 811.492 1245.44 800.504 1245.91 793.424C1246.79 780.302 1244.31 768.036 1243.18 755.111C1242.37 745.912 1244.38 736.159 1245.05 726.976C1246.65 705.015 1244.35 679.891 1219.22 674.308C1191.67 668.186 1159.89 673.518 1132.27 677.236C1124.27 678.313 1116.34 678.158 1108.31 679.445C1094.44 681.67 1091.71 681.07 1090.55 696.729" stroke="black" stroke-width="7" stroke-linecap="round"/>
<path d="M1075.86 555C1075 580.613 1077.03 606.293 1077.58 631.914" stroke="black" stroke-width="7" stroke-linecap="round"/>
<path d="M1135.49 539.444C1135.49 510.343 1137.69 597.895 1133.76 626.729" stroke="black" stroke-width="7" stroke-linecap="round"/>
<path d="M1131.17 486.729C1127.3 486.729 1121.87 489.783 1119.07 492.154C1101.3 507.188 1114.82 525.636 1133.95 530.035C1148 533.265 1155.73 521.326 1155.22 508.526C1154.72 496.061 1143.14 491.37 1132.89 489.321" stroke="black" stroke-width="7" stroke-linecap="round"/>
<path d="M1188.2 567.964C1188.51 567.081 1191.99 560.475 1191.47 563.355C1188.37 580.37 1196.17 598.781 1193.39 615.495" stroke="black" stroke-width="7" stroke-linecap="round"/>
<path d="M1244.38 535.988C1244.38 563.317 1247.83 590.686 1247.83 618.088" stroke="black" stroke-width="7" stroke-linecap="round"/>
<path d="M1240.06 485C1230.71 489.538 1222.69 497.77 1224.64 509.15C1227.38 525.116 1241.19 538.309 1258.16 532.435C1268.45 528.871 1272.38 520.109 1270.11 509.582C1266.38 492.329 1252.8 488.741 1237.46 485.864" stroke="black" stroke-width="7" stroke-linecap="round"/>
<path d="M1291.91 666.483C1285.61 669.817 1305.96 669.742 1313.08 669.412C1334.99 668.396 1357.39 668.345 1379.19 665.619" stroke="black" stroke-width="7" stroke-linecap="round"/>
<path d="M1293.64 725.248C1308.34 727.228 1324.3 725.248 1339.15 725.248C1342.14 725.248 1357.46 724.992 1356.72 723.52" stroke="black" stroke-width="7" stroke-linecap="round"/>
<path d="M1373.14 701.914C1367.06 707.765 1359.81 712.222 1359.46 721.791C1359.01 734.046 1369.39 748.772 1382.55 747.237C1391.56 746.186 1404.45 739.803 1405.41 729.569C1405.87 724.629 1403.58 718.217 1401.47 713.821C1395.44 701.227 1383.62 703.503 1372.28 702.778" stroke="black" stroke-width="7" stroke-linecap="round"/>
<path d="M1297.96 785.742C1314.57 779.701 1336.38 781.968 1353.89 781.421C1364.78 781.081 1375.32 780.847 1386.11 782.285" stroke="black" stroke-width="7" stroke-linecap="round"/>
<path d="M1297.09 836.731C1297.64 841.088 1342.34 835.867 1349.81 835.867" stroke="black" stroke-width="7" stroke-linecap="round"/>
<path d="M1375.74 816.854C1348.23 816.854 1345.57 859.613 1374.2 857.568C1386.64 856.679 1400.44 851.487 1399.36 836.731C1398.2 820.87 1385.45 816.899 1372.28 815.99" stroke="black" stroke-width="7" stroke-linecap="round"/>
<path d="M1250.43 886.855C1256.85 887.659 1245.09 960.883 1250.43 971.547" stroke="black" stroke-width="7" stroke-linecap="round"/>
<path d="M1192.52 889.447C1192.52 906.999 1191.97 923.961 1189.93 941.3" stroke="black" stroke-width="7" stroke-linecap="round"/>
<path d="M1193.39 943.027C1171.37 947.221 1166.02 978.13 1190.7 984.413C1197.02 986.023 1203.71 983.871 1208.08 978.988C1214.4 971.914 1209.65 963.438 1205.54 956.615C1199.43 946.492 1194.07 942.202 1182.15 944.756" stroke="black" stroke-width="7" stroke-linecap="round"/>
<path d="M1140.67 888.583C1138.58 885.326 1138.08 902.026 1138.08 902.506C1138.08 922.538 1138.76 942.547 1139.28 962.569C1139.37 966.031 1140.03 973.476 1138.94 976.732" stroke="black" stroke-width="7" stroke-linecap="round"/>
<path d="M1078.45 892.904C1074.02 907.86 1081.55 924.944 1078.45 940.436" stroke="black" stroke-width="7" stroke-linecap="round"/>
<path d="M1073.26 945.62C1065.62 937.973 1037.13 985.818 1073.41 985.133C1082.67 984.958 1096.49 981.016 1099.91 970.97C1105.58 954.321 1083.61 947.885 1072.4 943.027" stroke="black" stroke-width="7" stroke-linecap="round"/>
<path d="M964.374 837.596C954.252 837.596 961.468 840.402 966.967 840.14C988.263 839.126 1009.6 837.596 1030.92 837.596" stroke="black" stroke-width="7" stroke-linecap="round"/>
<path d="M941.905 783.15C947.738 785.606 956.073 783.446 961.974 783.246C975.403 782.791 988.795 783.964 1002.21 782.958C1013.42 782.117 1024.97 780.573 1036.1 782.286" stroke="black" stroke-width="7" stroke-linecap="round"/>
<path d="M919.436 759.816C899.41 759.816 883.157 788.347 903.064 802.21C912.42 808.726 923.702 805.195 930.478 796.977C939.738 785.747 930.321 772.255 923.757 762.409" stroke="black" stroke-width="7" stroke-linecap="round"/>
<path d="M963.51 725.248C941.784 727.964 1007.72 721.819 1029.19 726.113" stroke="black" stroke-width="7" stroke-linecap="round"/>
<path d="M939.312 669.939C940.459 675.103 990.407 669.109 997.502 669.075C1007.87 669.026 1018.32 668.711 1028.66 669.507C1031.46 669.723 1038.18 670.674 1031.78 669.075" stroke="black" stroke-width="7" stroke-linecap="round"/>
<path d="M911.658 645.742C888.67 645.742 888.249 682.925 910.313 686.839C920.887 688.715 942.309 683.055 938.832 668.595C934.939 652.403 922.699 638.42 905.608 640.556" stroke="black" stroke-width="7" stroke-linecap="round"/>
<path d="M1555.45 352.718C1568.52 342.284 1584.6 335.315 1599.9 328.847C1632.77 314.953 1671.55 304.98 1707.27 311.946C1734.17 317.192 1759.09 328.278 1782.71 342.033C1802.03 353.283 1817.21 370.113 1832.45 386.19" stroke="black" stroke-width="10" stroke-linecap="round"/>
<path d="M1586.64 402.274C1604.67 390.453 1621.87 379.005 1643.1 373.66C1670.92 366.655 1706.71 365.512 1733.95 375.731C1758.96 385.111 1780.48 403.078 1793.76 426.063" stroke="black" stroke-width="10" stroke-linecap="round"/>
<path d="M1624.31 449.436C1635.49 441.99 1645.66 432.493 1659.03 429.388C1674.48 425.801 1689.16 424.759 1704.55 428.947C1715.22 431.848 1727.91 435.242 1735.38 444.014C1739.12 448.417 1742.75 453.316 1745.98 458.065" stroke="black" stroke-width="10" stroke-linecap="round"/>
<path d="M1677.58 479.671C1671.69 480.854 1665.93 482.854 1662.99 488.898C1655.87 503.548 1670.42 519.518 1686.26 514.602C1697.65 511.067 1700.83 503.626 1697.05 492.293C1693.98 483.07 1691.43 477.322 1681.54 477.624" stroke="black" stroke-width="10" stroke-linecap="round"/>
<path d="M1563.42 351.951C1576.37 344.724 1589.3 337.295 1602.65 330.809C1620.2 322.282 1639.67 317.057 1658.69 312.893C1685.69 306.986 1713.99 310.874 1740.42 317.678C1753.97 321.166 1767.84 325.895 1780.1 332.687C1789.62 337.968 1797.58 346.425 1806.02 353.268C1816.81 362.026 1824.5 372.139 1832.65 383.219" stroke="black" stroke-width="18" stroke-linecap="round"/>
<path d="M1597.36 404.187C1629.3 371.224 1688.8 363.507 1730.34 378.571C1752.15 386.478 1772.82 402.445 1784.4 422.801" stroke="black" stroke-width="18" stroke-linecap="round"/>
<path d="M1628.84 452.678C1647.58 433.446 1680.76 429.403 1705.65 435.772C1721.48 439.822 1732.74 450.534 1744.38 460.989" stroke="black" stroke-width="18" stroke-linecap="round"/>
<path d="M1683.17 482.391C1683.13 479.077 1672.53 484.44 1672.21 484.69C1659.51 494.601 1666.07 511.836 1680.91 514.62C1690.78 516.472 1699.37 510.078 1700.51 500.348C1702.06 487.12 1698.87 482.417 1686.21 481.002" stroke="black" stroke-width="18" stroke-linecap="round"/>
<path d="M1845.11 1341.74C1832.84 1341.74 1820.88 1338.34 1809.13 1334.98C1790.02 1329.51 1770.82 1320.04 1753.75 1309.9C1740.16 1301.82 1731.69 1289.79 1724.07 1276.35" stroke="black" stroke-width="6" stroke-linecap="round"/>
<path d="M1957.93 1287.68C1954.55 1287.68 1953.68 1287.4 1950.43 1285.52C1936 1277.18 1918.81 1268.87 1902.43 1265.27C1856.17 1255.09 1805.06 1256.8 1759.98 1271.53C1750.38 1274.67 1738.64 1282.45 1733.93 1291.86" stroke="black" stroke-width="6" stroke-linecap="round"/>
<path d="M1991.13 1191.16C1975.33 1191.16 1959.54 1190.2 1943.75 1189.92C1910.21 1189.34 1876.72 1191.09 1843.19 1191.16C1793.24 1191.26 1743.31 1193.94 1693.39 1193.94" stroke="black" stroke-width="6" stroke-linecap="round"/>
<path d="M1722.97 1096.57C1731.29 1109.18 1748.42 1114.35 1762.47 1117.44C1791.14 1123.76 1819.87 1125.67 1849.2 1125.02C1876.39 1124.41 1902.89 1116.91 1928.38 1108.01C1935.68 1105.46 1950.22 1101.9 1953.93 1094.49" stroke="black" stroke-width="6" stroke-linecap="round"/>
<path d="M1844.34 1036.42C1845.45 1105.88 1843.48 1175.31 1843.48 1244.78C1843.48 1274.83 1848.41 1305.6 1843.48 1335.52" stroke="black" stroke-width="6" stroke-linecap="round"/>
<path d="M1841.87 1036.28C1841.68 1037.79 1837.19 1038.02 1836 1038.36C1815.36 1044.3 1794.61 1048.16 1774.86 1056.91C1740 1072.36 1712.43 1098.73 1697.8 1134.67C1688.07 1158.56 1687.51 1188.39 1691.3 1213.55C1698.4 1260.69 1738.94 1305.43 1782.7 1322.26C1798.16 1328.21 1814.51 1329.33 1830.78 1331.54C1831.41 1331.63 1843.13 1333.59 1839.78 1334.71" stroke="black" stroke-width="6" stroke-linecap="round"/>
<path d="M1846.04 1036.97C1848.05 1034.4 1841.2 1037.3 1840.79 1037.51C1826.29 1044.87 1811.47 1052.83 1802.45 1066.81C1780.98 1100.1 1769.99 1139.73 1768.83 1179.35C1768.15 1202.48 1767.97 1226.06 1774.16 1248.53C1778.91 1265.76 1785.14 1282.83 1792.17 1299.27C1800.47 1318.69 1813.79 1330.73 1833.52 1338.19C1842.38 1341.53 1849.73 1343.55 1858.41 1338.42C1865.63 1334.15 1874.95 1329.27 1881.25 1323.81C1896.03 1311 1901 1287.77 1905.87 1269.59C1909.51 1256.01 1913.1 1241.95 1915.18 1228.04C1920.22 1194.31 1917.36 1161.86 1909.35 1128.72C1906.74 1117.96 1904.19 1107.13 1900.15 1096.8C1895.67 1085.36 1888.12 1077.01 1880.05 1067.97C1875.78 1063.18 1847.6 1030.55 1839.09 1039.06" stroke="black" stroke-width="6" stroke-linecap="round"/>
<path d="M1847.43 1036.97C1850.99 1036.97 1854.48 1037.84 1857.87 1038.9C1877.47 1045.05 1899.94 1051 1918.12 1060.74C1937.42 1071.09 1955.04 1081.7 1966.7 1100.74C1974.37 1113.27 1980.05 1126.7 1984.48 1140.7C1990.22 1158.88 1996.47 1178.38 1996.15 1197.67C1995.57 1232.85 1986.1 1268.24 1959.47 1292.89C1939.84 1311.07 1913.27 1321.52 1888.25 1330.19C1872.37 1335.68 1854.35 1340.15 1837.7 1341.66" stroke="black" stroke-width="6" stroke-linecap="round"/>
<path d="M1807.22 1343.48C1793.93 1343.48 1833.66 1346.61 1846.68 1349.3" stroke="black" stroke-width="7" stroke-linecap="round"/>
<path d="M1841.51 1038.17C1841.26 1036.24 1832.26 1038.98 1831.59 1039.11C1802.86 1044.53 1783.03 1062.72 1774.99 1091.43C1770.6 1107.12 1769.88 1123.83 1768.38 1139.98C1765.44 1171.53 1762.11 1204.16 1769.35 1235.39C1773.73 1254.31 1779.76 1273.59 1786.52 1291.81C1792.69 1308.41 1801.67 1323.4 1815.45 1334.78C1822.43 1340.55 1830.89 1343.62 1840.03 1343.27C1856.49 1342.63 1871.33 1323.07 1879.02 1310.06C1894.71 1283.53 1903.88 1250.44 1908.49 1220.15C1911.48 1200.47 1912.77 1179.96 1910.79 1160.14C1908 1132.16 1899.91 1100.4 1885.45 1075.94C1878.57 1064.3 1869.01 1054.22 1857.89 1046.55C1852.05 1042.52 1846.17 1042 1839.57 1040.11" stroke="black" stroke-width="13" stroke-linecap="round"/>
<path d="M1980.57 1188.24C1980 1190.52 1968.87 1189.53 1968.64 1189.53C1921.74 1190.17 1875.19 1195.26 1828.21 1194.78C1787.59 1194.36 1747.38 1191.3 1706.89 1189.46C1701.79 1189.23 1694.48 1188.29 1689.5 1189.53" stroke="black" stroke-width="13" stroke-linecap="round"/>
<path d="M1836.33 1041.41C1834.83 1041.59 1835.39 1049.22 1835.39 1049.24C1834.78 1084.56 1836.43 1119.87 1836.9 1155.18C1837.74 1216.9 1835.9 1278.56 1838.27 1340.25" stroke="black" stroke-width="13" stroke-linecap="round"/>
<path d="M1950.82 1095.09C1951.45 1095.09 1950.47 1096.74 1950.03 1097.18C1948.87 1098.34 1947.54 1099 1946.08 1099.73C1934.84 1105.35 1923.34 1110.36 1911.37 1114.21C1870.89 1127.22 1826.65 1127.41 1784.94 1120.97C1758.01 1116.81 1734.45 1108.61 1717.96 1086.04" stroke="black" stroke-width="13" stroke-linecap="round"/>
<path d="M1953.41 1286.56C1951.21 1286.28 1943.63 1280.45 1941.95 1279.55C1917.43 1266.43 1890.44 1260.63 1863 1257.59C1830.18 1253.96 1796.48 1255.95 1764.46 1264.64C1748.69 1268.91 1737.07 1275.44 1724.43 1285.26" stroke="black" stroke-width="13" stroke-linecap="round"/>
<path d="M1831.16 1038.17C1800.1 1038.17 1767.84 1047.51 1742.72 1066.17C1718.67 1084.03 1701.97 1112.86 1693.45 1141.16C1684.19 1171.91 1678.35 1205.81 1687.92 1237.11C1693.34 1254.86 1704.92 1270.49 1714.72 1286.09C1723.95 1300.76 1735.49 1315.07 1751.67 1322.42C1772.17 1331.74 1794.48 1339.2 1816.21 1345.13C1822.88 1346.96 1829.89 1349.32 1835.68 1353.18" stroke="black" stroke-width="13" stroke-linecap="round"/>
<path d="M1836.33 1036.23C1837.48 1037.27 1838.68 1037.91 1840.25 1038.1C1852.04 1039.49 1863.81 1039.62 1875.47 1042.34C1886.96 1045.02 1895.59 1050.86 1905.33 1057.07C1917.44 1064.8 1931.14 1070.12 1941.84 1079.93C1973.37 1108.84 1989.57 1156.37 1988.02 1198.59C1987.31 1217.79 1983.1 1235.49 1973.75 1252.49C1960.76 1276.11 1940.61 1300.67 1918.16 1316.2C1904.88 1325.39 1888.89 1335.12 1873.35 1339.81C1857.46 1344.61 1839.75 1343.82 1823.39 1342.83" stroke="black" stroke-width="13" stroke-linecap="round"/>
<path d="M1657 1014.16C1662.82 1019.98 1669.45 1024.79 1673.06 1032" stroke="black" stroke-width="20" stroke-linecap="round"/>
<path d="M1828.3 941C1828.3 949.199 1829.3 957.475 1830.48 965.584C1832.54 979.775 1825.98 957.239 1824.73 953.49" stroke="black" stroke-width="20" stroke-linecap="round"/>
<path d="M2021 994.531C2017.08 1003.02 2004.69 1010.09 1997.8 1015.94" stroke="black" stroke-width="20" stroke-linecap="round"/>
<path d="M242.786 916.216C257.458 913.753 271.651 909.594 285.705 904.766C316.084 894.329 347.177 887.504 378.357 879.795C403.958 873.466 429.835 868.74 455.532 862.843C500.762 852.463 545.983 842.086 591.219 831.705" stroke="black" stroke-width="15" stroke-linecap="round"/>
<path d="M273.201 827.328C263.565 853.369 258.409 880.782 247.287 906.082" stroke="black" stroke-width="15" stroke-linecap="round"/>
<path d="M269.705 831.92C329.286 816.456 387.813 797.782 448.263 785.635C474.398 780.383 500.714 776.082 526.796 770.562C528.847 770.128 547.922 766.165 547.142 765.218" stroke="black" stroke-width="15" stroke-linecap="round"/>
<path d="M544.591 767.321C545.178 766.7 545.913 768.412 546.5 769.032C551.251 774.05 555.88 779.147 560.459 784.325C574.844 800.593 589.418 816.691 604.293 832.495" stroke="black" stroke-width="15" stroke-linecap="round"/>
<path d="M254.928 909.635C256.215 927.876 260.422 1004.34 293.057 997.202C320.527 991.196 348.039 985.474 375.564 979.616C411.548 971.959 447.023 960.118 483.547 955.173C509.507 951.657 535.078 946.553 560.338 939.488C570.662 936.601 580.639 932.723 591.099 930.322" stroke="black" stroke-width="15" stroke-linecap="round"/>
<path d="M605.014 832.329C603.776 836.424 606.366 843.36 607.237 847.156C610.534 861.522 614.039 875.73 616.782 890.217C618.288 898.169 619.628 905.265 615.677 912.759C609.425 924.619 594.657 927.636 583.009 931.421" stroke="black" stroke-width="15" stroke-linecap="round"/>
<path d="M290.937 1003.76C270.149 1009.58 282.087 1031.25 286.04 1046.68C289.655 1060.79 291.294 1076.73 297.832 1089.98C301.526 1097.47 311.88 1093.75 318.089 1092.33" stroke="black" stroke-width="15" stroke-linecap="round"/>
<path d="M596.367 926.839C605.827 929.135 617.231 917.591 626.596 924.537C637.443 932.582 640.341 952.411 643.495 964.393C645.771 973.038 647.733 981.804 649.662 990.533C650.794 995.655 653.054 1004.39 650.23 1009.53C646.041 1017.16 623.11 1019.08 616.419 1020.83" stroke="black" stroke-width="15" stroke-linecap="round"/>
<path d="M318.809 1092.16C391.566 1072.1 466.067 1057.61 539.626 1040.73C563.957 1035.14 588.384 1029.99 612.924 1025.42" stroke="black" stroke-width="15" stroke-linecap="round"/>
<path d="M318.419 1093.77L317.699 1093.94" stroke="black" stroke-width="15" stroke-linecap="round"/>
<path d="M316.093 1093.55C296.569 1099.44 301.291 1115.01 306.291 1130.51C309.289 1139.81 312.192 1149.05 314.573 1158.53C316.141 1164.77 316.944 1173.36 320.612 1178.97C324.353 1184.69 333.874 1183.06 339.642 1182.94" stroke="black" stroke-width="15" stroke-linecap="round"/>
<path d="M619.467 1020.89C639.383 1019.64 654.962 1025.75 658.588 1046.5C661.105 1060.9 664.081 1075.55 665.923 1090.03C667.939 1105.88 659.146 1110.2 646.831 1116.99" stroke="black" stroke-width="15" stroke-linecap="round"/>
<path d="M342.134 1183.89C394.371 1167.02 449.251 1157.71 502.909 1146.4C549.389 1136.61 596.024 1127.9 642.343 1117.27" stroke="black" stroke-width="15" stroke-linecap="round"/>
<path d="M366.96 1179.71C361.672 1176.61 363.316 1185.82 363.717 1188.71C364.421 1193.77 365.878 1198.49 367.008 1203.42C367.698 1206.42 380.367 1202.31 382.099 1201.98C388.676 1200.73 408.244 1197.73 401.579 1197.08C396.609 1196.6 394.502 1176.5 391.846 1172.48" stroke="black" stroke-width="15" stroke-linecap="round"/>
<path d="M596.339 1131.62C594.687 1129.52 597.165 1141.71 597.485 1143.4C599.126 1152.07 600.136 1150 610.608 1147.89C619.103 1146.18 627.686 1143.67 636.346 1142.91C636.869 1142.87 639.932 1143.17 639.871 1143.03C637.03 1136.41 636.361 1129.01 635.079 1121.97" stroke="black" stroke-width="15" stroke-linecap="round"/>
<path d="M341.783 1017.11C340.723 1015.03 336.311 1021.03 335.904 1021.79C333.826 1025.66 331.182 1031.25 332.726 1035.67C335.464 1043.5 343.96 1052.84 353.052 1051.9C360.953 1051.09 368.557 1042.52 368.417 1034.76C368.133 1019.05 357.637 1015.91 344.169 1014.29" stroke="black" stroke-width="15" stroke-linecap="round"/>
<path d="M315.908 927.496C311.048 925.154 307.337 930.594 305.058 934.199C301.463 939.889 298.952 945.85 302.876 952.228C307.846 960.308 320.024 967.706 329.622 963.575C341.094 958.639 341.922 944.526 336.45 935.127C330.176 924.349 319.524 925.454 309.423 928.984" stroke="black" stroke-width="15" stroke-linecap="round"/>
<path d="M357.903 1110.49C352.099 1114.65 346.874 1119.07 346.399 1126.83C345.723 1137.85 352.171 1152.24 365.565 1147.92C379.988 1143.26 394.761 1127.69 382.782 1113.88C375.504 1105.5 364.9 1106.89 355.411 1109.55" stroke="black" stroke-width="15" stroke-linecap="round"/>
<path d="M478.495 902.319C477.021 900.3 477.395 902.374 477.829 903.82C480.465 912.617 483.54 921.355 486.384 930.087" stroke="black" stroke-width="15" stroke-linecap="round"/>
<path d="M513.963 894.936C515.588 887.469 518.1 909.657 519.809 917.105" stroke="black" stroke-width="15" stroke-linecap="round"/>
<path d="M559.187 883.8C556.978 883.815 560.798 906.615 561.041 908.402" stroke="black" stroke-width="15" stroke-linecap="round"/>
<path d="M498.832 990.936C501.038 997.5 502.927 1004.14 504.902 1010.78" stroke="black" stroke-width="15" stroke-linecap="round"/>
<path d="M541.28 984.227C542.719 990.499 543.78 996.785 544.858 1003.12" stroke="black" stroke-width="15" stroke-linecap="round"/>
<path d="M581.732 978.736C578.947 972.711 583.11 991.35 583.763 994.196" stroke="black" stroke-width="15" stroke-linecap="round"/>
<path d="M515.731 1081.1C517.508 1088.54 519.569 1095.89 521.577 1103.27" stroke="black" stroke-width="15" stroke-linecap="round"/>
<path d="M561.841 1070.52C561.924 1077.11 564.12 1083.75 565.585 1090.14" stroke="black" stroke-width="15" stroke-linecap="round"/>
<path d="M597.144 1062.42C599.796 1070.18 602.63 1077.84 605.482 1085.53" stroke="black" stroke-width="15" stroke-linecap="round"/>
<path d="M257.223 913.443C265.278 910.485 273.965 909.94 282.37 908.458C298.843 905.555 315.114 901.337 331.412 897.597C383.462 885.652 436.479 875.557 487.762 860.504C525.55 849.412 563.83 843.67 602.097 834.888" stroke="black" stroke-width="4" stroke-linecap="round"/>
<path d="M258.858 915.427C260.48 928.743 262.213 941.983 265.266 955.066C267.483 964.559 269.988 976.72 276.516 984.086C285.226 993.916 294.006 998.975 306.39 995.982C314.596 993.999 322.38 990.642 330.415 988.108" stroke="black" stroke-width="4" stroke-linecap="round"/>
<path d="M605.589 834.677C605.147 837.366 605.761 840.018 606.116 842.687C607.965 856.603 611.323 870.356 612.967 884.256C613.779 891.125 615.058 900.531 611.675 906.91C603.805 921.752 586.579 926.652 571.374 929.862" stroke="black" stroke-width="4" stroke-linecap="round"/>
<path d="M298.51 993.069C300.352 991.909 303.051 991.956 305.112 991.554C321.969 988.273 338.837 985.201 355.751 982.228C405.896 973.415 454.358 956.939 504.144 946.6C520.264 943.253 536.647 941.37 552.714 937.683C557.837 936.507 563.921 935.688 568.655 933.435" stroke="black" stroke-width="4" stroke-linecap="round"/>
<path d="M298.85 997.124C296.351 997.544 294.2 997.977 291.653 998.906C287.244 1000.52 285.812 1003.16 286.1 1007.85C287 1022.5 292.886 1037.36 296.743 1051.37C298.616 1058.17 301.071 1065.09 302.341 1072.05C302.876 1074.98 303.244 1077.75 305.066 1080.21C310.99 1088.2 323.127 1084.83 331.075 1083.55" stroke="black" stroke-width="4" stroke-linecap="round"/>
<path d="M574.95 932.58C581.322 929.884 588.13 928.284 594.823 926.61C603.42 924.46 617.91 918.663 626.407 924.247C633.08 928.632 633.909 940.175 635.403 947.162C637.502 956.978 639.842 966.878 641.479 976.78C644.071 992.467 645.712 1011.52 629.697 1020.72C617.644 1027.65 602.373 1029.07 589.311 1033.73" stroke="black" stroke-width="4" stroke-linecap="round"/>
<path d="M330.432 1080.75C326.124 1086.05 334.258 1083.13 337.205 1082.4C386.584 1070.18 436.205 1058.51 485.906 1047.69C518.401 1040.61 550.892 1033.87 583.629 1028.12C591.888 1026.66 599.824 1024.19 608.204 1023.49" stroke="black" stroke-width="4" stroke-linecap="round"/>
<path d="M318.614 1085.82C319.52 1085.61 316.163 1086.38 315.874 1086.45C311.02 1087.56 308.191 1092.07 307.295 1096.78C304.471 1111.61 313.195 1129.89 317.04 1143.81C318.909 1150.58 321.02 1157.23 323.285 1163.88C325.407 1170.12 327.198 1179.35 333.32 1183.18C336.963 1185.47 342.458 1184.3 346.4 1183.76C355.484 1182.5 364.419 1179.75 373.336 1177.71" stroke="black" stroke-width="4" stroke-linecap="round"/>
<path d="M605.493 1019.39C604.345 1018.12 616.262 1016.59 616.322 1016.58C624.363 1015.08 643.325 1006.85 650.376 1013.55C659.656 1022.38 659.33 1037.67 661.069 1049.29C662.95 1061.86 668.742 1077.46 666.257 1090.32C664.697 1098.4 657.303 1104.09 650.018 1107.13C632.827 1114.3 613.321 1112.97 596.274 1120.64" stroke="black" stroke-width="4" stroke-linecap="round"/>
<path d="M370.662 1178.91C408.926 1169.54 446.358 1156.84 484.64 1147.31C503.975 1142.5 523.355 1137.97 542.776 1133.51C562.264 1129.04 581.745 1124.57 601.23 1120.09C603.959 1119.47 612.072 1116.14 614.469 1117.65" stroke="black" stroke-width="4" stroke-linecap="round"/>
<path d="M360.994 1188.21L361.426 1187.52" stroke="black" stroke-width="4" stroke-linecap="round"/>
<path d="M365.221 1186.06C367.744 1190.63 369.18 1196.12 371.195 1200.95C373.729 1207.02 377.637 1203.24 384.118 1201.26C387.647 1200.18 407.149 1197.67 405.324 1191.67C403.86 1186.86 401.534 1182.3 400.408 1177.39" stroke="black" stroke-width="4" stroke-linecap="round"/>
<path d="M599.463 1121.68C600.543 1126.98 601.221 1151.19 607.761 1148.99C612.426 1147.41 617.282 1146.18 622.076 1145.08C625.267 1144.35 630.419 1144.49 633.208 1142.59C637.337 1139.78 628.848 1122.66 627.141 1118.87" stroke="black" stroke-width="4" stroke-linecap="round"/>
<path d="M254.64 909.904C253.939 897.952 257.415 885.058 261.74 873.984C264.676 866.465 266.481 859.475 268.729 851.728C271.373 842.615 274.087 831.349 281.557 824.918C288.724 818.748 297.716 817.192 306.534 814.334C340.501 803.327 375.987 797.847 410.223 787.753C430.789 781.689 451.518 777.694 472.569 773.871C490.449 770.624 508.973 766.823 527.163 766.063C532.771 765.829 538.477 766.014 543.505 768.705C546.838 770.489 548.933 773.219 551.694 775.677C561.828 784.7 571.897 793.759 581.328 803.528C589.58 812.074 613.172 838.798 605.12 830.063" stroke="black" stroke-width="4" stroke-linecap="round"/>
<path d="M1055.77 1297.76C1044.15 1305.77 968.023 1337.08 967.643 1347.43C966.812 1370.06 1008.72 1406.45 1021.36 1422.07" stroke="black" stroke-width="16" stroke-linecap="round"/>
<path d="M1160.14 1318.19C1130.31 1351.09 1098.71 1380.39 1066.42 1410.73" stroke="black" stroke-width="16" stroke-linecap="round"/>
<path d="M1216.44 1326.69C1229.53 1344.51 1277.95 1384.8 1274.7 1406.7C1271.45 1428.66 1215.16 1450.48 1198.07 1459.18" stroke="black" stroke-width="16" stroke-linecap="round"/>
<path d="M1044.37 1292.85C1036.4 1300.46 962.841 1350.77 965.473 1359.73C972.41 1383.36 1005.79 1404.5 1024.99 1417.59" stroke="black" stroke-width="6" stroke-linecap="round"/>
<path d="M1134.67 1326.63C1113.07 1355.32 1089.88 1382.45 1065.65 1408.89" stroke="black" stroke-width="6" stroke-linecap="round"/>
<path d="M1201.6 1323.43C1216.88 1351 1248.92 1368.2 1261.45 1396.75C1272.78 1422.55 1216.1 1439.15 1200.16 1446.64" stroke="black" stroke-width="6" stroke-linecap="round"/>
<path d="M939.855 1191.01C940.394 1201.25 942.902 1211.3 944.904 1221.31" stroke="black" stroke-width="11" stroke-linecap="round"/>
<path d="M1045.89 1155.66C1046.43 1165.9 1048.94 1175.95 1050.94 1185.96" stroke="black" stroke-width="11" stroke-linecap="round"/>
<path d="M1182.23 1135.46C1181.28 1145.83 1177.18 1155.24 1177.18 1165.76" stroke="black" stroke-width="11" stroke-linecap="round"/>
<path d="M1298.36 1196.06C1295.51 1205.58 1286.27 1207.97 1278.17 1211.21" stroke="black" stroke-width="11" stroke-linecap="round"/>
<path d="M1384.2 1302.1C1367.08 1302.1 1350.65 1304.89 1333.71 1307.15" stroke="black" stroke-width="11" stroke-linecap="round"/>
</svg>
